<svg width="132" height="92" viewBox="0 0 132 92" fill="none" xmlns="http://www.w3.org/2000/svg">
<path d="M20.3158 21.7553C20.0298 21.7366 19.7617 21.6098 19.5659 21.4007C19.37 21.1916 19.261 20.9158 19.261 20.6292C19.261 20.3427 19.37 20.0669 19.5659 19.8578C19.7617 19.6486 20.0298 19.5218 20.3158 19.5031C23.0744 19.5031 25.3989 15.5533 25.3989 10.8752C25.4177 10.5893 25.5445 10.3212 25.7536 10.1253C25.9627 9.92943 26.2385 9.82043 26.5251 9.82043C26.8116 9.82043 27.0874 9.92943 27.2965 10.1253C27.5057 10.3212 27.6324 10.5893 27.6512 10.8752C27.6512 16.976 24.4392 21.7553 20.3158 21.7553Z" fill="#407BFF"/>
<path d="M37.3353 21.7553C37.0494 21.7366 36.7813 21.6098 36.5854 21.4007C36.3895 21.1916 36.2805 20.9158 36.2805 20.6292C36.2805 20.3427 36.3895 20.0669 36.5854 19.8578C36.7813 19.6486 37.0494 19.5218 37.3353 19.5031C40.0939 19.5031 42.4185 15.5533 42.4185 10.8752C42.4372 10.5893 42.564 10.3212 42.7731 10.1253C42.9822 9.92943 43.2581 9.82043 43.5446 9.82043C43.8311 9.82043 44.1069 9.92943 44.3161 10.1253C44.5252 10.3212 44.652 10.5893 44.6707 10.8752C44.6948 16.976 41.4491 21.7553 37.3353 21.7553Z" fill="#407BFF"/>
<path d="M54.3404 21.7553C54.0545 21.7366 53.7864 21.6098 53.5905 21.4006C53.3946 21.1915 53.2856 20.9157 53.2856 20.6292C53.2856 20.3426 53.3946 20.0668 53.5905 19.8577C53.7864 19.6486 54.0545 19.5218 54.3404 19.503C57.0942 19.503 59.4236 15.5532 59.4236 10.8752C59.4236 10.5771 59.542 10.2913 59.7527 10.0806C59.9635 9.86985 60.2493 9.75146 60.5473 9.75146C60.8453 9.75146 61.1311 9.86985 61.3419 10.0806C61.5526 10.2913 61.671 10.5771 61.671 10.8752C61.6855 16.9759 58.4687 21.7553 54.3404 21.7553Z" fill="#407BFF"/>
<path d="M71.3741 21.7553C71.2201 21.7654 71.0655 21.7437 70.9202 21.6917C70.7748 21.6397 70.6416 21.5584 70.5289 21.4528C70.4162 21.3473 70.3264 21.2197 70.265 21.078C70.2036 20.9363 70.1719 20.7836 70.1719 20.6292C70.1719 20.4748 70.2036 20.322 70.265 20.1803C70.3264 20.0386 70.4162 19.9111 70.5289 19.8055C70.6416 19.7 70.7748 19.6187 70.9202 19.5666C71.0655 19.5146 71.2201 19.493 71.3741 19.503C74.1279 19.503 76.4573 15.5532 76.4573 10.8752C76.4573 10.5771 76.5757 10.2913 76.7864 10.0806C76.9972 9.86985 77.283 9.75146 77.581 9.75146C77.879 9.75146 78.1648 9.86985 78.3756 10.0806C78.5863 10.2913 78.7047 10.5771 78.7047 10.8752C78.7047 16.9759 75.4831 21.7553 71.3741 21.7553Z" fill="#407BFF"/>
<path d="M88.3888 21.7553C88.1028 21.7366 87.8347 21.6098 87.6389 21.4007C87.443 21.1916 87.334 20.9158 87.334 20.6292C87.334 20.3427 87.443 20.0669 87.6389 19.8578C87.8347 19.6486 88.1028 19.5218 88.3888 19.5031C91.1474 19.5031 93.4719 15.5533 93.4719 10.8752C93.4907 10.5893 93.6174 10.3212 93.8266 10.1253C94.0357 9.92943 94.3115 9.82043 94.5981 9.82043C94.8846 9.82043 95.1604 9.92943 95.3695 10.1253C95.5787 10.3212 95.7054 10.5893 95.7242 10.8752C95.7242 16.976 92.5026 21.7553 88.3888 21.7553Z" fill="#407BFF"/>
<path d="M105.408 21.7553C105.122 21.7366 104.854 21.6098 104.658 21.4007C104.463 21.1916 104.354 20.9158 104.354 20.6292C104.354 20.3427 104.463 20.0669 104.658 19.8578C104.854 19.6486 105.122 19.5218 105.408 19.5031C108.162 19.5031 110.491 15.5533 110.491 10.8752C110.51 10.5893 110.637 10.3212 110.846 10.1253C111.055 9.92943 111.331 9.82043 111.618 9.82043C111.904 9.82043 112.18 9.92943 112.389 10.1253C112.598 10.3212 112.725 10.5893 112.744 10.8752C112.744 16.976 109.522 21.7553 105.408 21.7553Z" fill="#407BFF"/>
<g opacity="0.3">
<path opacity="0.3" d="M20.3155 21.7555C20.0296 21.7367 19.7615 21.6099 19.5656 21.4008C19.3697 21.1917 19.2607 20.9159 19.2607 20.6294C19.2607 20.3428 19.3697 20.067 19.5656 19.8579C19.7615 19.6487 20.0296 19.522 20.3155 19.5032C23.0741 19.5032 25.3987 15.5534 25.3987 10.8753C25.4174 10.5894 25.5442 10.3213 25.7533 10.1254C25.9625 9.92955 26.2383 9.82056 26.5248 9.82056C26.8113 9.82056 27.0872 9.92955 27.2963 10.1254C27.5054 10.3213 27.6322 10.5894 27.6509 10.8753C27.6509 16.9761 24.439 21.7555 20.3155 21.7555Z" fill="black"/>
<path opacity="0.3" d="M37.3351 21.7555C37.0491 21.7367 36.781 21.6099 36.5852 21.4008C36.3893 21.1917 36.2803 20.9159 36.2803 20.6294C36.2803 20.3428 36.3893 20.067 36.5852 19.8579C36.781 19.6487 37.0491 19.522 37.3351 19.5032C40.0937 19.5032 42.4182 15.5534 42.4182 10.8753C42.437 10.5894 42.5637 10.3213 42.7729 10.1254C42.982 9.92955 43.2578 9.82056 43.5443 9.82056C43.8309 9.82056 44.1067 9.92955 44.3158 10.1254C44.525 10.3213 44.6517 10.5894 44.6705 10.8753C44.6946 16.9761 41.4489 21.7555 37.3351 21.7555Z" fill="black"/>
<path opacity="0.3" d="M54.3399 21.7554C54.054 21.7367 53.7859 21.6099 53.59 21.4008C53.3942 21.1916 53.2852 20.9158 53.2852 20.6293C53.2852 20.3428 53.3942 20.0669 53.59 19.8578C53.7859 19.6487 54.054 19.5219 54.3399 19.5032C57.0937 19.5032 59.4231 15.5534 59.4231 10.8753C59.4231 10.5773 59.5415 10.2914 59.7522 10.0807C59.963 9.86997 60.2488 9.75159 60.5468 9.75159C60.8448 9.75159 61.1307 9.86997 61.3414 10.0807C61.5521 10.2914 61.6705 10.5773 61.6705 10.8753C61.685 16.9761 58.4682 21.7554 54.3399 21.7554Z" fill="black"/>
<path opacity="0.3" d="M71.3739 21.7554C71.2198 21.7655 71.0653 21.7438 70.9199 21.6918C70.7745 21.6398 70.6414 21.5585 70.5287 21.4529C70.416 21.3474 70.3262 21.2198 70.2647 21.0781C70.2033 20.9365 70.1716 20.7837 70.1716 20.6293C70.1716 20.4749 70.2033 20.3221 70.2647 20.1804C70.3262 20.0388 70.416 19.9112 70.5287 19.8056C70.6414 19.7001 70.7745 19.6188 70.9199 19.5668C71.0653 19.5147 71.2198 19.4931 71.3739 19.5032C74.1277 19.5032 76.4571 15.5534 76.4571 10.8753C76.4571 10.5773 76.5755 10.2914 76.7862 10.0807C76.9969 9.86997 77.2827 9.75159 77.5808 9.75159C77.8788 9.75159 78.1646 9.86997 78.3753 10.0807C78.5861 10.2914 78.7045 10.5773 78.7045 10.8753C78.7045 16.9761 75.4829 21.7554 71.3739 21.7554Z" fill="black"/>
<path opacity="0.3" d="M88.3888 21.7555C88.1028 21.7367 87.8347 21.6099 87.6389 21.4008C87.443 21.1917 87.334 20.9159 87.334 20.6294C87.334 20.3428 87.443 20.067 87.6389 19.8579C87.8347 19.6487 88.1028 19.522 88.3888 19.5032C91.1474 19.5032 93.4719 15.5534 93.4719 10.8753C93.4907 10.5894 93.6174 10.3213 93.8266 10.1254C94.0357 9.92955 94.3115 9.82056 94.5981 9.82056C94.8846 9.82056 95.1604 9.92955 95.3695 10.1254C95.5787 10.3213 95.7054 10.5894 95.7242 10.8753C95.7242 16.9761 92.5026 21.7555 88.3888 21.7555Z" fill="black"/>
<path opacity="0.3" d="M105.408 21.7555C105.122 21.7367 104.854 21.6099 104.658 21.4008C104.462 21.1917 104.353 20.9159 104.353 20.6294C104.353 20.3428 104.462 20.067 104.658 19.8579C104.854 19.6487 105.122 19.522 105.408 19.5032C108.162 19.5032 110.491 15.5534 110.491 10.8753C110.51 10.5894 110.637 10.3213 110.846 10.1254C111.055 9.92955 111.331 9.82056 111.617 9.82056C111.904 9.82056 112.179 9.92955 112.389 10.1254C112.598 10.3213 112.724 10.5894 112.743 10.8753C112.743 16.9761 109.522 21.7555 105.408 21.7555Z" fill="black"/>
</g>
<path d="M9.65255 12.0279H119.216C120.685 12.0574 122.092 12.6218 123.175 13.6154C124.257 14.609 124.94 15.9635 125.095 17.4246L131.162 85.8256C131.235 86.5119 131.163 87.2061 130.948 87.8622C130.734 88.5184 130.382 89.1214 129.917 89.6316C129.452 90.1418 128.884 90.5473 128.251 90.8216C127.617 91.0958 126.933 91.2324 126.242 91.2223H16.6745C15.2061 91.1908 13.7994 90.6256 12.7175 89.6324C11.6355 88.6392 10.9523 87.2859 10.7955 85.8256L4.73335 17.4246C4.65874 16.7381 4.73095 16.0436 4.94518 15.3871C5.15941 14.7307 5.51077 14.1273 5.97595 13.6169C6.44113 13.1066 7.00951 12.701 7.64337 12.4271C8.27723 12.1531 8.9621 12.0171 9.65255 12.0279Z" fill="#407BFF"/>
<path opacity="0.4" d="M9.65255 12.0279H119.216C120.685 12.0574 122.092 12.6218 123.175 13.6154C124.257 14.609 124.94 15.9635 125.095 17.4246L131.162 85.8256C131.235 86.5119 131.163 87.2061 130.948 87.8622C130.734 88.5184 130.382 89.1214 129.917 89.6316C129.452 90.1418 128.884 90.5473 128.251 90.8216C127.617 91.0958 126.933 91.2324 126.242 91.2223H16.6745C15.2061 91.1908 13.7994 90.6256 12.7175 89.6324C11.6355 88.6392 10.9523 87.2859 10.7955 85.8256L4.73335 17.4246C4.65874 16.7381 4.73095 16.0436 4.94518 15.3871C5.15941 14.7307 5.51077 14.1273 5.97595 13.6169C6.44113 13.1066 7.00951 12.701 7.64337 12.4271C8.27723 12.1531 8.9621 12.0171 9.65255 12.0279Z" fill="#FAFAFA"/>
<path d="M118.304 12.0279H8.73629C7.28704 12.0452 5.89837 12.6119 4.85095 13.6137C3.80353 14.6155 3.17546 15.9775 3.09368 17.4246L0.00712159 85.8256C-0.0296453 86.5224 0.0762301 87.2194 0.318264 87.8739C0.560299 88.5284 0.933401 89.1265 1.41471 89.6318C1.89601 90.137 2.47539 90.5387 3.11736 90.8121C3.75934 91.0856 4.45038 91.2252 5.14817 91.2222H114.726C116.175 91.205 117.564 90.6382 118.611 89.6364C119.659 88.6347 120.287 87.2726 120.368 85.8256L123.46 17.4246C123.496 16.7267 123.389 16.0288 123.146 15.3736C122.903 14.7185 122.528 14.1199 122.046 13.6146C121.563 13.1093 120.982 12.708 120.339 12.4351C119.695 12.1623 119.003 12.0237 118.304 12.0279Z" fill="#407BFF"/>
<path opacity="0.2" d="M118.304 12.0279H8.73629C7.28704 12.0452 5.89837 12.6119 4.85095 13.6137C3.80353 14.6155 3.17546 15.9775 3.09368 17.4246L0.00712159 85.8256C-0.0296453 86.5224 0.0762301 87.2194 0.318264 87.8739C0.560299 88.5284 0.933401 89.1265 1.41471 89.6318C1.89601 90.137 2.47539 90.5387 3.11736 90.8121C3.75934 91.0856 4.45038 91.2252 5.14817 91.2222H114.726C116.175 91.205 117.564 90.6382 118.611 89.6364C119.659 88.6347 120.287 87.2726 120.368 85.8256L123.46 17.4246C123.496 16.7267 123.389 16.0288 123.146 15.3736C122.903 14.7185 122.528 14.1199 122.046 13.6146C121.563 13.1093 120.982 12.708 120.339 12.4351C119.695 12.1623 119.003 12.0237 118.304 12.0279Z" fill="#FAFAFA"/>
<path d="M10.7475 73.1466L13.2987 16.6578C13.3293 16.1037 13.5697 15.582 13.9709 15.1986C14.3722 14.8152 14.9044 14.5989 15.4593 14.5937H111.35C111.617 14.592 111.882 14.6449 112.128 14.7493C112.374 14.8536 112.597 15.0071 112.781 15.2004C112.966 15.3937 113.109 15.6226 113.202 15.8732C113.295 16.1238 113.336 16.3908 113.322 16.6578L110.766 73.1466C110.736 73.7007 110.495 74.2225 110.094 74.6058C109.693 74.9892 109.161 75.2055 108.606 75.2108H12.72C12.4527 75.2124 12.1878 75.1595 11.9417 75.0551C11.6956 74.9508 11.4733 74.7973 11.2886 74.604C11.104 74.4108 10.9607 74.1818 10.8676 73.9312C10.7746 73.6806 10.7337 73.4136 10.7475 73.1466Z" fill="#407BFF"/>
<path opacity="0.1" d="M10.7475 73.1466L13.2987 16.6578C13.3293 16.1037 13.5697 15.582 13.9709 15.1986C14.3722 14.8152 14.9044 14.5989 15.4593 14.5937H111.35C111.617 14.592 111.882 14.6449 112.128 14.7493C112.374 14.8536 112.597 15.0071 112.781 15.2004C112.966 15.3937 113.109 15.6226 113.202 15.8732C113.295 16.1238 113.336 16.3908 113.322 16.6578L110.766 73.1466C110.736 73.7007 110.495 74.2225 110.094 74.6058C109.693 74.9892 109.161 75.2055 108.606 75.2108H12.72C12.4527 75.2124 12.1878 75.1595 11.9417 75.0551C11.6956 74.9508 11.4733 74.7973 11.2886 74.604C11.104 74.4108 10.9607 74.1818 10.8676 73.9312C10.7746 73.6806 10.7337 73.4136 10.7475 73.1466Z" fill="#FAFAFA"/>
<path opacity="0.1" d="M8.04188 77.7571L10.7185 18.4373C10.7492 17.8555 11.0009 17.3074 11.4222 16.9049C11.8435 16.5024 12.4026 16.276 12.9852 16.2719H113.684C113.965 16.2695 114.243 16.3247 114.501 16.4339C114.76 16.5431 114.993 16.7042 115.187 16.9071C115.381 17.11 115.531 17.3504 115.628 17.6136C115.726 17.8768 115.768 18.1571 115.753 18.4373L113.072 77.7571C113.041 78.3386 112.79 78.8865 112.37 79.2897C111.95 79.6928 111.392 79.9208 110.81 79.9273H10.1012C9.82077 79.9291 9.54294 79.8734 9.28493 79.7635C9.02692 79.6536 8.7942 79.492 8.60117 79.2886C8.40814 79.0851 8.2589 78.8442 8.1627 78.5808C8.0665 78.3174 8.02538 78.037 8.04188 77.7571Z" fill="black"/>
<path d="M5.55321 82.5413L8.34558 20.6655C8.38307 20.0605 8.64705 19.4918 9.08498 19.0726C9.5229 18.6535 10.1026 18.4146 10.7087 18.4036H115.753C116.046 18.4012 116.336 18.4589 116.606 18.573C116.876 18.6872 117.12 18.8554 117.322 19.0673C117.525 19.2792 117.682 19.5303 117.783 19.8052C117.885 20.0801 117.929 20.3729 117.914 20.6655L115.107 82.5413C115.069 83.1464 114.805 83.7151 114.367 84.1342C113.929 84.5534 113.35 84.7922 112.744 84.8032H7.7138C7.42055 84.8063 7.12977 84.7491 6.85951 84.6353C6.58926 84.5214 6.34528 84.3532 6.14271 84.1411C5.94014 83.929 5.78328 83.6776 5.68188 83.4024C5.58048 83.1272 5.53668 82.8342 5.55321 82.5413Z" fill="#FAFAFA"/>
<path d="M105.394 22.1123C105.196 22.1126 105.001 22.0726 104.819 21.9945C104.638 21.9164 104.474 21.802 104.339 21.6583C104.203 21.5146 104.099 21.3447 104.031 21.159C103.964 20.9733 103.935 20.7758 103.947 20.5787C103.965 20.1917 104.131 19.8265 104.41 19.5575C104.688 19.2886 105.059 19.1363 105.447 19.1318C105.644 19.1315 105.84 19.1716 106.021 19.2497C106.203 19.3277 106.366 19.4421 106.502 19.5858C106.637 19.7295 106.742 19.8994 106.809 20.0851C106.877 20.2708 106.905 20.4683 106.894 20.6655C106.875 21.0524 106.71 21.4177 106.431 21.6866C106.152 21.9555 105.781 22.1078 105.394 22.1123Z" fill="#407BFF"/>
<path d="M88.3742 22.1123C88.1767 22.1126 87.9812 22.0726 87.7997 21.9945C87.6183 21.9164 87.4548 21.802 87.3192 21.6583C87.1837 21.5146 87.079 21.3447 87.0116 21.159C86.9442 20.9733 86.9156 20.7758 86.9274 20.5787C86.9458 20.1917 87.1114 19.8265 87.3902 19.5575C87.669 19.2886 88.0399 19.1363 88.4273 19.1318C88.6248 19.1315 88.8203 19.1716 89.0018 19.2497C89.1832 19.3277 89.3467 19.4421 89.4823 19.5858C89.6178 19.7295 89.7225 19.8994 89.7899 20.0851C89.8573 20.2708 89.886 20.4683 89.8741 20.6655C89.8568 21.0528 89.6917 21.4187 89.4126 21.6879C89.1336 21.9571 88.7619 22.109 88.3742 22.1123Z" fill="#407BFF"/>
<path d="M71.3547 22.1123C71.1572 22.1126 70.9617 22.0726 70.7802 21.9945C70.5988 21.9164 70.4352 21.802 70.2997 21.6583C70.1641 21.5146 70.0595 21.3447 69.9921 21.159C69.9247 20.9733 69.896 20.7758 69.9079 20.5787C69.9274 20.1921 70.0933 19.8275 70.3719 19.5588C70.6504 19.2901 71.0208 19.1375 71.4078 19.1318C71.6053 19.1315 71.8008 19.1716 71.9822 19.2497C72.1637 19.3277 72.3272 19.4421 72.4628 19.5858C72.5983 19.7295 72.703 19.8994 72.7704 20.0851C72.8378 20.2708 72.8664 20.4683 72.8546 20.6655C72.8373 21.0528 72.6721 21.4187 72.3931 21.6879C72.1141 21.9571 71.7424 22.109 71.3547 22.1123Z" fill="#407BFF"/>
<path d="M54.3401 22.1123C54.1425 22.1126 53.947 22.0726 53.7656 21.9945C53.5841 21.9164 53.4206 21.802 53.285 21.6583C53.1495 21.5146 53.0448 21.3447 52.9774 21.159C52.91 20.9733 52.8814 20.7758 52.8932 20.5787C52.914 20.1917 53.0809 19.8271 53.3602 19.5585C53.6396 19.2899 54.0105 19.1374 54.3979 19.1318C54.5955 19.1315 54.791 19.1716 54.9724 19.2497C55.1539 19.3277 55.3174 19.4421 55.4529 19.5858C55.5885 19.7295 55.6932 19.8994 55.7606 20.0851C55.828 20.2708 55.8566 20.4683 55.8447 20.6655C55.8274 21.0536 55.6616 21.4203 55.3815 21.6896C55.1015 21.9589 54.7286 22.1102 54.3401 22.1123Z" fill="#407BFF"/>
<path d="M37.3205 22.1123C37.123 22.1126 36.9275 22.0726 36.746 21.9945C36.5646 21.9164 36.4011 21.802 36.2655 21.6583C36.13 21.5146 36.0253 21.3447 35.9579 21.159C35.8905 20.9733 35.8618 20.7758 35.8737 20.5787C35.8921 20.1917 36.0577 19.8265 36.3364 19.5575C36.6152 19.2886 36.9862 19.1363 37.3736 19.1318C37.5711 19.1315 37.7666 19.1716 37.9481 19.2497C38.1295 19.3277 38.293 19.4421 38.4286 19.5858C38.5641 19.7295 38.6688 19.8994 38.7362 20.0851C38.8036 20.2708 38.8323 20.4683 38.8204 20.6655C38.802 21.0524 38.6364 21.4177 38.3576 21.6866C38.0789 21.9555 37.7079 22.1078 37.3205 22.1123Z" fill="#407BFF"/>
<path d="M20.3015 22.1123C20.104 22.1126 19.9084 22.0726 19.727 21.9945C19.5455 21.9164 19.382 21.802 19.2465 21.6583C19.1109 21.5146 19.0062 21.3447 18.9388 21.159C18.8715 20.9733 18.8428 20.7758 18.8547 20.5787C18.8731 20.1917 19.0386 19.8265 19.3174 19.5575C19.5962 19.2886 19.9672 19.1363 20.3545 19.1318C20.5521 19.1315 20.7476 19.1716 20.929 19.2497C21.1105 19.3277 21.274 19.4421 21.4096 19.5858C21.5451 19.7295 21.6498 19.8994 21.7172 20.0851C21.7846 20.2708 21.8132 20.4683 21.8014 20.6655C21.7841 21.0528 21.6189 21.4187 21.3399 21.6879C21.0608 21.9571 20.6892 22.109 20.3015 22.1123Z" fill="#407BFF"/>
<g opacity="0.1">
<path opacity="0.1" d="M105.394 22.1123C105.196 22.1126 105.001 22.0726 104.819 21.9945C104.638 21.9164 104.474 21.802 104.339 21.6583C104.203 21.5146 104.099 21.3447 104.031 21.159C103.964 20.9733 103.935 20.7758 103.947 20.5787C103.965 20.1917 104.131 19.8265 104.41 19.5575C104.688 19.2886 105.059 19.1363 105.447 19.1318C105.644 19.1315 105.84 19.1716 106.021 19.2497C106.203 19.3277 106.366 19.4421 106.502 19.5858C106.637 19.7295 106.742 19.8994 106.809 20.0851C106.877 20.2708 106.905 20.4683 106.894 20.6655C106.875 21.0524 106.71 21.4177 106.431 21.6866C106.152 21.9555 105.781 22.1078 105.394 22.1123Z" fill="#FAFAFA"/>
<path opacity="0.1" d="M88.3747 22.1123C88.1772 22.1126 87.9817 22.0726 87.8002 21.9945C87.6188 21.9164 87.4553 21.802 87.3197 21.6583C87.1842 21.5146 87.0795 21.3447 87.0121 21.159C86.9447 20.9733 86.916 20.7758 86.9279 20.5787C86.9463 20.1917 87.1119 19.8265 87.3906 19.5575C87.6694 19.2886 88.0404 19.1363 88.4278 19.1318C88.6253 19.1315 88.8208 19.1716 89.0023 19.2497C89.1837 19.3277 89.3472 19.4421 89.4828 19.5858C89.6183 19.7295 89.723 19.8994 89.7904 20.0851C89.8578 20.2708 89.8864 20.4683 89.8746 20.6655C89.8573 21.0528 89.6922 21.4187 89.4131 21.6879C89.1341 21.9571 88.7624 22.109 88.3747 22.1123Z" fill="#FAFAFA"/>
<path opacity="0.1" d="M71.3552 22.1123C71.1577 22.1126 70.9622 22.0726 70.7807 21.9945C70.5993 21.9164 70.4357 21.802 70.3002 21.6583C70.1646 21.5146 70.0599 21.3447 69.9926 21.159C69.9252 20.9733 69.8965 20.7758 69.9084 20.5787C69.9279 20.1921 70.0938 19.8275 70.3724 19.5588C70.6509 19.2901 71.0213 19.1375 71.4082 19.1318C71.6058 19.1315 71.8013 19.1716 71.9827 19.2497C72.1642 19.3277 72.3277 19.4421 72.4633 19.5858C72.5988 19.7295 72.7035 19.8994 72.7709 20.0851C72.8383 20.2708 72.8669 20.4683 72.8551 20.6655C72.8378 21.0528 72.6726 21.4187 72.3936 21.6879C72.1145 21.9571 71.7429 22.109 71.3552 22.1123Z" fill="#FAFAFA"/>
<path opacity="0.1" d="M54.3405 22.1123C54.143 22.1126 53.9475 22.0726 53.7661 21.9945C53.5846 21.9164 53.4211 21.802 53.2855 21.6583C53.15 21.5146 53.0453 21.3447 52.9779 21.159C52.9105 20.9733 52.8819 20.7758 52.8937 20.5787C52.9145 20.1917 53.0814 19.8271 53.3607 19.5585C53.64 19.2899 54.0109 19.1374 54.3984 19.1318C54.5959 19.1315 54.7915 19.1716 54.9729 19.2497C55.1543 19.3277 55.3179 19.4421 55.4534 19.5858C55.589 19.7295 55.6937 19.8994 55.7611 20.0851C55.8284 20.2708 55.8571 20.4683 55.8452 20.6655C55.8279 21.0536 55.6621 21.4203 55.382 21.6896C55.1019 21.9589 54.7291 22.1102 54.3405 22.1123Z" fill="#FAFAFA"/>
<path opacity="0.1" d="M37.321 22.1123C37.1235 22.1126 36.928 22.0726 36.7465 21.9945C36.5651 21.9164 36.4015 21.802 36.266 21.6583C36.1304 21.5146 36.0258 21.3447 35.9584 21.159C35.891 20.9733 35.8623 20.7758 35.8742 20.5787C35.8926 20.1917 36.0581 19.8265 36.3369 19.5575C36.6157 19.2886 36.9867 19.1363 37.3741 19.1318C37.5716 19.1315 37.7671 19.1716 37.9485 19.2497C38.13 19.3277 38.2935 19.4421 38.4291 19.5858C38.5646 19.7295 38.6693 19.8994 38.7367 20.0851C38.8041 20.2708 38.8327 20.4683 38.8209 20.6655C38.8025 21.0524 38.6369 21.4177 38.3581 21.6866C38.0793 21.9555 37.7084 22.1078 37.321 22.1123Z" fill="#FAFAFA"/>
<path opacity="0.1" d="M20.3015 22.1123C20.104 22.1126 19.9084 22.0726 19.727 21.9945C19.5455 21.9164 19.382 21.802 19.2465 21.6583C19.1109 21.5146 19.0062 21.3447 18.9388 21.159C18.8715 20.9733 18.8428 20.7758 18.8547 20.5787C18.8731 20.1917 19.0386 19.8265 19.3174 19.5575C19.5962 19.2886 19.9672 19.1363 20.3545 19.1318C20.5521 19.1315 20.7476 19.1716 20.929 19.2497C21.1105 19.3277 21.274 19.4421 21.4096 19.5858C21.5451 19.7295 21.6498 19.8994 21.7172 20.0851C21.7846 20.2708 21.8132 20.4683 21.8014 20.6655C21.7841 21.0528 21.6189 21.4187 21.3399 21.6879C21.0608 21.9571 20.6892 22.109 20.3015 22.1123Z" fill="#FAFAFA"/>
</g>
<path d="M24.5549 27.5041H15.9945C15.8704 27.5051 15.7474 27.4804 15.6334 27.4314C15.5193 27.3825 15.4167 27.3104 15.3319 27.2197C15.2471 27.1291 15.1821 27.0218 15.1409 26.9047C15.0997 26.7876 15.0833 26.6633 15.0926 26.5395C15.1022 26.2868 15.2069 26.0469 15.3857 25.8681C15.5646 25.6892 15.8044 25.5845 16.0572 25.575H24.6176C24.7417 25.574 24.8646 25.5987 24.9787 25.6477C25.0927 25.6966 25.1954 25.7687 25.2802 25.8593C25.3649 25.95 25.43 26.0573 25.4711 26.1744C25.5123 26.2914 25.5288 26.4158 25.5194 26.5395C25.5099 26.7923 25.4052 27.0321 25.2263 27.211C25.0475 27.3898 24.8076 27.4945 24.5549 27.5041Z" fill="#407BFF"/>
<path d="M41.5744 27.5041H33.014C32.8899 27.5051 32.7669 27.4804 32.6529 27.4314C32.5388 27.3825 32.4362 27.3104 32.3514 27.2197C32.2666 27.1291 32.2016 27.0218 32.1604 26.9047C32.1193 26.7876 32.1028 26.6633 32.1122 26.5395C32.122 26.2827 32.2301 26.0395 32.414 25.86C32.598 25.6805 32.8438 25.5785 33.1008 25.575H41.6564C41.7807 25.574 41.9038 25.5988 42.0181 25.6477C42.1324 25.6966 42.2354 25.7685 42.3205 25.8591C42.4056 25.9497 42.4711 26.0569 42.5129 26.174C42.5546 26.2911 42.5717 26.4155 42.5631 26.5395C42.5532 26.7963 42.4451 27.0396 42.2612 27.2191C42.0772 27.3985 41.8314 27.5006 41.5744 27.5041Z" fill="#407BFF"/>
<path d="M58.594 27.5041H50.0336C49.9093 27.505 49.7861 27.4803 49.6719 27.4314C49.5576 27.3825 49.4546 27.3105 49.3695 27.22C49.2844 27.1294 49.2189 27.0222 49.1771 26.9051C49.1354 26.788 49.1183 26.6635 49.1269 26.5395C49.1368 26.2827 49.2449 26.0395 49.4288 25.86C49.6128 25.6805 49.8586 25.5785 50.1156 25.575H58.6808C58.8049 25.574 58.9279 25.5987 59.0419 25.6477C59.156 25.6966 59.2586 25.7687 59.3434 25.8593C59.4282 25.95 59.4932 26.0573 59.5344 26.1744C59.5756 26.2914 59.592 26.4158 59.5826 26.5395C59.574 26.7967 59.4663 27.0407 59.2821 27.2204C59.0978 27.4001 58.8513 27.5017 58.594 27.5041Z" fill="#407BFF"/>
<path d="M75.6086 27.5041H67.0482C66.9241 27.5051 66.8011 27.4804 66.6871 27.4314C66.573 27.3825 66.4703 27.3104 66.3856 27.2197C66.3008 27.1291 66.2358 27.0218 66.1946 26.9047C66.1534 26.7876 66.137 26.6633 66.1463 26.5395C66.1559 26.2868 66.2606 26.0469 66.4394 25.8681C66.6183 25.6892 66.8581 25.5845 67.1109 25.575H75.6713C75.7954 25.574 75.9183 25.5987 76.0324 25.6477C76.1465 25.6966 76.2491 25.7687 76.3339 25.8593C76.4186 25.95 76.4837 26.0573 76.5248 26.1744C76.566 26.2914 76.5825 26.4158 76.5731 26.5395C76.5636 26.7923 76.4589 27.0321 76.28 27.211C76.1012 27.3898 75.8613 27.4945 75.6086 27.5041Z" fill="#407BFF"/>
<path d="M92.6281 27.5041H84.0677C83.9436 27.5051 83.8207 27.4804 83.7066 27.4314C83.5926 27.3825 83.4899 27.3104 83.4051 27.2197C83.3204 27.1291 83.2553 27.0218 83.2142 26.9047C83.173 26.7876 83.1565 26.6633 83.1659 26.5395C83.1757 26.2827 83.2838 26.0395 83.4678 25.86C83.6517 25.6805 83.8976 25.5785 84.1545 25.575H92.7149C92.839 25.574 92.962 25.5987 93.0761 25.6477C93.1901 25.6966 93.2928 25.7687 93.3775 25.8593C93.4623 25.95 93.5273 26.0573 93.5685 26.1744C93.6097 26.2914 93.6261 26.4158 93.6168 26.5395C93.6069 26.7964 93.4989 27.0396 93.3149 27.2191C93.1309 27.3985 92.8851 27.5006 92.6281 27.5041Z" fill="#407BFF"/>
<path d="M109.647 27.5041H101.087C100.963 27.5051 100.84 27.4804 100.726 27.4314C100.612 27.3825 100.509 27.3104 100.424 27.2197C100.34 27.1291 100.275 27.0218 100.233 26.9047C100.192 26.7876 100.176 26.6633 100.185 26.5395C100.195 26.2827 100.303 26.0395 100.487 25.86C100.671 25.6805 100.917 25.5785 101.174 25.575H109.729C109.854 25.574 109.977 25.5988 110.091 25.6477C110.205 25.6966 110.308 25.7685 110.393 25.8591C110.479 25.9497 110.544 26.0569 110.586 26.174C110.628 26.2911 110.645 26.4155 110.636 26.5395C110.626 26.7963 110.518 27.0396 110.334 27.2191C110.15 27.3985 109.904 27.5006 109.647 27.5041Z" fill="#407BFF"/>
<g opacity="0.3">
<path opacity="0.3" d="M24.5549 27.5041H15.9945C15.8704 27.5051 15.7474 27.4804 15.6334 27.4314C15.5193 27.3825 15.4167 27.3104 15.3319 27.2197C15.2471 27.1291 15.1821 27.0218 15.1409 26.9047C15.0997 26.7876 15.0833 26.6633 15.0926 26.5395C15.1022 26.2868 15.2069 26.0469 15.3857 25.8681C15.5646 25.6892 15.8044 25.5845 16.0572 25.575H24.6176C24.7417 25.574 24.8646 25.5987 24.9787 25.6477C25.0927 25.6966 25.1954 25.7687 25.2802 25.8593C25.3649 25.95 25.43 26.0573 25.4711 26.1744C25.5123 26.2914 25.5288 26.4158 25.5194 26.5395C25.5099 26.7923 25.4052 27.0321 25.2263 27.211C25.0475 27.3898 24.8076 27.4945 24.5549 27.5041Z" fill="black"/>
<path opacity="0.3" d="M41.5744 27.5041H33.014C32.8899 27.5051 32.7669 27.4804 32.6529 27.4314C32.5388 27.3825 32.4362 27.3104 32.3514 27.2197C32.2666 27.1291 32.2016 27.0218 32.1604 26.9047C32.1193 26.7876 32.1028 26.6633 32.1122 26.5395C32.122 26.2827 32.2301 26.0395 32.414 25.86C32.598 25.6805 32.8438 25.5785 33.1008 25.575H41.6564C41.7807 25.574 41.9038 25.5988 42.0181 25.6477C42.1324 25.6966 42.2354 25.7685 42.3205 25.8591C42.4056 25.9497 42.4711 26.0569 42.5129 26.174C42.5546 26.2911 42.5717 26.4155 42.5631 26.5395C42.5532 26.7963 42.4451 27.0396 42.2612 27.2191C42.0772 27.3985 41.8314 27.5006 41.5744 27.5041Z" fill="black"/>
<path opacity="0.3" d="M58.594 27.5041H50.0336C49.9093 27.505 49.7861 27.4803 49.6719 27.4314C49.5576 27.3825 49.4546 27.3105 49.3695 27.22C49.2844 27.1294 49.2189 27.0222 49.1771 26.9051C49.1354 26.788 49.1183 26.6635 49.1269 26.5395C49.1368 26.2827 49.2449 26.0395 49.4288 25.86C49.6128 25.6805 49.8586 25.5785 50.1156 25.575H58.6808C58.8049 25.574 58.9279 25.5987 59.0419 25.6477C59.156 25.6966 59.2586 25.7687 59.3434 25.8593C59.4282 25.95 59.4932 26.0573 59.5344 26.1744C59.5756 26.2914 59.592 26.4158 59.5826 26.5395C59.574 26.7967 59.4663 27.0407 59.2821 27.2204C59.0978 27.4001 58.8513 27.5017 58.594 27.5041Z" fill="black"/>
<path opacity="0.3" d="M75.6086 27.5041H67.0482C66.9241 27.5051 66.8011 27.4804 66.6871 27.4314C66.573 27.3825 66.4703 27.3104 66.3856 27.2197C66.3008 27.1291 66.2358 27.0218 66.1946 26.9047C66.1534 26.7876 66.137 26.6633 66.1463 26.5395C66.1559 26.2868 66.2606 26.0469 66.4394 25.8681C66.6183 25.6892 66.8581 25.5845 67.1109 25.575H75.6713C75.7954 25.574 75.9183 25.5987 76.0324 25.6477C76.1465 25.6966 76.2491 25.7687 76.3339 25.8593C76.4186 25.95 76.4837 26.0573 76.5248 26.1744C76.566 26.2914 76.5825 26.4158 76.5731 26.5395C76.5636 26.7923 76.4589 27.0321 76.28 27.211C76.1012 27.3898 75.8613 27.4945 75.6086 27.5041Z" fill="black"/>
<path opacity="0.3" d="M92.6281 27.5041H84.0677C83.9436 27.5051 83.8207 27.4804 83.7066 27.4314C83.5926 27.3825 83.4899 27.3104 83.4051 27.2197C83.3204 27.1291 83.2553 27.0218 83.2142 26.9047C83.173 26.7876 83.1565 26.6633 83.1659 26.5395C83.1757 26.2827 83.2838 26.0395 83.4678 25.86C83.6517 25.6805 83.8976 25.5785 84.1545 25.575H92.7149C92.839 25.574 92.962 25.5987 93.0761 25.6477C93.1901 25.6966 93.2928 25.7687 93.3775 25.8593C93.4623 25.95 93.5273 26.0573 93.5685 26.1744C93.6097 26.2914 93.6261 26.4158 93.6168 26.5395C93.6069 26.7964 93.4989 27.0396 93.3149 27.2191C93.1309 27.3985 92.8851 27.5006 92.6281 27.5041Z" fill="black"/>
<path opacity="0.3" d="M109.647 27.5041H101.087C100.963 27.5051 100.84 27.4804 100.726 27.4314C100.612 27.3825 100.509 27.3104 100.424 27.2197C100.34 27.1291 100.275 27.0218 100.233 26.9047C100.192 26.7876 100.176 26.6633 100.185 26.5395C100.195 26.2827 100.303 26.0395 100.487 25.86C100.671 25.6805 100.917 25.5785 101.174 25.575H109.729C109.854 25.574 109.977 25.5988 110.091 25.6477C110.205 25.6966 110.308 25.7685 110.393 25.8591C110.479 25.9497 110.544 26.0569 110.586 26.174C110.628 26.2911 110.645 26.4155 110.636 26.5395C110.626 26.7963 110.518 27.0396 110.334 27.2191C110.15 27.3985 109.904 27.5006 109.647 27.5041Z" fill="black"/>
</g>
<path d="M25.0278 45.7197H13.8776C13.633 45.7207 13.3908 45.6717 13.1658 45.576C12.9408 45.4802 12.7377 45.3395 12.5689 45.1626C12.4001 44.9856 12.2691 44.7761 12.184 44.5469C12.0989 44.3176 12.0614 44.0734 12.0739 43.8292L12.5561 32.679C12.5854 32.1722 12.8057 31.6953 13.1726 31.3444C13.5396 30.9936 14.0259 30.7949 14.5335 30.7885H25.6837C25.9282 30.7875 26.1704 30.8364 26.3954 30.9322C26.6204 31.028 26.8235 31.1686 26.9923 31.3456C27.1612 31.5225 27.2921 31.732 27.3772 31.9613C27.4624 32.1905 27.4998 32.4347 27.4874 32.679L27.0051 43.8292C26.9747 44.3356 26.7541 44.8118 26.3874 45.1624C26.0207 45.513 25.535 45.7121 25.0278 45.7197Z" fill="#407BFF"/>
<path d="M42.0471 45.7197H30.8969C30.6521 45.7214 30.4096 45.6729 30.1843 45.5774C29.959 45.4818 29.7556 45.3412 29.5866 45.1641C29.4176 44.987 29.2867 44.7772 29.2018 44.5477C29.117 44.3181 29.08 44.0736 29.0932 43.8292L29.5754 32.679C29.6047 32.1722 29.825 31.6953 30.1919 31.3444C30.5589 30.9936 31.0452 30.7949 31.5528 30.7885H42.7174C42.9622 30.7875 43.2046 30.8364 43.4298 30.9321C43.6551 31.0279 43.8585 31.1685 44.0277 31.3453C44.1969 31.5222 44.3283 31.7316 44.414 31.9609C44.4996 32.1902 44.5377 32.4345 44.526 32.679L44.0196 43.8292C43.9915 44.3356 43.7722 44.8124 43.4061 45.1633C43.0399 45.5143 42.5542 45.7131 42.0471 45.7197Z" fill="#407BFF"/>
<path d="M59.0617 45.7197H47.9163C47.6716 45.7206 47.4292 45.6718 47.2039 45.576C46.9787 45.4803 46.7753 45.3397 46.6061 45.1628C46.4369 44.986 46.3054 44.7765 46.2198 44.5473C46.1341 44.318 46.096 44.0737 46.1078 43.8292L46.5901 32.679C46.6193 32.1722 46.8396 31.6953 47.2066 31.3445C47.5735 30.9936 48.0598 30.795 48.5674 30.7885H59.7128C59.9575 30.7868 60.2 30.8352 60.4254 30.9308C60.6507 31.0263 60.8541 31.167 61.0231 31.3441C61.192 31.5212 61.3229 31.7309 61.4078 31.9605C61.4927 32.1901 61.5296 32.4346 61.5165 32.679L61.0342 43.8292C61.005 44.3352 60.7854 44.8114 60.4195 45.1621C60.0536 45.5128 59.5685 45.712 59.0617 45.7197Z" fill="#407BFF"/>
<path d="M76.0812 45.7197H64.9503C64.7053 45.7213 64.4626 45.6729 64.237 45.5774C64.0114 45.4819 63.8077 45.3413 63.6384 45.1643C63.4691 44.9873 63.3377 44.7776 63.2523 44.548C63.1669 44.3184 63.1293 44.0738 63.1417 43.8292L63.624 32.679C63.6521 32.1726 63.8713 31.6957 64.2375 31.3448C64.6037 30.9939 65.0894 30.795 65.5965 30.7885H76.7467C76.9913 30.7875 77.2334 30.8364 77.4585 30.9322C77.6835 31.028 77.8866 31.1686 78.0554 31.3456C78.2242 31.5225 78.3552 31.732 78.4403 31.9613C78.5254 32.1905 78.5629 32.4347 78.5504 32.679L78.0681 43.8292C78.0388 44.3376 77.8171 44.8159 77.4481 45.167C77.0792 45.518 76.5905 45.7156 76.0812 45.7197Z" fill="#407BFF"/>
<path d="M93.1005 45.7197H81.9503C81.7058 45.7207 81.4636 45.6718 81.2386 45.576C81.0136 45.4802 80.8104 45.3395 80.6416 45.1626C80.4728 44.9857 80.3419 44.7762 80.2567 44.5469C80.1716 44.3176 80.1342 44.0734 80.1466 43.8292L80.6289 32.679C80.6581 32.1722 80.8784 31.6953 81.2454 31.3445C81.6123 30.9936 82.0986 30.795 82.6062 30.7885H93.7516C93.9965 30.7869 94.2392 30.8353 94.4648 30.9308C94.6904 31.0263 94.8941 31.1668 95.0634 31.3438C95.2328 31.5208 95.3642 31.7306 95.4496 31.9602C95.535 32.1897 95.5726 32.4344 95.5601 32.679L95.0778 43.8292C95.0475 44.3356 94.8268 44.8118 94.4601 45.1624C94.0934 45.513 93.6078 45.7121 93.1005 45.7197Z" fill="#407BFF"/>
<path d="M110.115 45.7197H98.9699C98.7251 45.7214 98.4826 45.6729 98.2573 45.5774C98.032 45.4818 97.8286 45.3412 97.6596 45.1641C97.4906 44.987 97.3597 44.7772 97.2748 44.5477C97.19 44.3181 97.153 44.0736 97.1662 43.8292L97.6484 32.679C97.6777 32.1722 97.898 31.6953 98.2649 31.3444C98.6319 30.9936 99.1182 30.7949 99.6258 30.7885H110.771C111.016 30.7875 111.258 30.8364 111.484 30.9321C111.709 31.0279 111.912 31.1685 112.081 31.3453C112.251 31.5222 112.382 31.7316 112.468 31.9609C112.553 32.1902 112.591 32.4345 112.58 32.679L112.073 43.8292C112.045 44.3331 111.828 44.8079 111.465 45.1585C111.102 45.5091 110.62 45.7095 110.115 45.7197Z" fill="#407BFF"/>
<g opacity="0.8">
<path opacity="0.8" d="M25.0278 45.7198H13.8776C13.633 45.7208 13.3908 45.6719 13.1658 45.5761C12.9408 45.4803 12.7377 45.3396 12.5689 45.1627C12.4001 44.9858 12.2691 44.7763 12.184 44.547C12.0989 44.3177 12.0614 44.0735 12.0739 43.8293L12.5561 32.6791C12.5854 32.1723 12.8057 31.6954 13.1726 31.3446C13.5396 30.9937 14.0259 30.7951 14.5335 30.7886H25.6837C25.9282 30.7876 26.1704 30.8365 26.3954 30.9323C26.6204 31.0281 26.8235 31.1687 26.9923 31.3457C27.1612 31.5226 27.2921 31.7321 27.3772 31.9614C27.4624 32.1907 27.4998 32.4349 27.4874 32.6791L27.0051 43.8293C26.9747 44.3357 26.7541 44.8119 26.3874 45.1625C26.0207 45.5131 25.535 45.7122 25.0278 45.7198Z" fill="#FAFAFA"/>
<path opacity="0.8" d="M42.0471 45.7197H30.8969C30.6521 45.7214 30.4096 45.6729 30.1843 45.5774C29.959 45.4818 29.7556 45.3412 29.5866 45.1641C29.4176 44.987 29.2867 44.7772 29.2018 44.5477C29.117 44.3181 29.08 44.0736 29.0932 43.8292L29.5754 32.679C29.6047 32.1722 29.825 31.6953 30.1919 31.3444C30.5589 30.9936 31.0452 30.7949 31.5528 30.7885H42.7174C42.9622 30.7875 43.2046 30.8364 43.4298 30.9321C43.6551 31.0279 43.8585 31.1685 44.0277 31.3453C44.1969 31.5222 44.3283 31.7316 44.414 31.9609C44.4996 32.1902 44.5377 32.4345 44.526 32.679L44.0196 43.8292C43.9915 44.3356 43.7722 44.8124 43.4061 45.1633C43.0399 45.5143 42.5542 45.7131 42.0471 45.7197Z" fill="#FAFAFA"/>
<path opacity="0.8" d="M59.062 45.7197H47.9166C47.6718 45.7206 47.4294 45.6718 47.2042 45.576C46.9789 45.4803 46.7755 45.3397 46.6063 45.1628C46.4371 44.986 46.3057 44.7765 46.22 44.5473C46.1344 44.318 46.0963 44.0737 46.108 43.8292L46.5903 32.679C46.6196 32.1722 46.8399 31.6953 47.2068 31.3445C47.5737 30.9936 48.06 30.795 48.5677 30.7885H59.713C59.9578 30.7868 60.2003 30.8352 60.4256 30.9308C60.6509 31.0263 60.8544 31.167 61.0233 31.3441C61.1923 31.5212 61.3232 31.7309 61.408 31.9605C61.4929 32.1901 61.5299 32.4346 61.5167 32.679L61.0345 43.8292C61.0053 44.3352 60.7856 44.8114 60.4197 45.1621C60.0538 45.5128 59.5687 45.712 59.062 45.7197Z" fill="#FAFAFA"/>
<path opacity="0.8" d="M76.0812 45.7197H64.9503C64.7053 45.7213 64.4626 45.6729 64.237 45.5774C64.0114 45.4819 63.8077 45.3413 63.6384 45.1643C63.4691 44.9873 63.3377 44.7776 63.2523 44.548C63.1669 44.3184 63.1293 44.0738 63.1417 43.8292L63.624 32.679C63.6521 32.1726 63.8713 31.6957 64.2375 31.3448C64.6037 30.9939 65.0894 30.795 65.5965 30.7885H76.7467C76.9913 30.7875 77.2334 30.8364 77.4585 30.9322C77.6835 31.028 77.8866 31.1686 78.0554 31.3456C78.2242 31.5225 78.3552 31.732 78.4403 31.9613C78.5254 32.1905 78.5629 32.4347 78.5504 32.679L78.0681 43.8292C78.0388 44.3376 77.8171 44.8159 77.4481 45.167C77.0792 45.518 76.5905 45.7156 76.0812 45.7197Z" fill="#FAFAFA"/>
<path opacity="0.8" d="M93.101 45.7197H81.9508C81.7063 45.7207 81.4641 45.6718 81.2391 45.576C81.0141 45.4802 80.8109 45.3395 80.6421 45.1626C80.4733 44.9857 80.3423 44.7762 80.2572 44.5469C80.1721 44.3176 80.1347 44.0734 80.1471 43.8292L80.6294 32.679C80.6586 32.1722 80.8789 31.6953 81.2459 31.3445C81.6128 30.9936 82.0991 30.795 82.6067 30.7885H93.7521C93.997 30.7869 94.2397 30.8353 94.4653 30.9308C94.6909 31.0263 94.8946 31.1668 95.0639 31.3438C95.2333 31.5208 95.3647 31.7306 95.4501 31.9602C95.5355 32.1897 95.5731 32.4344 95.5606 32.679L95.0783 43.8292C95.048 44.3356 94.8273 44.8118 94.4606 45.1624C94.0939 45.513 93.6083 45.7121 93.101 45.7197Z" fill="#FAFAFA"/>
<path opacity="0.8" d="M110.115 45.7197H98.9701C98.7254 45.7214 98.4829 45.6729 98.2575 45.5774C98.0322 45.4818 97.8288 45.3412 97.6598 45.1641C97.4909 44.987 97.3599 44.7772 97.2751 44.5477C97.1902 44.3181 97.1533 44.0736 97.1664 43.8292L97.6487 32.679C97.6779 32.1722 97.8982 31.6953 98.2652 31.3444C98.6321 30.9936 99.1184 30.7949 99.626 30.7885H110.771C111.016 30.7875 111.259 30.8364 111.484 30.9321C111.709 31.0279 111.912 31.1685 112.082 31.3453C112.251 31.5222 112.382 31.7316 112.468 31.9609C112.554 32.1902 112.592 32.4345 112.58 32.679L112.074 43.8292C112.046 44.3331 111.828 44.8079 111.465 45.1585C111.102 45.5091 110.62 45.7095 110.115 45.7197Z" fill="#FAFAFA"/>
</g>
<path d="M24.2465 63.0189H13.0963C12.8518 63.0198 12.6096 62.9709 12.3846 62.8752C12.1596 62.7794 11.9564 62.6387 11.7876 62.4618C11.6188 62.2848 11.4878 62.0753 11.4027 61.8461C11.3176 61.6168 11.2802 61.3726 11.2926 61.1284L11.7749 49.9782C11.8053 49.4717 12.0259 48.9955 12.3926 48.6449C12.7593 48.2943 13.2449 48.0953 13.7522 48.0877H24.9217C25.1662 48.0867 25.4084 48.1356 25.6334 48.2314C25.8585 48.3272 26.0616 48.4678 26.2304 48.6448C26.3992 48.8217 26.5302 49.0312 26.6153 49.2605C26.7004 49.4897 26.7379 49.7339 26.7254 49.9782L26.2431 61.1284C26.2125 61.6381 25.9892 62.1171 25.6184 62.4681C25.2476 62.8192 24.7571 63.0161 24.2465 63.0189Z" fill="#407BFF"/>
<path d="M41.266 63.0188H30.1159C29.8713 63.0198 29.6291 62.9709 29.4041 62.8751C29.1791 62.7793 28.976 62.6386 28.8072 62.4617C28.6383 62.2847 28.5074 62.0752 28.4223 61.846C28.3372 61.6167 28.2997 61.3725 28.3122 61.1283L28.7944 49.9781C28.8237 49.4713 29.044 48.9944 29.4109 48.6436C29.7778 48.2927 30.2641 48.094 30.7718 48.0876H41.9171C42.164 48.0858 42.4086 48.1348 42.6358 48.2314C42.863 48.328 43.0679 48.4702 43.2379 48.6493C43.4079 48.8283 43.5393 49.0403 43.6241 49.2722C43.7088 49.5041 43.745 49.7509 43.7305 49.9974L43.2482 61.1283C43.22 61.6363 42.9994 62.1145 42.6312 62.4657C42.263 62.8169 41.7748 63.0147 41.266 63.0188Z" fill="#407BFF"/>
<path d="M58.2805 63.0188H47.1352C46.8904 63.0205 46.6479 62.972 46.4226 62.8765C46.1972 62.7809 45.9938 62.6403 45.8249 62.4632C45.6559 62.2861 45.525 62.0763 45.4401 61.8468C45.3553 61.6172 45.3183 61.3727 45.3315 61.1283L45.8137 49.9781C45.843 49.4713 46.0633 48.9944 46.4302 48.6435C46.7971 48.2927 47.2834 48.094 47.7911 48.0876H58.9364C59.1812 48.0859 59.4237 48.1343 59.649 48.2299C59.8743 48.3254 60.0777 48.466 60.2467 48.6431C60.4157 48.8202 60.5466 49.03 60.6314 49.2596C60.7163 49.4892 60.7533 49.7337 60.7401 49.9781L60.2578 61.1283C60.2286 61.6351 60.0083 62.112 59.6414 62.4628C59.2744 62.8136 58.7882 63.0123 58.2805 63.0188Z" fill="#407BFF"/>
<path d="M75.2997 63.0188H64.1544C63.9096 63.0197 63.6672 62.9708 63.442 62.8751C63.2167 62.7794 63.0133 62.6388 62.8441 62.4619C62.6749 62.2851 62.5435 62.0756 62.4578 61.8463C62.3722 61.6171 62.3341 61.3727 62.3458 61.1283L62.8281 49.9781C62.8562 49.4717 63.0754 48.9948 63.4416 48.6439C63.8078 48.293 64.2935 48.0941 64.8006 48.0876H75.9508C76.1991 48.0831 76.4456 48.1301 76.6748 48.2256C76.9041 48.321 77.1111 48.463 77.2828 48.6424C77.4545 48.8218 77.5872 49.0348 77.6725 49.268C77.7578 49.5012 77.794 49.7495 77.7786 49.9974L77.2964 61.1476C77.2622 61.6542 77.0371 62.1291 76.6666 62.4764C76.296 62.8237 75.8076 63.0175 75.2997 63.0188Z" fill="#407BFF"/>
<path d="M92.3193 63.0188H81.1691C80.9245 63.0197 80.6823 62.9708 80.4573 62.875C80.2323 62.7793 80.0292 62.6386 79.8604 62.4617C79.6916 62.2847 79.5606 62.0752 79.4755 61.846C79.3904 61.6167 79.3529 61.3725 79.3654 61.1282L79.8476 49.9781C79.8734 49.4674 80.0926 48.9857 80.4608 48.6309C80.829 48.2762 81.3185 48.075 81.8298 48.0683H92.98C93.2245 48.0673 93.4667 48.1162 93.6917 48.212C93.9167 48.3078 94.1199 48.4484 94.2887 48.6254C94.4575 48.8023 94.5884 49.0118 94.6736 49.2411C94.7587 49.4703 94.7961 49.7145 94.7837 49.9588L94.3014 61.109C94.2757 61.6196 94.0564 62.1013 93.6882 62.4561C93.32 62.8109 92.8305 63.0121 92.3193 63.0188Z" fill="#407BFF"/>
<path d="M109.32 63.0189H98.1886C97.9439 63.0205 97.7014 62.9721 97.476 62.8766C97.2507 62.781 97.0473 62.6404 96.8783 62.4633C96.7094 62.2862 96.5785 62.0764 96.4936 61.8468C96.4087 61.6173 96.3718 61.3728 96.3849 61.1284L96.8672 49.9782C96.8964 49.4713 97.1167 48.9945 97.4837 48.6436C97.8506 48.2928 98.3369 48.0941 98.8445 48.0877H109.99C110.235 48.0867 110.477 48.1356 110.702 48.2313C110.928 48.3271 111.131 48.4676 111.3 48.6445C111.469 48.8214 111.601 49.0308 111.686 49.2601C111.772 49.4894 111.81 49.7337 111.798 49.9782L111.292 61.1284C111.264 61.6347 111.045 62.1116 110.679 62.4625C110.312 62.8135 109.827 63.0123 109.32 63.0189Z" fill="#407BFF"/>
<g opacity="0.8">
<path opacity="0.8" d="M24.2465 63.019H13.0963C12.8518 63.02 12.6096 62.9711 12.3846 62.8753C12.1596 62.7795 11.9564 62.6388 11.7876 62.4619C11.6188 62.285 11.4878 62.0755 11.4027 61.8462C11.3176 61.6169 11.2802 61.3727 11.2926 61.1285L11.7749 49.9783C11.8053 49.4719 12.0259 48.9956 12.3926 48.645C12.7593 48.2944 13.2449 48.0954 13.7522 48.0878H24.9217C25.1662 48.0868 25.4084 48.1357 25.6334 48.2315C25.8585 48.3273 26.0616 48.4679 26.2304 48.6449C26.3992 48.8218 26.5302 49.0313 26.6153 49.2606C26.7004 49.4899 26.7379 49.7341 26.7254 49.9783L26.2431 61.1285C26.2125 61.6382 25.9892 62.1172 25.6184 62.4683C25.2476 62.8194 24.7571 63.0162 24.2465 63.019Z" fill="#FAFAFA"/>
<path opacity="0.8" d="M41.266 63.0188H30.1159C29.8713 63.0198 29.6291 62.9709 29.4041 62.8751C29.1791 62.7793 28.976 62.6386 28.8072 62.4617C28.6383 62.2847 28.5074 62.0752 28.4223 61.846C28.3372 61.6167 28.2997 61.3725 28.3122 61.1283L28.7944 49.9781C28.8237 49.4713 29.044 48.9944 29.4109 48.6436C29.7778 48.2927 30.2641 48.094 30.7718 48.0876H41.9171C42.164 48.0858 42.4086 48.1348 42.6358 48.2314C42.863 48.328 43.0679 48.4702 43.2379 48.6493C43.4079 48.8283 43.5393 49.0403 43.6241 49.2722C43.7088 49.5041 43.745 49.7509 43.7305 49.9974L43.2482 61.1283C43.22 61.6363 42.9994 62.1145 42.6312 62.4657C42.263 62.8169 41.7748 63.0147 41.266 63.0188Z" fill="#FAFAFA"/>
<path opacity="0.8" d="M58.2805 63.0188H47.1352C46.8904 63.0205 46.6479 62.972 46.4226 62.8765C46.1972 62.7809 45.9938 62.6403 45.8249 62.4632C45.6559 62.2861 45.525 62.0763 45.4401 61.8468C45.3553 61.6172 45.3183 61.3727 45.3315 61.1283L45.8137 49.9781C45.843 49.4713 46.0633 48.9944 46.4302 48.6435C46.7971 48.2927 47.2834 48.094 47.7911 48.0876H58.9364C59.1812 48.0859 59.4237 48.1343 59.649 48.2299C59.8743 48.3254 60.0777 48.466 60.2467 48.6431C60.4157 48.8202 60.5466 49.03 60.6314 49.2596C60.7163 49.4892 60.7533 49.7337 60.7401 49.9781L60.2578 61.1283C60.2286 61.6351 60.0083 62.112 59.6414 62.4628C59.2744 62.8136 58.7882 63.0123 58.2805 63.0188Z" fill="#FAFAFA"/>
<path opacity="0.8" d="M75.2997 63.0188H64.1544C63.9096 63.0197 63.6672 62.9708 63.442 62.8751C63.2167 62.7794 63.0133 62.6388 62.8441 62.4619C62.6749 62.2851 62.5435 62.0756 62.4578 61.8463C62.3722 61.6171 62.3341 61.3727 62.3458 61.1283L62.8281 49.9781C62.8562 49.4717 63.0754 48.9948 63.4416 48.6439C63.8078 48.293 64.2935 48.0941 64.8006 48.0876H75.9508C76.1991 48.0831 76.4456 48.1301 76.6748 48.2256C76.9041 48.321 77.1111 48.463 77.2828 48.6424C77.4545 48.8218 77.5872 49.0348 77.6725 49.268C77.7578 49.5012 77.794 49.7495 77.7786 49.9974L77.2964 61.1476C77.2622 61.6542 77.0371 62.1291 76.6666 62.4764C76.296 62.8237 75.8076 63.0175 75.2997 63.0188Z" fill="#FAFAFA"/>
<path opacity="0.8" d="M92.3195 63.0188H81.1693C80.9248 63.0197 80.6826 62.9708 80.4576 62.875C80.2326 62.7793 80.0294 62.6386 79.8606 62.4617C79.6918 62.2847 79.5608 62.0752 79.4757 61.846C79.3906 61.6167 79.3532 61.3725 79.3656 61.1282L79.8479 49.9781C79.8736 49.4674 80.0928 48.9857 80.4611 48.6309C80.8293 48.2762 81.3188 48.075 81.83 48.0683H92.9802C93.2248 48.0673 93.4669 48.1162 93.692 48.212C93.917 48.3078 94.1201 48.4484 94.2889 48.6254C94.4577 48.8023 94.5887 49.0118 94.6738 49.2411C94.7589 49.4703 94.7964 49.7145 94.7839 49.9588L94.3016 61.109C94.2759 61.6196 94.0567 62.1013 93.6885 62.4561C93.3203 62.8109 92.8308 63.0121 92.3195 63.0188Z" fill="#FAFAFA"/>
<path opacity="0.8" d="M109.32 63.0188H98.1889C97.9441 63.0204 97.7016 62.972 97.4763 62.8764C97.251 62.7809 97.0475 62.6403 96.8786 62.4632C96.7096 62.2861 96.5787 62.0763 96.4938 61.8467C96.409 61.6172 96.372 61.3726 96.3852 61.1282L96.8674 49.978C96.8967 49.4712 97.117 48.9943 97.4839 48.6435C97.8509 48.2927 98.3371 48.094 98.8448 48.0875H109.99C110.235 48.0866 110.477 48.1355 110.703 48.2312C110.928 48.3269 111.131 48.4675 111.3 48.6444C111.47 48.8213 111.601 49.0307 111.687 49.26C111.772 49.4893 111.81 49.7336 111.799 49.978L111.292 61.1282C111.264 61.6346 111.045 62.1115 110.679 62.4624C110.313 62.8134 109.827 63.0122 109.32 63.0188Z" fill="#FAFAFA"/>
</g>
<path d="M23.4747 80.3131H12.3149C12.0701 80.3148 11.8276 80.2664 11.6023 80.1709C11.3769 80.0753 11.1735 79.9347 11.0046 79.7576C10.8356 79.5805 10.7047 79.3707 10.6198 79.1411C10.535 78.9115 10.498 78.667 10.5111 78.4226L10.9934 67.2773C11.0227 66.7704 11.243 66.2936 11.6099 65.9427C11.9768 65.5919 12.4631 65.3932 12.9707 65.3868H24.1209C24.3657 65.3851 24.6082 65.4335 24.8335 65.5291C25.0589 65.6246 25.2623 65.7653 25.4312 65.9423C25.6002 66.1194 25.7311 66.3292 25.816 66.5588C25.9008 66.7884 25.9378 67.0329 25.9246 67.2773L25.4424 78.4226C25.4144 78.9282 25.1958 79.4044 24.8306 79.7552C24.4655 80.106 23.981 80.3054 23.4747 80.3131Z" fill="#407BFF"/>
<path d="M40.4846 80.3132H29.3344C29.0896 80.3149 28.8471 80.2664 28.6218 80.1709C28.3965 80.0754 28.193 79.9347 28.0241 79.7576C27.8551 79.5805 27.7242 79.3707 27.6393 79.1412C27.5545 78.9116 27.5175 78.6671 27.5307 78.4227L28.0129 67.2773C28.0411 66.7701 28.261 66.2926 28.6282 65.9415C28.9954 65.5904 29.4823 65.3921 29.9903 65.3868H41.1356C41.3808 65.3845 41.6238 65.4324 41.8497 65.5276C42.0756 65.6229 42.2796 65.7634 42.4491 65.9406C42.6186 66.1178 42.7499 66.3278 42.8351 66.5577C42.9202 66.7876 42.9574 67.0325 42.9442 67.2773L42.4619 78.4227C42.4349 78.9303 42.2153 79.4085 41.8479 79.7598C41.4805 80.1111 40.9929 80.309 40.4846 80.3132Z" fill="#407BFF"/>
<path d="M57.4993 80.3131H46.3539C46.1092 80.3148 45.8667 80.2664 45.6413 80.1709C45.416 80.0753 45.2126 79.9347 45.0436 79.7576C44.8747 79.5805 44.7437 79.3707 44.6589 79.1411C44.574 78.9115 44.537 78.667 44.5502 78.4226L45.0325 67.2773C45.0606 66.77 45.2806 66.2925 45.6477 65.9415C46.0149 65.5904 46.5018 65.3921 47.0098 65.3868H58.1986C58.4435 65.3851 58.6862 65.4335 58.9118 65.529C59.1374 65.6245 59.3411 65.7651 59.5104 65.9421C59.6798 66.1191 59.8112 66.3288 59.8966 66.5584C59.982 66.788 60.0196 67.0326 60.0071 67.2773L59.5007 78.4226C59.4723 78.934 59.249 79.415 58.8767 79.7667C58.5044 80.1184 58.0114 80.3139 57.4993 80.3131Z" fill="#407BFF"/>
<path d="M74.5185 80.3131H63.3731C63.1282 80.3148 62.8854 80.2664 62.6599 80.1709C62.4343 80.0754 62.2306 79.9348 62.0613 79.7578C61.8919 79.5808 61.7605 79.3711 61.6751 79.1415C61.5897 78.9119 61.5521 78.6673 61.5646 78.4226L62.0469 67.2773C62.0738 66.7705 62.2927 66.293 62.6591 65.9418C63.0255 65.5906 63.5119 65.3922 64.0194 65.3868H75.1696C75.4143 65.3851 75.6568 65.4335 75.8821 65.5291C76.1075 65.6246 76.3109 65.7653 76.4798 65.9423C76.6488 66.1194 76.7797 66.3292 76.8646 66.5588C76.9494 66.7884 76.9864 67.0329 76.9733 67.2773L76.491 78.4226C76.4629 78.929 76.2437 79.4059 75.8775 79.7568C75.5113 80.1078 75.0256 80.3066 74.5185 80.3131Z" fill="#407BFF"/>
<path d="M91.5382 80.3131H80.3832C80.1385 80.3148 79.8959 80.2664 79.6706 80.1709C79.4453 80.0753 79.2419 79.9347 79.0729 79.7576C78.904 79.5805 78.773 79.3707 78.6882 79.1411C78.6033 78.9115 78.5663 78.667 78.5795 78.4226L79.0618 67.2773C79.091 66.7704 79.3113 66.2936 79.6782 65.9427C80.0452 65.5919 80.5315 65.3932 81.0391 65.3868H92.1893C92.434 65.3851 92.6765 65.4335 92.9019 65.5291C93.1272 65.6246 93.3306 65.7653 93.4996 65.9423C93.6685 66.1194 93.7995 66.3292 93.8843 66.5588C93.9692 66.7884 94.0062 67.0329 93.993 67.2773L93.5107 78.4226C93.4815 78.9286 93.2619 79.4048 92.896 79.7555C92.5301 80.1063 92.045 80.3055 91.5382 80.3131Z" fill="#407BFF"/>
<path d="M108.557 80.3131H97.4071C97.1624 80.3148 96.9199 80.2664 96.6945 80.1709C96.4692 80.0753 96.2658 79.9347 96.0968 79.7576C95.9279 79.5805 95.797 79.3707 95.7121 79.1411C95.6272 78.9115 95.5903 78.667 95.6034 78.4226L96.0857 67.2773C96.1138 66.77 96.3338 66.2925 96.701 65.9415C97.0681 65.5904 97.5551 65.3921 98.063 65.3868H109.208C109.453 65.3851 109.696 65.4335 109.922 65.529C110.147 65.6245 110.351 65.7651 110.52 65.9421C110.69 66.1191 110.821 66.3288 110.906 66.5584C110.992 66.788 111.029 67.0326 111.017 67.2773L110.511 78.4226C110.484 78.9262 110.268 79.4009 109.905 79.7516C109.543 80.1023 109.061 80.3029 108.557 80.3131Z" fill="#407BFF"/>
<g opacity="0.8">
<path opacity="0.8" d="M23.4747 80.3133H12.3149C12.0701 80.3149 11.8276 80.2665 11.6023 80.171C11.3769 80.0754 11.1735 79.9348 11.0046 79.7577C10.8356 79.5806 10.7047 79.3708 10.6198 79.1412C10.535 78.9117 10.498 78.6672 10.5111 78.4228L10.9934 67.2774C11.0227 66.7706 11.243 66.2937 11.6099 65.9429C11.9768 65.592 12.4631 65.3934 12.9707 65.3869H24.1209C24.3657 65.3852 24.6082 65.4336 24.8335 65.5292C25.0589 65.6247 25.2623 65.7654 25.4312 65.9425C25.6002 66.1196 25.7311 66.3293 25.816 66.5589C25.9008 66.7885 25.9378 67.033 25.9246 67.2774L25.4424 78.4228C25.4144 78.9283 25.1958 79.4045 24.8306 79.7553C24.4655 80.1061 23.981 80.3055 23.4747 80.3133Z" fill="#FAFAFA"/>
<path opacity="0.8" d="M40.4846 80.3132H29.3344C29.0896 80.3149 28.8471 80.2664 28.6218 80.1709C28.3965 80.0754 28.193 79.9347 28.0241 79.7576C27.8551 79.5805 27.7242 79.3707 27.6393 79.1412C27.5545 78.9116 27.5175 78.6671 27.5307 78.4227L28.0129 67.2773C28.0411 66.7701 28.261 66.2926 28.6282 65.9415C28.9954 65.5904 29.4823 65.3921 29.9903 65.3868H41.1356C41.3808 65.3845 41.6238 65.4324 41.8497 65.5276C42.0756 65.6229 42.2796 65.7634 42.4491 65.9406C42.6186 66.1178 42.7499 66.3278 42.8351 66.5577C42.9202 66.7876 42.9574 67.0325 42.9442 67.2773L42.4619 78.4227C42.4349 78.9303 42.2153 79.4085 41.8479 79.7598C41.4805 80.1111 40.9929 80.309 40.4846 80.3132Z" fill="#FAFAFA"/>
<path opacity="0.8" d="M57.4993 80.3131H46.3539C46.1092 80.3148 45.8667 80.2664 45.6413 80.1709C45.416 80.0753 45.2126 79.9347 45.0436 79.7576C44.8747 79.5805 44.7437 79.3707 44.6589 79.1411C44.574 78.9115 44.537 78.667 44.5502 78.4226L45.0325 67.2773C45.0606 66.77 45.2806 66.2925 45.6477 65.9415C46.0149 65.5904 46.5018 65.3921 47.0098 65.3868H58.1986C58.4435 65.3851 58.6862 65.4335 58.9118 65.529C59.1374 65.6245 59.3411 65.7651 59.5104 65.9421C59.6798 66.1191 59.8112 66.3288 59.8966 66.5584C59.982 66.788 60.0196 67.0326 60.0071 67.2773L59.5007 78.4226C59.4723 78.934 59.249 79.415 58.8767 79.7667C58.5044 80.1184 58.0114 80.3139 57.4993 80.3131Z" fill="#FAFAFA"/>
<path opacity="0.8" d="M74.5185 80.3131H63.3731C63.1282 80.3148 62.8854 80.2664 62.6599 80.1709C62.4343 80.0754 62.2306 79.9348 62.0613 79.7578C61.8919 79.5808 61.7605 79.3711 61.6751 79.1415C61.5897 78.9119 61.5521 78.6673 61.5646 78.4226L62.0469 67.2773C62.0738 66.7705 62.2927 66.293 62.6591 65.9418C63.0255 65.5906 63.5119 65.3922 64.0194 65.3868H75.1696C75.4143 65.3851 75.6568 65.4335 75.8821 65.5291C76.1075 65.6246 76.3109 65.7653 76.4798 65.9423C76.6488 66.1194 76.7797 66.3292 76.8646 66.5588C76.9494 66.7884 76.9864 67.0329 76.9733 67.2773L76.491 78.4226C76.4629 78.929 76.2437 79.4059 75.8775 79.7568C75.5113 80.1078 75.0256 80.3066 74.5185 80.3131Z" fill="#FAFAFA"/>
<path opacity="0.8" d="M91.5382 80.3131H80.3832C80.1385 80.3148 79.8959 80.2664 79.6706 80.1709C79.4453 80.0753 79.2419 79.9347 79.0729 79.7576C78.904 79.5805 78.773 79.3707 78.6882 79.1411C78.6033 78.9115 78.5663 78.667 78.5795 78.4226L79.0618 67.2773C79.091 66.7704 79.3113 66.2936 79.6782 65.9427C80.0452 65.5919 80.5315 65.3932 81.0391 65.3868H92.1893C92.434 65.3851 92.6765 65.4335 92.9019 65.5291C93.1272 65.6246 93.3306 65.7653 93.4996 65.9423C93.6685 66.1194 93.7995 66.3292 93.8843 66.5588C93.9692 66.7884 94.0062 67.0329 93.993 67.2773L93.5107 78.4226C93.4815 78.9286 93.2619 79.4048 92.896 79.7555C92.5301 80.1063 92.045 80.3055 91.5382 80.3131Z" fill="#FAFAFA"/>
<path opacity="0.8" d="M108.557 80.3131H97.4071C97.1624 80.3148 96.9199 80.2664 96.6945 80.1709C96.4692 80.0753 96.2658 79.9347 96.0968 79.7576C95.9279 79.5805 95.797 79.3707 95.7121 79.1411C95.6272 78.9115 95.5903 78.667 95.6034 78.4226L96.0857 67.2773C96.1138 66.77 96.3338 66.2925 96.701 65.9415C97.0681 65.5904 97.5551 65.3921 98.063 65.3868H109.208C109.453 65.3851 109.696 65.4335 109.922 65.529C110.147 65.6245 110.351 65.7651 110.52 65.9421C110.69 66.1191 110.821 66.3288 110.906 66.5584C110.992 66.788 111.029 67.0326 111.017 67.2773L110.511 78.4226C110.484 78.9262 110.268 79.4009 109.905 79.7516C109.543 80.1023 109.061 80.3029 108.557 80.3131Z" fill="#FAFAFA"/>
</g>
<path d="M20.3157 21.7554C16.2067 21.7554 12.9851 16.9761 12.9851 10.8753C12.9851 4.77452 16.2067 0 20.3157 0C24.4247 0 27.6511 4.77934 27.6511 10.8753C27.6324 11.1612 27.5056 11.4293 27.2964 11.6252C27.0873 11.8211 26.8115 11.9301 26.525 11.9301C26.2384 11.9301 25.9626 11.8211 25.7535 11.6252C25.5444 11.4293 25.4176 11.1612 25.3989 10.8753C25.3989 6.20205 23.0743 2.2474 20.3157 2.2474C17.5571 2.2474 15.2325 6.20205 15.2325 10.8753C15.2325 15.5485 17.5619 19.5032 20.3157 19.5032C20.4698 19.4931 20.6243 19.5147 20.7697 19.5668C20.915 19.6188 21.0482 19.7001 21.1609 19.8056C21.2736 19.9112 21.3634 20.0388 21.4248 20.1804C21.4863 20.3221 21.5179 20.4749 21.5179 20.6293C21.5179 20.7837 21.4863 20.9365 21.4248 21.0781C21.3634 21.2198 21.2736 21.3474 21.1609 21.4529C21.0482 21.5585 20.915 21.6398 20.7697 21.6918C20.6243 21.7439 20.4698 21.7655 20.3157 21.7554Z" fill="#407BFF"/>
<path d="M37.3352 21.7554C33.2262 21.7554 30.0046 16.9761 30.0046 10.8753C30.0046 4.77452 33.2262 0 37.3352 0C41.4442 0 44.6947 4.77934 44.6947 10.8753C44.676 11.1612 44.5492 11.4293 44.3401 11.6252C44.131 11.8211 43.8551 11.9301 43.5686 11.9301C43.2821 11.9301 43.0063 11.8211 42.7971 11.6252C42.588 11.4293 42.4612 11.1612 42.4425 10.8753C42.4425 6.20205 40.1179 2.2474 37.3593 2.2474C34.6007 2.2474 32.2762 6.20205 32.2762 10.8753C32.2762 15.5485 34.6055 19.5032 37.3593 19.5032C37.6453 19.5219 37.9134 19.6487 38.1092 19.8578C38.3051 20.0669 38.4141 20.3428 38.4141 20.6293C38.4141 20.9158 38.3051 21.1916 38.1092 21.4008C37.9134 21.6099 37.6453 21.7367 37.3593 21.7554H37.3352Z" fill="#407BFF"/>
<path d="M54.3403 21.7554C50.2265 21.7554 47.0049 16.9761 47.0049 10.8753C47.0049 4.77452 50.2265 0 54.3403 0C58.4541 0 61.6709 4.77934 61.6709 10.8753C61.6709 11.1733 61.5525 11.4591 61.3417 11.6699C61.131 11.8806 60.8452 11.999 60.5472 11.999C60.2491 11.999 59.9633 11.8806 59.7526 11.6699C59.5418 11.4591 59.4235 11.1733 59.4235 10.8753C59.4235 6.20205 57.0941 2.2474 54.3403 2.2474C51.5865 2.2474 49.2571 6.20205 49.2571 10.8753C49.2571 15.5485 51.5865 19.5032 54.3403 19.5032C54.6262 19.5219 54.8943 19.6487 55.0902 19.8578C55.2861 20.0669 55.3951 20.3428 55.3951 20.6293C55.3951 20.9158 55.2861 21.1916 55.0902 21.4008C54.8943 21.6099 54.6262 21.7367 54.3403 21.7554Z" fill="#407BFF"/>
<path d="M71.3742 21.7554C67.2604 21.7554 64.0388 16.9761 64.0388 10.8753C64.0388 4.77452 67.2604 0 71.3742 0C75.488 0 78.7048 4.77934 78.7048 10.8753C78.7048 11.1733 78.5864 11.4591 78.3757 11.6699C78.1649 11.8806 77.8791 11.999 77.5811 11.999C77.2831 11.999 76.9973 11.8806 76.7865 11.6699C76.5758 11.4591 76.4574 11.1733 76.4574 10.8753C76.4574 6.20205 74.128 2.2474 71.3742 2.2474C68.6204 2.2474 66.291 6.20205 66.291 10.8753C66.291 15.5485 68.6156 19.5032 71.3742 19.5032C71.6602 19.5219 71.9282 19.6487 72.1241 19.8578C72.32 20.0669 72.429 20.3428 72.429 20.6293C72.429 20.9158 72.32 21.1916 72.1241 21.4008C71.9282 21.6099 71.6602 21.7367 71.3742 21.7554Z" fill="#407BFF"/>
<path d="M88.3889 21.7554C84.2799 21.7554 81.0583 16.9761 81.0583 10.8753C81.0583 4.77452 84.2799 0 88.3889 0C92.4979 0 95.7243 4.77934 95.7243 10.8753C95.7056 11.1612 95.5788 11.4293 95.3697 11.6252C95.1606 11.8211 94.8848 11.9301 94.5982 11.9301C94.3117 11.9301 94.0359 11.8211 93.8267 11.6252C93.6176 11.4293 93.4908 11.1612 93.4721 10.8753C93.4721 6.20205 91.1475 2.2474 88.3889 2.2474C85.6303 2.2474 83.3058 6.20205 83.3058 10.8753C83.3058 15.5485 85.6351 19.5032 88.3889 19.5032C88.543 19.4931 88.6975 19.5147 88.8429 19.5668C88.9883 19.6188 89.1214 19.7001 89.2341 19.8056C89.3468 19.9112 89.4367 20.0388 89.4981 20.1804C89.5595 20.3221 89.5912 20.4749 89.5912 20.6293C89.5912 20.7837 89.5595 20.9365 89.4981 21.0781C89.4367 21.2198 89.3468 21.3474 89.2341 21.4529C89.1214 21.5585 88.9883 21.6398 88.8429 21.6918C88.6975 21.7439 88.543 21.7655 88.3889 21.7554Z" fill="#407BFF"/>
<path d="M105.408 21.7554C101.299 21.7554 98.0779 16.9761 98.0779 10.8753C98.0779 4.77452 101.299 0 105.408 0C109.517 0 112.744 4.77934 112.744 10.8753C112.725 11.1612 112.598 11.4293 112.389 11.6252C112.18 11.8211 111.904 11.9301 111.618 11.9301C111.331 11.9301 111.055 11.8211 110.846 11.6252C110.637 11.4293 110.51 11.1612 110.492 10.8753C110.492 6.20205 108.162 2.2474 105.408 2.2474C102.655 2.2474 100.325 6.20205 100.325 10.8753C100.325 15.5485 102.655 19.5032 105.408 19.5032C105.694 19.5219 105.962 19.6487 106.158 19.8578C106.354 20.0669 106.463 20.3428 106.463 20.6293C106.463 20.9158 106.354 21.1916 106.158 21.4008C105.962 21.6099 105.694 21.7367 105.408 21.7554Z" fill="#407BFF"/>
<g opacity="0.3">
<path opacity="0.3" d="M20.3157 21.7554C16.2067 21.7554 12.9851 16.9761 12.9851 10.8753C12.9851 4.77452 16.2067 0 20.3157 0C24.4247 0 27.6511 4.77934 27.6511 10.8753C27.6324 11.1612 27.5056 11.4293 27.2964 11.6252C27.0873 11.8211 26.8115 11.9301 26.525 11.9301C26.2384 11.9301 25.9626 11.8211 25.7535 11.6252C25.5444 11.4293 25.4176 11.1612 25.3989 10.8753C25.3989 6.20205 23.0743 2.2474 20.3157 2.2474C17.5571 2.2474 15.2325 6.20205 15.2325 10.8753C15.2325 15.5485 17.5619 19.5032 20.3157 19.5032C20.4698 19.4931 20.6243 19.5147 20.7697 19.5668C20.915 19.6188 21.0482 19.7001 21.1609 19.8056C21.2736 19.9112 21.3634 20.0388 21.4248 20.1804C21.4863 20.3221 21.5179 20.4749 21.5179 20.6293C21.5179 20.7837 21.4863 20.9365 21.4248 21.0781C21.3634 21.2198 21.2736 21.3474 21.1609 21.4529C21.0482 21.5585 20.915 21.6398 20.7697 21.6918C20.6243 21.7439 20.4698 21.7655 20.3157 21.7554Z" fill="black"/>
<path opacity="0.3" d="M37.3352 21.7554C33.2262 21.7554 30.0046 16.9761 30.0046 10.8753C30.0046 4.77452 33.2262 0 37.3352 0C41.4442 0 44.6947 4.77934 44.6947 10.8753C44.676 11.1612 44.5492 11.4293 44.3401 11.6252C44.131 11.8211 43.8551 11.9301 43.5686 11.9301C43.2821 11.9301 43.0063 11.8211 42.7971 11.6252C42.588 11.4293 42.4612 11.1612 42.4425 10.8753C42.4425 6.20205 40.1179 2.2474 37.3593 2.2474C34.6007 2.2474 32.2762 6.20205 32.2762 10.8753C32.2762 15.5485 34.6055 19.5032 37.3593 19.5032C37.6453 19.5219 37.9134 19.6487 38.1092 19.8578C38.3051 20.0669 38.4141 20.3428 38.4141 20.6293C38.4141 20.9158 38.3051 21.1916 38.1092 21.4008C37.9134 21.6099 37.6453 21.7367 37.3593 21.7554H37.3352Z" fill="black"/>
<path opacity="0.3" d="M54.3403 21.7554C50.2265 21.7554 47.0049 16.9761 47.0049 10.8753C47.0049 4.77452 50.2265 0 54.3403 0C58.4541 0 61.6709 4.77934 61.6709 10.8753C61.6709 11.1733 61.5525 11.4591 61.3417 11.6699C61.131 11.8806 60.8452 11.999 60.5472 11.999C60.2491 11.999 59.9633 11.8806 59.7526 11.6699C59.5418 11.4591 59.4235 11.1733 59.4235 10.8753C59.4235 6.20205 57.0941 2.2474 54.3403 2.2474C51.5865 2.2474 49.2571 6.20205 49.2571 10.8753C49.2571 15.5485 51.5865 19.5032 54.3403 19.5032C54.6262 19.5219 54.8943 19.6487 55.0902 19.8578C55.2861 20.0669 55.3951 20.3428 55.3951 20.6293C55.3951 20.9158 55.2861 21.1916 55.0902 21.4008C54.8943 21.6099 54.6262 21.7367 54.3403 21.7554Z" fill="black"/>
<path opacity="0.3" d="M71.3742 21.7554C67.2604 21.7554 64.0388 16.9761 64.0388 10.8753C64.0388 4.77452 67.2604 0 71.3742 0C75.488 0 78.7048 4.77934 78.7048 10.8753C78.7048 11.1733 78.5864 11.4591 78.3757 11.6699C78.1649 11.8806 77.8791 11.999 77.5811 11.999C77.2831 11.999 76.9973 11.8806 76.7865 11.6699C76.5758 11.4591 76.4574 11.1733 76.4574 10.8753C76.4574 6.20205 74.128 2.2474 71.3742 2.2474C68.6204 2.2474 66.291 6.20205 66.291 10.8753C66.291 15.5485 68.6156 19.5032 71.3742 19.5032C71.6602 19.5219 71.9282 19.6487 72.1241 19.8578C72.32 20.0669 72.429 20.3428 72.429 20.6293C72.429 20.9158 72.32 21.1916 72.1241 21.4008C71.9282 21.6099 71.6602 21.7367 71.3742 21.7554Z" fill="black"/>
<path opacity="0.3" d="M88.3889 21.7554C84.2799 21.7554 81.0583 16.9761 81.0583 10.8753C81.0583 4.77452 84.2799 0 88.3889 0C92.4979 0 95.7243 4.77934 95.7243 10.8753C95.7056 11.1612 95.5788 11.4293 95.3697 11.6252C95.1606 11.8211 94.8848 11.9301 94.5982 11.9301C94.3117 11.9301 94.0359 11.8211 93.8267 11.6252C93.6176 11.4293 93.4908 11.1612 93.4721 10.8753C93.4721 6.20205 91.1475 2.2474 88.3889 2.2474C85.6303 2.2474 83.3058 6.20205 83.3058 10.8753C83.3058 15.5485 85.6351 19.5032 88.3889 19.5032C88.543 19.4931 88.6975 19.5147 88.8429 19.5668C88.9883 19.6188 89.1214 19.7001 89.2341 19.8056C89.3468 19.9112 89.4367 20.0388 89.4981 20.1804C89.5595 20.3221 89.5912 20.4749 89.5912 20.6293C89.5912 20.7837 89.5595 20.9365 89.4981 21.0781C89.4367 21.2198 89.3468 21.3474 89.2341 21.4529C89.1214 21.5585 88.9883 21.6398 88.8429 21.6918C88.6975 21.7439 88.543 21.7655 88.3889 21.7554Z" fill="black"/>
<path opacity="0.3" d="M105.408 21.7554C101.299 21.7554 98.0774 16.9761 98.0774 10.8753C98.0774 4.77452 101.299 0 105.408 0C109.517 0 112.743 4.77934 112.743 10.8753C112.725 11.1612 112.598 11.4293 112.389 11.6252C112.18 11.8211 111.904 11.9301 111.617 11.9301C111.331 11.9301 111.055 11.8211 110.846 11.6252C110.637 11.4293 110.51 11.1612 110.491 10.8753C110.491 6.20205 108.162 2.2474 105.408 2.2474C102.654 2.2474 100.325 6.20205 100.325 10.8753C100.325 15.5485 102.654 19.5032 105.408 19.5032C105.694 19.5219 105.962 19.6487 106.158 19.8578C106.354 20.0669 106.463 20.3428 106.463 20.6293C106.463 20.9158 106.354 21.1916 106.158 21.4008C105.962 21.6099 105.694 21.7367 105.408 21.7554Z" fill="black"/>
</g>
<path d="M72.5122 46.3419C68.5768 45.5606 64.1592 46.4721 62.5822 50.6196C61.3138 53.957 62.9391 57.574 66.4404 58.4566C69.5269 59.2331 74.8512 58.283 75.9508 54.7238C77.2096 50.6534 72.0926 49.3319 69.2231 49.0908C68.3598 49.0185 68.3646 50.3688 69.2231 50.4412C70.5301 50.5521 72.0251 50.6245 73.1826 51.343C75.5939 52.8526 74.6005 55.2736 72.546 56.431C70.4915 57.5885 67.3422 57.8779 65.3118 56.595C63.0934 55.1819 63.021 52.0761 64.3473 50.0505C66.0883 47.3739 69.2665 47.0749 72.1312 47.6392C72.98 47.808 73.3417 46.5058 72.4881 46.337L72.5122 46.3419Z" fill="#407BFF"/>
<path opacity="0.1" d="M72.5122 46.3419C68.5768 45.5606 64.1592 46.4721 62.5822 50.6196C61.3138 53.957 62.9391 57.574 66.4404 58.4566C69.5269 59.2331 74.8512 58.283 75.9508 54.7238C77.2096 50.6534 72.0926 49.3319 69.2231 49.0908C68.3598 49.0185 68.3646 50.3688 69.2231 50.4412C70.5301 50.5521 72.0251 50.6245 73.1826 51.343C75.5939 52.8526 74.6005 55.2736 72.546 56.431C70.4915 57.5885 67.3422 57.8779 65.3118 56.595C63.0934 55.1819 63.021 52.0761 64.3473 50.0505C66.0883 47.3739 69.2665 47.0749 72.1312 47.6392C72.98 47.808 73.3417 46.5058 72.4881 46.337L72.5122 46.3419Z" fill="#FAFAFA"/>
<path d="M29.0932 30.8077C32.8568 35.7969 37.0527 40.4447 41.6323 44.6972C42.2689 45.2904 43.2287 44.3355 42.5969 43.7326C38.0957 39.5642 33.9693 35.0085 30.2651 30.118C29.7491 29.4332 28.5772 30.118 29.1028 30.798L29.0932 30.8077Z" fill="#407BFF"/>
<path d="M30.4867 44.1328C33.3321 39.0738 38.314 34.7574 43.0258 31.4538C43.7299 30.9716 43.0596 29.7852 42.3458 30.2867C37.4459 33.7302 32.2952 38.1768 29.3244 43.448C29.2429 43.6016 29.2238 43.7807 29.271 43.948C29.3183 44.1154 29.4282 44.258 29.578 44.3463C29.7278 44.4345 29.9059 44.4616 30.0752 44.4219C30.2445 44.3821 30.3919 44.2786 30.4867 44.1328Z" fill="#407BFF"/>
<g opacity="0.2">
<path opacity="0.2" d="M29.0932 30.8077C32.8568 35.7969 37.0527 40.4447 41.6323 44.6972C42.2689 45.2904 43.2287 44.3355 42.5969 43.7326C38.0957 39.5642 33.9693 35.0085 30.2651 30.118C29.7491 29.4332 28.5772 30.118 29.1028 30.798L29.0932 30.8077Z" fill="black"/>
<path opacity="0.2" d="M30.4872 44.1328C33.3326 39.0738 38.3145 34.7574 43.0263 31.4538C43.7304 30.9716 43.0601 29.7852 42.3463 30.2867C37.4464 33.7302 32.2957 38.1768 29.3249 43.448C29.2434 43.6016 29.2243 43.7807 29.2715 43.948C29.3187 44.1154 29.4287 44.258 29.5785 44.3463C29.7283 44.4345 29.9064 44.4616 30.0757 44.4219C30.2449 44.3821 30.3923 44.2786 30.4872 44.1328Z" fill="black"/>
</g>
<path d="M82.7317 35.124H91.5332C91.7018 35.1097 91.8589 35.0326 91.9734 34.908C92.0878 34.7834 92.1514 34.6204 92.1514 34.4512C92.1514 34.282 92.0878 34.119 91.9734 33.9944C91.8589 33.8698 91.7018 33.7927 91.5332 33.7784H82.7317C82.5631 33.7927 82.406 33.8698 82.2915 33.9944C82.177 34.119 82.1135 34.282 82.1135 34.4512C82.1135 34.6204 82.177 34.7834 82.2915 34.908C82.406 35.0326 82.5631 35.1097 82.7317 35.124Z" fill="#407BFF"/>
<path d="M82.6305 37.6271H87.733C87.912 37.6271 88.0838 37.556 88.2104 37.4293C88.337 37.3027 88.4082 37.131 88.4082 36.9519C88.4082 36.7729 88.337 36.6011 88.2104 36.4745C88.0838 36.3479 87.912 36.2767 87.733 36.2767H82.6305C82.4514 36.2767 82.2797 36.3479 82.1531 36.4745C82.0264 36.6011 81.9553 36.7729 81.9553 36.9519C81.9553 37.131 82.0264 37.3027 82.1531 37.4293C82.2797 37.556 82.4514 37.6271 82.6305 37.6271Z" fill="#407BFF"/>
<g opacity="0.1">
<path opacity="0.1" d="M82.7317 35.124H91.5332C91.7018 35.1097 91.8589 35.0326 91.9734 34.908C92.0878 34.7834 92.1514 34.6204 92.1514 34.4512C92.1514 34.282 92.0878 34.119 91.9734 33.9944C91.8589 33.8698 91.7018 33.7927 91.5332 33.7784H82.7317C82.5631 33.7927 82.406 33.8698 82.2915 33.9944C82.177 34.119 82.1135 34.282 82.1135 34.4512C82.1135 34.6204 82.177 34.7834 82.2915 34.908C82.406 35.0326 82.5631 35.1097 82.7317 35.124Z" fill="#FAFAFA"/>
<path opacity="0.1" d="M82.6305 37.6271H87.733C87.912 37.6271 88.0838 37.556 88.2104 37.4293C88.337 37.3027 88.4082 37.131 88.4082 36.9519C88.4082 36.7729 88.337 36.6011 88.2104 36.4745C88.0838 36.3479 87.912 36.2767 87.733 36.2767H82.6305C82.4514 36.2767 82.2797 36.3479 82.1531 36.4745C82.0264 36.6011 81.9553 36.7729 81.9553 36.9519C81.9553 37.131 82.0264 37.3027 82.1531 37.4293C82.2797 37.556 82.4514 37.6271 82.6305 37.6271Z" fill="#FAFAFA"/>
</g>
<path d="M30.0143 69.6742H37.5619C37.741 69.6742 37.9127 69.6031 38.0393 69.4765C38.1659 69.3498 38.2371 69.1781 38.2371 68.999C38.2371 68.82 38.1659 68.6482 38.0393 68.5216C37.9127 68.395 37.741 68.3239 37.5619 68.3239H30.0143C29.8352 68.3239 29.6635 68.395 29.5369 68.5216C29.4102 68.6482 29.3391 68.82 29.3391 68.999C29.3391 69.1781 29.4102 69.3498 29.5369 69.4765C29.6635 69.6031 29.8352 69.6742 30.0143 69.6742Z" fill="#407BFF"/>
<path d="M29.744 72.5727H39.5342C39.7133 72.5727 39.885 72.5015 40.0116 72.3749C40.1383 72.2483 40.2094 72.0765 40.2094 71.8975C40.2094 71.7184 40.1383 71.5467 40.0116 71.42C39.885 71.2934 39.7133 71.2223 39.5342 71.2223H29.744C29.565 71.2223 29.3932 71.2934 29.2666 71.42C29.14 71.5467 29.0688 71.7184 29.0688 71.8975C29.0688 72.0765 29.14 72.2483 29.2666 72.3749C29.3932 72.5015 29.565 72.5727 29.744 72.5727Z" fill="#407BFF"/>
<path d="M29.744 75.558H34.6391C34.8182 75.558 34.9899 75.4869 35.1165 75.3602C35.2432 75.2336 35.3143 75.0619 35.3143 74.8828C35.3143 74.7038 35.2432 74.532 35.1165 74.4054C34.9899 74.2788 34.8182 74.2076 34.6391 74.2076H29.744C29.565 74.2076 29.3932 74.2788 29.2666 74.4054C29.14 74.532 29.0688 74.7038 29.0688 74.8828C29.0688 75.0619 29.14 75.2336 29.2666 75.3602C29.3932 75.4869 29.565 75.558 29.744 75.558Z" fill="#407BFF"/>
<g opacity="0.1">
<path opacity="0.1" d="M30.0143 69.6742H37.5619C37.741 69.6742 37.9127 69.6031 38.0393 69.4765C38.1659 69.3498 38.2371 69.1781 38.2371 68.999C38.2371 68.82 38.1659 68.6482 38.0393 68.5216C37.9127 68.395 37.741 68.3239 37.5619 68.3239H30.0143C29.8352 68.3239 29.6635 68.395 29.5369 68.5216C29.4102 68.6482 29.3391 68.82 29.3391 68.999C29.3391 69.1781 29.4102 69.3498 29.5369 69.4765C29.6635 69.6031 29.8352 69.6742 30.0143 69.6742Z" fill="#FAFAFA"/>
<path opacity="0.1" d="M29.744 72.5727H39.5342C39.7133 72.5727 39.885 72.5015 40.0116 72.3749C40.1383 72.2483 40.2094 72.0765 40.2094 71.8975C40.2094 71.7184 40.1383 71.5467 40.0116 71.42C39.885 71.2934 39.7133 71.2223 39.5342 71.2223H29.744C29.565 71.2223 29.3932 71.2934 29.2666 71.42C29.14 71.5467 29.0688 71.7184 29.0688 71.8975C29.0688 72.0765 29.14 72.2483 29.2666 72.3749C29.3932 72.5015 29.565 72.5727 29.744 72.5727Z" fill="#FAFAFA"/>
<path opacity="0.1" d="M29.744 75.558H34.6391C34.8182 75.558 34.9899 75.4869 35.1165 75.3602C35.2432 75.2336 35.3143 75.0619 35.3143 74.8828C35.3143 74.7038 35.2432 74.532 35.1165 74.4054C34.9899 74.2788 34.8182 74.2076 34.6391 74.2076H29.744C29.565 74.2076 29.3932 74.2788 29.2666 74.4054C29.14 74.532 29.0688 74.7038 29.0688 74.8828C29.0688 75.0619 29.14 75.2336 29.2666 75.3602C29.3932 75.4869 29.565 75.558 29.744 75.558Z" fill="#FAFAFA"/>
</g>
</svg>
