<svg width="126" height="97" viewBox="0 0 126 97" fill="none" xmlns="http://www.w3.org/2000/svg">
<path d="M116.112 96.4346H4.80894C4.15414 96.4393 3.50537 96.3093 2.90295 96.0526C2.30054 95.796 1.75737 95.4181 1.3072 94.9426C0.857027 94.467 0.509491 93.904 0.286189 93.2884C0.0628864 92.6729 -0.0314031 92.0179 0.00917776 91.3644L4.16249 6.43899C4.23943 5.08003 4.82914 3.80088 5.81254 2.85982C6.79595 1.91876 8.0998 1.3859 9.46082 1.36881H120.764C121.419 1.36345 122.068 1.49304 122.671 1.7495C123.273 2.00596 123.817 2.38379 124.267 2.85945C124.717 3.33511 125.065 3.89842 125.288 4.51426C125.511 5.1301 125.605 5.78529 125.564 6.43899L121.41 91.3644C121.332 92.723 120.742 94.0016 119.759 94.9424C118.776 95.8833 117.473 96.4165 116.112 96.4346Z" fill="#623D91"/>
<path opacity="0.7" d="M116.112 96.4346H4.80894C4.15414 96.4393 3.50537 96.3093 2.90295 96.0526C2.30054 95.796 1.75737 95.4181 1.3072 94.9426C0.857027 94.467 0.509491 93.904 0.286189 93.2884C0.0628864 92.6729 -0.0314031 92.0179 0.00917776 91.3644L4.16249 6.43899C4.23943 5.08003 4.82914 3.80088 5.81254 2.85982C6.79595 1.91876 8.0998 1.3859 9.46082 1.36881H120.764C121.419 1.36345 122.068 1.49304 122.671 1.7495C123.273 2.00596 123.817 2.38379 124.267 2.85945C124.717 3.33511 125.065 3.89842 125.288 4.51426C125.511 5.1301 125.605 5.78529 125.564 6.43899L121.41 91.3644C121.332 92.723 120.742 94.0016 119.759 94.9424C118.776 95.8833 117.473 96.4165 116.112 96.4346Z" fill="white"/>
<path d="M125.074 2.28575C124.481 1.62905 123.741 1.12225 122.915 0.806951L123.067 0.40979C123.952 0.753327 124.746 1.29706 125.386 1.99844L125.074 2.28575Z" fill="#623D91"/>
<path d="M120.819 0H111.921V0.422514H120.819V0Z" fill="#623D91"/>
<path d="M120.764 1.39428H9.46069C8.09966 1.41136 6.79581 1.94423 5.81241 2.88529C4.829 3.82635 4.23929 5.1055 4.16235 6.46445H125.572C125.613 5.81004 125.519 5.15414 125.295 4.53772C125.072 3.9213 124.724 3.35759 124.272 2.8818C123.821 2.40601 123.277 2.02835 122.673 1.77242C122.069 1.51648 121.419 1.38775 120.764 1.39428Z" fill="#623D91"/>
<path d="M3.40599 90.7054L7.26777 12.1726C7.30416 11.5395 7.57965 10.9439 8.03852 10.5062C8.49739 10.0685 9.10538 9.82142 9.73948 9.81496H119.657C119.962 9.81149 120.265 9.87099 120.546 9.98975C120.827 10.1085 121.081 10.284 121.292 10.5052C121.502 10.7264 121.665 10.9886 121.77 11.2755C121.874 11.5624 121.919 11.8678 121.9 12.1726L118.06 90.7096C118.023 91.3438 117.747 91.9405 117.288 92.379C116.828 92.8175 116.219 93.065 115.584 93.0714H5.64954C5.3436 93.0744 5.04034 93.0142 4.75868 92.8947C4.47703 92.7752 4.22302 92.599 4.0125 92.377C3.80199 92.155 3.63948 91.892 3.53513 91.6044C3.43078 91.3167 3.38682 91.0107 3.40599 90.7054Z" fill="white"/>
<path opacity="0.3" d="M19.0053 36.7377H13.9351C13.8254 36.739 13.7165 36.7177 13.6152 36.6753C13.514 36.6329 13.4225 36.5701 13.3465 36.4909C13.2704 36.4117 13.2115 36.3177 13.1732 36.2148C13.1349 36.1119 13.1181 36.0023 13.1239 35.8926L13.5464 27.0198C13.5614 26.7919 13.662 26.578 13.8282 26.4213C13.9944 26.2645 14.2137 26.1764 14.4422 26.1748H19.5123C19.6225 26.1729 19.7318 26.1937 19.8336 26.2359C19.9353 26.2781 20.0273 26.3407 20.1038 26.42C20.1803 26.4993 20.2396 26.5934 20.2782 26.6966C20.3167 26.7998 20.3336 26.9098 20.3278 27.0198L19.9053 35.8926C19.8903 36.1213 19.789 36.3358 19.622 36.4926C19.4549 36.6495 19.2345 36.7371 19.0053 36.7377Z" fill="#623D91"/>
<path opacity="0.3" d="M29.1544 36.7376H24.0842C23.9744 36.7383 23.8656 36.7167 23.7645 36.6741C23.6633 36.6315 23.5718 36.5688 23.4955 36.4898C23.4193 36.4107 23.3599 36.3171 23.3209 36.2144C23.2819 36.1118 23.2642 36.0023 23.2688 35.8926L23.78 25.4143C23.7969 25.1863 23.8988 24.973 24.0654 24.8165C24.2321 24.66 24.4514 24.5718 24.68 24.5692H29.7501C29.8599 24.5686 29.9687 24.5902 30.0699 24.6328C30.1711 24.6754 30.2626 24.7381 30.3388 24.8171C30.4151 24.8961 30.4745 24.9898 30.5135 25.0924C30.5524 25.1951 30.5702 25.3046 30.5656 25.4143L30.0544 35.8926C30.0374 36.1206 29.9356 36.3339 29.7689 36.4904C29.6023 36.6469 29.383 36.7351 29.1544 36.7376Z" fill="#623D91"/>
<path opacity="0.3" d="M39.3031 36.7377H34.2329C34.1231 36.7384 34.0143 36.7168 33.9131 36.6742C33.812 36.6315 33.7205 36.5688 33.6442 36.4898C33.568 36.4108 33.5086 36.3172 33.4696 36.2145C33.4306 36.1119 33.4129 36.0024 33.4175 35.8927L33.9836 24.32C34.0005 24.092 34.1024 23.8787 34.269 23.7223C34.4357 23.5658 34.655 23.4775 34.8836 23.475H39.9538C40.0635 23.4743 40.1723 23.4959 40.2735 23.5386C40.3747 23.5812 40.4662 23.6439 40.5424 23.7229C40.6187 23.8019 40.6781 23.8956 40.7171 23.9982C40.756 24.1008 40.7738 24.2103 40.7692 24.32L40.2242 35.88C40.2101 36.1139 40.1066 36.3334 39.9351 36.493C39.7637 36.6527 39.5374 36.7403 39.3031 36.7377Z" fill="#623D91"/>
<path opacity="0.3" d="M49.456 36.7376H44.3859C44.2763 36.7383 44.1676 36.7166 44.0667 36.674C43.9657 36.6313 43.8745 36.5686 43.7986 36.4895C43.7227 36.4104 43.6637 36.3167 43.6252 36.2141C43.5867 36.1114 43.5695 36.0021 43.5746 35.8926L44.1873 23.327C44.2042 23.099 44.306 22.8857 44.4727 22.7292C44.6393 22.5727 44.8586 22.4845 45.0872 22.4819H50.1574C50.2672 22.4813 50.376 22.5029 50.4772 22.5455C50.5784 22.5881 50.6698 22.6508 50.7461 22.7298C50.8223 22.8089 50.8817 22.9025 50.9207 23.0052C50.9597 23.1078 50.9774 23.2173 50.9729 23.327L50.3644 35.8799C50.3525 36.1123 50.2514 36.3311 50.0822 36.4909C49.913 36.6506 49.6887 36.739 49.456 36.7376Z" fill="#623D91"/>
<path d="M59.6051 36.7375H54.5349C54.4251 36.7382 54.3163 36.7166 54.2151 36.674C54.114 36.6313 54.0225 36.5686 53.9462 36.4896C53.87 36.4106 53.8106 36.317 53.7716 36.2143C53.7326 36.1117 53.7149 36.0022 53.7195 35.8925L54.5222 19.4947C54.5382 19.2664 54.6398 19.0525 54.8066 18.8958C54.9735 18.7392 55.1933 18.6512 55.4222 18.6497H60.4924C60.6022 18.649 60.7109 18.6706 60.8121 18.7132C60.9133 18.7559 61.0048 18.8186 61.081 18.8976C61.1573 18.9766 61.2167 19.0702 61.2557 19.1729C61.2946 19.2755 61.3124 19.385 61.3078 19.4947L60.505 35.8798C60.4912 36.11 60.3906 36.3265 60.2237 36.4856C60.0567 36.6447 59.8357 36.7347 59.6051 36.7375Z" fill="#623D91"/>
<path d="M58.2826 16.8879L58.7642 16.119C58.7908 16.0774 58.8057 16.0294 58.8073 15.9801C58.8089 15.9308 58.7972 15.882 58.7735 15.8387C58.7497 15.7955 58.7147 15.7595 58.6722 15.7344C58.6297 15.7094 58.5812 15.6963 58.5318 15.6965H57.6403C57.5903 15.6947 57.5407 15.7067 57.497 15.7311C57.4533 15.7555 57.417 15.7914 57.3922 15.8349C57.3674 15.8784 57.355 15.9279 57.3563 15.978C57.3576 16.028 57.3725 16.0768 57.3995 16.119L57.822 16.8879C57.8462 16.9273 57.8801 16.9597 57.9204 16.9822C57.9607 17.0048 58.0061 17.0166 58.0523 17.0166C58.0985 17.0166 58.1439 17.0048 58.1842 16.9822C58.2245 16.9597 58.2584 16.9273 58.2826 16.8879Z" fill="#263238"/>
<path opacity="0.3" d="M69.7538 36.7375H64.6836C64.5738 36.7382 64.465 36.7166 64.3638 36.674C64.2626 36.6314 64.1712 36.5687 64.0949 36.4896C64.0187 36.4106 63.9593 36.317 63.9203 36.2143C63.8813 36.1117 63.8636 36.0022 63.8681 35.8925L64.5442 22.0805C64.5611 21.8525 64.6629 21.6392 64.8296 21.4828C64.9962 21.3263 65.2155 21.238 65.4441 21.2355H70.5143C70.6241 21.2348 70.7329 21.2565 70.8341 21.2991C70.9352 21.3417 71.0267 21.4044 71.103 21.4834C71.1792 21.5624 71.2386 21.6561 71.2776 21.7587C71.3166 21.8613 71.3343 21.9708 71.3297 22.0805L70.6453 35.8798C70.6325 36.109 70.5335 36.3248 70.3681 36.4839C70.2027 36.643 69.9832 36.7336 69.7538 36.7375Z" fill="#623D91"/>
<path opacity="0.1" d="M70.1971 39.4925H13.2379C13.2017 39.4931 13.1657 39.4863 13.1323 39.4723C13.0989 39.4584 13.0687 39.4376 13.0437 39.4114C13.0186 39.3852 12.9993 39.3541 12.987 39.3201C12.9746 39.286 12.9694 39.2498 12.9717 39.2136C12.977 39.1385 13.0104 39.0681 13.0652 39.0164C13.12 38.9648 13.1922 38.9356 13.2675 38.9347H70.2225C70.2587 38.9341 70.2946 38.9409 70.3281 38.9549C70.3615 38.9688 70.3917 38.9896 70.4167 39.0158C70.4417 39.042 70.461 39.0731 70.4734 39.1071C70.4858 39.1412 70.491 39.1774 70.4886 39.2136C70.4854 39.2887 70.4532 39.3596 70.3989 39.4116C70.3446 39.4636 70.2723 39.4925 70.1971 39.4925Z" fill="#263238"/>
<path opacity="0.1" d="M74.2535 88.8928L77.9209 13.981C77.9242 13.9092 77.955 13.8415 78.0069 13.7919C78.0589 13.7423 78.128 13.7147 78.1998 13.7148H78.2251C78.2597 13.7141 78.294 13.7206 78.3259 13.7339C78.3578 13.7473 78.3866 13.7671 78.4104 13.7921C78.4343 13.8171 78.4526 13.8468 78.4644 13.8793C78.4761 13.9119 78.481 13.9465 78.4786 13.981L74.8154 88.8928C74.8112 88.9646 74.7803 89.0322 74.7286 89.0822C74.677 89.1323 74.6085 89.1612 74.5366 89.1632H74.507C74.4724 89.1627 74.4383 89.1552 74.4067 89.1412C74.375 89.1272 74.3465 89.107 74.3229 89.0818C74.2992 89.0565 74.2809 89.0268 74.269 88.9943C74.257 88.9619 74.2518 88.9273 74.2535 88.8928Z" fill="#263238"/>
<path d="M93.0595 27.9324C92.6737 29.9619 93.0338 32.0625 94.0735 33.8476L91.5638 35.4109C90.1881 33.0387 89.7098 30.2515 90.216 27.5564C90.7371 24.7972 92.1691 22.2928 94.2827 20.4443C96.3963 18.5957 99.0692 17.51 101.873 17.3611V20.2426C99.7535 20.347 97.7308 21.1626 96.1316 22.5578C94.5325 23.953 93.4502 25.8464 93.0595 27.9324Z" fill="#623D91"/>
<path opacity="0.3" d="M112.897 24.6197L110.176 25.7182C109.654 24.2829 108.748 23.019 107.555 22.065C106.363 21.111 104.93 20.5038 103.416 20.31C102.906 20.24 102.391 20.2159 101.878 20.2382V17.3567C104.246 17.2467 106.589 17.8905 108.569 19.1955C110.549 20.5005 112.064 22.3995 112.897 24.6197Z" fill="#623D91"/>
<path d="M113.378 30.6533C112.212 37.0502 106.027 41.6091 99.672 40.7598C98.0023 40.5449 96.4039 39.9512 94.9986 39.0241C93.5934 38.0971 92.4186 36.8612 91.564 35.4108L94.0737 33.8644C94.7167 34.9607 95.6026 35.8948 96.6633 36.5951C97.7239 37.2953 98.931 37.743 100.192 37.9036C102.558 38.1822 104.943 37.552 106.863 36.1402C108.783 34.7285 110.095 32.6406 110.535 30.2984C110.821 28.7742 110.692 27.2013 110.163 25.7437L112.884 24.6451C113.578 26.5688 113.749 28.6421 113.378 30.6533Z" fill="#263238"/>
<path d="M92.9876 19.2371C92.9587 19.2376 92.9299 19.2322 92.903 19.2214C92.8761 19.2105 92.8518 19.1943 92.8313 19.1737L90.9596 17.2006H84.5289C84.4729 17.2006 84.4191 17.1783 84.3795 17.1387C84.3399 17.0991 84.3176 17.0454 84.3176 16.9893C84.3176 16.9333 84.3399 16.8796 84.3795 16.84C84.4191 16.8003 84.4729 16.7781 84.5289 16.7781H91.0483C91.077 16.7779 91.1054 16.7839 91.1316 16.7956C91.1578 16.8072 91.1813 16.8243 91.2004 16.8457L93.1397 18.8822C93.1696 18.9114 93.1899 18.949 93.1981 18.9899C93.2062 19.0309 93.2017 19.0734 93.1853 19.1118C93.1688 19.1502 93.1411 19.1827 93.1059 19.205C93.0706 19.2274 93.0294 19.2386 92.9876 19.2371Z" fill="#263238"/>
<path opacity="0.3" d="M105.22 52.6328C103.454 51.5403 101.352 51.1273 99.3044 51.4709L98.9917 48.6189C101.699 48.1791 104.474 48.7248 106.812 50.1568C111.54 53.0891 113.328 59.1479 111.038 64.4505L108.397 63.4196C110.117 59.4944 108.862 54.889 105.22 52.6328Z" fill="#623D91"/>
<path d="M99.4905 71.988L99.6848 69.1023C101.268 69.1178 102.829 68.7318 104.223 67.9804C105.616 67.229 106.797 66.1366 107.653 64.8053C107.942 64.3656 108.192 63.9019 108.401 63.4194L111.042 64.4504C110.766 65.0915 110.435 65.7078 110.053 66.2925C108.915 68.0546 107.35 69.5006 105.503 70.4962C103.656 71.4919 101.588 72.005 99.4905 71.988Z" fill="#263238"/>
<path d="M93.7186 70.3106C88.3527 66.9854 86.8993 59.697 90.4949 54.1705C91.4467 52.7011 92.6962 51.4477 94.1627 50.4914C95.6292 49.535 97.28 48.8971 99.0085 48.6187L99.3212 51.4706C98.0163 51.6789 96.7698 52.1593 95.6626 52.8807C94.5554 53.602 93.6124 54.5482 92.8947 55.6577C90.1653 59.8575 91.2554 65.3122 95.3284 67.8388C96.6378 68.6505 98.1441 69.0888 99.6845 69.1064L99.4902 71.9922C97.4496 71.9644 95.4548 71.3832 93.7186 70.3106Z" fill="#623D91"/>
<path d="M91.4625 50.3723C91.4049 50.3706 91.3502 50.3463 91.3104 50.3047L89.4344 48.3316H83.0037C82.9477 48.3316 82.894 48.3093 82.8544 48.2697C82.8147 48.2301 82.7925 48.1763 82.7925 48.1203C82.7925 48.0643 82.8147 48.0105 82.8544 47.9709C82.894 47.9313 82.9477 47.9091 83.0037 47.9091H89.5274C89.585 47.9108 89.6396 47.9351 89.6795 47.9767L91.6146 50.0132C91.6344 50.0328 91.6501 50.0562 91.6608 50.0819C91.6715 50.1077 91.6771 50.1353 91.6771 50.1632C91.6771 50.1911 91.6715 50.2187 91.6608 50.2444C91.6501 50.2702 91.6344 50.2935 91.6146 50.3132C91.5729 50.351 91.5187 50.372 91.4625 50.3723Z" fill="#263238"/>
<path d="M85.8812 82.4832H83.7433C83.4542 82.488 83.1775 82.6015 82.9684 82.8012C82.7593 83.0009 82.6332 83.272 82.6152 83.5606L82.5095 85.7028C82.5014 85.8421 82.522 85.9816 82.5701 86.1126C82.6182 86.2437 82.6926 86.3634 82.7889 86.4644C82.8852 86.5655 83.0012 86.6456 83.1298 86.6999C83.2583 86.7543 83.3967 86.7816 83.5363 86.7802H85.6742C85.964 86.7765 86.2417 86.6634 86.4517 86.4636C86.6617 86.2638 86.7884 85.992 86.8065 85.7028L86.9121 83.5606C86.9197 83.4211 86.8985 83.2815 86.8499 83.1504C86.8014 83.0194 86.7265 82.8997 86.6299 82.7987C86.5333 82.6978 86.417 82.6177 86.2882 82.5634C86.1595 82.5091 86.0209 82.4818 85.8812 82.4832Z" fill="#623D91"/>
<path d="M97.8722 82.4833H95.7342C95.4417 82.4873 95.1616 82.6027 94.9512 82.806C94.7408 83.0094 94.6159 83.2853 94.6019 83.5776L94.5005 85.7198C94.4924 85.8587 94.5129 85.9979 94.5607 86.1286C94.6085 86.2594 94.6826 86.3789 94.7784 86.4799C94.8743 86.5808 94.9898 86.6611 95.1178 86.7157C95.2459 86.7703 95.3838 86.798 95.523 86.7972H97.6863C97.9754 86.7924 98.252 86.6789 98.4611 86.4792C98.6702 86.2795 98.7964 86.0083 98.8144 85.7198L98.92 83.5776C98.9308 83.4351 98.9114 83.2919 98.8632 83.1574C98.8149 83.0229 98.7389 82.9 98.6401 82.7968C98.5413 82.6936 98.4218 82.6123 98.2895 82.5583C98.1572 82.5043 98.015 82.4788 97.8722 82.4833Z" fill="#263238"/>
<path opacity="0.3" d="M109.867 82.4832H107.725C107.436 82.4879 107.159 82.6015 106.95 82.8011C106.741 83.0008 106.615 83.272 106.597 83.5606L106.491 85.7027C106.483 85.8417 106.504 85.9808 106.552 86.1116C106.599 86.2423 106.674 86.3619 106.769 86.4628C106.865 86.5638 106.981 86.6441 107.109 86.6986C107.237 86.7532 107.375 86.7809 107.514 86.7801H109.656C109.948 86.7762 110.227 86.6612 110.436 86.4586C110.646 86.2561 110.77 85.9812 110.784 85.6901L110.89 83.5479C110.896 83.41 110.874 83.2722 110.826 83.1429C110.777 83.0137 110.703 82.8957 110.607 82.7961C110.511 82.6965 110.397 82.6174 110.269 82.5636C110.142 82.5098 110.005 82.4825 109.867 82.4832Z" fill="#623D91"/>
<path d="M28.314 56.7792C28.3485 56.0892 28.5248 55.5779 28.8431 55.2451C29.1648 54.9124 29.5852 54.746 30.1042 54.746C30.6408 54.746 31.0515 54.9124 31.3365 55.2451C31.6251 55.5744 31.7521 56.0857 31.7174 56.7792C31.6829 57.4692 31.5048 57.9806 31.1831 58.3134C30.8648 58.6461 30.4462 58.8125 29.9272 58.8125C29.3906 58.8125 28.978 58.6478 28.6894 58.3186C28.4044 57.9859 28.2793 57.4727 28.314 56.7792ZM29.4665 56.7687C29.4415 57.2696 29.4825 57.6058 29.5897 57.7775C29.6711 57.9036 29.7889 57.9666 29.9432 57.9666C30.101 57.9666 30.2269 57.9036 30.3209 57.7775C30.4417 57.6058 30.5146 57.2696 30.5396 56.7687C30.5647 56.2679 30.5253 55.9334 30.4215 55.7653C30.3403 55.6357 30.2208 55.5709 30.063 55.5709C29.9087 55.5709 29.7845 55.6339 29.6906 55.76C29.5662 55.9316 29.4916 56.2679 29.4665 56.7687ZM30.8236 62.8737H29.7294L34.2441 54.746H35.3067L30.8236 62.8737ZM33.3129 60.8509C33.3474 60.1609 33.5238 59.6496 33.842 59.3168C34.1637 58.9841 34.5876 58.8177 35.1137 58.8177C35.6432 58.8177 36.0504 58.9841 36.3354 59.3168C36.6239 59.6496 36.7509 60.1609 36.7164 60.8509C36.6817 61.5444 36.5035 62.0576 36.1817 62.3903C35.8635 62.723 35.4449 62.8894 34.9259 62.8894C34.3893 62.8894 33.9768 62.723 33.6883 62.3903C33.4034 62.0576 33.2782 61.5444 33.3129 60.8509ZM34.4652 60.8457C34.4401 61.3466 34.4813 61.681 34.5886 61.8492C34.6698 61.9788 34.7875 62.0436 34.9418 62.0436C35.0997 62.0436 35.2238 61.9805 35.3143 61.8544C35.4386 61.6828 35.5132 61.3466 35.5383 60.8457C35.5633 60.3448 35.524 60.0086 35.4204 59.837C35.339 59.7109 35.2194 59.6478 35.0616 59.6478C34.9038 59.6478 34.7797 59.7109 34.6892 59.837C34.5649 60.0086 34.4902 60.3448 34.4652 60.8457Z" fill="#263238"/>
<path d="M35.0482 63.6309H34.9975C34.9703 63.6249 34.9447 63.6136 34.922 63.5975C34.8993 63.5814 34.8801 63.561 34.8655 63.5373C34.8509 63.5136 34.8413 63.4873 34.8371 63.4598C34.8329 63.4323 34.8343 63.4043 34.8412 63.3774C36.2693 57.3734 39.2987 51.2216 42.8689 51.023C45.2561 50.8878 46.6166 52.8821 48.1926 55.1848C49.3334 56.8453 50.6221 58.7255 52.5107 60.1451C53.8121 61.1211 55.1388 61.3747 56.457 60.9014C59.3935 59.8409 62.2032 55.0623 63.7919 48.433C63.7985 48.4053 63.8106 48.3791 63.8273 48.356C63.8441 48.333 63.8653 48.3134 63.8896 48.2985C63.9139 48.2836 63.9409 48.2736 63.9691 48.2692C63.9973 48.2647 64.0261 48.2658 64.0538 48.2725C64.0816 48.2791 64.1077 48.2912 64.1308 48.308C64.1539 48.3247 64.1734 48.3459 64.1884 48.3702C64.2033 48.3945 64.2132 48.4216 64.2177 48.4497C64.2222 48.4779 64.221 48.5067 64.2144 48.5344C62.5708 55.4003 59.7273 60.1747 56.6091 61.2986C55.1472 61.8225 53.6853 61.5479 52.2657 60.4831C50.3221 59.0255 49.0123 57.103 47.8546 55.413C46.2829 53.1229 45.0491 51.3188 42.9027 51.4329C39.5691 51.6188 36.6749 57.61 35.2975 63.4619C35.2924 63.4894 35.2819 63.5157 35.2666 63.5392C35.2513 63.5627 35.2314 63.5829 35.2082 63.5986C35.185 63.6143 35.1589 63.6253 35.1315 63.6308C35.104 63.6364 35.0757 63.6364 35.0482 63.6309Z" fill="#623D91"/>
<path opacity="0.1" d="M65.9973 66.5546H14.8097C14.3723 66.5575 13.939 66.4709 13.5364 66.3C13.1338 66.1291 12.7705 65.8775 12.4688 65.5609C12.1672 65.2442 11.9336 64.869 11.7825 64.4586C11.6313 64.0482 11.5659 63.6111 11.5901 63.1744L12.338 48.2681C12.3883 47.3618 12.7811 46.5085 13.4369 45.8809C14.0928 45.2533 14.9625 44.8984 15.8702 44.888H67.0367C67.4741 44.885 67.9074 44.9717 68.31 45.1426C68.7126 45.3135 69.0759 45.565 69.3776 45.8817C69.6792 46.1984 69.9128 46.5735 70.0639 46.984C70.2151 47.3944 70.2805 47.8314 70.2563 48.2681L69.5295 63.1702C69.4803 64.0773 69.0879 64.9317 68.432 65.5601C67.776 66.1886 66.9057 66.5441 65.9973 66.5546ZM15.8491 45.3232C15.053 45.3324 14.29 45.6424 13.7131 46.191C13.1363 46.7397 12.7884 47.4862 12.7394 48.2808L12.0126 63.1829C11.9876 63.5642 12.0416 63.9466 12.1712 64.3061C12.3008 64.6656 12.5032 64.9944 12.7658 65.2721C13.0283 65.5497 13.3454 65.7702 13.6971 65.9196C14.0488 66.069 14.4276 66.1442 14.8097 66.1405H65.9973C66.7934 66.1313 67.5564 65.8213 68.1333 65.2727C68.7101 64.724 69.058 63.9775 69.107 63.1829L69.838 48.2808C69.8618 47.8994 69.8068 47.5172 69.6765 47.158C69.5462 46.7988 69.3433 46.4702 69.0806 46.1928C68.8178 45.9154 68.5007 45.695 68.1491 45.5454C67.7975 45.3958 67.4188 45.3201 67.0367 45.3232H15.8491Z" fill="#263238"/>
<path opacity="0.1" d="M25.8836 49.1257H17.6108C17.4849 49.1259 17.3603 49.1004 17.2446 49.0507C17.1289 49.0011 17.0245 48.9284 16.9379 48.837C16.8513 48.7456 16.7842 48.6375 16.7408 48.5194C16.6974 48.4012 16.6786 48.2754 16.6855 48.1497C16.6994 47.8925 16.8106 47.6503 16.9966 47.4722C17.1826 47.2941 17.4293 47.1934 17.6868 47.1906H25.9554C26.0817 47.1898 26.2068 47.2149 26.323 47.2643C26.4392 47.3136 26.544 47.3863 26.6311 47.4777C26.7182 47.5691 26.7856 47.6774 26.8293 47.7959C26.8729 47.9144 26.8919 48.0405 26.885 48.1666C26.8701 48.4234 26.7585 48.665 26.5728 48.8429C26.387 49.0208 26.1408 49.1218 25.8836 49.1257ZM17.6868 47.6131C17.5385 47.616 17.3967 47.6744 17.2895 47.777C17.1823 47.8795 17.1175 48.0185 17.108 48.1666C17.1028 48.2359 17.1121 48.3055 17.1354 48.371C17.1587 48.4365 17.1954 48.4964 17.2432 48.5468C17.2911 48.5959 17.3483 48.6349 17.4114 48.6617C17.4745 48.6886 17.5422 48.7026 17.6108 48.7032H25.8836C26.0316 48.6993 26.1729 48.6405 26.2799 48.5382C26.3869 48.4359 26.452 48.2974 26.4625 48.1497C26.4669 48.0801 26.4567 48.0103 26.4327 47.9449C26.4087 47.8794 26.3714 47.8197 26.323 47.7694C26.2762 47.719 26.2192 47.679 26.1559 47.6521C26.0926 47.6252 26.0243 47.6119 25.9554 47.6131H17.6868Z" fill="#263238"/>
<path d="M18.3799 61.6914H16.2336L16.1279 63.8378H18.2743L18.3799 61.6914Z" fill="#623D91"/>
<path opacity="0.3" d="M20.7336 89.1421H16.3563C16.1671 89.1435 15.9795 89.1062 15.8052 89.0323C15.6309 88.9585 15.4736 88.8497 15.343 88.7127C15.2123 88.5758 15.1111 88.4135 15.0456 88.2359C14.9801 88.0583 14.9517 87.8692 14.9621 87.6802L15.1775 83.2987C15.201 82.9059 15.3721 82.5364 15.6565 82.2645C15.941 81.9926 16.3178 81.8383 16.7113 81.8326H21.0927C21.2822 81.831 21.47 81.8685 21.6444 81.9427C21.8187 82.0168 21.976 82.126 22.1064 82.2635C22.2368 82.401 22.3375 82.5639 22.4022 82.742C22.467 82.9201 22.4944 83.1096 22.4828 83.2987L22.2715 87.6802C22.2461 88.0726 22.0736 88.4411 21.7886 88.712C21.5035 88.983 21.1268 89.1365 20.7336 89.1421Z" fill="#623D91"/>
<path opacity="0.1" d="M37.5283 86.7507H26.2345C26.0703 86.7521 25.9076 86.7198 25.7565 86.6558C25.6053 86.5919 25.4689 86.4976 25.3556 86.3788C25.2423 86.2599 25.1547 86.1192 25.098 85.9651C25.0413 85.8111 25.0168 85.647 25.0261 85.4831C25.0422 85.1442 25.1872 84.8241 25.4315 84.5885C25.6757 84.3529 26.0008 84.2195 26.3401 84.2156H37.6297C37.7938 84.2148 37.9564 84.2475 38.1075 84.3116C38.2586 84.3758 38.3951 84.47 38.5085 84.5886C38.622 84.7072 38.7101 84.8477 38.7675 85.0015C38.8249 85.1553 38.8503 85.3192 38.8423 85.4831C38.8262 85.8221 38.6811 86.1421 38.4369 86.3777C38.1926 86.6133 37.8676 86.7468 37.5283 86.7507ZM26.3401 84.6381C26.1123 84.6417 25.894 84.7304 25.7282 84.8868C25.5625 85.0432 25.4612 85.2559 25.4444 85.4831C25.4394 85.5904 25.4559 85.6977 25.4929 85.7985C25.5299 85.8994 25.5867 85.9918 25.6598 86.0704C25.7343 86.1474 25.8236 86.2085 25.9224 86.2499C26.0212 86.2913 26.1274 86.3122 26.2345 86.3113H37.5283C37.7563 86.3095 37.9751 86.2213 38.1406 86.0645C38.3061 85.9076 38.4059 85.6938 38.4198 85.4662C38.4273 85.3587 38.412 85.2508 38.3748 85.1495C38.3377 85.0483 38.2796 84.9561 38.2043 84.8789C38.1305 84.8008 38.0414 84.7387 37.9425 84.6965C37.8437 84.6543 37.7372 84.633 37.6297 84.6339L26.3401 84.6381Z" fill="#263238"/>
<path d="M18.6759 86.7506C18.6481 86.7495 18.6209 86.743 18.5957 86.7314C18.5704 86.7197 18.5478 86.7032 18.5289 86.6828C18.5101 86.6624 18.4955 86.6385 18.4859 86.6124C18.4763 86.5864 18.4719 86.5587 18.4731 86.5309L18.566 84.6592C18.5659 84.6312 18.5716 84.6036 18.5829 84.578C18.5942 84.5524 18.6107 84.5295 18.6314 84.5107C18.6522 84.492 18.6767 84.4778 18.7032 84.4692C18.7298 84.4606 18.7579 84.4576 18.7857 84.4606C18.8135 84.4617 18.8407 84.4682 18.866 84.4799C18.8912 84.4915 18.9139 84.508 18.9327 84.5284C18.9515 84.5488 18.9662 84.5727 18.9757 84.5988C18.9853 84.6249 18.9897 84.6526 18.9885 84.6803L18.8956 86.5521C18.8923 86.6073 18.8674 86.6591 18.8264 86.6963C18.7853 86.7334 18.7312 86.7529 18.6759 86.7506Z" fill="#623D91"/>
<path d="M17.8689 85.5128C17.8113 85.511 17.7567 85.4868 17.7168 85.4452C17.697 85.4255 17.6813 85.4022 17.6705 85.3764C17.6598 85.3507 17.6543 85.3231 17.6543 85.2952C17.6543 85.2673 17.6598 85.2397 17.6705 85.2139C17.6813 85.1882 17.697 85.1648 17.7168 85.1452L18.621 84.3001C18.6619 84.2612 18.7166 84.24 18.7731 84.241C18.829 84.2446 18.8816 84.2687 18.921 84.3086L19.7406 85.1536C19.7793 85.1945 19.8001 85.2491 19.7985 85.3054C19.7969 85.3616 19.7731 85.415 19.7322 85.4536C19.6913 85.4923 19.6367 85.5131 19.5804 85.5115C19.5242 85.5099 19.4708 85.4861 19.4322 85.4452L18.7604 84.7353L18.0083 85.4536C17.9699 85.4886 17.9207 85.5095 17.8689 85.5128Z" fill="#623D91"/>
<path opacity="0.4" d="M49.6168 81.8326H45.2396C44.8457 81.8382 44.4684 81.9923 44.1832 82.2642C43.8981 82.536 43.7261 82.9055 43.7016 83.2987L43.4904 87.6802C43.4794 87.869 43.5073 88.058 43.5723 88.2356C43.6373 88.4132 43.7381 88.5755 43.8684 88.7125C43.9987 88.8496 44.1558 88.9584 44.3299 89.0323C44.504 89.1062 44.6913 89.1435 44.8805 89.1421H49.2619C49.6547 89.1364 50.0309 88.9827 50.3153 88.7117C50.5996 88.4406 50.7712 88.0722 50.7957 87.6802L51.0111 83.2987C51.0221 83.1093 50.9941 82.9198 50.9289 82.7417C50.8637 82.5636 50.7625 82.4008 50.6318 82.2633C50.5011 82.1259 50.3436 82.0167 50.169 81.9427C49.9944 81.8686 49.8065 81.8311 49.6168 81.8326Z" fill="#263238"/>
<path opacity="0.1" d="M66.0525 86.7507H54.7629C54.5987 86.7514 54.4362 86.7188 54.2851 86.6546C54.134 86.5905 53.9975 86.4962 53.884 86.3776C53.7706 86.259 53.6825 86.1185 53.6251 85.9647C53.5677 85.8109 53.5422 85.6471 53.5503 85.4831C53.5664 85.1441 53.7114 84.8241 53.9557 84.5885C54.1999 84.3529 54.5249 84.2195 54.8643 84.2156H66.1581C66.3221 84.2154 66.4844 84.2485 66.6352 84.3128C66.786 84.3772 66.9222 84.4714 67.0356 84.5899C67.1489 84.7084 67.2371 84.8487 67.2947 85.0022C67.3523 85.1557 67.3781 85.3193 67.3707 85.4831C67.3535 85.8225 67.2076 86.1425 66.9627 86.378C66.7178 86.6135 66.3922 86.7468 66.0525 86.7507ZM54.8643 84.6381C54.6369 84.6418 54.4191 84.7306 54.2541 84.8871C54.089 85.0435 53.9886 85.2562 53.9728 85.4831C53.9678 85.5904 53.9843 85.6976 54.0213 85.7985C54.0583 85.8993 54.1151 85.9918 54.1883 86.0704C54.2626 86.1476 54.3519 86.2088 54.4507 86.2502C54.5495 86.2916 54.6558 86.3124 54.7629 86.3112H66.0525C66.2809 86.3096 66.5003 86.2215 66.6664 86.0648C66.8326 85.908 66.9333 85.6942 66.9482 85.4662C66.9564 85.3578 66.942 85.2488 66.9059 85.1463C66.8698 85.0437 66.8129 84.9497 66.7386 84.8703C66.6643 84.7909 66.5744 84.7277 66.4745 84.6849C66.3746 84.642 66.2668 84.6203 66.1581 84.6212L54.8643 84.6381Z" fill="#263238"/>
<path d="M47.2081 86.5352C47.1804 86.5341 47.1531 86.5275 47.1279 86.5159C47.1027 86.5043 47.08 86.4878 47.0612 86.4674C47.0423 86.447 47.0277 86.4231 47.0181 86.397C47.0085 86.3709 47.0042 86.3432 47.0053 86.3155L47.0983 84.4437C47.0982 84.4156 47.1039 84.3878 47.1151 84.362C47.1264 84.3362 47.1428 84.3131 47.1635 84.294C47.1842 84.2749 47.2086 84.2604 47.2352 84.2512C47.2617 84.2421 47.2899 84.2386 47.318 84.2409C47.3744 84.2442 47.4272 84.2695 47.4652 84.3114C47.5031 84.3533 47.5231 84.4084 47.5208 84.4649L47.4278 86.3324C47.4267 86.3601 47.4202 86.3874 47.4085 86.4126C47.3969 86.4378 47.3804 86.4605 47.36 86.4793C47.3396 86.4982 47.3157 86.5128 47.2896 86.5224C47.2636 86.532 47.2359 86.5363 47.2081 86.5352Z" fill="white"/>
<path d="M47.1997 86.7507C47.1443 86.7486 47.0916 86.726 47.0518 86.6873L46.2322 85.8422C46.2124 85.8226 46.1966 85.7992 46.1859 85.7735C46.1752 85.7478 46.1697 85.7201 46.1697 85.6923C46.1697 85.6644 46.1752 85.6368 46.1859 85.611C46.1966 85.5853 46.2124 85.5619 46.2322 85.5423C46.2518 85.5225 46.2752 85.5067 46.3009 85.496C46.3267 85.4853 46.3543 85.4798 46.3822 85.4798C46.41 85.4798 46.4377 85.4853 46.4634 85.496C46.4891 85.5067 46.5125 85.5225 46.5322 85.5423L47.204 86.2521L47.956 85.5338C47.9757 85.514 47.999 85.4983 48.0248 85.4876C48.0505 85.4768 48.0781 85.4713 48.106 85.4713C48.1339 85.4713 48.1615 85.4768 48.1873 85.4876C48.213 85.4983 48.2364 85.514 48.256 85.5338C48.2757 85.5531 48.2913 85.5761 48.302 85.6015C48.3127 85.6269 48.3182 85.6542 48.3182 85.6817C48.3182 85.7092 48.3127 85.7365 48.302 85.7619C48.2913 85.7873 48.2757 85.8103 48.256 85.8296L47.3518 86.6957C47.3097 86.7323 47.2555 86.7519 47.1997 86.7507Z" fill="white"/>
</svg>
