<svg width="177" height="127" viewBox="0 0 177 127" fill="none" xmlns="http://www.w3.org/2000/svg">
<path d="M67.0574 59.352C66.8606 58.498 66.3801 57.7361 65.6944 57.1905C65.0087 56.6448 64.1583 56.3478 63.282 56.3479H35.1081C34.0806 56.3479 33.0953 56.756 32.3688 57.4825C31.6423 58.209 31.2341 59.1944 31.2341 60.2218V122.846C31.2341 123.873 31.6423 124.858 32.3688 125.585C33.0953 126.311 34.0806 126.719 35.1081 126.719H124.56C125.588 126.719 126.573 126.311 127.3 125.585C128.026 124.858 128.434 123.873 128.434 122.846V70.2412C128.434 69.2138 128.026 68.2284 127.3 67.5019C126.573 66.7754 125.588 66.3673 124.56 66.3673H75.8723C73.826 66.3676 71.8402 65.674 70.2391 64.3998C68.638 63.1256 67.5163 61.3461 67.0574 59.352Z" fill="#623D91"/>
<path opacity="0.6" d="M67.0574 59.352C66.8606 58.498 66.3801 57.7361 65.6944 57.1905C65.0087 56.6448 64.1583 56.3478 63.282 56.3479H35.1081C34.0806 56.3479 33.0953 56.756 32.3688 57.4825C31.6423 58.209 31.2341 59.1944 31.2341 60.2218V122.846C31.2341 123.873 31.6423 124.858 32.3688 125.585C33.0953 126.311 34.0806 126.719 35.1081 126.719H124.56C125.588 126.719 126.573 126.311 127.3 125.585C128.026 124.858 128.434 123.873 128.434 122.846V70.2412C128.434 69.2138 128.026 68.2284 127.3 67.5019C126.573 66.7754 125.588 66.3673 124.56 66.3673H75.8723C73.826 66.3676 71.8402 65.674 70.2391 64.3998C68.638 63.1256 67.5163 61.3461 67.0574 59.352Z" fill="black"/>
<path opacity="0.22" d="M57.1123 39.8485L59.6233 47.9802C59.9439 49.0152 60.6621 49.8806 61.6202 50.3864C62.5783 50.8922 63.698 50.997 64.7334 50.6779L72.8616 48.1669L57.1123 39.8485Z" fill="#623D91"/>
<path d="M57.1123 39.8485L28.0578 48.8254C27.5449 48.983 27.0681 49.2402 26.6547 49.5822C26.2413 49.9242 25.8994 50.3444 25.6485 50.8187C25.3976 51.293 25.2427 51.812 25.1926 52.3463C25.1425 52.8805 25.1983 53.4193 25.3567 53.932L41.9441 107.632C42.1024 108.144 42.3602 108.621 42.7027 109.034C43.0452 109.447 43.4657 109.789 43.9403 110.039C44.4148 110.29 44.9341 110.444 45.4683 110.494C46.0026 110.544 46.5415 110.488 47.0542 110.329L84.2403 98.8413C84.7529 98.6834 85.2293 98.426 85.6423 98.0838C86.0554 97.7416 86.3969 97.3214 86.6475 96.8471C86.898 96.3729 87.0526 95.8539 87.1025 95.3199C87.1523 94.7858 87.0964 94.2472 86.938 93.7348L72.851 48.1669L57.1123 39.8485Z" fill="#623D91"/>
<path opacity="0.8" d="M57.1123 39.8485L28.0578 48.8254C27.5449 48.983 27.0681 49.2402 26.6547 49.5822C26.2413 49.9242 25.8994 50.3444 25.6485 50.8187C25.3976 51.293 25.2427 51.812 25.1926 52.3463C25.1425 52.8805 25.1983 53.4193 25.3567 53.932L41.9441 107.632C42.1024 108.144 42.3602 108.621 42.7027 109.034C43.0452 109.447 43.4657 109.789 43.9403 110.039C44.4148 110.29 44.9341 110.444 45.4683 110.494C46.0026 110.544 46.5415 110.488 47.0542 110.329L84.2403 98.8413C84.7529 98.6834 85.2293 98.426 85.6423 98.0838C86.0554 97.7416 86.3969 97.3214 86.6475 96.8471C86.898 96.3729 87.0526 95.8539 87.1025 95.3199C87.1523 94.7858 87.0964 94.2472 86.938 93.7348L72.851 48.1669L57.1123 39.8485Z" fill="white"/>
<g opacity="0.28">
<path opacity="0.28" d="M72.7451 96.4958L48.5718 103.962C48.1198 104.101 47.6311 104.055 47.2127 103.835C46.7943 103.614 46.4802 103.237 46.339 102.786C46.2014 102.334 46.2482 101.845 46.4693 101.428C46.6903 101.01 47.0676 100.697 47.5188 100.556L71.6921 93.0867C72.1446 92.948 72.6337 92.9943 73.0522 93.2154C73.4707 93.4365 73.7845 93.8145 73.9249 94.2665C74.0625 94.7186 74.0157 95.2067 73.7947 95.6244C73.5736 96.0421 73.1963 96.3553 72.7451 96.4958Z" fill="#623D91"/>
</g>
<g opacity="0.28">
<path opacity="0.28" d="M46.7299 52.6782L33.946 56.6261C33.4939 56.764 33.0057 56.7178 32.5875 56.4975C32.1693 56.2772 31.8551 55.9007 31.7132 55.4499C31.5754 54.9973 31.6222 54.5087 31.8431 54.0904C32.0641 53.6722 32.4415 53.3583 32.893 53.2171L45.6769 49.2692C46.129 49.1294 46.6181 49.1747 47.0367 49.3953C47.4554 49.6158 47.7694 49.9935 47.9097 50.4455C48.0474 50.898 48.0007 51.3866 47.7797 51.8049C47.5587 52.2231 47.1814 52.537 46.7299 52.6782Z" fill="#623D91"/>
</g>
<g opacity="0.28">
<path opacity="0.28" d="M57.1617 56.8657L36.0312 63.3915C35.5801 63.527 35.0937 63.4791 34.6777 63.2582C34.2616 63.0374 33.9495 62.6613 33.809 62.2117C33.6702 61.7601 33.7161 61.2719 33.9366 60.8541C34.157 60.4363 34.5341 60.1228 34.9852 59.9825L56.1157 53.4567C56.5678 53.3178 57.0564 53.3636 57.4748 53.584C57.8933 53.8044 58.2074 54.1816 58.3485 54.6329C58.485 55.0864 58.4368 55.5754 58.2146 55.9936C57.9923 56.4117 57.6139 56.7252 57.1617 56.8657Z" fill="#623D91"/>
</g>
<g opacity="0.28">
<path opacity="0.28" d="M68.9593 60.6304L38.1229 70.1391C37.6713 70.2778 37.1831 70.2319 36.7653 70.0115C36.3475 69.791 36.034 69.4139 35.8937 68.9628C35.7558 68.5107 35.802 68.0225 36.0223 67.6043C36.2426 67.1862 36.6191 66.872 37.0699 66.73L67.9063 57.2213C68.358 57.0835 68.8457 57.1299 69.2633 57.3502C69.6809 57.5705 69.9944 57.947 70.1356 58.3976C70.2745 58.8496 70.2287 59.3383 70.0083 59.7567C69.7878 60.1751 69.4107 60.4892 68.9593 60.6304Z" fill="#623D91"/>
</g>
<g opacity="0.28">
<path opacity="0.28" d="M71.0475 67.3921L53.1218 72.9318C52.6698 73.0695 52.1816 73.0226 51.7639 72.8016C51.3463 72.5806 51.033 72.2032 50.8926 71.752C50.7548 71.3004 50.8011 70.8127 51.0215 70.3951C51.2418 69.9775 51.6183 69.6639 52.0688 69.5228L69.9945 63.9831C70.4471 63.8463 70.9353 63.8935 71.3533 64.1143C71.7713 64.3352 72.0853 64.7119 72.2273 65.1629C72.3649 65.6149 72.3181 66.1031 72.0971 66.5208C71.876 66.9384 71.4987 67.2517 71.0475 67.3921Z" fill="#623D91"/>
</g>
<g opacity="0.28">
<path opacity="0.28" d="M44.9023 75.471L40.2149 76.9185C39.7628 77.0573 39.2742 77.0115 38.8558 76.7911C38.4374 76.5707 38.1232 76.1936 37.9821 75.7422C37.8434 75.2897 37.8897 74.8006 38.1108 74.3821C38.3319 73.9636 38.7099 73.6498 39.1619 73.5094L43.8493 72.062C44.3014 71.9241 44.7896 71.9703 45.2078 72.1906C45.626 72.4109 45.9402 72.7874 46.0821 73.2383C46.2189 73.6908 46.1717 74.179 45.9509 74.597C45.73 75.015 45.3533 75.329 44.9023 75.471Z" fill="#623D91"/>
</g>
<g opacity="0.28">
<path opacity="0.28" d="M73.1395 74.1573L42.3031 83.6837C41.8511 83.8213 41.3629 83.7745 40.9452 83.5534C40.5276 83.3324 40.2143 82.9551 40.0739 82.5039C39.9351 82.0523 39.981 81.5641 40.2015 81.1463C40.4219 80.7284 40.799 80.415 41.2501 80.2746L72.0865 70.7483C72.5381 70.6105 73.0259 70.6568 73.4435 70.8772C73.8611 71.0975 74.1746 71.474 74.3158 71.9245C74.4547 72.3766 74.4089 72.8653 74.1884 73.2837C73.968 73.7021 73.5909 74.0162 73.1395 74.1573Z" fill="#623D91"/>
</g>
<g opacity="0.28">
<path opacity="0.28" d="M63.3282 84.5959L44.3917 90.4455C43.9401 90.5833 43.4524 90.5369 43.0348 90.3166C42.6172 90.0962 42.3036 89.7198 42.1625 89.2692C42.0246 88.8171 42.0708 88.3289 42.2911 87.9108C42.5114 87.4926 42.8879 87.1784 43.3387 87.0364L62.2752 81.1868C62.7277 81.0491 63.2163 81.0958 63.6346 81.3168C64.0528 81.5378 64.3667 81.9151 64.5079 82.3666C64.6465 82.8187 64.6002 83.3072 64.379 83.7252C64.1578 84.1431 63.7799 84.4562 63.3282 84.5959Z" fill="#623D91"/>
</g>
<g opacity="0.28">
<path opacity="0.28" d="M75.2281 80.9227L70.1744 82.4829C69.7218 82.6206 69.2332 82.5739 68.815 82.3529C68.3967 82.1319 68.0828 81.7545 67.9416 81.3031C67.8039 80.851 67.8508 80.3628 68.0718 79.9452C68.2928 79.5275 68.6702 79.2143 69.1214 79.0738L74.1751 77.5137C74.6267 77.3749 75.1149 77.4208 75.5327 77.6413C75.9505 77.8618 76.264 78.2388 76.4043 78.6899C76.5432 79.142 76.4974 79.6307 76.277 80.0491C76.0566 80.4675 75.6794 80.7816 75.2281 80.9227Z" fill="#623D91"/>
</g>
<g opacity="0.28">
<path opacity="0.28" d="M77.3166 87.6915L46.4872 97.2002C46.0347 97.3389 45.5457 97.2926 45.1272 97.0715C44.7087 96.8504 44.3949 96.4724 44.2545 96.0204C44.1159 95.5683 44.1622 95.0797 44.3834 94.6618C44.6046 94.2439 44.9825 93.9308 45.4342 93.7911L76.2671 84.2648C76.7197 84.128 77.2079 84.1752 77.6259 84.3961C78.0439 84.6169 78.3579 84.9937 78.4999 85.4446C78.5707 85.6698 78.5961 85.9068 78.5749 86.1419C78.5536 86.377 78.4861 86.6055 78.3761 86.8144C78.2661 87.0232 78.1158 87.2083 77.934 87.3588C77.7522 87.5093 77.5423 87.6224 77.3166 87.6915Z" fill="#623D91"/>
</g>
<path d="M77.9786 19.6547L87.1986 40.2006C87.4379 40.7369 87.4552 41.3462 87.2467 41.8953C87.0382 42.4443 86.6208 42.8885 86.0857 43.1307L46.9732 60.6866C46.437 60.9269 45.8273 60.9447 45.278 60.7361C44.7287 60.5275 44.2846 60.1094 44.0431 59.5737L34.8196 39.0279C34.5782 38.4913 34.5598 37.8807 34.7685 37.3306C34.9772 36.7804 35.3959 36.3357 35.9325 36.0942L75.045 18.5383C75.5823 18.2991 76.1925 18.2822 76.7421 18.4914C77.2918 18.7005 77.7364 19.1188 77.9786 19.6547Z" fill="#623D91"/>
<path opacity="0.3" d="M77.9786 19.6547L87.1986 40.2006C87.4379 40.7369 87.4552 41.3462 87.2467 41.8953C87.0382 42.4443 86.6208 42.8885 86.0857 43.1307L46.9732 60.6866C46.437 60.9269 45.8273 60.9447 45.278 60.7361C44.7287 60.5275 44.2846 60.1094 44.0431 59.5737L34.8196 39.0279C34.5782 38.4913 34.5598 37.8807 34.7685 37.3306C34.9772 36.7804 35.3959 36.3357 35.9325 36.0942L75.045 18.5383C75.5823 18.2991 76.1925 18.2822 76.7421 18.4914C77.2918 18.7005 77.7364 19.1188 77.9786 19.6547Z" fill="black"/>
<path d="M71.8144 18.6397L70.5645 19.2004L70.7086 19.5218L71.9586 18.9611L71.8144 18.6397Z" fill="#623D91"/>
<path d="M68.8137 19.9839L64.916 21.7323L65.0602 22.0536L68.9578 20.3052L68.8137 19.9839Z" fill="#623D91"/>
<path d="M34.7847 41.0987L34.4634 41.2429L35.5308 43.6204L35.8521 43.4761L34.7847 41.0987Z" fill="#623D91"/>
<path opacity="0.6" d="M76.6686 18.4645L66.5824 38.2215C65.6465 40.0528 64.1137 41.5098 62.2375 42.3519C60.3613 43.1939 58.2539 43.3706 56.2636 42.8526L34.7986 37.2566C35.0188 36.7416 35.4231 36.3272 35.9326 36.0944L75.0451 18.5385C75.5575 18.3094 76.1376 18.283 76.6686 18.4645Z" fill="#623D91"/>
<path d="M90.5336 43.7507L60.1832 45.6243C59.647 45.6562 59.1223 45.7935 58.6393 46.0283C58.1562 46.2632 57.7242 46.591 57.368 46.9931C57.0117 47.3951 56.7383 47.8634 56.5633 48.3712C56.3883 48.879 56.3151 49.4164 56.348 49.9525L59.8099 106.047C59.8422 106.583 59.98 107.108 60.2155 107.591C60.451 108.075 60.7796 108.507 61.1823 108.862C61.585 109.218 62.0541 109.491 62.5625 109.666C63.0709 109.84 63.6087 109.912 64.1452 109.879L102.99 107.48C103.526 107.448 104.05 107.31 104.532 107.075C105.014 106.84 105.445 106.512 105.801 106.11C106.156 105.708 106.428 105.24 106.602 104.732C106.776 104.224 106.849 103.688 106.815 103.152L103.892 55.5486L90.5336 43.7507Z" fill="#623D91"/>
<path opacity="0.8" d="M90.5336 43.7507L60.1832 45.6243C59.647 45.6562 59.1223 45.7935 58.6393 46.0283C58.1562 46.2632 57.7242 46.591 57.368 46.9931C57.0117 47.3951 56.7383 47.8634 56.5633 48.3712C56.3883 48.879 56.3151 49.4164 56.348 49.9525L59.8099 106.047C59.8422 106.583 59.98 107.108 60.2155 107.591C60.451 108.075 60.7796 108.507 61.1823 108.862C61.585 109.218 62.0541 109.491 62.5625 109.666C63.0709 109.84 63.6087 109.912 64.1452 109.879L102.99 107.48C103.526 107.448 104.05 107.31 104.532 107.075C105.014 106.84 105.445 106.512 105.801 106.11C106.156 105.708 106.428 105.24 106.602 104.732C106.776 104.224 106.849 103.688 106.815 103.152L103.892 55.5486L90.5336 43.7507Z" fill="white"/>
<g opacity="0.22">
<path opacity="0.22" d="M92.3684 102.483L67.114 104.043C66.6422 104.07 66.1789 103.909 65.8252 103.596C65.4716 103.282 65.2563 102.842 65.2263 102.37C65.1993 101.899 65.3595 101.435 65.672 101.081C65.9846 100.727 66.4244 100.511 66.8956 100.479L92.1501 98.9225C92.6219 98.8945 93.0856 99.0543 93.4399 99.3671C93.7943 99.6798 94.0105 100.12 94.0413 100.592C94.0692 101.064 93.9089 101.528 93.5954 101.883C93.2819 102.237 92.8407 102.453 92.3684 102.483Z" fill="#623D91"/>
</g>
<g opacity="0.22">
<path opacity="0.22" d="M77.422 53.7701L64.064 54.5872C63.5925 54.6142 63.1293 54.454 62.7751 54.1415C62.421 53.8289 62.2046 53.3891 62.1729 52.9179C62.1458 52.4457 62.3065 51.982 62.6198 51.6278C62.9332 51.2736 63.3738 51.0575 63.8457 51.0267L77.2037 50.2026C77.6751 50.1746 78.1384 50.3346 78.4922 50.6474C78.846 50.9603 79.0614 51.4006 79.0913 51.8719C79.1213 52.3449 78.9623 52.8104 78.6493 53.1663C78.3363 53.5222 77.8949 53.7394 77.422 53.7701Z" fill="#623D91"/>
</g>
<g opacity="0.22">
<path opacity="0.22" d="M86.5715 60.2993L64.5008 61.6587C64.0287 61.6876 63.5645 61.5281 63.2099 61.2152C62.8554 60.9022 62.6395 60.4614 62.6096 59.9894C62.5816 59.517 62.7419 59.0528 63.0555 58.6984C63.369 58.3439 63.8101 58.1281 64.2824 58.0982L86.3497 56.7388C86.8217 56.7099 87.2859 56.8694 87.6405 57.1824C87.995 57.4953 88.211 57.9362 88.2409 58.4081C88.2688 58.8799 88.109 59.3436 87.7962 59.698C87.4835 60.0523 87.0432 60.2685 86.5715 60.2993Z" fill="#623D91"/>
</g>
<g opacity="0.22">
<path opacity="0.22" d="M97.1474 66.7406L64.9375 68.7269C64.4642 68.7559 63.9986 68.5961 63.6429 68.2825C63.2871 67.969 63.0701 67.5273 63.0393 67.0541C63.0113 66.5826 63.1713 66.1193 63.4841 65.7655C63.797 65.4118 64.2373 65.1963 64.7086 65.1664L96.922 63.1766C97.3938 63.1496 97.8571 63.3104 98.2108 63.6238C98.5644 63.9372 98.7797 64.3778 98.8097 64.8495C98.8377 65.3201 98.6788 65.7828 98.3675 66.137C98.0563 66.4911 97.6178 66.7081 97.1474 66.7406Z" fill="#623D91"/>
</g>
<g opacity="0.22">
<path opacity="0.22" d="M97.5843 73.8053L78.8591 74.9604C78.3873 74.9884 77.9236 74.8286 77.5693 74.5158C77.2149 74.203 76.9988 73.7627 76.9679 73.2911C76.939 72.8191 77.0985 72.3549 77.4115 72.0003C77.7244 71.6457 78.1653 71.4298 78.6373 71.3999L97.3624 70.2448C97.8344 70.2159 98.2987 70.3754 98.6532 70.6883C99.0078 71.0013 99.2237 71.4421 99.2536 71.9141C99.2815 72.3859 99.1217 72.8496 98.8089 73.204C98.4962 73.5583 98.0559 73.7745 97.5843 73.8053Z" fill="#623D91"/>
</g>
<g opacity="0.22">
<path opacity="0.22" d="M70.2695 75.4886L65.3708 75.7915C64.8993 75.8194 64.436 75.6595 64.0822 75.3466C63.7285 75.0338 63.513 74.5935 63.4831 74.1222C63.4551 73.6504 63.615 73.1866 63.9278 72.8323C64.2405 72.478 64.6808 72.2618 65.1524 72.231L70.0512 71.9281C70.5233 71.9011 70.987 72.0617 71.3413 72.3751C71.6955 72.6884 71.9115 73.129 71.9424 73.6009C71.9694 74.0727 71.8086 74.536 71.4952 74.8897C71.1818 75.2434 70.7411 75.4587 70.2695 75.4886Z" fill="#623D91"/>
</g>
<g opacity="0.22">
<path opacity="0.22" d="M98.0209 80.8699L65.8074 82.8562C65.3356 82.8841 64.8719 82.7243 64.5176 82.4115C64.1632 82.0988 63.9471 81.6585 63.9163 81.1869C63.8892 80.7147 64.0499 80.251 64.3632 79.8968C64.6766 79.5425 65.1172 79.3265 65.5891 79.2957L97.799 77.3094C98.2714 77.2814 98.7356 77.4418 99.09 77.7553C99.4445 78.0688 99.6603 78.51 99.6902 78.9822C99.7181 79.4537 99.5582 79.917 99.2453 80.2708C98.9325 80.6246 98.4922 80.84 98.0209 80.8699Z" fill="#623D91"/>
</g>
<g opacity="0.22">
<path opacity="0.22" d="M86.0256 88.7023L66.244 89.9244C65.7718 89.9514 65.3081 89.7907 64.9539 89.4774C64.5997 89.1641 64.3836 88.7235 64.3528 88.2515C64.3258 87.7798 64.4865 87.3165 64.8 86.9628C65.1134 86.6091 65.554 86.3938 66.0256 86.3639L85.8073 85.1418C86.2791 85.1148 86.7424 85.2756 87.096 85.589C87.4497 85.9024 87.665 86.3431 87.6949 86.8147C87.7238 87.2863 87.5642 87.7502 87.2512 88.1042C86.9381 88.4582 86.4973 88.6733 86.0256 88.7023Z" fill="#623D91"/>
</g>
<g opacity="0.22">
<path opacity="0.22" d="M98.4539 87.9381L93.1713 88.2621C92.6998 88.2901 92.2365 88.1301 91.8827 87.8173C91.5289 87.5044 91.3135 87.0641 91.2836 86.5928C91.2547 86.1208 91.4142 85.6565 91.7272 85.302C92.0401 84.9474 92.481 84.7315 92.9529 84.7016L98.2355 84.3776C98.7076 84.3487 99.1718 84.5082 99.5264 84.8212C99.8809 85.1341 100.097 85.5749 100.127 86.0469C100.154 86.5191 99.9931 86.9828 99.6798 87.337C99.3664 87.6912 98.9258 87.9073 98.4539 87.9381Z" fill="#623D91"/>
</g>
<g opacity="0.22">
<path opacity="0.22" d="M98.8906 95.0027L66.6807 96.989C66.2089 97.017 65.7452 96.8571 65.3908 96.5443C65.0365 96.2316 64.8203 95.7913 64.7895 95.3197C64.7615 94.8479 64.9214 94.3842 65.2341 94.0298C65.5469 93.6755 65.9872 93.4593 66.4588 93.4285L98.6723 91.4422C99.1437 91.4143 99.607 91.5742 99.9608 91.8871C100.315 92.1999 100.53 92.6402 100.56 93.1115C100.589 93.5836 100.429 94.0478 100.116 94.4023C99.8034 94.7569 99.3626 94.9728 98.8906 95.0027Z" fill="#623D91"/>
</g>
<path opacity="0.22" d="M90.5337 43.7507L91.0584 52.2452C91.0912 52.7808 91.2291 53.3047 91.4644 53.7869C91.6997 54.2692 92.0276 54.7004 92.4295 55.0559C92.8315 55.4113 93.2995 55.6842 93.8069 55.8588C94.3143 56.0333 94.8511 56.1062 95.3867 56.0733L103.892 55.5486L90.5337 43.7507Z" fill="#623D91"/>
<path opacity="0.5" d="M80.5954 64.941C80.5901 64.5339 80.5032 64.1321 80.34 63.7591C80.1767 63.3862 79.9404 63.0498 79.6449 62.7697C79.3494 62.4897 79.0008 62.2717 78.6197 62.1287C78.2385 61.9856 77.8326 61.9204 77.4258 61.937H49.2166C47.0789 61.937 44.9905 63.6732 44.589 65.8109L33.4568 122.846C33.0412 124.983 34.4358 126.72 36.5735 126.72H126.026C128.164 126.72 130.234 124.987 130.654 122.846L139.835 75.8303C140.25 73.689 138.856 71.9563 136.718 71.9563H88.0439C83.8178 71.9563 80.7398 69.0474 80.5954 64.941Z" fill="#623D91"/>
</svg>
