<svg width="787" height="586" viewBox="0 0 787 586" fill="none" xmlns="http://www.w3.org/2000/svg">
<path d="M392.801 585.675C561.137 585.675 697.601 577.708 697.601 567.88C697.601 558.051 561.137 550.084 392.801 550.084C224.464 550.084 88 558.051 88 567.88C88 577.708 224.464 585.675 392.801 585.675Z" fill="#838383"/>
<path d="M345.106 224.423L344.068 225.995C343.754 226.451 343.424 226.859 343.109 227.284C342.465 228.133 341.789 228.856 341.113 229.721C339.745 231.293 338.362 232.865 336.884 234.248C333.929 237.087 330.778 239.714 327.452 242.108C324.131 244.502 320.636 246.645 316.998 248.522C315.159 249.418 313.335 250.346 311.433 251.1L308.588 252.232L307.786 252.531C307.346 252.672 306.937 252.829 306.45 252.939C305.499 253.177 304.521 253.288 303.541 253.269C301.674 253.257 299.836 252.799 298.181 251.933C296.85 251.238 295.627 250.354 294.549 249.308C292.843 247.625 291.368 245.721 290.163 243.649C288.104 240.06 286.424 236.266 285.149 232.33C282.676 224.909 280.907 217.272 279.867 209.52L286.438 208.074C287.633 211.516 288.859 215.069 290.211 218.496C291.563 221.923 292.915 225.335 294.487 228.573C295.918 231.699 297.622 234.692 299.58 237.518C300.358 238.689 301.294 239.747 302.362 240.662C302.669 240.914 303.014 241.115 303.384 241.259C303.604 241.259 303.589 241.259 303.479 241.259H303.369L303.887 241.008L306.23 239.876C307.802 239.121 309.295 238.304 310.804 237.392C313.781 235.608 316.657 233.661 319.419 231.56C322.144 229.418 324.732 227.108 327.169 224.643C328.395 223.448 329.559 222.175 330.675 220.886C331.225 220.241 331.775 219.597 332.247 218.952L333.001 217.993L333.614 217.176L345.106 224.423Z" fill="#B97964"/>
<path d="M326.069 223.747L334.039 242.863L328.27 246.463L319.309 229.123L326.069 223.747Z" fill="#263238"/>
<path d="M348.628 207.649C335.627 207.476 322.422 223.935 322.092 224.344L332.373 248.522C332.373 248.522 355.246 229.956 356.393 222.694C357.588 215.132 356.865 207.759 348.628 207.649Z" fill="#E08114"/>
<path d="M285.369 205.574L276.377 198.579L274.553 212.35C274.553 212.35 283.294 215.777 287.947 212.805L287.821 210.29C287.774 209.374 287.531 208.479 287.108 207.665C286.685 206.852 286.092 206.139 285.369 205.574Z" fill="#B97964"/>
<path d="M264.398 197.887L264.964 208.341L274.6 212.35L276.424 198.579L264.398 197.887Z" fill="#B97964"/>
<path d="M461.436 204.458L475.333 200.984L465.618 191.064C465.618 191.064 456.61 194.743 458.811 202.603L461.436 204.458Z" fill="#B97964"/>
<path d="M482.234 198.516L481.086 187.606L465.539 191.064L475.254 200.984L482.234 198.516Z" fill="#B97964"/>
<path d="M416.115 554.093L403.177 555.335L392.377 524.806L405.315 523.548L416.115 554.093Z" fill="#B97964"/>
<path d="M554.61 489.907L545.084 499.15L520.592 480.034L530.134 470.791L554.61 489.907Z" fill="#B97964"/>
<path d="M542.333 497.358L549.658 484.358C549.782 484.134 549.982 483.963 550.222 483.877C550.462 483.79 550.726 483.793 550.963 483.886L562.093 488.193C562.368 488.313 562.615 488.489 562.818 488.71C563.021 488.932 563.174 489.193 563.269 489.478C563.364 489.763 563.398 490.064 563.369 490.363C563.34 490.662 563.248 490.951 563.099 491.212C560.474 495.708 558.981 497.736 555.758 503.458C553.777 506.979 549.91 515.044 547.175 519.901C544.439 524.759 539.487 522.306 540.195 520.043C543.339 509.872 542.804 504.197 541.956 499.701C541.8 498.9 541.933 498.07 542.333 497.358Z" fill="#263238"/>
<path d="M400.599 551.373H416.319C416.601 551.379 416.874 551.476 417.098 551.648C417.322 551.821 417.484 552.06 417.561 552.332L420.988 564.798C421.075 565.093 421.091 565.404 421.035 565.706C420.978 566.008 420.852 566.292 420.665 566.536C420.478 566.779 420.236 566.975 419.959 567.108C419.682 567.24 419.377 567.305 419.07 567.298C413.552 567.203 410.864 566.873 403.932 566.873C399.671 566.873 385.79 567.329 379.895 567.329C374 567.329 372.931 561.497 375.321 561.041C386.01 558.667 395.034 555.413 398.319 552.301C398.928 551.704 399.747 551.37 400.599 551.373Z" fill="#263238"/>
<path d="M392.393 524.806L397.942 540.558H411.336L405.331 523.548L392.393 524.806Z" fill="#A76755"/>
<path d="M530.15 470.791L520.607 480.05L533.231 489.891L542.773 480.648L530.15 470.791Z" fill="#A76755"/>
<path d="M335.972 211.846C335.972 211.846 330.627 215.918 366.643 286.203L417.985 269.618C410.376 249.009 406.195 236.134 402.265 190.027C394.649 190.869 387.105 192.261 379.69 194.193C371.762 196.188 363.975 198.703 356.377 201.723C346.568 205.936 335.972 211.846 335.972 211.846Z" fill="#F39325"/>
<path d="M368.828 168.679C369.771 176.665 372.743 190.876 379.612 194.193C379.612 194.193 380.005 202.461 366.077 206.957C350.75 211.909 356.299 201.723 356.299 201.723C364.018 197.007 361.786 190.876 358.453 185.531L368.828 168.679Z" fill="#B97964"/>
<path d="M343.063 208.042C346.852 206.077 351.678 203.688 356.299 201.754C363.906 198.679 371.724 196.152 379.691 194.193C384.171 192.966 388.699 192.055 392.519 191.41C392.881 192.479 391.796 195.246 389.139 199.066C380.729 206.046 362.792 215.116 349.571 214.786C343.786 212.633 342.34 210.353 343.063 208.042Z" fill="#B97964"/>
<path d="M389.123 199.066C383.413 206.721 376.588 213.477 368.875 219.109C362.308 218.31 355.837 216.862 349.555 214.786C362.713 215.116 380.65 206.046 389.123 199.066Z" fill="#263238"/>
<path d="M364.599 175.548L358.453 185.499C359.255 186.74 359.945 188.05 360.512 189.414C363.562 187.92 367.445 183.503 366.706 179.981C366.267 178.392 365.554 176.892 364.599 175.548Z" fill="#A76755"/>
<path d="M371.941 153.933C372.727 167.091 373.355 172.64 367.57 180.154C358.877 191.442 342.544 189.587 337.827 176.885C333.599 165.487 333.017 145.884 345.169 139.156C347.839 137.656 350.848 136.862 353.911 136.85C356.973 136.839 359.988 137.609 362.67 139.089C365.351 140.569 367.61 142.71 369.233 145.307C370.855 147.905 371.787 150.874 371.941 153.933Z" fill="#B97964"/>
<path d="M397.929 130.352C400.901 117.28 392.714 104.274 379.642 101.302C366.571 98.3298 353.565 106.517 350.593 119.588C347.62 132.66 355.807 145.666 368.879 148.638C381.95 151.61 394.956 143.423 397.929 130.352Z" fill="#263238"/>
<path d="M368.199 135.509C373.198 138.81 375.682 143.872 373.749 146.812C371.815 149.751 366.187 149.468 361.172 146.167C356.158 142.866 353.689 137.804 355.623 134.864C357.557 131.925 363.185 132.208 368.199 135.509Z" fill="#F39325"/>
<path opacity="0.6" d="M368.199 135.509C373.198 138.81 375.682 143.872 373.749 146.812C371.815 149.751 366.187 149.468 361.172 146.167C356.158 142.866 353.689 137.804 355.623 134.864C357.557 131.925 363.185 132.208 368.199 135.509Z" fill="#FAFAFA"/>
<path d="M365.542 162.909C366.847 159.891 362.304 150.93 363.279 147.582C360.669 145.145 334.212 153.76 336.35 147.472C338.393 141.435 344.839 133.434 359.553 136.782C375.273 140.366 376.641 153.964 374.88 158.303C373.12 162.642 370.62 167.154 370.62 167.154L365.542 162.909Z" fill="#263238"/>
<path d="M375.399 165.472C375.432 168.018 374.461 170.475 372.695 172.31C370.321 174.715 367.46 172.986 366.721 169.873C366.045 167.075 366.486 162.438 369.535 161.212C370.208 160.95 370.935 160.861 371.65 160.953C372.366 161.046 373.047 161.316 373.631 161.74C374.214 162.164 374.682 162.728 374.991 163.38C375.3 164.032 375.44 164.751 375.399 165.472Z" fill="#B97964"/>
<path d="M366.643 286.203C366.643 286.203 342.842 402.282 356.11 440.561C369.913 480.38 392.377 535.967 392.377 535.967L413.364 534.773C413.364 534.773 396.071 464.534 391.811 432.811C385.979 389.077 410.958 271.961 410.958 271.961L366.643 286.203Z" fill="#F39325"/>
<path opacity="0.6" d="M366.643 286.203C366.643 286.203 342.842 402.282 356.11 440.561C369.913 480.38 392.377 535.967 392.377 535.967L413.364 534.773C413.364 534.773 396.071 464.534 391.811 432.811C385.979 389.077 410.958 271.961 410.958 271.961L366.643 286.203Z" fill="#FAFAFA"/>
<path d="M415.014 535.276L390.726 536.675L386.828 527.117L413.615 524.334L415.014 535.276Z" fill="#F39325"/>
<path opacity="0.2" d="M415.014 535.276L390.726 536.675L386.828 527.117L413.615 524.334L415.014 535.276Z" fill="black"/>
<path d="M391.811 295.133C388.164 308.621 391.214 328.837 398.1 343.017C399.782 332.012 401.574 321.354 403.272 311.812C399.734 304.973 395.836 298.905 391.811 295.133Z" fill="#F39325"/>
<path opacity="0.4" d="M391.811 295.133C388.164 308.621 391.214 328.837 398.1 343.017C399.782 332.012 401.574 321.354 403.272 311.812C399.734 304.973 395.836 298.905 391.811 295.133Z" fill="#FAFAFA"/>
<path d="M380.193 281.817C380.193 281.817 415.533 366.283 438.94 412.657C457.804 450.166 527.807 489.42 527.807 489.42L540.383 476.089C540.383 476.089 488.066 429.635 475.018 404.2C433.265 322.785 441.848 287.225 418.016 269.619L380.193 281.817Z" fill="#F39325"/>
<path opacity="0.6" d="M380.193 281.817C380.193 281.817 415.533 366.283 438.94 412.657C457.804 450.166 527.807 489.42 527.807 489.42L540.383 476.089C540.383 476.089 488.066 429.635 475.018 404.2C433.265 322.785 441.848 287.225 418.016 269.619L380.193 281.817Z" fill="#FAFAFA"/>
<path d="M542.726 474.187L525.433 492.564L514.492 486.81L534.41 466.499L542.726 474.187Z" fill="#F39325"/>
<path opacity="0.2" d="M542.726 474.187L525.433 492.564L514.492 486.81L534.41 466.499L542.726 474.187Z" fill="black"/>
<path d="M417.781 266.364L421.57 270.216C421.868 270.515 421.57 271.018 420.972 271.206L367.13 288.499C366.659 288.656 366.203 288.499 366.077 288.263L364.143 283.83C364.002 283.515 364.316 283.122 364.819 282.949L416.806 266.176C416.971 266.12 417.148 266.108 417.319 266.142C417.489 266.175 417.649 266.251 417.781 266.364Z" fill="#263238"/>
<path d="M412.703 274.429L414.087 273.989C414.369 273.894 414.527 273.674 414.464 273.517L411.886 267.748C411.886 267.591 411.508 267.528 411.241 267.606L409.842 268.062C409.575 268.062 409.402 268.361 409.48 268.534L412.059 274.287C412.106 274.46 412.389 274.523 412.703 274.429Z" fill="#F39325"/>
<path opacity="0.6" d="M412.703 274.429L414.087 273.989C414.369 273.894 414.527 273.674 414.464 273.517L411.886 267.748C411.886 267.591 411.508 267.528 411.241 267.606L409.842 268.062C409.575 268.062 409.402 268.361 409.48 268.534L412.059 274.287C412.106 274.46 412.389 274.523 412.703 274.429Z" fill="#FAFAFA"/>
<path d="M371.202 287.823L372.601 287.367C372.868 287.272 373.041 287.068 372.962 286.895L370.384 281.141C370.306 280.969 370.023 280.906 369.74 281L368.341 281.44C368.073 281.534 367.9 281.739 367.979 281.912L370.557 287.665C370.636 287.838 370.919 287.901 371.202 287.823Z" fill="#F39325"/>
<path opacity="0.6" d="M371.202 287.823L372.601 287.367C372.868 287.272 373.041 287.068 372.962 286.895L370.384 281.141C370.306 280.969 370.023 280.906 369.74 281L368.341 281.44C368.073 281.534 367.9 281.739 367.979 281.912L370.557 287.665C370.636 287.838 370.919 287.901 371.202 287.823Z" fill="#FAFAFA"/>
<path d="M391.937 281.126L393.32 280.67C393.603 280.67 393.776 280.371 393.698 280.198L391.12 274.445C391.041 274.272 390.742 274.209 390.475 274.303L389.076 274.759C388.809 274.838 388.636 275.058 388.714 275.215L391.293 280.984C391.37 281.074 391.475 281.137 391.591 281.162C391.707 281.188 391.829 281.175 391.937 281.126Z" fill="#F39325"/>
<path opacity="0.6" d="M391.937 281.126L393.32 280.67C393.603 280.67 393.776 280.371 393.698 280.198L391.12 274.445C391.041 274.272 390.742 274.209 390.475 274.303L389.076 274.759C388.809 274.838 388.636 275.058 388.714 275.215L391.293 280.984C391.37 281.074 391.475 281.137 391.591 281.162C391.707 281.188 391.829 281.175 391.937 281.126Z" fill="#FAFAFA"/>
<path d="M352.573 160.001C352.699 161.054 352.243 161.998 351.551 162.076C350.86 162.155 350.184 161.369 350.058 160.3C349.932 159.231 350.388 158.303 351.08 158.225C351.771 158.146 352.447 158.932 352.573 160.001Z" fill="#263238"/>
<path d="M340.548 161.463C340.689 162.532 340.218 163.459 339.526 163.538C338.834 163.617 338.158 162.831 338.033 161.777C337.907 160.724 338.363 159.781 339.054 159.687C339.746 159.592 340.391 160.347 340.548 161.463Z" fill="#263238"/>
<path d="M339.368 159.718L336.727 159.294C336.727 159.294 338.283 161.133 339.368 159.718Z" fill="#263238"/>
<path d="M343.958 162.909C343.301 165.449 342.302 167.887 340.987 170.156C341.579 170.472 342.232 170.658 342.902 170.701C343.571 170.745 344.242 170.645 344.87 170.408L343.958 162.909Z" fill="#A24E3F"/>
<path d="M349.083 174.134C349.007 174.134 348.934 174.108 348.876 174.059C348.818 174.01 348.78 173.941 348.769 173.866C348.764 173.782 348.789 173.698 348.842 173.632C348.894 173.565 348.968 173.52 349.052 173.505C350.376 173.373 351.651 172.931 352.773 172.216C353.896 171.5 354.834 170.531 355.513 169.386C355.53 169.347 355.554 169.312 355.585 169.283C355.616 169.254 355.652 169.232 355.692 169.217C355.731 169.203 355.773 169.196 355.816 169.198C355.858 169.2 355.899 169.21 355.937 169.229C355.975 169.247 356.008 169.273 356.035 169.304C356.063 169.336 356.083 169.372 356.097 169.411C356.11 169.451 356.115 169.493 356.112 169.534C356.109 169.576 356.097 169.616 356.079 169.653C355.364 170.902 354.36 171.961 353.151 172.741C351.942 173.521 350.563 173.998 349.13 174.134H349.083Z" fill="#263238"/>
<path d="M354.067 156.228C353.917 156.226 353.771 156.171 353.658 156.071C353.077 155.533 352.376 155.143 351.613 154.932C350.85 154.722 350.047 154.697 349.272 154.86C349.192 154.884 349.108 154.892 349.024 154.883C348.941 154.873 348.86 154.847 348.787 154.806C348.713 154.765 348.649 154.71 348.598 154.644C348.546 154.577 348.508 154.501 348.486 154.42C348.463 154.341 348.455 154.257 348.465 154.175C348.474 154.093 348.501 154.013 348.542 153.941C348.583 153.869 348.638 153.806 348.704 153.756C348.771 153.706 348.846 153.67 348.927 153.65C349.901 153.436 350.913 153.457 351.878 153.711C352.843 153.965 353.733 154.446 354.476 155.112C354.535 155.171 354.583 155.24 354.615 155.317C354.647 155.394 354.664 155.477 354.664 155.56C354.664 155.643 354.647 155.726 354.615 155.803C354.583 155.88 354.535 155.95 354.476 156.008C354.372 156.13 354.226 156.208 354.067 156.228Z" fill="#263238"/>
<path d="M334.338 156.59C334.245 156.612 334.148 156.612 334.055 156.59C333.909 156.51 333.801 156.377 333.751 156.219C333.701 156.061 333.714 155.89 333.787 155.741C334.218 154.842 334.855 154.058 335.648 153.454C336.441 152.85 337.365 152.443 338.346 152.267C338.511 152.249 338.676 152.297 338.805 152.4C338.935 152.503 339.018 152.653 339.038 152.817C339.049 152.9 339.043 152.984 339.022 153.064C339 153.145 338.962 153.22 338.911 153.286C338.86 153.352 338.796 153.407 338.723 153.448C338.651 153.488 338.571 153.515 338.488 153.524C337.712 153.669 336.982 153.997 336.358 154.481C335.735 154.965 335.236 155.591 334.903 156.307C334.843 156.4 334.758 156.475 334.659 156.525C334.559 156.574 334.448 156.597 334.338 156.59Z" fill="#263238"/>
<path d="M412.704 202.304L413.301 203.059L414.04 203.955C414.543 204.552 415.062 205.165 415.612 205.763C416.697 206.973 417.829 208.168 419.039 209.3C421.409 211.624 423.913 213.807 426.538 215.839C429.203 217.858 431.968 219.742 434.822 221.483C436.253 222.348 437.715 223.165 439.192 223.967L441.44 225.114L442.525 225.665C442.792 225.79 443.06 225.916 443.311 226.01C444.114 226.345 444.973 226.521 445.842 226.529C446.641 226.483 447.408 226.199 448.043 225.712C450.15 223.966 451.814 221.746 452.901 219.235C454.36 216.207 455.533 213.049 456.406 209.803C457.378 206.492 458.181 203.134 458.811 199.742L465.524 200.166C465.734 207.905 464.628 215.624 462.254 222.992C461.581 225.001 460.713 226.939 459.66 228.777C458.493 230.873 456.984 232.759 455.196 234.358C453.067 236.249 450.464 237.525 447.666 238.052C444.946 238.527 442.151 238.332 439.523 237.486C438.909 237.313 438.344 237.093 437.762 236.873L436.394 236.307L433.722 235.191C431.945 234.389 430.2 233.619 428.487 232.644C425.048 230.83 421.734 228.787 418.567 226.529C415.397 224.243 412.377 221.754 409.528 219.078C408.113 217.726 406.746 216.295 405.41 214.818C404.749 214.063 404.089 213.246 403.46 212.522L402.501 211.281C402.171 210.84 401.92 210.495 401.479 209.866L412.704 202.304Z" fill="#B97964"/>
<path d="M423.849 210.589L414.009 227.111L409.214 222.583L418.3 206.03L423.849 210.589Z" fill="#263238"/>
<path d="M402.328 190.027C407.987 189.932 421.727 206.156 421.727 206.156L409.779 226.954C409.779 226.954 394.562 213.544 394.578 206.203C394.593 198.547 395.882 190.215 402.328 190.027Z" fill="#E08114"/>
<path d="M539.755 504.417C539.317 504.4 538.898 504.24 538.56 503.961C538.402 503.855 538.276 503.709 538.196 503.537C538.115 503.365 538.084 503.175 538.104 502.986C538.246 501.288 542.506 499.056 542.977 498.804C543.029 498.771 543.089 498.753 543.15 498.753C543.212 498.753 543.272 498.771 543.323 498.804C543.371 498.844 543.406 498.896 543.425 498.954C543.445 499.012 543.448 499.075 543.433 499.135C542.946 500.832 541.861 503.756 540.289 504.275C540.121 504.353 539.94 504.401 539.755 504.417ZM542.6 499.701C540.934 500.644 538.812 502.121 538.733 503.002C538.72 503.087 538.735 503.173 538.774 503.25C538.814 503.326 538.876 503.388 538.953 503.426C539.1 503.569 539.283 503.669 539.482 503.716C539.681 503.763 539.89 503.755 540.085 503.693C540.95 503.442 541.861 501.964 542.6 499.732V499.701Z" fill="#F39325"/>
<path d="M539.173 500.298C538.482 500.357 537.792 500.185 537.208 499.811C537.019 499.647 536.891 499.425 536.845 499.179C536.8 498.933 536.839 498.679 536.957 498.459C537.041 498.231 537.178 498.025 537.355 497.859C537.532 497.693 537.746 497.57 537.978 497.5C539.802 496.887 543.135 498.726 543.276 498.805C543.327 498.832 543.37 498.873 543.401 498.923C543.431 498.972 543.448 499.029 543.449 499.088C543.447 499.142 543.431 499.194 543.404 499.241C543.376 499.287 543.338 499.326 543.292 499.355C542.008 499.977 540.6 500.299 539.173 500.298ZM538.843 498.003C538.619 498 538.397 498.032 538.183 498.097C538.038 498.143 537.905 498.22 537.793 498.323C537.682 498.426 537.595 498.553 537.538 498.695C537.381 499.072 537.538 499.229 537.538 499.339C538.246 499.936 540.855 499.685 542.349 499.072C541.26 498.493 540.069 498.13 538.843 498.003Z" fill="#F39325"/>
<path d="M393.619 553.983C392.519 554.075 391.418 553.816 390.475 553.244C390.228 553.062 390.027 552.826 389.888 552.553C389.748 552.28 389.675 551.978 389.673 551.672C389.655 551.506 389.681 551.338 389.751 551.185C389.82 551.033 389.929 550.903 390.066 550.807C391.497 549.833 396.873 552.285 397.926 552.772C397.987 552.802 398.036 552.85 398.067 552.909C398.098 552.968 398.109 553.036 398.099 553.102C398.094 553.166 398.068 553.227 398.026 553.275C397.983 553.323 397.926 553.356 397.863 553.37C396.473 553.716 395.051 553.922 393.619 553.983ZM391.104 551.263C390.891 551.244 390.678 551.288 390.491 551.389C390.443 551.421 390.406 551.467 390.384 551.52C390.361 551.573 390.355 551.631 390.365 551.688C390.37 551.893 390.423 552.095 390.518 552.278C390.613 552.46 390.749 552.619 390.915 552.741C392.157 553.684 395.112 553.322 396.842 553.008C395.028 552.141 393.093 551.553 391.104 551.263Z" fill="#F39325"/>
<path d="M397.863 553.433H397.737C395.961 552.709 392.377 549.833 392.581 548.339C392.581 548.009 392.833 547.6 393.65 547.506C396.794 547.097 398.115 552.835 398.162 553.071C398.175 553.127 398.173 553.186 398.157 553.241C398.14 553.296 398.109 553.346 398.068 553.385C398.006 553.422 397.935 553.438 397.863 553.433ZM393.933 548.103H393.729C393.399 548.103 393.21 548.245 393.194 548.402C393.084 549.251 395.552 551.546 397.376 552.521C396.983 551.169 395.82 548.103 393.933 548.103Z" fill="#F39325"/>
<path d="M351.394 158.24L348.753 157.816C348.753 157.816 350.31 159.655 351.394 158.24Z" fill="#263238"/>
<path d="M253.048 48.387C250.266 51.8769 234.938 55.9799 222.755 54.8481C218.558 82.39 233.225 114.098 233.225 114.098C233.225 114.098 265.059 110.309 265.845 97.1985C266.631 84.0878 253.048 48.387 253.048 48.387Z" fill="#F39325"/>
<path opacity="0.4" d="M253.048 48.387C250.266 51.8769 234.938 55.9799 222.755 54.8481C218.558 82.39 233.225 114.098 233.225 114.098C233.225 114.098 265.059 110.309 265.845 97.1985C266.631 84.0878 253.048 48.387 253.048 48.387Z" fill="#FAFAFA"/>
<path d="M494.025 27.4319C496.87 31.4405 511.317 35.4178 522.494 33.3427C528.484 65.9465 517.385 104.681 517.385 104.681C517.385 104.681 487.721 102.04 485.945 86.4615C484.168 70.8827 494.025 27.4319 494.025 27.4319Z" fill="#F39325"/>
<path opacity="0.4" d="M494.025 27.4319C496.87 31.4405 511.317 35.4178 522.494 33.3427C528.484 65.9465 517.385 104.681 517.385 104.681C517.385 104.681 487.721 102.04 485.945 86.4615C484.168 70.8827 494.025 27.4319 494.025 27.4319Z" fill="#FAFAFA"/>
<path d="M285.369 309.8C285.143 309.833 284.913 309.821 284.691 309.765C284.469 309.708 284.261 309.608 284.078 309.471C283.896 309.333 283.742 309.161 283.626 308.964C283.511 308.767 283.435 308.549 283.404 308.322L246.069 43.4823C246.038 43.2484 246.055 43.0108 246.118 42.7835C246.181 42.5562 246.289 42.3439 246.435 42.1591C246.582 41.9743 246.764 41.8209 246.971 41.708C247.178 41.595 247.406 41.5248 247.641 41.5016C247.868 41.4706 248.099 41.4846 248.32 41.5429C248.542 41.6011 248.75 41.7025 248.933 41.8412C249.115 41.9799 249.268 42.1532 249.384 42.3511C249.499 42.5491 249.575 42.7679 249.606 42.995L286.941 307.819C286.972 308.053 286.955 308.29 286.892 308.518C286.829 308.745 286.721 308.957 286.575 309.142C286.428 309.327 286.246 309.48 286.039 309.593C285.832 309.706 285.604 309.776 285.369 309.8Z" fill="#F39325"/>
<path opacity="0.2" d="M285.369 309.8C285.143 309.833 284.913 309.821 284.691 309.765C284.469 309.708 284.261 309.608 284.078 309.471C283.896 309.333 283.742 309.161 283.626 308.964C283.511 308.767 283.435 308.549 283.404 308.322L246.069 43.4823C246.038 43.2484 246.055 43.0108 246.118 42.7835C246.181 42.5562 246.289 42.3439 246.435 42.1591C246.582 41.9743 246.764 41.8209 246.971 41.708C247.178 41.595 247.406 41.5248 247.641 41.5016C247.868 41.4706 248.099 41.4846 248.32 41.5429C248.542 41.6011 248.75 41.7025 248.933 41.8412C249.115 41.9799 249.268 42.1532 249.384 42.3511C249.499 42.5491 249.575 42.7679 249.606 42.995L286.941 307.819C286.972 308.053 286.955 308.29 286.892 308.518C286.829 308.745 286.721 308.957 286.575 309.142C286.428 309.327 286.246 309.48 286.039 309.593C285.832 309.706 285.604 309.776 285.369 309.8Z" fill="black"/>
<path d="M463.275 290.118C463.509 290.148 463.747 290.132 463.974 290.069C464.202 290.006 464.414 289.898 464.599 289.751C464.783 289.605 464.937 289.422 465.05 289.215C465.163 289.008 465.233 288.781 465.256 288.546L502.67 23.7219C502.704 23.4948 502.692 23.2633 502.636 23.0407C502.58 22.8182 502.48 22.6089 502.343 22.4249C502.205 22.2409 502.033 22.0858 501.836 21.9684C501.638 21.8511 501.42 21.7739 501.193 21.7412C500.959 21.7105 500.721 21.7272 500.494 21.7902C500.267 21.8532 500.054 21.9612 499.87 22.1078C499.685 22.2544 499.531 22.4367 499.418 22.6438C499.305 22.8508 499.235 23.0785 499.212 23.3132L461.798 288.137C461.735 288.595 461.854 289.06 462.131 289.43C462.407 289.801 462.818 290.048 463.275 290.118Z" fill="#F39325"/>
<path opacity="0.2" d="M463.275 290.118C463.509 290.148 463.747 290.132 463.974 290.069C464.202 290.006 464.414 289.898 464.599 289.751C464.783 289.605 464.937 289.422 465.05 289.215C465.163 289.008 465.233 288.781 465.256 288.546L502.67 23.7219C502.704 23.4948 502.692 23.2633 502.636 23.0407C502.58 22.8182 502.48 22.6089 502.343 22.4249C502.205 22.2409 502.033 22.0858 501.836 21.9684C501.638 21.8511 501.42 21.7739 501.193 21.7412C500.959 21.7105 500.721 21.7272 500.494 21.7902C500.267 21.8532 500.054 21.9612 499.87 22.1078C499.685 22.2544 499.531 22.4367 499.418 22.6438C499.305 22.8508 499.235 23.0785 499.212 23.3132L461.798 288.137C461.735 288.595 461.854 289.06 462.131 289.43C462.407 289.801 462.818 290.048 463.275 290.118Z" fill="black"/>
<path d="M244.575 49.0787L251.649 101.081C251.692 101.41 251.806 101.725 251.983 102.006C252.16 102.286 252.395 102.525 252.673 102.706C252.951 102.887 253.265 103.005 253.593 103.053C253.921 103.101 254.255 103.077 254.573 102.984C270.388 98.4561 358.327 75.8818 493.411 90.2501C493.985 90.3163 494.563 90.1636 495.029 89.8227C495.495 89.4818 495.816 88.9777 495.926 88.4108C498.473 75.2373 502.859 37.7129 503.975 28.1078C504.042 27.5023 503.869 26.8948 503.493 26.4157C503.116 25.9365 502.567 25.6241 501.963 25.5454C483.822 23.2503 359.993 9.52648 246.163 46.5635C245.648 46.734 245.208 47.078 244.918 47.5367C244.629 47.9954 244.507 48.5405 244.575 49.0787Z" fill="#F39325"/>
<path d="M267.26 58.165L274.711 56.593L279.977 70.2854L281.314 55.2568L288.749 53.6848L295.273 67.1099L295.368 52.3485L302.788 50.7765L301.813 77.3438L294.126 78.9158L286.753 63.7929L285.181 80.7079L277.494 82.2799L267.26 58.165Z" fill="#FAFAFA"/>
<path d="M306.434 50.4936L327.641 47.3495L328.332 52.8202L315.065 54.7695L315.583 58.8567L327.892 57.0489L328.553 62.2838L316.244 64.0916L316.809 69.1692L330.47 67.1728L331.209 72.9893L309.61 76.1333L306.434 50.4936Z" fill="#FAFAFA"/>
<path d="M333.033 46.7364L340.987 45.8718L342.685 65.3178L355.088 63.9815L355.654 70.2697L335.218 72.4705L333.033 46.7364Z" fill="#FAFAFA"/>
<path d="M375.069 58.2594L382.159 59.8314C381.865 61.6474 381.196 63.3822 380.194 64.9248C379.274 66.3135 378.02 67.4487 376.547 68.226C374.782 69.0767 372.861 69.5582 370.903 69.6409C368.566 69.89 366.203 69.6381 363.971 68.902C362.038 68.0667 360.397 66.6772 359.255 64.9091C357.75 62.5965 356.937 59.9021 356.912 57.1432C356.5 53.5238 357.54 49.8885 359.805 47.0351C361.018 45.7471 362.479 44.7171 364.1 44.0068C365.72 43.2964 367.467 42.9202 369.237 42.9007C371.905 42.552 374.615 43.0467 376.987 44.3155C379.071 45.7007 380.64 47.7339 381.452 50.1006L374.487 52.1756C374.296 51.5703 374.004 51.0016 373.623 50.4936C373.141 49.9226 372.525 49.4797 371.831 49.2045C370.701 48.743 369.442 48.7052 368.287 49.098C367.132 49.4909 366.157 50.2879 365.543 51.3425C364.779 52.9579 364.49 54.7569 364.709 56.5301C364.846 59.3912 365.37 61.3248 366.281 62.3309C366.756 62.8324 367.342 63.2148 367.992 63.447C368.642 63.6792 369.338 63.7546 370.023 63.6672C370.668 63.6593 371.304 63.5151 371.889 63.2442C372.474 62.9733 372.995 62.5817 373.418 62.0951C374.288 60.9788 374.856 59.6581 375.069 58.2594Z" fill="#FAFAFA"/>
<path d="M385.067 55.2568C384.944 53.4485 385.18 51.6338 385.763 49.9177C386.346 48.2015 387.264 46.618 388.462 45.2587C389.748 43.9934 391.274 42.9991 392.951 42.3348C394.628 41.6705 396.421 41.3497 398.225 41.3915C400.015 41.2132 401.822 41.3999 403.538 41.9403C405.254 42.4807 406.842 43.3636 408.207 44.5355C409.432 45.8084 410.384 47.3187 411.003 48.9733C411.622 50.628 411.896 52.3919 411.807 54.1563C411.943 56.7382 411.458 59.3151 410.392 61.6706C409.43 63.6325 407.917 65.2714 406.038 66.3867C403.852 67.6073 401.389 68.2461 398.885 68.2417C396.412 68.4155 393.932 68.0174 391.638 67.0784C389.664 66.1711 388.018 64.6782 386.922 62.8025C385.633 60.5012 384.992 57.8935 385.067 55.2568ZM393.037 55.0367C392.898 57.0278 393.454 59.0055 394.609 60.6331C395.1 61.1877 395.714 61.619 396.402 61.8922C397.09 62.1653 397.833 62.2725 398.571 62.2051C399.324 62.2221 400.072 62.0683 400.758 61.7552C401.445 61.4421 402.051 60.9779 402.532 60.3973C403.629 58.5693 404.098 56.4329 403.868 54.3136C404.003 52.4156 403.444 50.5332 402.296 49.0158C401.794 48.4633 401.171 48.034 400.476 47.7614C399.78 47.4887 399.032 47.38 398.288 47.4438C397.549 47.4415 396.819 47.6057 396.152 47.9241C395.485 48.2425 394.899 48.707 394.436 49.2831C393.33 50.9806 392.836 53.0048 393.037 55.021V55.0367Z" fill="#FAFAFA"/>
<path d="M416.649 41.3286H427.135L430.75 57.1589L435.199 41.4387L445.685 41.533L444.977 67.4714H438.438L438.972 47.6796L433.407 67.4243H427.496L423.016 47.5853L422.482 67.3771H415.942L416.649 41.3286Z" fill="#FAFAFA"/>
<path d="M451.438 41.7845L472.77 42.7435L472.44 48.277L459.078 47.6796L458.81 51.8769L471.198 52.4271L470.868 57.6306L458.48 57.0803L458.166 62.2052L471.905 62.8025L471.528 68.6819L449.803 67.7073L451.438 41.7845Z" fill="#FAFAFA"/>
</svg>
