<svg width="32" height="33" viewBox="0 0 32 33" fill="none" xmlns="http://www.w3.org/2000/svg">
<path d="M12.0007 14H2.66732C2.3137 14 1.97456 13.8595 1.72451 13.6095C1.47446 13.3594 1.33398 13.0203 1.33398 12.6667V3.33333C1.33398 2.97971 1.47446 2.64057 1.72451 2.39052C1.97456 2.14047 2.3137 2 2.66732 2H12.0007C12.3543 2 12.6934 2.14047 12.9435 2.39052C13.1935 2.64057 13.334 2.97971 13.334 3.33333V12.6667C13.334 13.0203 13.1935 13.3594 12.9435 13.6095C12.6934 13.8595 12.3543 14 12.0007 14Z" fill="#8C30F5"/>
<path d="M12.0007 31.3334H2.66732C2.3137 31.3334 1.97456 31.1929 1.72451 30.9429C1.47446 30.6928 1.33398 30.3537 1.33398 30V20.6667C1.33398 20.3131 1.47446 19.9739 1.72451 19.7239C1.97456 19.4738 2.3137 19.3334 2.66732 19.3334H12.0007C12.3543 19.3334 12.6934 19.4738 12.9435 19.7239C13.1935 19.9739 13.334 20.3131 13.334 20.6667V30C13.334 30.3537 13.1935 30.6928 12.9435 30.9429C12.6934 31.1929 12.3543 31.3334 12.0007 31.3334Z" fill="#8C30F5"/>
<path d="M17.334 3.33337H30.6673V6.00004H17.334V3.33337Z" fill="#2EC5CE"/>
<path d="M30.6673 20.6666H17.334V23.3333H30.6673V20.6666Z" fill="#2EC5CE"/>
<path d="M30.6673 27.3334H17.334V30H30.6673V27.3334Z" fill="#D6B1FF"/>
<path d="M30.6673 10H17.334V12.6667H30.6673V10Z" fill="#D6B1FF"/>
</svg>
