<svg width="32" height="32" viewBox="0 0 32 32" fill="none" xmlns="http://www.w3.org/2000/svg">
<path d="M27.9993 32H15.9993C15.6457 32 15.3066 31.8595 15.0565 31.6095C14.8065 31.3594 14.666 31.0203 14.666 30.6667V28C14.666 27.6464 14.8065 27.3073 15.0565 27.0572C15.3066 26.8072 15.6457 26.6667 15.9993 26.6667H27.9993C28.353 26.6667 28.6921 26.8072 28.9422 27.0572C29.1922 27.3073 29.3327 27.6464 29.3327 28V30.6667C29.3327 31.0203 29.1922 31.3594 28.9422 31.6095C28.6921 31.8595 28.353 32 27.9993 32Z" fill="#D6B1FF"/>
<path d="M27.9993 0H3.99935C3.64573 0 3.30659 0.140475 3.05654 0.390523C2.80649 0.640572 2.66602 0.979711 2.66602 1.33333V4C2.66602 4.35362 2.80649 4.69276 3.05654 4.94281C3.30659 5.19286 3.64573 5.33333 3.99935 5.33333H27.9993C28.353 5.33333 28.6921 5.19286 28.9422 4.94281C29.1922 4.69276 29.3327 4.35362 29.3327 4V1.33333C29.3327 0.979711 29.1922 0.640572 28.9422 0.390523C28.6921 0.140475 28.353 0 27.9993 0Z" fill="#2EC5CE"/>
<path d="M27.9993 8H3.99935C3.64573 8 3.30659 8.14047 3.05654 8.39052C2.80649 8.64057 2.66602 8.97971 2.66602 9.33333V22.6667C2.66602 23.0203 2.80649 23.3594 3.05654 23.6095C3.30659 23.8595 3.64573 24 3.99935 24H27.9993C28.353 24 28.6921 23.8595 28.9422 23.6095C29.1922 23.3594 29.3327 23.0203 29.3327 22.6667V9.33333C29.3327 8.97971 29.1922 8.64057 28.9422 8.39052C28.6921 8.14047 28.353 8 27.9993 8Z" fill="#8C30F5"/>
</svg>
