<svg width="731" height="545" viewBox="0 0 731 545" fill="none" xmlns="http://www.w3.org/2000/svg">
<path d="M0 478.084H730.122V478.449H0V478.084Z" fill="#EBEBEB"/>
<path d="M73.1582 501.579H121.521V501.944H73.1582V501.579Z" fill="#EBEBEB"/>
<path d="M246.46 505.551H259.149V505.916H246.46V505.551Z" fill="#EBEBEB"/>
<path d="M122.982 488.028H151.004V488.393H122.982V488.028Z" fill="#EBEBEB"/>
<path d="M590.45 490.481H653.518V490.846H590.45V490.481Z" fill="#EBEBEB"/>
<path d="M568.196 490.481H577.439V490.846H568.196V490.481Z" fill="#EBEBEB"/>
<path d="M401.348 496.644H538.144V497.009H401.348V496.644Z" fill="#EBEBEB"/>
<path d="M384.044 412.957H666.003C668.212 412.953 670.329 412.073 671.889 410.51C673.45 408.946 674.326 406.828 674.326 404.619V8.26495C674.307 6.06878 673.422 3.96888 671.864 2.42137C670.305 0.873865 668.199 0.00373164 666.003 -3.05176e-05H384.044C381.833 -3.05176e-05 379.712 0.878435 378.148 2.44211C376.585 4.00579 375.706 6.12659 375.706 8.33796V404.619C375.706 406.83 376.585 408.951 378.148 410.515C379.712 412.079 381.833 412.957 384.044 412.957ZM666.003 0.292019C668.115 0.295888 670.139 1.13759 671.631 2.63239C673.123 4.12719 673.961 6.15293 673.961 8.26495V404.619C673.961 406.731 673.123 408.757 671.631 410.252C670.139 411.746 668.115 412.588 666.003 412.592H384.044C381.931 412.588 379.905 411.747 378.411 410.252C376.916 408.758 376.075 406.732 376.071 404.619V8.26495C376.075 6.15158 376.916 4.12588 378.411 2.6315C379.905 1.13712 381.931 0.295879 384.044 0.292019H666.003Z" fill="#EBEBEB"/>
<path d="M68.1789 412.957H350.152C352.362 412.953 354.481 412.073 356.044 410.511C357.606 408.948 358.486 406.829 358.49 404.619V8.26495C358.467 6.06745 357.579 3.96757 356.018 2.42046C354.457 0.873354 352.35 0.00369061 350.152 -3.05176e-05H68.1789C65.9851 0.00756932 63.8828 0.8794 62.3275 2.4265C60.7722 3.9736 59.8893 6.0713 59.8701 8.26495V404.619C59.8701 406.825 60.7445 408.942 62.3019 410.505C63.8592 412.067 65.9725 412.949 68.1789 412.957ZM350.152 0.292019C352.265 0.295879 354.291 1.13712 355.785 2.6315C357.28 4.12588 358.121 6.15158 358.125 8.26495V404.619C358.121 406.732 357.28 408.758 355.785 410.252C354.291 411.747 352.265 412.588 350.152 412.592H68.1789C66.0655 412.588 64.0398 411.747 62.5454 410.252C61.051 408.758 60.2098 406.732 60.2059 404.619V8.26495C60.2098 6.15158 61.051 4.12588 62.5454 2.6315C64.0398 1.13712 66.0655 0.295879 68.1789 0.292019H350.152Z" fill="#EBEBEB"/>
<path d="M414.096 91.9808H588.683V478.084H414.096V91.9808Z" fill="#F0F0F0"/>
<path d="M414.096 91.9808H580.403V478.084H414.096V91.9808Z" fill="#623D91"/>
<path d="M422.872 469.308V100.728L571.656 100.728V469.308H422.872Z" fill="#F0F0F0"/>
<path d="M455.246 279.155H442.892C441.254 279.147 439.685 278.492 438.528 277.332C437.37 276.172 436.719 274.602 436.715 272.963C436.719 271.325 437.37 269.755 438.528 268.595C439.685 267.435 441.254 266.78 442.892 266.772H455.246C456.885 266.78 458.456 267.434 459.615 268.594C460.775 269.753 461.429 271.324 461.437 272.963C461.429 274.603 460.775 276.173 459.615 277.333C458.456 278.492 456.885 279.147 455.246 279.155Z" fill="white"/>
<path d="M422.857 469.322V100.742H425.135V469.322H422.857Z" fill="#F0F0F0"/>
<path d="M274.949 312.171H314.639V471.352H274.949V312.171Z" fill="#F0F0F0"/>
<path d="M111.314 471.352H307.031V478.084H111.314V471.352Z" fill="#F0F0F0"/>
<path d="M274.949 471.352H103.677L103.677 312.171H274.949V471.352Z" fill="#623D91"/>
<path d="M259.354 360.052H119.288V325.24H259.354V360.052Z" fill="#F0F0F0"/>
<path d="M259.354 458.298H119.288L119.288 370.449H259.354V458.298Z" fill="#F0F0F0"/>
<path d="M171.637 340.251H207.004C208.061 340.251 208.917 341.108 208.917 342.164V343.114C208.917 344.17 208.061 345.026 207.004 345.026H171.637C170.581 345.026 169.724 344.17 169.724 343.114V342.164C169.724 341.108 170.581 340.251 171.637 340.251Z" fill="#623D91"/>
<path d="M171.637 410.212H207.004C208.061 410.212 208.917 411.068 208.917 412.125V413.074C208.917 414.13 208.061 414.987 207.004 414.987H171.637C170.581 414.987 169.724 414.13 169.724 413.074V412.125C169.724 411.068 170.581 410.212 171.637 410.212Z" fill="#623D91"/>
<path d="M104.057 108.219H160.058V213.794H104.057V108.219Z" fill="#E6E6E6"/>
<path d="M91.5133 108.219H157.283V213.794H91.5133V108.219Z" fill="#623D91"/>
<path d="M101.516 204.39V117.579H147.266V204.39H101.516Z" fill="white"/>
<path d="M196.681 77.3491H252.681V182.925H196.681V77.3491Z" fill="#E6E6E6"/>
<path d="M184.151 77.3491H249.921V182.925H184.151V77.3491Z" fill="#623D91"/>
<path d="M194.154 173.535V86.7238H239.904V173.535H194.154Z" fill="white"/>
<path d="M281.491 145.572H337.491V251.147H281.491V145.572Z" fill="#E6E6E6"/>
<path d="M268.933 145.572H334.717V251.147H268.933V145.572Z" fill="#623D91"/>
<path d="M278.95 241.743V154.932H324.7V241.743H278.95Z" fill="white"/>
<path d="M365.061 544.029C208.694 544.029 81.934 536.628 81.934 527.499C81.934 518.369 208.694 510.969 365.061 510.969C521.427 510.969 648.188 518.369 648.188 527.499C648.188 536.628 521.427 544.029 365.061 544.029Z" fill="#623D91"/>
<path d="M293.772 131.583H558.558C562.501 131.583 565.698 134.779 565.698 138.723V327.576C565.698 331.52 562.501 334.717 558.558 334.717H293.772C289.828 334.717 286.631 331.52 286.631 327.576V138.723C286.631 134.779 289.828 131.583 293.772 131.583Z" fill="#263238"/>
<path d="M423.806 122.383H428.508C429.452 122.383 430.217 123.148 430.217 124.091V521.731C430.217 522.674 429.452 523.439 428.508 523.439H423.806C422.863 523.439 422.098 522.674 422.098 521.731V124.091C422.098 123.148 422.863 122.383 423.806 122.383Z" fill="#263238"/>
<path d="M434.86 515.32H417.483C415.679 515.32 413.948 516.037 412.672 517.313C411.396 518.589 410.679 520.32 410.679 522.125V522.957C410.679 523.085 410.729 523.208 410.82 523.298C410.91 523.388 411.033 523.439 411.161 523.439H441.183C441.311 523.439 441.434 523.388 441.524 523.298C441.614 523.208 441.665 523.085 441.665 522.957V522.125C441.665 520.32 440.948 518.589 439.672 517.313C438.396 516.037 436.665 515.32 434.86 515.32Z" fill="#263238"/>
<path d="M325.415 126.472H348.779V127.932H325.415V126.472Z" fill="#F39325"/>
<path d="M362.724 126.472H369.865V127.932H362.724V126.472Z" fill="#F39325"/>
<path d="M292.735 131.583H557.521C561.465 131.583 564.662 134.779 564.662 138.723V327.576C564.662 331.52 561.465 334.717 557.521 334.717H292.735C288.791 334.717 285.594 331.52 285.594 327.576V138.723C285.594 134.779 288.791 131.583 292.735 131.583Z" fill="#F39325"/>
<path opacity="0.7" d="M292.896 321.254V145.046C292.896 141.643 295.654 138.884 299.058 138.884L551.198 138.884C554.601 138.884 557.36 141.643 557.36 145.046V321.254C557.36 324.657 554.601 327.416 551.198 327.416H299.058C295.654 327.416 292.896 324.657 292.896 321.254Z" fill="white"/>
<path opacity="0.2" d="M480.42 230.718C497.447 229.125 514.545 228.403 531.646 228.557C531.485 205.339 529.411 180.238 527.586 155.545L477.383 158.772C479.325 187.583 481.252 216.481 480.42 230.718Z" fill="black"/>
<path d="M479.456 229.682C496.483 228.081 513.581 227.359 530.682 227.521C530.521 204.288 529.455 180.252 527.63 155.545L476.404 157.706C478.317 186.517 480.245 215.43 479.456 229.682Z" fill="white"/>
<path opacity="0.2" d="M412.227 280.177L463.437 282.411L465.569 209.384L415.352 208.202L412.227 280.177Z" fill="black"/>
<path d="M414.359 207.181L465.58 209.408L462.451 281.374L411.23 279.147L414.359 207.181Z" fill="white"/>
<path opacity="0.2" d="M298.05 278.439L348.881 271.737L338.28 199.455L288.631 207.019L298.05 278.439Z" fill="black"/>
<path d="M287.473 206.181L338.302 199.471L347.729 270.886L296.901 277.595L287.473 206.181Z" fill="white"/>
<path opacity="0.2" d="M472.797 331.242C482.085 334.162 506.003 334.615 523.906 333.724C526.461 311.236 526.199 286.062 525.556 260.712L475.338 259.88C476.448 277.286 475.586 308.257 472.797 331.242Z" fill="black"/>
<path d="M471.775 330.19C481.077 333.111 504.996 333.549 522.884 332.658C525.42 308.751 526.308 284.697 525.541 260.668L474.316 258.77C475.441 276.234 474.579 307.206 471.775 330.19Z" fill="white"/>
<path opacity="0.2" d="M346.852 223.417L398.106 224.542C399.829 200.564 399.333 175.492 398.676 151.529H348.429C348.998 177.011 348.618 201.324 346.852 223.417Z" fill="black"/>
<path d="M345.844 222.337L397.099 223.461C398.812 199.484 399.328 175.477 398.647 151.442L347.392 150.317C347.947 175.959 347.538 200.258 345.844 222.337Z" fill="white"/>
</svg>
