<svg width="361" height="269" viewBox="0 0 361 269" fill="none" xmlns="http://www.w3.org/2000/svg">
<path d="M360.902 235.882H0.666504V236.062H360.902V235.882Z" fill="#EBEBEB"/>
<path d="M324.806 247.474H309.187V247.654H324.806V247.474Z" fill="#EBEBEB"/>
<path d="M248.991 243.742H224.416V243.923H248.991V243.742Z" fill="#EBEBEB"/>
<path d="M318.48 240.788H286.398V240.968H318.48V240.788Z" fill="#EBEBEB"/>
<path d="M125.322 244.42H117.296V244.6H125.322V244.42Z" fill="#EBEBEB"/>
<path d="M110.877 244.42H83.218V244.6H110.877V244.42Z" fill="#EBEBEB"/>
<path d="M68.3979 241.379H48.4409V241.559H68.3979V241.379Z" fill="#EBEBEB"/>
<path d="M171.418 203.749H32.3097C31.2186 203.749 30.1722 203.316 29.4007 202.544C28.6292 201.773 28.1958 200.726 28.1958 199.635V4.07786C28.2053 2.99305 28.6429 1.95589 29.4134 1.19217C30.1839 0.428437 31.2248 -4.15898e-05 32.3097 3.02781e-09H171.418C172.509 3.02782e-09 173.556 0.433426 174.327 1.20493C175.099 1.97643 175.532 3.02281 175.532 4.11388V199.635C175.532 200.726 175.099 201.773 174.327 202.544C173.556 203.316 172.509 203.749 171.418 203.749ZM32.3097 0.144095C31.267 0.145999 30.2675 0.561059 29.5302 1.29837C28.7929 2.03568 28.3778 3.03515 28.3759 4.07786V199.635C28.3778 200.678 28.7929 201.677 29.5302 202.415C30.2675 203.152 31.267 203.567 32.3097 203.569H171.418C172.461 203.567 173.46 203.152 174.198 202.415C174.935 201.677 175.35 200.678 175.352 199.635V4.07786C175.35 3.03515 174.935 2.03568 174.198 1.29837C173.46 0.561059 172.461 0.145999 171.418 0.144095H32.3097Z" fill="#EBEBEB"/>
<path d="M327.263 203.749H188.14C187.049 203.747 186.004 203.313 185.233 202.542C184.462 201.771 184.028 200.726 184.026 199.635V4.07786C184.037 2.99364 184.475 1.95757 185.246 1.19425C186.016 0.430919 187.055 0.00183597 188.14 0H327.263C328.345 0.00374968 329.382 0.433903 330.15 1.19723C330.917 1.96055 331.353 2.99554 331.362 4.07786V199.635C331.362 200.724 330.931 201.768 330.162 202.539C329.394 203.31 328.351 203.745 327.263 203.749ZM188.14 0.144095C187.097 0.145999 186.098 0.561059 185.36 1.29837C184.623 2.03568 184.208 3.03515 184.206 4.07786V199.635C184.208 200.678 184.623 201.677 185.36 202.415C186.098 203.152 187.097 203.567 188.14 203.569H327.263C328.305 203.567 329.305 203.152 330.042 202.415C330.779 201.677 331.194 200.678 331.196 199.635V4.07786C331.194 3.03515 330.779 2.03568 330.042 1.29837C329.305 0.561059 328.305 0.145999 327.263 0.144095H188.14Z" fill="#EBEBEB"/>
<path d="M281.924 179.296C281.657 179.296 281.383 179.296 281.109 179.296C275.346 179.764 270.634 185.276 270.266 192.07C270.18 193.565 270.307 195.064 270.641 196.523C271.919 202.384 272.533 208.37 272.471 214.369V231.883C272.433 232.448 272.618 233.004 272.985 233.434C273.353 233.864 273.875 234.132 274.438 234.182H313.098V179.296H281.924Z" fill="#F0F0F0"/>
<path d="M324.785 192.992C324.785 185.11 319.107 178.785 312.284 179.303C306.521 179.772 301.809 185.283 301.477 192.077C301.391 193.572 301.518 195.071 301.852 196.53C303.13 202.391 303.744 208.377 303.682 214.376V231.891C303.644 232.455 303.829 233.012 304.196 233.441C304.564 233.871 305.086 234.139 305.649 234.189H320.627C321.19 234.137 321.709 233.868 322.075 233.439C322.442 233.009 322.625 232.454 322.587 231.891V213.367C322.542 207.744 323.151 202.135 324.403 196.652C324.67 195.451 324.798 194.223 324.785 192.992Z" fill="#FAFAFA"/>
<path d="M297.003 203.158H256.196V234.21H297.003V203.158Z" fill="#F5F5F5"/>
<path d="M261.224 132.12H216.382C215.156 132.099 213.94 132.34 212.815 132.826C211.689 133.311 210.679 134.03 209.853 134.936C209.026 135.841 208.402 136.912 208.021 138.078C207.64 139.243 207.511 140.476 207.643 141.695L213.464 208.41H277.457L271.635 141.695C271.371 139.102 270.166 136.695 268.248 134.931C266.329 133.166 263.83 132.166 261.224 132.12Z" fill="#E6E6E6"/>
<path d="M266.952 132.12H226.606C225.395 132.094 224.192 132.327 223.078 132.804C221.964 133.28 220.965 133.988 220.147 134.882C219.328 135.775 218.71 136.833 218.333 137.984C217.956 139.135 217.829 140.354 217.96 141.558L223.796 208.41H283.091L277.255 141.558C276.992 138.996 275.798 136.619 273.899 134.879C272 133.14 269.528 132.158 266.952 132.12Z" fill="#F5F5F5"/>
<path d="M258.833 202.042H296.974C297.519 202.042 298.041 202.258 298.426 202.643C298.811 203.028 299.028 203.55 299.028 204.095V207.402C299.028 207.946 298.811 208.469 298.426 208.854C298.041 209.239 297.519 209.455 296.974 209.455H258.833C258.752 209.455 258.673 209.439 258.598 209.409C258.524 209.378 258.456 209.333 258.4 209.276C258.343 209.219 258.298 209.151 258.267 209.077C258.236 209.003 258.22 208.923 258.22 208.843V202.661C258.219 202.58 258.234 202.5 258.265 202.425C258.295 202.349 258.34 202.281 258.397 202.223C258.454 202.166 258.522 202.12 258.597 202.089C258.671 202.058 258.752 202.041 258.833 202.042Z" fill="#EBEBEB"/>
<path d="M216.217 234.211H313.689V234.34C313.689 234.749 313.527 235.141 313.238 235.431C312.948 235.72 312.556 235.882 312.147 235.882H217.766C217.357 235.882 216.965 235.72 216.676 235.431C216.386 235.141 216.224 234.749 216.224 234.34V234.211H216.217Z" fill="#E6E6E6"/>
<path d="M216.807 179.296C216.541 179.296 216.267 179.296 215.993 179.296C210.23 179.764 205.518 185.276 205.15 192.07C205.064 193.565 205.19 195.064 205.525 196.523C206.803 202.384 207.417 208.37 207.355 214.369V231.883C207.317 232.448 207.501 233.004 207.869 233.434C208.237 233.864 208.758 234.132 209.322 234.182H256.757V179.296H216.807Z" fill="#F0F0F0"/>
<path d="M268.436 192.992C268.436 185.11 262.759 178.785 255.936 179.303C250.172 179.772 245.461 185.283 245.093 192.077C245.007 193.572 245.133 195.071 245.468 196.53C246.746 202.391 247.36 208.377 247.298 214.376V231.891C247.26 232.455 247.444 233.012 247.812 233.441C248.18 233.871 248.701 234.139 249.265 234.189H264.243C264.805 234.137 265.325 233.868 265.691 233.439C266.057 233.009 266.241 232.454 266.203 231.891V213.367C266.159 207.745 266.765 202.136 268.011 196.652C268.297 195.453 268.44 194.225 268.436 192.992Z" fill="#FAFAFA"/>
<path d="M318.307 214.102H281.03V235.882H318.307V214.102Z" fill="#F0F0F0"/>
<path d="M318.552 212.978H280.8C279.956 212.978 279.272 213.662 279.272 214.505V218.857C279.272 219.701 279.956 220.384 280.8 220.384H318.552C319.396 220.384 320.08 219.701 320.08 218.857V214.505C320.08 213.662 319.396 212.978 318.552 212.978Z" fill="#E6E6E6"/>
<path d="M84.7526 138.402H75.2424V175.269H84.7526V138.402Z" fill="#E6E6E6"/>
<path d="M147.909 175.269H78.9743L74.2048 132.12H143.139L147.909 175.269Z" fill="#F0F0F0"/>
<path d="M151.331 175.269H81.352L76.5825 132.12H146.562L151.331 175.269Z" fill="#F5F5F5"/>
<path d="M83.7078 171.868L79.6948 135.52H144.206L148.226 171.868H83.7078Z" fill="white"/>
<path d="M94.5509 163.057L94.3851 161.58C93.3765 152.459 99.0682 144.332 106.467 144.332L106.633 145.773C107.642 154.894 101.943 163.021 94.5509 163.021V163.057Z" fill="#F5F5F5"/>
<path d="M108.658 163.057L108.492 161.58C107.483 152.459 113.175 144.332 120.574 144.332L120.74 145.773C121.749 154.894 116.05 163.021 108.658 163.021V163.057Z" fill="#F5F5F5"/>
<path d="M122.765 163.057L122.599 161.58C121.59 152.459 127.289 144.332 134.681 144.332L134.847 145.773C135.856 154.894 130.157 163.021 122.765 163.021V163.057Z" fill="#F5F5F5"/>
<path d="M197.672 175.269H156.829V235.882H197.672V175.269Z" fill="#E6E6E6"/>
<path d="M193.558 235.882H197.665V224.196H189.25L193.558 235.882Z" fill="#F0F0F0"/>
<path d="M83.2036 175.269H42.3601V235.882H83.2036V175.269Z" fill="#E6E6E6"/>
<path d="M197.665 175.269H79.6157V228.713H197.665V175.269Z" fill="#F0F0F0"/>
<path d="M83.7224 235.882H79.6157V224.196H88.0308L83.7224 235.882Z" fill="#F0F0F0"/>
<path d="M194.48 178.612H82.8071V200.175H194.48V178.612Z" fill="#E6E6E6"/>
<path d="M146.093 185.312H131.194C127.993 185.312 124.825 184.66 121.885 183.395C118.944 182.131 116.292 180.28 114.09 177.956H163.197C160.996 180.28 158.344 182.131 155.403 183.395C152.462 184.66 149.295 185.312 146.093 185.312Z" fill="#F0F0F0"/>
<path d="M194.48 203.663H82.8071V225.226H194.48V203.663Z" fill="#E6E6E6"/>
<path d="M146.093 210.377H131.194C127.993 210.377 124.825 209.725 121.885 208.461C118.944 207.196 116.292 205.345 114.09 203.021H163.197C160.996 205.345 158.344 207.196 155.403 208.461C152.462 209.725 149.295 210.377 146.093 210.377Z" fill="#F0F0F0"/>
<path d="M308.704 18.9124H45.8977V108.251H308.704V18.9124Z" fill="#E6E6E6"/>
<path d="M311.319 18.9124H47.1152V108.251H311.319V18.9124Z" fill="#F0F0F0"/>
<path d="M308.704 108.25H45.8977V113.114H308.704V108.25Z" fill="#E6E6E6"/>
<path d="M315.678 108.25H51.4739V113.114H315.678V108.25Z" fill="#F0F0F0"/>
<path d="M307.659 104.598V22.5796L50.7827 22.5796V104.598L307.659 104.598Z" fill="#FAFAFA"/>
<path d="M270.872 104.591L276.736 22.5723H286.88L281.016 104.591H270.872Z" fill="white"/>
<path d="M69.6301 104.591L75.4948 22.5723H85.639L79.7816 104.591H69.6301Z" fill="white"/>
<path d="M52.4757 62.8177C52.4385 62.8187 52.4015 62.8121 52.367 62.7984C52.3324 62.7846 52.3011 62.7639 52.2748 62.7376C52.2485 62.7113 52.2278 62.68 52.214 62.6454C52.2003 62.6109 52.1937 62.5739 52.1947 62.5367V24.957C52.1947 24.8825 52.2243 24.811 52.277 24.7583C52.3297 24.7056 52.4011 24.676 52.4757 24.676C52.5496 24.6779 52.62 24.708 52.6723 24.7603C52.7246 24.8126 52.7548 24.8831 52.7566 24.957V62.5367C52.7566 62.6113 52.727 62.6827 52.6743 62.7354C52.6217 62.7881 52.5502 62.8177 52.4757 62.8177Z" fill="#F0F0F0"/>
<path d="M283.199 104.591L289.063 22.5723H293.012L287.154 104.591H283.199Z" fill="white"/>
<path d="M307.659 104.591V22.5723H307.191V104.591H307.659Z" fill="#E6E6E6"/>
<path opacity="0.5" d="M312.184 29.215H49.3777L49.0391 23.9988H311.845L312.184 29.215Z" fill="#E0E0E0"/>
<path opacity="0.5" d="M312.184 37.7885H49.3777L49.0391 32.5723H311.845L312.184 37.7885Z" fill="#E0E0E0"/>
<path opacity="0.5" d="M312.184 46.3622H49.3777L49.0391 41.146H311.845L312.184 46.3622Z" fill="#E0E0E0"/>
<path opacity="0.5" d="M312.184 54.9359H49.3777L49.0391 49.7197H311.845L312.184 54.9359Z" fill="#E0E0E0"/>
<path opacity="0.5" d="M312.184 63.5097H49.3777L49.0391 58.2935H311.845L312.184 63.5097Z" fill="#E0E0E0"/>
<path opacity="0.5" d="M312.184 72.0759H49.3777L49.0391 66.8669H311.845L312.184 72.0759Z" fill="#E0E0E0"/>
<path d="M180.784 268.418C257.934 268.418 320.476 264.767 320.476 260.263C320.476 255.758 257.934 252.107 180.784 252.107C103.635 252.107 41.0923 255.758 41.0923 260.263C41.0923 264.767 103.635 268.418 180.784 268.418Z" fill="#F5F5F5"/>
<path d="M117.138 39.0928H111.215V39.8132H117.138V39.0928Z" fill="#623D91"/>
<path d="M106.093 39.0928H85.761V39.8132H106.093V39.0928Z" fill="#623D91"/>
<path d="M81.7769 152.502H226.808C227.57 152.514 228.327 152.363 229.027 152.06C229.728 151.757 230.355 151.308 230.869 150.744C231.383 150.18 231.771 149.513 232.007 148.788C232.243 148.062 232.323 147.295 232.24 146.536L223.421 47.5511C223.249 45.9391 222.496 44.445 221.302 43.3474C220.109 42.2498 218.558 41.6236 216.937 41.5856H71.8992C71.1363 41.5739 70.3797 41.7246 69.6794 42.0276C68.9792 42.3307 68.3514 42.7791 67.8377 43.3433C67.324 43.9074 66.9361 44.5743 66.6998 45.2997C66.4634 46.0252 66.384 46.7926 66.4669 47.5511L75.2854 146.508C75.4487 148.127 76.1991 149.631 77.3949 150.735C78.5908 151.84 80.1495 152.468 81.7769 152.502Z" fill="#623D91"/>
<path d="M82.2452 152.502H227.269C228.032 152.515 228.789 152.365 229.49 152.062C230.191 151.76 230.819 151.311 231.333 150.747C231.847 150.183 232.235 149.515 232.471 148.789C232.706 148.063 232.785 147.295 232.701 146.537L223.89 47.5512C223.715 45.9398 222.962 44.4466 221.769 43.3493C220.576 42.2519 219.026 41.6252 217.405 41.5857H72.3604C71.5996 41.5783 70.8459 41.732 70.1489 42.0368C69.4518 42.3416 68.8272 42.7905 68.3161 43.354C67.8049 43.9175 67.4189 44.5829 67.1834 45.3063C66.9479 46.0297 66.8682 46.7948 66.9496 47.5512L75.7682 146.508C75.9342 148.124 76.6834 149.624 77.8756 150.727C79.0678 151.831 80.6213 152.462 82.2452 152.502Z" fill="#623D91"/>
<path opacity="0.2" d="M82.2452 152.502H227.269C228.032 152.515 228.789 152.365 229.49 152.062C230.191 151.76 230.819 151.311 231.333 150.747C231.847 150.183 232.235 149.515 232.471 148.789C232.706 148.063 232.785 147.295 232.701 146.537L223.89 47.5512C223.715 45.9398 222.962 44.4466 221.769 43.3493C220.576 42.2519 219.026 41.6252 217.405 41.5857H72.3604C71.5996 41.5783 70.8459 41.732 70.1489 42.0368C69.4518 42.3416 68.8272 42.7905 68.3161 43.354C67.8049 43.9175 67.4189 44.5829 67.1834 45.3063C66.9479 46.0297 66.8682 46.7948 66.9496 47.5512L75.7682 146.508C75.9342 148.124 76.6834 149.624 77.8756 150.727C79.0678 151.831 80.6213 152.462 82.2452 152.502Z" fill="black"/>
<path d="M217.658 44.5972H72.6269C72.4684 44.5972 72.3027 44.5972 72.1442 44.5972C68.441 44.8998 69.2984 50.541 73.0376 50.541H218.313C222.052 50.541 221.916 44.8998 218.148 44.5972C217.982 44.6044 217.823 44.5972 217.658 44.5972Z" fill="#623D91"/>
<path d="M75.2134 49.3089C74.7519 49.2995 74.3095 49.1225 73.9688 48.811C73.6282 48.4995 73.4124 48.0747 73.3618 47.6158C73.3409 47.391 73.3666 47.1643 73.4372 46.9498C73.5079 46.7354 73.622 46.5378 73.7724 46.3694C73.9242 46.2038 74.1091 46.072 74.3152 45.9827C74.5213 45.8933 74.7438 45.8483 74.9684 45.8507C75.4308 45.859 75.874 46.0367 76.2139 46.3501C76.5539 46.6635 76.767 47.0909 76.8128 47.551C76.8374 47.7744 76.8141 48.0005 76.7446 48.2142C76.6751 48.428 76.5609 48.6245 76.4097 48.7908C76.2584 48.957 76.0735 49.0892 75.8673 49.1785C75.661 49.2679 75.4381 49.3123 75.2134 49.3089ZM74.9684 46.5711C74.8445 46.5694 74.7216 46.5935 74.6075 46.6419C74.4933 46.6903 74.3905 46.7619 74.3056 46.8521C74.2197 46.9497 74.1554 47.0643 74.1169 47.1885C74.0784 47.3126 74.0666 47.4435 74.0822 47.5726C74.112 47.8536 74.2434 48.1141 74.4517 48.3052C74.66 48.4962 74.9308 48.6046 75.2134 48.6101C75.3373 48.6118 75.4602 48.5877 75.5744 48.5393C75.6885 48.4909 75.7913 48.4193 75.8762 48.3291C75.9625 48.2318 76.0271 48.1172 76.0656 47.9929C76.1041 47.8687 76.1157 47.7377 76.0996 47.6086C76.0683 47.3282 75.9365 47.0685 75.7285 46.8778C75.5206 46.6871 75.2505 46.5781 74.9684 46.5711Z" fill="#FAFAFA"/>
<path d="M79.8603 49.3089C79.3996 49.2993 78.9582 49.122 78.6187 48.8104C78.2792 48.4987 78.0649 48.074 78.0159 47.6158C77.9926 47.3917 78.0169 47.1651 78.0872 46.951C78.1575 46.7369 78.2722 46.5401 78.4239 46.3734C78.5756 46.2067 78.7608 46.074 78.9674 45.9839C79.174 45.8939 79.3972 45.8484 79.6226 45.8507C80.084 45.8621 80.5255 46.0408 80.8648 46.3537C81.2042 46.6665 81.4182 47.092 81.467 47.551C81.4914 47.7749 81.4674 48.0015 81.3965 48.2153C81.3257 48.4291 81.2096 48.6252 81.0563 48.7902C80.9046 48.9558 80.7196 49.0876 80.5136 49.1769C80.3075 49.2663 80.0849 49.3113 79.8603 49.3089ZM79.6226 46.5711C79.4985 46.5685 79.3753 46.5922 79.2611 46.6407C79.1468 46.6891 79.0441 46.7611 78.9598 46.8521C78.8714 46.9483 78.805 47.0626 78.7652 47.187C78.7254 47.3114 78.7131 47.443 78.7292 47.5726C78.7605 47.853 78.8923 48.1127 79.1003 48.3034C79.3082 48.4942 79.5782 48.6031 79.8603 48.6101C79.9844 48.6127 80.1076 48.589 80.2218 48.5405C80.3361 48.4921 80.4388 48.4201 80.5232 48.3291C80.6124 48.2337 80.6789 48.1193 80.7176 47.9945C80.7562 47.8697 80.7661 47.7378 80.7465 47.6086C80.7169 47.3288 80.5866 47.0692 80.3798 46.8784C80.173 46.6875 79.9039 46.5783 79.6226 46.5711Z" fill="#FAFAFA"/>
<path d="M84.5147 49.3089C84.0531 49.2995 83.6108 49.1225 83.2701 48.811C82.9294 48.4995 82.7137 48.0747 82.663 47.6158C82.6422 47.391 82.6679 47.1643 82.7385 46.9498C82.8092 46.7354 82.9233 46.5378 83.0737 46.3694C83.2255 46.2038 83.4104 46.072 83.6165 45.9827C83.8225 45.8933 84.0451 45.8483 84.2697 45.8507C84.7323 45.8603 85.1756 46.0383 85.5164 46.3513C85.8573 46.6643 86.0723 47.0908 86.1213 47.551C86.1421 47.7747 86.1163 48.0003 86.0456 48.2135C85.9749 48.4268 85.8609 48.6231 85.7106 48.7902C85.5589 48.9558 85.374 49.0876 85.1679 49.1769C84.9618 49.2663 84.7393 49.3113 84.5147 49.3089ZM84.2697 46.5711C84.1458 46.5694 84.0228 46.5935 83.9087 46.6419C83.7946 46.6903 83.6918 46.7619 83.6069 46.8521C83.521 46.9497 83.4567 47.0643 83.4182 47.1885C83.3797 47.3126 83.3679 47.4435 83.3835 47.5726C83.4133 47.8536 83.5447 48.1141 83.753 48.3052C83.9612 48.4962 84.2321 48.6046 84.5147 48.6101C84.6386 48.6118 84.7615 48.5877 84.8756 48.5393C84.9897 48.4909 85.0925 48.4193 85.1775 48.3291C85.2638 48.2318 85.3283 48.1172 85.3669 47.9929C85.4054 47.8687 85.417 47.7377 85.4008 47.6086C85.3689 47.3233 85.233 47.0597 85.019 46.8683C84.805 46.677 84.528 46.5711 84.2409 46.5711H84.2697Z" fill="#FAFAFA"/>
<path d="M84.5002 142.653H223.292C223.568 142.658 223.843 142.603 224.097 142.494C224.351 142.384 224.579 142.222 224.766 142.017C224.953 141.813 225.094 141.571 225.18 141.308C225.266 141.045 225.295 140.767 225.266 140.492L217.975 59.0784C217.913 58.4928 217.64 57.9498 217.206 57.5517C216.772 57.1536 216.207 56.9279 215.619 56.917H76.8633C76.5865 56.9124 76.3119 56.9666 76.0577 57.0762C75.8034 57.1857 75.5754 57.3481 75.3887 57.5525C75.2021 57.7569 75.061 57.9987 74.9748 58.2617C74.8887 58.5248 74.8595 58.8032 74.8892 59.0784L82.1443 140.492C82.2057 141.077 82.4791 141.62 82.9131 142.018C83.347 142.416 83.9115 142.642 84.5002 142.653Z" fill="white"/>
<path d="M132.693 207.351C134.623 213.252 131.972 218.036 126.093 218.036H224.279C230.187 218.036 232.809 213.252 230.878 207.351H132.693Z" fill="#263238"/>
<path d="M90.6458 62.9331C111.691 111.075 95.4153 159.224 111.316 207.351C113.254 213.252 120.199 218.036 126.093 218.036C131.986 218.036 134.623 213.252 132.692 207.351H220.194C204.286 159.21 220.561 111.075 199.516 62.9331H90.6458Z" fill="#623D91"/>
<path opacity="0.8" d="M90.6458 62.9331C111.691 111.075 95.4153 159.224 111.316 207.351C113.254 213.252 120.199 218.036 126.093 218.036C131.986 218.036 134.623 213.252 132.692 207.351H220.194C204.286 159.21 220.561 111.075 199.516 62.9331H90.6458Z" fill="white"/>
<path d="M137.073 99.4248H110.596C109.416 90.4276 107.387 81.5623 104.537 72.9475H131.014C133.864 81.5623 135.893 90.4276 137.073 99.4248Z" fill="#623D91"/>
<path opacity="0.6" d="M208.392 199.988H149.314C146.871 190.512 145.263 180.84 144.508 171.083H203.587C204.341 180.84 205.949 190.512 208.392 199.988Z" fill="#623D91"/>
<g opacity="0.8">
<path opacity="0.8" d="M194.725 75.9014H135.646C135.344 74.9408 135.027 73.961 134.695 72.9619H193.774C194.105 73.9418 194.422 74.9216 194.725 75.9014Z" fill="#623D91"/>
<path opacity="0.8" d="M196.843 83.5743H137.764C137.519 82.6137 137.279 81.6338 137.044 80.6348H196.123C196.358 81.6002 196.598 82.58 196.843 83.5743Z" fill="#623D91"/>
<path opacity="0.8" d="M185.208 91.1968H139.422C139.235 90.217 139.04 89.2372 138.831 88.2573H184.624C184.826 89.2372 185.02 90.217 185.208 91.1968Z" fill="#623D91"/>
</g>
<g opacity="0.2">
<path opacity="0.2" d="M200.907 108.978H141.828C141.77 108.337 141.713 107.689 141.648 107.04H200.727C200.791 107.689 200.849 108.337 200.907 108.978Z" fill="#623D91"/>
<path opacity="0.2" d="M201.31 114.022H142.232C142.188 113.373 142.138 112.725 142.087 112.084H201.166C201.216 112.725 201.267 113.373 201.31 114.022Z" fill="#623D91"/>
<path opacity="0.2" d="M185.208 119.058H142.534C142.534 118.41 142.469 117.768 142.426 117.12H185.107L185.208 119.058Z" fill="#623D91"/>
<path opacity="0.2" d="M201.843 124.094H142.765C142.765 123.453 142.714 122.804 142.686 122.156H201.764C201.793 122.804 201.822 123.453 201.843 124.094Z" fill="#623D91"/>
<path opacity="0.2" d="M202.016 129.137H142.938C142.938 128.489 142.901 127.84 142.88 127.199H201.958C201.98 127.84 202.002 128.489 202.016 129.137Z" fill="#623D91"/>
<path opacity="0.2" d="M156.562 134.173H143.075C143.075 133.525 143.075 132.884 143.024 132.235H156.511C156.533 132.884 156.547 133.532 156.562 134.173Z" fill="#623D91"/>
<path opacity="0.2" d="M202.261 139.217H143.183C143.183 138.568 143.183 137.92 143.146 137.279H202.225C202.239 137.92 202.247 138.568 202.261 139.217Z" fill="#623D91"/>
<path opacity="0.2" d="M202.398 144.253H143.32L143.276 142.314H202.355L202.398 144.253Z" fill="#623D91"/>
<path opacity="0.2" d="M202.492 149.289H143.413C143.413 148.647 143.413 147.999 143.363 147.351H202.441C202.456 147.999 202.47 148.647 202.492 149.289Z" fill="#623D91"/>
<path opacity="0.2" d="M202.643 154.332H143.564L143.5 152.394H202.578L202.643 154.332Z" fill="#623D91"/>
<path opacity="0.2" d="M202.837 159.368H143.759C143.759 158.727 143.701 158.079 143.68 157.43H202.758C202.78 158.079 202.809 158.727 202.837 159.368Z" fill="#623D91"/>
<path opacity="0.2" d="M168.961 164.411H144.04L143.932 162.473H168.867L168.961 164.411Z" fill="#623D91"/>
</g>
<path d="M266.022 77.7532C266.671 78.5385 267.218 79.2446 267.773 80.0082C268.328 80.7719 268.868 81.514 269.394 82.2849C270.453 83.8195 271.455 85.383 272.399 87.004C273.342 88.6251 274.25 90.2749 275.05 92.0041C275.888 93.7485 276.61 95.5464 277.211 97.386L277.442 98.1065L277.499 98.2794L277.586 98.582C277.652 98.7991 277.702 99.0206 277.737 99.2448C277.868 100.019 277.885 100.808 277.788 101.586C277.622 102.791 277.285 103.965 276.786 105.073C275.96 106.901 274.933 108.631 273.724 110.232C271.473 113.23 268.911 115.98 266.08 118.438L263.155 115.751C265.111 112.918 266.917 109.984 268.566 106.961C269.326 105.583 269.953 104.135 270.439 102.638C270.621 102.089 270.72 101.516 270.734 100.938C270.734 100.743 270.734 100.606 270.677 100.606C270.619 100.606 270.677 100.606 270.677 100.606C270.677 100.606 270.677 100.65 270.677 100.606L270.619 100.47L270.381 99.9148C269.029 96.8667 267.434 93.9321 265.612 91.1395C264.704 89.6986 263.738 88.2576 262.73 86.8815C261.721 85.5054 260.705 84.0501 259.747 82.7677L266.022 77.7532Z" fill="#FF8B7B"/>
<path d="M264.971 114.85L260.144 116.248L263.991 120.751C263.991 120.751 267.24 119.209 266.909 116.666L264.971 114.85Z" fill="#FF8B7B"/>
<path d="M256.686 120.116L261.059 123.604L263.991 120.75L260.144 116.248L256.686 120.116Z" fill="#FF8B7B"/>
<path d="M239.38 54.5324C239.38 54.9647 239.156 55.3105 238.875 55.3105C238.594 55.3105 238.371 54.9647 238.371 54.5324C238.371 54.1001 238.594 53.7615 238.875 53.7615C239.156 53.7615 239.38 54.1073 239.38 54.5324Z" fill="#263238"/>
<path d="M239.192 55.3105C238.682 56.6128 237.996 57.8393 237.153 58.9561C237.445 59.165 237.778 59.3079 238.13 59.3751C238.482 59.4423 238.845 59.4321 239.192 59.3452V55.3105Z" fill="#A02724"/>
<path d="M240.893 52.1693C240.84 52.1699 240.789 52.1521 240.748 52.1188C240.496 51.9299 240.203 51.8023 239.893 51.746C239.583 51.6897 239.264 51.7064 238.962 51.7946C238.9 51.8182 238.831 51.8162 238.77 51.7892C238.709 51.7623 238.662 51.7124 238.637 51.6505C238.616 51.5883 238.619 51.5202 238.645 51.4599C238.672 51.3997 238.721 51.3519 238.782 51.3263C239.161 51.2058 239.564 51.1782 239.957 51.2459C240.349 51.3136 240.719 51.4746 241.037 51.7154C241.064 51.734 241.088 51.7582 241.106 51.7864C241.124 51.8147 241.137 51.8463 241.142 51.8794C241.147 51.9125 241.146 51.9463 241.138 51.9789C241.13 52.0114 241.115 52.0418 241.094 52.0684C241.071 52.0997 241.04 52.1251 241.005 52.1426C240.97 52.1602 240.932 52.1693 240.893 52.1693Z" fill="#263238"/>
<path d="M253.155 59.4531C252.399 63.3293 251.642 70.4259 254.351 73.0052C254.351 73.0052 253.292 76.9317 246.095 76.9317C238.169 76.9317 242.319 73.0052 242.319 73.0052C246.642 71.9749 246.52 68.776 245.77 65.7644L253.155 59.4531Z" fill="#FF8B7B"/>
<path d="M255.388 74.3523C255.958 73.1131 256.577 71.6866 255.287 71.2399C253.847 70.75 246.087 70.2529 243.407 71.1751C243.053 71.2731 242.723 71.4402 242.434 71.6669C242.146 71.8935 241.905 72.1751 241.726 72.4954C241.547 72.8157 241.434 73.1683 241.392 73.5328C241.35 73.8973 241.381 74.2665 241.483 74.6189L255.388 74.3523Z" fill="#623D91"/>
<path d="M280.396 244.96C280.245 245.128 280.061 245.264 279.855 245.36C279.649 245.455 279.427 245.508 279.2 245.515C279.063 245.515 278.89 245.385 278.826 245.061C278.807 244.978 278.807 244.893 278.826 244.811C278.845 244.729 278.882 244.652 278.934 244.585C279.402 243.944 281.167 243.764 281.239 243.757C281.263 243.752 281.288 243.755 281.31 243.766C281.332 243.776 281.35 243.793 281.362 243.814C281.375 243.835 281.383 243.858 281.383 243.883C281.383 243.907 281.375 243.931 281.362 243.951C281.077 244.321 280.754 244.66 280.396 244.96ZM279.244 244.621L279.135 244.729C279.105 244.768 279.083 244.814 279.072 244.863C279.06 244.911 279.06 244.962 279.071 245.01C279.114 245.241 279.222 245.262 279.258 245.27C279.618 245.349 280.447 244.657 280.965 244.045C280.355 244.111 279.766 244.313 279.244 244.636V244.621Z" fill="#623D91"/>
<path d="M281.333 243.987H281.282C280.67 244.117 279.121 243.915 278.818 243.396C278.772 243.314 278.755 243.218 278.77 243.125C278.786 243.032 278.834 242.947 278.905 242.885C278.971 242.815 279.05 242.76 279.138 242.722C279.226 242.683 279.32 242.663 279.416 242.661C280.216 242.661 281.297 243.728 281.34 243.778C281.357 243.793 281.37 243.812 281.376 243.834C281.383 243.856 281.383 243.879 281.376 243.901C281.375 243.917 281.371 243.934 281.364 243.949C281.356 243.963 281.346 243.977 281.333 243.987ZM279.135 243.043L279.092 243.086C278.977 243.202 279.02 243.274 279.034 243.303C279.207 243.605 280.288 243.843 280.972 243.8C280.552 243.368 280.013 243.069 279.423 242.942C279.318 242.94 279.216 242.976 279.135 243.043Z" fill="#623D91"/>
<path d="M240.713 255.126C240.036 255.126 239.38 255.032 239.157 254.729C239.1 254.649 239.07 254.554 239.07 254.456C239.07 254.358 239.1 254.262 239.157 254.182C239.247 254.035 239.392 253.929 239.56 253.886C240.439 253.649 242.291 254.701 242.363 254.751C242.387 254.762 242.406 254.781 242.418 254.804C242.43 254.828 242.433 254.855 242.427 254.881C242.422 254.906 242.41 254.928 242.392 254.946C242.374 254.964 242.351 254.976 242.327 254.982C241.794 255.075 241.254 255.123 240.713 255.126ZM239.863 254.103C239.784 254.091 239.704 254.091 239.625 254.103C239.574 254.113 239.526 254.133 239.484 254.163C239.442 254.193 239.406 254.231 239.38 254.276C239.286 254.434 239.322 254.513 239.38 254.557C239.625 254.895 240.965 254.902 241.952 254.765C241.305 254.411 240.596 254.186 239.863 254.103Z" fill="#623D91"/>
<path d="M242.312 254.982H242.261C241.62 254.694 240.352 253.541 240.453 252.95C240.453 252.806 240.575 252.633 240.921 252.597C241.05 252.581 241.18 252.592 241.304 252.63C241.428 252.667 241.543 252.729 241.642 252.813C242.319 253.368 242.456 254.794 242.463 254.852C242.466 254.874 242.463 254.896 242.454 254.917C242.445 254.937 242.431 254.955 242.413 254.967C242.382 254.985 242.346 254.99 242.312 254.982ZM241.022 252.82H240.943C240.72 252.82 240.705 252.928 240.698 252.957C240.64 253.317 241.498 254.218 242.139 254.607C242.073 254.003 241.821 253.434 241.418 252.979C241.305 252.89 241.166 252.839 241.022 252.835V252.82Z" fill="#623D91"/>
<path d="M248.133 254.859H242.838L242.312 242.604H247.6L248.133 254.859Z" fill="#FF8B7B"/>
<path d="M286.679 242.445L281.556 243.778L275.886 232.597L281.009 231.257L286.679 242.445Z" fill="#FF8B7B"/>
<path d="M281.16 243.173L285.691 239.326C285.772 239.258 285.874 239.22 285.98 239.22C286.085 239.22 286.187 239.258 286.268 239.326L290.108 242.208C290.201 242.28 290.276 242.372 290.327 242.478C290.379 242.583 290.406 242.699 290.406 242.817C290.406 242.934 290.379 243.05 290.327 243.155C290.276 243.261 290.201 243.353 290.108 243.425C288.501 244.737 287.651 245.299 285.663 246.992C284.431 248.029 280.735 251.603 279.041 253.044C277.348 254.485 275.706 252.993 276.268 252.251C278.804 248.937 280.454 245.702 280.691 243.958C280.744 243.648 280.911 243.368 281.16 243.173Z" fill="#263238"/>
<path d="M242.874 254.247H248.638C248.743 254.247 248.845 254.283 248.927 254.348C249.009 254.413 249.067 254.505 249.092 254.607L250.136 259.311C250.161 259.425 250.16 259.543 250.133 259.656C250.106 259.769 250.054 259.874 249.981 259.964C249.907 260.055 249.814 260.127 249.709 260.176C249.604 260.225 249.489 260.25 249.373 260.248C247.29 260.248 244.272 260.097 241.656 260.097C238.587 260.097 237.254 260.262 233.659 260.262C231.498 260.262 230.885 258.065 231.793 257.863C235.929 256.963 238.003 256.862 241.584 254.657C241.967 254.402 242.414 254.26 242.874 254.247Z" fill="#263238"/>
<path d="M235.489 84.7633C233.731 87.8757 231.887 90.8224 229.913 93.762C227.938 96.7015 225.849 99.5257 223.558 102.328C223.277 102.681 222.974 103.049 222.679 103.366L222.24 103.885L222.016 104.144L221.642 104.533C220.774 105.42 219.76 106.151 218.644 106.694C216.855 107.559 214.965 108.198 213.018 108.596C209.446 109.321 205.802 109.628 202.16 109.511L201.771 105.556C204.98 104.731 208.142 103.735 211.245 102.573C212.633 102.056 213.966 101.399 215.222 100.614C215.645 100.343 216.022 100.008 216.339 99.6194L216.951 98.7836C217.189 98.4522 217.434 98.128 217.672 97.7822C219.581 95.0732 221.418 92.2346 223.212 89.3671C225.006 86.4996 226.815 83.6033 228.536 80.7214L235.489 84.7633Z" fill="#FF8B7B"/>
<path d="M264.265 74.2084C269.229 75.3467 274.913 88.87 274.913 88.87L264.949 95.7C262.473 92.1447 260.273 88.4041 258.371 84.5111C255.432 78.3151 259.193 73.0412 264.265 74.2084Z" fill="#263238"/>
<path opacity="0.3" d="M260.713 82.8542L265.425 95.3976L264.956 95.7218C264.956 95.7218 262.918 92.84 260.713 88.9999V82.8542Z" fill="black"/>
<path d="M234.617 74.4748C234.617 74.4748 228.983 80.8366 234.3 120.225H262.608C262.802 115.902 260.071 94.6768 264.265 74.2011C261.136 73.5985 257.971 73.199 254.79 73.0051C250.783 72.7744 246.766 72.7744 242.759 73.0051C240.011 73.2819 237.289 73.7733 234.617 74.4748Z" fill="#263238"/>
<path opacity="0.3" d="M237.759 85.8657C237.022 90.3354 235.09 94.5227 232.168 97.984C232.052 95.448 232.009 93.1713 232.016 91.1324L237.759 85.8657Z" fill="black"/>
<path d="M240.201 78.7687C240.922 83.776 231.022 96.5788 231.022 96.5788L221.13 89.7487C221.13 89.7487 223.875 82.6953 228.515 78.0699C233.775 72.7672 239.438 73.3148 240.201 78.7687Z" fill="#263238"/>
<path d="M202.088 105.541L196.541 104.871L196.692 111.629C196.692 111.629 201.058 112.004 203.435 108.964L202.088 105.541Z" fill="#FF8B7B"/>
<path d="M191.007 106.521L193.169 111.99L196.692 111.629L196.541 104.871L191.007 106.521Z" fill="#FF8B7B"/>
<path opacity="0.2" d="M242.312 242.604L242.607 249.491H247.903L247.607 242.604H242.312Z" fill="black"/>
<path opacity="0.2" d="M281.009 231.264L275.886 232.597L279.027 238.793L283.934 237.027L281.009 231.264Z" fill="black"/>
<path d="M253.616 53.6318C253.299 58.8696 253.378 61.9604 250.734 64.6478C246.75 68.6968 240.28 66.2977 239.027 61.0454C237.903 56.3336 238.616 48.5525 243.753 46.4703C244.883 46.006 246.113 45.8385 247.325 45.9836C248.538 46.1287 249.694 46.5816 250.682 47.2993C251.671 48.017 252.459 48.9756 252.973 50.084C253.486 51.1924 253.708 52.4137 253.616 53.6318Z" fill="#FF8B7B"/>
<path d="M244.185 56.0741C241.412 55.5193 242.42 52.1908 243.105 51.2109C242.889 51.1462 242.695 51.0263 242.54 50.8632C242.385 50.7 242.276 50.4993 242.223 50.2808C242.17 50.0624 242.175 49.8338 242.237 49.6178C242.3 49.4018 242.417 49.2059 242.579 49.0495C241.419 49.0495 238.487 48.8478 238.652 45.4472C238.818 42.0466 240.979 42.3996 241.779 44.3665C242.132 43.2055 242.922 42.2269 243.983 41.6369C245.043 41.047 246.291 40.8916 247.464 41.2036C250.468 41.9241 247.824 43.4803 247.824 43.4803C247.824 43.4803 254.38 42.1618 253.465 45.5264C256.304 45.6849 260.432 48.3074 258.35 50.5697C259.589 53.0049 259.395 54.6692 257.831 55.3176C257.291 58.2427 254.186 63.848 251.822 63.848C249.87 63.8408 244.315 61.1966 244.185 56.0741Z" fill="#263238"/>
<path d="M246.512 55.0583C246.276 56.3405 245.626 57.5098 244.661 58.3869C243.378 59.5252 242.262 58.6102 242.226 57.054C242.226 55.6491 242.816 53.358 244.293 52.8104C245.77 52.2629 246.772 53.5021 246.512 55.0583Z" fill="#FF8B7B"/>
<path d="M244.344 120.225C244.344 120.225 250.352 160.665 253.645 175.795C257.247 192.366 275.634 236.79 275.634 236.79L284.856 233.821C284.856 233.821 271.563 193.763 269.524 177.329C267.291 159.498 262.608 120.225 262.608 120.225H244.344Z" fill="#623D91"/>
<path d="M273.674 234.873C273.638 234.873 275.792 238.101 275.792 238.101L286.153 234.686L284.921 231.595L273.674 234.873Z" fill="#263238"/>
<path opacity="0.3" d="M248.141 134.634C255.086 135.996 254.351 161.897 253.515 175.219C251.512 165.802 248.58 147.682 246.577 134.822C247.062 134.583 247.613 134.517 248.141 134.634Z" fill="black"/>
<path d="M234.301 120.225C234.301 120.225 231.793 159.8 232.37 175.939C232.968 192.726 240.612 247.698 240.612 247.698H249.575C249.575 247.698 248.134 193.706 248.523 177.221C248.962 159.21 252.91 120.225 252.91 120.225H234.301Z" fill="#623D91"/>
<path d="M238.883 244.124C238.847 244.124 239.394 247.849 239.394 247.849H250.295L250.59 244.527L238.883 244.124Z" fill="#263238"/>
</svg>
