<svg width="323" height="241" viewBox="0 0 323 241" fill="none" xmlns="http://www.w3.org/2000/svg">
<path d="M322.886 211.536H0.36377V211.698H322.886V211.536Z" fill="#EBEBEB"/>
<path d="M290.569 221.915H269.205V222.076H290.569V221.915Z" fill="#EBEBEB"/>
<path d="M214.015 223.67H208.41V223.831H214.015V223.67Z" fill="#EBEBEB"/>
<path d="M268.56 215.929H256.182V216.09H268.56V215.929Z" fill="#EBEBEB"/>
<path d="M62.0623 217.013H34.2029V217.174H62.0623V217.013Z" fill="#EBEBEB"/>
<path d="M71.8927 217.013H67.8096V217.174H71.8927V217.013Z" fill="#EBEBEB"/>
<path d="M145.595 219.735H85.1677V219.896H145.595V219.735Z" fill="#EBEBEB"/>
<path d="M153.239 182.767H28.6877C27.712 182.766 26.7768 182.377 26.0875 181.686C25.3982 180.996 25.011 180.06 25.011 179.084V3.99983C25.0195 3.0297 25.4104 2.10209 26.0988 1.4185C26.7872 0.734909 27.7176 0.350539 28.6877 0.348877H153.239C154.216 0.348877 155.153 0.736928 155.844 1.42766C156.535 2.1184 156.923 3.05523 156.923 4.03208V179.084C156.923 180.061 156.535 180.998 155.844 181.689C155.153 182.379 154.216 182.767 153.239 182.767ZM28.6877 0.477886C27.7548 0.479595 26.8606 0.851408 26.2015 1.51172C25.5424 2.17202 25.1722 3.06687 25.1722 3.99983V179.084C25.1722 180.017 25.5424 180.912 26.2015 181.572C26.8606 182.233 27.7548 182.604 28.6877 182.606H153.239C154.173 182.604 155.068 182.233 155.728 181.573C156.388 180.913 156.76 180.018 156.761 179.084V3.99983C156.76 3.06627 156.388 2.17144 155.728 1.51132C155.068 0.851199 154.173 0.479591 153.239 0.477886H28.6877Z" fill="#EBEBEB"/>
<path d="M292.769 182.767H168.211C167.234 182.766 166.298 182.377 165.608 181.687C164.918 180.996 164.529 180.061 164.527 179.084V3.99983C164.538 3.02911 164.93 2.10151 165.619 1.4181C166.309 0.734684 167.24 0.350521 168.211 0.348877H292.769C293.738 0.352234 294.666 0.737354 295.353 1.42077C296.04 2.10418 296.43 3.03081 296.439 3.99983V179.084C296.439 180.059 296.053 180.994 295.365 181.684C294.677 182.374 293.743 182.764 292.769 182.767ZM168.211 0.477886C167.277 0.479591 166.382 0.851199 165.722 1.51132C165.062 2.17144 164.69 3.06627 164.689 3.99983V179.084C164.69 180.018 165.062 180.913 165.722 181.573C166.382 182.233 167.277 182.604 168.211 182.606H292.769C293.702 182.604 294.597 182.233 295.257 181.573C295.917 180.913 296.289 180.018 296.291 179.084V3.99983C296.289 3.06627 295.917 2.17144 295.257 1.51132C294.597 0.851199 293.702 0.479591 292.769 0.477886H168.211Z" fill="#EBEBEB"/>
<path d="M139.964 40.9802H62.8428V211.536H139.964V40.9802Z" fill="#F0F0F0"/>
<path d="M139.964 40.9802H66.5002V211.536H139.964V40.9802Z" fill="#F5F5F5"/>
<path d="M136.087 207.66V44.844L70.3638 44.844L70.3638 207.66H136.087Z" fill="#F0F0F0"/>
<path d="M121.787 123.662H127.244C127.968 123.659 128.661 123.369 129.172 122.857C129.683 122.345 129.971 121.651 129.972 120.927C129.971 120.203 129.683 119.51 129.172 118.997C128.661 118.485 127.968 118.196 127.244 118.192H121.787C121.062 118.196 120.369 118.485 119.857 118.997C119.344 119.509 119.055 120.203 119.052 120.927C119.055 121.651 119.344 122.345 119.857 122.857C120.369 123.369 121.062 123.659 121.787 123.662Z" fill="white"/>
<path d="M136.094 207.666V44.8503H135.088V207.666H136.094Z" fill="#F0F0F0"/>
<path d="M201.43 138.247H183.898V208.563H201.43V138.247Z" fill="#F0F0F0"/>
<path d="M273.714 208.563H187.259V211.536H273.714V208.563Z" fill="#F0F0F0"/>
<path d="M201.431 208.563H277.088V138.246H201.431V208.563Z" fill="#F5F5F5"/>
<path d="M208.319 159.397H270.192V144.02H208.319V159.397Z" fill="#F0F0F0"/>
<path d="M208.319 202.796H270.192V163.99H208.319V202.796Z" fill="#F0F0F0"/>
<path d="M247.068 150.651H231.445C230.978 150.651 230.6 151.029 230.6 151.496V151.915C230.6 152.382 230.978 152.76 231.445 152.76H247.068C247.534 152.76 247.913 152.382 247.913 151.915V151.496C247.913 151.029 247.534 150.651 247.068 150.651Z" fill="#F5F5F5"/>
<path d="M247.068 181.555H231.445C230.978 181.555 230.6 181.933 230.6 182.4V182.819C230.6 183.286 230.978 183.664 231.445 183.664H247.068C247.534 183.664 247.913 183.286 247.913 182.819V182.4C247.913 181.933 247.534 181.555 247.068 181.555Z" fill="#F5F5F5"/>
<path d="M276.92 48.1531H252.183V94.7898H276.92V48.1531Z" fill="#E6E6E6"/>
<path d="M282.461 48.1531H253.408V94.7898H282.461V48.1531Z" fill="#F5F5F5"/>
<path d="M278.042 90.6357V52.2878H257.833V90.6357H278.042Z" fill="white"/>
<path d="M236.005 34.5168H211.268V81.1536H236.005V34.5168Z" fill="#E6E6E6"/>
<path d="M241.539 34.5168H212.487V81.1536H241.539V34.5168Z" fill="#F5F5F5"/>
<path d="M237.121 77.0059V38.658H216.912V77.0059H237.121Z" fill="white"/>
<path d="M198.541 64.6533H173.803V111.29H198.541V64.6533Z" fill="#E6E6E6"/>
<path d="M204.088 64.6533H175.029V111.29H204.088V64.6533Z" fill="#F5F5F5"/>
<path d="M199.663 107.136V68.7881H179.454V107.136H199.663Z" fill="white"/>
<path d="M161.625 240.667C230.698 240.667 286.692 237.398 286.692 233.365C286.692 229.332 230.698 226.063 161.625 226.063C92.5518 226.063 36.5571 229.332 36.5571 233.365C36.5571 237.398 92.5518 240.667 161.625 240.667Z" fill="#F5F5F5"/>
<path d="M193.116 58.4739H76.1499C74.4078 58.4739 72.9956 59.8861 72.9956 61.6281V145.052C72.9956 146.794 74.4078 148.206 76.1499 148.206H193.116C194.858 148.206 196.27 146.794 196.27 145.052V61.6281C196.27 59.8861 194.858 58.4739 193.116 58.4739Z" fill="#263238"/>
<path d="M135.675 54.4102H133.597C133.181 54.4102 132.843 54.748 132.843 55.1649V230.817C132.843 231.234 133.181 231.572 133.597 231.572H135.675C136.091 231.572 136.429 231.234 136.429 230.817V55.1649C136.429 54.748 136.091 54.4102 135.675 54.4102Z" fill="#263238"/>
<path d="M130.792 227.985H138.468C139.265 227.985 140.029 228.302 140.593 228.866C141.157 229.429 141.473 230.194 141.473 230.991V231.359C141.473 231.415 141.451 231.469 141.411 231.509C141.371 231.549 141.317 231.572 141.261 231.572H127.999C127.942 231.572 127.888 231.549 127.848 231.509C127.808 231.469 127.786 231.415 127.786 231.359V230.991C127.786 230.194 128.102 229.429 128.666 228.866C129.23 228.302 129.994 227.985 130.792 227.985Z" fill="#263238"/>
<path d="M179.138 56.2163H168.817V56.8614H179.138V56.2163Z" fill="#623D91"/>
<path d="M162.657 56.2163H159.502V56.8614H162.657V56.2163Z" fill="#623D91"/>
<path d="M193.574 58.4739H76.6079C74.8658 58.4739 73.4536 59.8861 73.4536 61.6281V145.052C73.4536 146.794 74.8658 148.206 76.6079 148.206H193.574C195.316 148.206 196.728 146.794 196.728 145.052V61.6281C196.728 59.8861 195.316 58.4739 193.574 58.4739Z" fill="#623D91"/>
<path opacity="0.7" d="M193.503 142.259V64.4213C193.503 62.9179 192.284 61.6992 190.781 61.6992L79.401 61.6992C77.8977 61.6992 76.679 62.9179 76.679 64.4213V142.259C76.679 143.762 77.8977 144.981 79.401 144.981H190.781C192.284 144.981 193.503 143.762 193.503 142.259Z" fill="white"/>
<path opacity="0.2" d="M110.666 102.266C103.145 101.562 95.5922 101.243 88.0381 101.311C88.109 91.0551 89.025 79.9668 89.8313 69.0591L112.008 70.4846C111.15 83.2113 110.299 95.9768 110.666 102.266Z" fill="black"/>
<path d="M111.092 101.808C103.571 101.101 96.0177 100.782 88.4636 100.853C88.5346 90.5907 89.0055 79.9732 89.8118 69.0591L112.44 70.0137C111.595 82.7405 110.743 95.5123 111.092 101.808Z" fill="white"/>
<path opacity="0.2" d="M140.79 124.114L118.168 125.1L117.226 92.8418L139.409 92.3193L140.79 124.114Z" fill="black"/>
<path d="M139.848 91.8684L117.222 92.8523L118.604 124.642L141.23 123.658L139.848 91.8684Z" fill="white"/>
<path opacity="0.2" d="M191.226 123.346L168.772 120.385L173.455 88.4556L195.387 91.7969L191.226 123.346Z" fill="black"/>
<path d="M195.898 91.4268L173.445 88.4629L169.281 120.009L191.734 122.973L195.898 91.4268Z" fill="white"/>
<path opacity="0.2" d="M114.033 146.671C109.931 147.961 99.3648 148.161 91.4566 147.767C90.3278 137.834 90.4439 126.713 90.7277 115.515L112.911 115.147C112.421 122.836 112.801 136.518 114.033 146.671Z" fill="black"/>
<path d="M114.485 146.206C110.376 147.496 99.81 147.69 91.9082 147.296C90.7877 136.736 90.3955 126.11 90.7342 115.496L113.362 114.657C112.866 122.372 113.246 136.053 114.485 146.206Z" fill="white"/>
<path opacity="0.2" d="M169.668 99.0407L147.027 99.5374C146.266 88.9457 146.485 77.8703 146.776 67.2852H168.972C168.72 78.5412 168.888 89.2812 169.668 99.0407Z" fill="black"/>
<path d="M170.113 98.5636L147.472 99.0603C146.716 88.4686 146.488 77.8641 146.789 67.2467L169.43 66.75C169.185 78.077 169.365 88.8105 170.113 98.5636Z" fill="white"/>
<path d="M179.041 223.541L174.042 222.199L175.822 210.266L180.821 211.607L179.041 223.541Z" fill="#FF8B7B"/>
<path d="M225.284 228.075H220.105L216.073 216.084H221.253L225.284 228.075Z" fill="#FF8B7B"/>
<path d="M219.414 227.475H225.729C225.832 227.476 225.931 227.511 226.011 227.576C226.09 227.64 226.146 227.73 226.168 227.83L227.193 232.436C227.217 232.548 227.214 232.664 227.187 232.775C227.159 232.886 227.107 232.989 227.034 233.077C226.961 233.165 226.868 233.236 226.764 233.283C226.66 233.331 226.547 233.354 226.432 233.352C224.4 233.319 222.923 233.197 220.362 233.197C218.789 233.197 214.041 233.365 211.874 233.365C209.706 233.365 209.416 231.217 210.306 231.017C214.293 230.146 217.298 228.946 218.576 227.791C218.808 227.589 219.106 227.477 219.414 227.475Z" fill="#263238"/>
<path d="M174.235 221.631L179.693 223.096C179.792 223.123 179.879 223.183 179.94 223.266C180.001 223.35 180.032 223.451 180.028 223.554L179.822 228.262C179.818 228.376 179.789 228.488 179.736 228.589C179.682 228.69 179.607 228.777 179.515 228.844C179.423 228.912 179.316 228.957 179.204 228.977C179.092 228.997 178.976 228.991 178.867 228.959C176.932 228.398 174.087 227.514 171.61 226.85C168.714 226.076 166.172 225.56 162.779 224.65C160.728 224.102 160.715 221.87 161.625 221.915C165.766 222.109 168.985 222.876 172.926 221.696C173.348 221.552 173.802 221.53 174.235 221.631Z" fill="#263238"/>
<path d="M201.005 73.6839C199.295 75.8319 197.521 78.1412 195.844 80.4053C194.167 82.6694 192.554 85.0109 191.071 87.3589C190.329 88.5264 189.652 89.7133 189 90.8937L187.22 94.3963L187.072 94.7124C187.072 94.7446 187.033 94.7704 187.026 94.764C187.018 94.6868 187.018 94.6089 187.026 94.5318C187.026 94.3322 187.004 94.1333 186.962 93.9383C186.939 93.831 186.909 93.7254 186.872 93.6223C186.872 93.5578 186.826 93.4932 186.801 93.4287C186.769 93.3378 186.73 93.2494 186.685 93.1643C186.569 92.9478 186.431 92.7445 186.272 92.5579C186.047 92.3032 185.784 92.0855 185.491 91.9129C185.195 91.7413 184.872 91.6193 184.537 91.5517C184.286 91.5052 184.03 91.4879 183.775 91.5001C183.486 91.5136 183.2 91.5747 182.93 91.6807C182.741 91.7459 182.563 91.8395 182.401 91.958C182.24 92.0806 182.247 92.0999 182.24 92.1128C182.234 92.1257 182.279 92.1128 182.318 92.1128C182.547 91.9568 182.762 91.7821 182.963 91.5904C183.208 91.3775 183.453 91.1453 183.698 90.9002C184.698 89.9391 185.73 88.8812 186.807 87.8943L190.065 90.01C189.542 91.461 188.913 92.8711 188.181 94.2286C187.783 95.0025 187.312 95.7368 186.775 96.4217C186.676 96.5453 186.57 96.6637 186.459 96.7765C186.28 96.9634 186.084 97.132 185.872 97.2797C185.632 97.4465 185.372 97.5829 185.098 97.686C184.783 97.803 184.453 97.8725 184.117 97.8924C183.841 97.9056 183.564 97.8861 183.292 97.8344C182.932 97.7642 182.588 97.6333 182.272 97.4474C181.96 97.2652 181.68 97.0344 181.44 96.7636C181.267 96.5654 181.116 96.3491 180.989 96.1186C180.944 96.0218 180.892 95.9186 180.853 95.8219L180.77 95.5961C180.718 95.4284 180.692 95.3252 180.666 95.2091C180.608 94.9248 180.582 94.6348 180.589 94.3447C180.593 94.0855 180.614 93.8269 180.653 93.5707C180.653 93.3836 180.705 93.2352 180.731 93.0933C180.789 92.8095 180.84 92.5773 180.892 92.3515C181.105 91.4678 181.331 90.726 181.589 89.9778C181.847 89.2295 182.182 88.4813 182.511 87.7653C183.156 86.3204 183.866 84.9271 184.614 83.5854C186.099 80.9219 187.722 78.3382 189.478 75.8448C190.342 74.6128 191.232 73.3937 192.148 72.2003C193.064 71.007 193.993 69.8524 195.019 68.6526L201.005 73.6839Z" fill="#FF8B7B"/>
<path d="M203.817 69.8847C204.927 74.7032 194.341 87.0429 194.341 87.0429L184.846 80.0893C186.954 76.0914 189.484 72.3309 192.393 68.872C196.741 63.9567 202.598 64.5889 203.817 69.8847Z" fill="#623D91"/>
<path opacity="0.2" d="M203.817 69.8847C204.927 74.7032 194.341 87.0429 194.341 87.0429L184.846 80.0893C186.954 76.0914 189.484 72.3309 192.393 68.872C196.741 63.9567 202.598 64.5889 203.817 69.8847Z" fill="black"/>
<path opacity="0.2" d="M175.822 210.266L174.9 216.419L179.905 217.761L180.821 211.607L175.822 210.266Z" fill="black"/>
<path opacity="0.2" d="M221.253 216.091H216.073L218.156 222.27H223.336L221.253 216.091Z" fill="black"/>
<path d="M226.981 69.1623C220.24 88.462 220.117 109.361 219.363 113.554C215.338 113.019 200.179 110.974 191.916 109.858C190.058 80.2248 198.199 65.5436 198.199 65.5436C198.199 65.5436 199.992 65.3049 202.417 65.2017C203.179 65.2017 203.998 65.1501 204.849 65.1566C205.32 65.1566 205.797 65.1566 206.281 65.1888C210.198 65.4982 214.094 66.0323 217.95 66.7885C218.679 66.924 219.421 67.0788 220.137 67.2401C220.853 67.4013 221.427 67.5561 222.072 67.7174C224.839 68.4205 226.981 69.1623 226.981 69.1623Z" fill="#623D91"/>
<path opacity="0.2" d="M226.981 69.1623C220.24 88.462 220.117 109.361 219.363 113.554C215.338 113.019 200.179 110.974 191.916 109.858C190.058 80.2248 198.199 65.5436 198.199 65.5436C198.199 65.5436 199.992 65.3049 202.417 65.2017C203.179 65.2017 203.998 65.1501 204.849 65.1566C205.32 65.1566 205.797 65.1566 206.281 65.1888C210.198 65.4982 214.094 66.0323 217.95 66.7885C218.679 66.924 219.421 67.0788 220.137 67.2401C220.853 67.4013 221.427 67.5561 222.072 67.7174C224.839 68.4205 226.981 69.1623 226.981 69.1623Z" fill="black"/>
<path opacity="0.2" d="M220.672 78.051C219.582 80.9602 220.434 89.0168 221.627 91.7647C222.053 88.8878 222.575 85.869 223.233 82.7727L220.672 78.051Z" fill="black"/>
<path d="M186.859 87.5202L190.961 83.6499L193.632 89.7004C192.893 90.4576 191.931 90.9596 190.887 91.1336C189.844 91.3076 188.771 91.1445 187.826 90.668L186.859 87.5202Z" fill="#FF8B7B"/>
<path d="M193.974 81.6375L196.025 86.9913L193.632 89.6683L190.961 83.6177L193.974 81.6375Z" fill="#FF8B7B"/>
<path d="M218.563 53.4685C217.318 57.1259 215.66 63.9053 217.95 66.7629C215.634 68.5174 212.648 70.4977 208.171 70.0526C203.695 69.6075 204.888 66.6468 206.281 65.189C210.603 64.7568 210.913 61.6348 210.577 58.616L218.563 53.4685Z" fill="#FF8B7B"/>
<path d="M205.488 64.2084C205.488 63.1892 209.681 62.3313 209.842 63.2989C210.003 64.2664 208.552 64.589 209.01 65.8791C209.468 67.1691 213.693 67.2982 215.383 65.4727C216.505 64.2535 216.86 63.028 218.285 63.8343C219.711 64.6406 221.427 65.7694 220.485 67.5433C219.543 69.3171 214.228 73.5099 209.39 72.4327C204.552 71.3555 203.204 68.756 204.146 67.6271C204.965 66.6711 205.438 65.4665 205.488 64.2084Z" fill="#623D91"/>
<path opacity="0.2" d="M215.305 55.5713L210.577 58.6159C210.669 59.3172 210.697 60.0253 210.661 60.7316C211.608 60.6926 212.53 60.4201 213.346 59.9384C214.162 59.4568 214.846 58.7809 215.338 57.9709C215.879 56.9323 215.699 55.7519 215.305 55.5713Z" fill="black"/>
<path d="M219.343 47.0179C218.885 52.1395 218.873 55.1584 216.209 57.7192C212.203 61.5894 205.939 59.0093 204.862 53.8876C203.895 49.2497 204.811 41.6318 209.881 39.7611C210.998 39.3357 212.205 39.203 213.387 39.3759C214.57 39.5487 215.689 40.0213 216.637 40.7486C217.586 41.476 218.332 42.4339 218.806 43.5312C219.28 44.6285 219.465 45.8288 219.343 47.0179Z" fill="#FF8B7B"/>
<path d="M219.737 42.9218C215.97 42.638 215.654 49.1787 218.769 51.9911C222.536 50.514 227.8 43.4959 219.737 42.9218Z" fill="#263238"/>
<path d="M216.008 43.941C213.802 40.4578 209.558 45.9793 207.462 42.1736C206.204 39.8837 204.056 42.3671 202.746 40.9932C201.437 39.6192 203.462 35.9296 204.83 35.6006C204.062 36.4327 203.914 39.4063 206.217 37.9356C208.52 36.4649 210.171 34.9426 212.99 37.4132C215.809 39.8837 218.756 34.9168 221.343 38.7032C223.614 41.993 218.621 48.0822 216.008 43.941Z" fill="#263238"/>
<path d="M220.272 43.3992C219.667 43.3969 219.066 43.299 218.492 43.1089C218.462 43.0996 218.434 43.0844 218.41 43.0643C218.385 43.0442 218.365 43.0195 218.351 42.9917C218.336 42.9638 218.327 42.9333 218.324 42.902C218.321 42.8706 218.324 42.839 218.334 42.809C218.343 42.7789 218.358 42.7509 218.378 42.7267C218.398 42.7025 218.423 42.6825 218.451 42.6678C218.479 42.6532 218.509 42.6441 218.541 42.6412C218.572 42.6383 218.604 42.6416 218.634 42.6509C220.285 43.1734 221.891 42.896 222.627 41.9672C223.201 41.2447 223.155 40.2514 222.517 39.1741C222.484 39.1194 222.475 39.054 222.491 38.9923C222.506 38.9306 222.546 38.8777 222.601 38.8452C222.655 38.8127 222.721 38.8032 222.783 38.819C222.844 38.8347 222.897 38.8743 222.93 38.929C223.671 40.1675 223.697 41.3866 223.007 42.2639C222.666 42.6472 222.243 42.9484 221.77 43.145C221.296 43.3416 220.784 43.4285 220.272 43.3992Z" fill="#263238"/>
<path d="M221.498 52.7393C220.776 53.8109 219.661 54.5548 218.395 54.8099C216.711 55.126 216.015 53.5908 216.602 52.0749C217.131 50.7139 218.647 48.9077 220.278 49.269C221.91 49.6302 222.368 51.4105 221.498 52.7393Z" fill="#FF8B7B"/>
<path d="M173.055 214.581L181.518 216.852C181.518 216.852 189.575 187.012 192.123 171.053C192.897 166.209 194.625 159.501 196.715 152.347C199.347 143.317 202.553 133.589 205.153 125.971C207.9 117.947 209.958 112.277 209.958 112.277L191.897 109.845C191.897 109.845 178.151 151.986 176.603 167.712C175.01 184.077 173.055 214.581 173.055 214.581Z" fill="#263238"/>
<path opacity="0.2" d="M196.715 152.36C199.347 143.33 202.553 133.602 205.152 125.984L203.553 121.811C198.695 126.868 196.418 143.323 196.715 152.36Z" fill="black"/>
<path d="M201.65 111.174C201.65 111.174 200.76 155.534 201.972 170.654C203.307 187.218 215.718 221.07 215.718 221.07H225.2C225.2 221.07 218.872 190.108 216.937 173.982C214.725 155.663 219.363 113.541 219.363 113.541L201.65 111.174Z" fill="#263238"/>
<path d="M214.583 221.277H225.749V217.942L213.267 217.722L214.583 221.277Z" fill="#623D91"/>
<path d="M171.939 214.491L182.027 217.2L182.905 213.942L172.236 210.904L171.939 214.491Z" fill="#623D91"/>
<path d="M211.525 48.237C211.525 48.6499 211.287 48.9853 211.009 48.9788C210.732 48.9724 210.526 48.6241 210.538 48.2048C210.551 47.7855 210.784 47.4565 211.054 47.463C211.325 47.4694 211.538 47.8178 211.525 48.237Z" fill="#263238"/>
<path d="M206.81 48.0822C206.81 48.5014 206.565 48.8304 206.294 48.824C206.023 48.8175 205.81 48.4692 205.817 48.0564C205.823 47.6435 206.062 47.3017 206.333 47.3146C206.604 47.3275 206.817 47.6822 206.81 48.0822Z" fill="#263238"/>
<path d="M208.3 48.3533C207.768 49.6149 207.063 50.7961 206.204 51.8623C206.483 52.0758 206.806 52.2252 207.149 52.2999C207.492 52.3746 207.848 52.3727 208.191 52.2945L208.3 48.3533Z" fill="#FF5652"/>
<path d="M209.919 53.4619C210.385 53.4223 210.838 53.2874 211.25 53.0655C211.662 52.8435 212.023 52.5394 212.313 52.1718C212.334 52.1491 212.346 52.1191 212.346 52.0879C212.346 52.0568 212.334 52.0268 212.313 52.0041C212.299 51.9944 212.284 51.9876 212.268 51.9839C212.252 51.9803 212.235 51.98 212.219 51.983C212.202 51.986 212.187 51.9923 212.173 52.0015C212.159 52.0106 212.147 52.0225 212.138 52.0363C211.805 52.4447 211.379 52.7673 210.895 52.9772C210.411 53.187 209.884 53.278 209.358 53.2426C209.342 53.2417 209.325 53.2442 209.309 53.25C209.294 53.2557 209.279 53.2646 209.267 53.2761C209.255 53.2876 209.246 53.3014 209.239 53.3167C209.233 53.332 209.229 53.3485 209.229 53.3651C209.229 53.3965 209.241 53.4268 209.263 53.4496C209.284 53.4724 209.314 53.486 209.345 53.4877C209.537 53.4936 209.729 53.485 209.919 53.4619Z" fill="#263238"/>
<path d="M213.022 46.7535C213.064 46.7493 213.104 46.7336 213.138 46.7083C213.164 46.6897 213.187 46.6661 213.204 46.6388C213.221 46.6115 213.232 46.5811 213.238 46.5494C213.243 46.5176 213.242 46.4851 213.235 46.4537C213.228 46.4224 213.215 46.3927 213.196 46.3664C212.977 46.0441 212.684 45.7787 212.342 45.5925C212 45.4062 211.618 45.3044 211.229 45.2957C211.196 45.2973 211.165 45.3053 211.136 45.3192C211.107 45.333 211.081 45.3525 211.059 45.3765C211.037 45.4004 211.021 45.4284 211.01 45.4588C210.999 45.4892 210.995 45.5215 210.996 45.5537C210.997 45.5856 211.004 45.617 211.018 45.6461C211.031 45.6752 211.05 45.7013 211.073 45.7229C211.097 45.7446 211.124 45.7613 211.154 45.7721C211.184 45.7829 211.216 45.7876 211.248 45.7859C211.556 45.7962 211.858 45.88 212.127 46.0303C212.396 46.1807 212.626 46.3932 212.796 46.6502C212.822 46.6855 212.856 46.7135 212.895 46.7316C212.935 46.7497 212.979 46.7572 213.022 46.7535Z" fill="#263238"/>
<path d="M204.843 46.4182C204.882 46.4145 204.92 46.4007 204.953 46.3781C204.986 46.3555 205.012 46.3249 205.03 46.2892C205.164 46.0103 205.362 45.7675 205.609 45.5812C205.856 45.3949 206.144 45.2705 206.449 45.2184C206.507 45.2048 206.558 45.1704 206.593 45.1216C206.628 45.0729 206.643 45.0132 206.637 44.9537C206.631 44.8942 206.603 44.8391 206.559 44.7988C206.515 44.7584 206.457 44.7356 206.397 44.7346C206.012 44.7943 205.648 44.9464 205.334 45.1778C205.021 45.4092 204.768 45.7131 204.598 46.0634C204.582 46.0916 204.572 46.1227 204.569 46.1548C204.566 46.1868 204.569 46.2192 204.579 46.2499C204.589 46.2807 204.604 46.3091 204.625 46.3336C204.646 46.3581 204.672 46.3781 204.701 46.3924C204.744 46.4167 204.794 46.4258 204.843 46.4182Z" fill="#263238"/>
<path d="M217.705 228.385C218.162 228.372 218.616 228.309 219.06 228.198C219.083 228.192 219.104 228.178 219.121 228.16C219.137 228.142 219.147 228.119 219.15 228.095C219.153 228.071 219.15 228.048 219.141 228.026C219.132 228.005 219.117 227.986 219.098 227.972C218.905 227.856 217.234 226.83 216.666 227.121C216.603 227.154 216.55 227.204 216.512 227.266C216.475 227.327 216.455 227.397 216.454 227.469C216.441 227.589 216.457 227.71 216.501 227.822C216.545 227.934 216.615 228.034 216.705 228.114C216.999 228.312 217.351 228.407 217.705 228.385ZM218.705 228.024C217.821 228.198 217.15 228.166 216.866 227.927C216.803 227.874 216.754 227.807 216.725 227.73C216.696 227.653 216.686 227.57 216.699 227.488C216.697 227.459 216.703 227.429 216.717 227.403C216.73 227.377 216.751 227.355 216.776 227.34C217.099 227.185 218.027 227.63 218.705 228.049V228.024Z" fill="#623D91"/>
<path d="M219.034 228.198C219.057 228.205 219.081 228.205 219.105 228.198C219.123 228.187 219.138 228.17 219.147 228.151C219.156 228.131 219.159 228.11 219.156 228.088C219.156 228.024 219.027 226.527 218.427 226.037C218.357 225.975 218.274 225.929 218.183 225.902C218.093 225.875 217.998 225.868 217.905 225.882C217.814 225.882 217.725 225.913 217.655 225.971C217.584 226.029 217.536 226.109 217.518 226.198C217.408 226.779 218.44 227.914 218.976 228.204L219.034 228.198ZM217.982 226.115C218.087 226.114 218.189 226.153 218.266 226.224C218.631 226.689 218.844 227.254 218.879 227.843C218.344 227.437 217.686 226.553 217.75 226.244C217.75 226.211 217.75 226.134 217.931 226.115H217.982Z" fill="#623D91"/>
<path d="M173.558 222.193C173.581 222.19 173.602 222.181 173.62 222.168C173.638 222.154 173.652 222.136 173.661 222.115C173.67 222.092 173.672 222.067 173.666 222.042C173.661 222.018 173.648 221.996 173.629 221.98C173.436 221.799 171.694 220.238 170.997 220.412C170.932 220.429 170.873 220.462 170.824 220.508C170.776 220.555 170.74 220.613 170.72 220.677C170.678 220.781 170.661 220.895 170.673 221.007C170.684 221.12 170.722 221.227 170.784 221.322C171.204 221.967 172.687 222.141 173.539 222.199L173.558 222.193ZM171.107 220.644C171.52 220.644 172.494 221.322 173.191 221.935C172.036 221.818 171.223 221.554 170.991 221.199C170.95 221.138 170.925 221.068 170.918 220.994C170.911 220.921 170.923 220.847 170.952 220.78C170.957 220.754 170.97 220.73 170.988 220.71C171.006 220.691 171.03 220.677 171.055 220.67L171.107 220.644Z" fill="#623D91"/>
<path d="M173.558 222.193H173.59C173.61 222.185 173.627 222.173 173.641 222.158C173.654 222.142 173.664 222.123 173.668 222.102C173.668 222.044 173.906 220.657 173.41 219.967C173.34 219.866 173.251 219.779 173.146 219.714C173.042 219.648 172.925 219.605 172.803 219.587C172.468 219.535 172.333 219.671 172.274 219.8C172.029 220.341 172.919 221.735 173.468 222.173C173.495 222.189 173.527 222.196 173.558 222.193ZM172.636 219.806H172.765C172.855 219.819 172.941 219.851 173.018 219.9C173.094 219.949 173.16 220.014 173.21 220.09C173.463 220.624 173.549 221.222 173.455 221.806C172.939 221.27 172.352 220.206 172.5 219.871C172.507 219.864 172.532 219.812 172.636 219.806Z" fill="#623D91"/>
<path d="M228.329 73.1616C229.077 76.5223 229.709 79.8636 230.264 83.2437C230.819 86.6237 231.316 90.0102 231.703 93.4418L231.838 94.7319L231.915 95.5318C231.974 96.1582 231.918 96.7901 231.748 97.3959C231.518 98.2381 231.055 98.9983 230.412 99.5891C229.875 100.072 229.236 100.427 228.542 100.628C227.735 100.855 226.891 100.923 226.058 100.828C224.976 100.709 223.912 100.466 222.885 100.105C221.962 99.789 221.111 99.4601 220.305 99.0666C218.686 98.3273 217.108 97.5026 215.576 96.5961C214.061 95.6995 212.609 94.7771 211.164 93.7256L213.003 90.3004C216.131 91.3841 219.318 92.5452 222.375 93.3838C223.136 93.5966 223.891 93.7772 224.607 93.9062C225.206 94.0429 225.819 94.1079 226.433 94.0998C226.62 94.0998 226.768 94.0159 226.471 94.0675C226.182 94.142 225.917 94.291 225.704 94.4997C225.369 94.7966 225.123 95.1807 224.994 95.6092C224.94 95.8049 224.907 96.0061 224.897 96.2091C224.897 96.3187 224.897 96.1445 224.865 96.0542L224.807 95.7446L224.575 94.519C223.943 91.2422 223.298 87.9546 222.64 84.6563C221.995 81.3601 221.311 78.0446 220.705 74.7613L228.329 73.1616Z" fill="#FF8B7B"/>
<path d="M228.709 70.4329C232.089 74.0516 232.393 85.1657 232.393 85.1657L222.607 89.7778C222.607 89.7778 219.434 82.7145 219.33 76.3221C219.227 69.0718 225.323 66.7884 228.709 70.4329Z" fill="#623D91"/>
<path opacity="0.2" d="M228.709 70.4329C232.089 74.0516 232.393 85.1657 232.393 85.1657L222.607 89.7778C222.607 89.7778 219.434 82.7145 219.33 76.3221C219.227 69.0718 225.323 66.7884 228.709 70.4329Z" fill="black"/>
<path d="M193.632 83.9402C193.576 83.9397 193.521 83.9265 193.471 83.9015C193.397 83.8572 193.344 83.7858 193.322 83.7026C193.3 83.6194 193.312 83.5311 193.355 83.4564L198.515 74.5484C198.562 74.4838 198.631 74.4389 198.709 74.4225C198.787 74.406 198.869 74.4191 198.938 74.4592C199.007 74.4994 199.059 74.5637 199.083 74.6397C199.107 74.7158 199.103 74.7981 199.07 74.8709L193.942 83.7789C193.91 83.8322 193.865 83.8755 193.81 83.904C193.755 83.9325 193.693 83.9451 193.632 83.9402Z" fill="#263238"/>
<path d="M209.642 108.716L190.142 105.878C189.742 105.817 189.374 105.625 189.095 105.332C188.815 105.039 188.642 104.662 188.601 104.259L187.31 77.3414C187.301 77.1619 187.333 76.9826 187.405 76.8177C187.476 76.6528 187.585 76.5068 187.723 76.3911C187.86 76.2754 188.023 76.1932 188.198 76.1511C188.372 76.1089 188.554 76.1079 188.73 76.1481L208.229 78.9798C208.63 79.0438 208.998 79.2375 209.278 79.5312C209.557 79.8248 209.733 80.2022 209.777 80.6053L211.035 107.523C211.044 107.7 211.012 107.876 210.942 108.039C210.872 108.201 210.765 108.346 210.631 108.461C210.496 108.576 210.337 108.659 210.166 108.703C209.995 108.747 209.815 108.752 209.642 108.716Z" fill="white"/>
<path d="M209.203 108.987L189.704 106.136C189.303 106.076 188.934 105.884 188.653 105.591C188.373 105.298 188.198 104.92 188.156 104.517L186.898 77.5995C186.887 77.4203 186.918 77.2411 186.989 77.0761C187.06 76.9111 187.168 76.7649 187.305 76.6491C187.442 76.5332 187.605 76.4509 187.779 76.4088C187.954 76.3666 188.136 76.3657 188.31 76.4061L207.81 79.2379C208.212 79.2987 208.582 79.4915 208.862 79.7857C209.143 80.08 209.317 80.4591 209.358 80.8634L210.648 107.775C210.664 107.959 210.635 108.144 210.564 108.315C210.493 108.485 210.382 108.636 210.24 108.755C210.098 108.874 209.93 108.957 209.75 108.998C209.57 109.038 209.382 109.034 209.203 108.987Z" fill="#263238"/>
<path d="M213.377 90.3971L208.791 87.8169L208.255 94.4092C208.255 94.4092 212.641 95.738 213.603 93.4868L213.377 90.3971Z" fill="#FF8B7B"/>
<path d="M203.682 88.9975L204.327 93.9256L208.255 94.4158L208.79 87.8235L203.682 88.9975Z" fill="#FF8B7B"/>
</svg>
