<svg width="319" height="237" viewBox="0 0 319 237" fill="none" xmlns="http://www.w3.org/2000/svg">
<path d="M318.114 208.083H0.333252V208.242H318.114V208.083Z" fill="#EBEBEB"/>
<path d="M286.272 218.309H265.222V218.468H286.272V218.309Z" fill="#EBEBEB"/>
<path d="M210.844 220.038H205.321V220.196H210.844V220.038Z" fill="#EBEBEB"/>
<path d="M264.587 212.411H252.391V212.57H264.587V212.411Z" fill="#EBEBEB"/>
<path d="M61.1247 213.479H33.6748V213.638H61.1247V213.479Z" fill="#EBEBEB"/>
<path d="M70.8107 213.479H66.7876V213.638H70.8107V213.479Z" fill="#EBEBEB"/>
<path d="M143.43 216.161H83.8904V216.32H143.43V216.161Z" fill="#EBEBEB"/>
<path d="M150.961 179.737H28.2409C27.2795 179.735 26.358 179.352 25.6788 178.672C24.9996 177.991 24.6182 177.069 24.6182 176.108V3.59728C24.6265 2.64141 25.0117 1.72744 25.69 1.0539C26.3683 0.380357 27.285 0.00163745 28.2409 0H150.961C151.924 0 152.847 0.382346 153.528 1.06293C154.208 1.74351 154.59 2.66657 154.59 3.62905V176.108C154.59 177.07 154.208 177.993 153.528 178.674C152.847 179.354 151.924 179.737 150.961 179.737ZM28.2409 0.127113C27.3216 0.128796 26.4406 0.495144 25.7912 1.14574C25.1418 1.79634 24.7771 2.67803 24.7771 3.59728V176.108C24.7771 177.027 25.1418 177.909 25.7912 178.559C26.4406 179.21 27.3216 179.576 28.2409 179.578H150.961C151.881 179.576 152.763 179.21 153.413 178.56C154.064 177.909 154.43 177.027 154.432 176.108V3.59728C154.43 2.67745 154.064 1.79577 153.413 1.14536C152.763 0.494937 151.881 0.128793 150.961 0.127113H28.2409Z" fill="#EBEBEB"/>
<path d="M288.439 179.737H165.713C164.751 179.735 163.829 179.352 163.148 178.672C162.468 177.992 162.085 177.07 162.083 176.108V3.59728C162.094 2.64083 162.48 1.72687 163.159 1.0535C163.839 0.380135 164.756 0.00161959 165.713 0H288.439C289.394 0.00330778 290.309 0.382766 290.986 1.05613C291.663 1.72949 292.047 2.64251 292.056 3.59728V176.108C292.056 177.068 291.675 177.989 290.997 178.669C290.32 179.35 289.4 179.733 288.439 179.737ZM165.713 0.127113C164.793 0.128793 163.911 0.494937 163.261 1.14536C162.61 1.79577 162.244 2.67745 162.242 3.59728V176.108C162.244 177.027 162.61 177.909 163.261 178.56C163.911 179.21 164.793 179.576 165.713 179.578H288.439C289.359 179.576 290.241 179.21 290.891 178.56C291.542 177.909 291.908 177.027 291.91 176.108V3.59728C291.908 2.67745 291.542 1.79577 290.891 1.14536C290.241 0.494937 289.359 0.128793 288.439 0.127113H165.713Z" fill="#EBEBEB"/>
<path d="M237.499 47.6733H228.493V75.7079H237.499V47.6733Z" fill="#E6E6E6"/>
<path d="M261.911 75.7081H232.027L227.515 42.894H257.399L261.911 75.7081Z" fill="#F0F0F0"/>
<path d="M265.146 75.7081H234.283L229.771 42.894H260.634L265.146 75.7081Z" fill="#F5F5F5"/>
<path d="M236.514 73.1213L232.714 45.4807H258.403L262.21 73.1213H236.514Z" fill="white"/>
<path d="M241.592 64.751L240.162 54.3786C240.12 54.1049 240.137 53.8252 240.214 53.5589C240.291 53.2927 240.424 53.0464 240.606 52.8371C240.787 52.6278 241.012 52.4605 241.265 52.347C241.517 52.2334 241.792 52.1763 242.069 52.1796H251.405C251.873 52.176 252.325 52.3443 252.677 52.6525C253.028 52.9606 253.254 53.3872 253.312 53.8511L254.736 64.2298C254.777 64.5031 254.759 64.7821 254.682 65.0475C254.605 65.313 254.471 65.5585 254.289 65.7671C254.108 65.9756 253.883 66.1423 253.631 66.2555C253.379 66.3686 253.105 66.4256 252.829 66.4225H243.505C243.037 66.4276 242.583 66.2601 242.23 65.9517C241.877 65.6434 241.65 65.216 241.592 64.751Z" fill="#F5F5F5"/>
<path d="M181.436 16.9568H46.8308V99.9929H181.436V16.9568Z" fill="#E6E6E6"/>
<path d="M184.894 16.9568H48.4453V99.9929H184.894V16.9568Z" fill="#F0F0F0"/>
<path d="M181.436 99.9993H46.8308V106.425H181.436V99.9993Z" fill="#E6E6E6"/>
<path d="M190.652 99.9993H54.2034V106.425H190.652V99.9993Z" fill="#F0F0F0"/>
<path d="M180.051 95.1563V21.7998L53.2881 21.7998V95.1563L180.051 95.1563Z" fill="#FAFAFA"/>
<path d="M62.5928 95.1563L91.0087 21.7998H104.419L76.0031 95.1563H62.5928Z" fill="white"/>
<path d="M78.8887 95.1563L107.305 21.7998H112.529L84.113 95.1563H78.8887Z" fill="white"/>
<path d="M128.602 95.1563L157.018 21.7998H162.243L133.833 95.1563H128.602Z" fill="white"/>
<path d="M180.045 95.1563V21.7998H179.428V95.1563H180.045Z" fill="#E6E6E6"/>
<path d="M283.476 75.708H254.977V208.083H283.476V75.708Z" fill="#E6E6E6"/>
<path d="M280.609 208.083H283.476V199.928H277.603L280.609 208.083Z" fill="#F0F0F0"/>
<path d="M233.54 75.708H205.041V208.083H233.54V75.708Z" fill="#E6E6E6"/>
<path d="M283.476 75.708H231.036V203.081H283.476V75.708Z" fill="#F0F0F0"/>
<path d="M233.902 208.083H231.036V199.928H236.908L233.902 208.083Z" fill="#F0F0F0"/>
<path d="M281.251 78.0405H233.26V138.126H281.251V78.0405Z" fill="#E6E6E6"/>
<path d="M262.452 82.7183H252.06C249.826 82.7181 247.616 82.2627 245.563 81.3798C243.511 80.4968 241.661 79.205 240.124 77.583H274.387C272.852 79.2059 271.001 80.4983 268.949 81.3813C266.897 82.2643 264.686 82.7193 262.452 82.7183Z" fill="#F0F0F0"/>
<path d="M281.251 140.561H233.26V200.647H281.251V140.561Z" fill="#E6E6E6"/>
<path d="M262.452 145.238H252.06C249.826 145.238 247.616 144.783 245.563 143.9C243.511 143.017 241.661 141.725 240.124 140.103H274.387C272.852 141.726 271.001 143.018 268.949 143.901C266.897 144.784 264.686 145.239 262.452 145.238Z" fill="#F0F0F0"/>
<path d="M82.6384 117.509H130.064L136.941 145.518H89.5088L82.6384 117.509Z" fill="#E6E6E6"/>
<path d="M89.5088 145.518L89.7058 147.062H137.131L136.941 145.518H89.5088Z" fill="#E6E6E6"/>
<path d="M84.1003 117.509H131.526L138.403 145.518H90.9708L84.1003 117.509Z" fill="#F0F0F0"/>
<path d="M91.9749 144.234L85.7273 118.786H130.522L136.769 144.234H91.9749Z" fill="white"/>
<path d="M103.332 145.518L103.523 147.062H155.747L155.556 145.518H103.332Z" fill="#F0F0F0"/>
<path d="M167.664 147.062H161.982V208.076H167.664V147.062Z" fill="#E6E6E6"/>
<path d="M169.462 147.062H165.516V208.076H169.462V147.062Z" fill="#F0F0F0"/>
<path d="M97.466 154.047H170.689V147.063H97.466V154.047Z" fill="#F0F0F0"/>
<path d="M94.9175 154.047H89.2356V208.076H94.9175V154.047Z" fill="#E6E6E6"/>
<path d="M96.7098 154.047H92.7629V208.076H96.7098V154.047Z" fill="#F0F0F0"/>
<path d="M58.951 154.047H53.269V208.076H58.951V154.047Z" fill="#E6E6E6"/>
<path d="M60.7498 154.047H56.803V208.076H60.7498V154.047Z" fill="#F0F0F0"/>
<path d="M131.704 154.047H126.022V208.076H131.704V154.047Z" fill="#E6E6E6"/>
<path d="M133.496 154.047H129.549V208.076H133.496V154.047Z" fill="#F0F0F0"/>
<path d="M97.4596 147.062H53.269V154.047H97.4596V147.062Z" fill="#E6E6E6"/>
<path d="M186.133 208.083H184.754L180.833 188.609L180.14 185.196L175.793 163.975H159.268L150.326 208.083H148.927L158.054 163.161C158.083 163.013 158.162 162.878 158.277 162.78C158.393 162.682 158.538 162.626 158.69 162.621H176.384C176.537 162.619 176.686 162.673 176.803 162.772C176.919 162.872 176.996 163.01 177.019 163.161L180.833 181.796L181.468 185.203L186.133 208.083Z" fill="#F0F0F0"/>
<path d="M212.668 208.083H211.282L202.321 163.975H185.796L181.468 185.203L180.833 188.609L176.873 208.083H175.494L180.14 185.203L180.826 181.802L184.64 163.168C184.669 163.019 184.748 162.885 184.864 162.787C184.979 162.689 185.124 162.633 185.275 162.627H202.912C203.064 162.632 203.209 162.688 203.325 162.786C203.44 162.884 203.519 163.019 203.548 163.168L212.668 208.083Z" fill="#F0F0F0"/>
<path d="M171.935 163.295H202.302C208.098 163.295 211.314 159.354 212.954 152.859L213.755 149.147C214.025 148.024 214.037 146.855 213.79 145.727C213.542 144.599 213.042 143.542 212.327 142.636C211.611 141.729 210.699 140.997 209.66 140.495C208.62 139.992 207.48 139.732 206.325 139.734H187.258C183.318 139.734 182.275 140.675 179.549 146.611C176.822 152.547 171.935 163.295 171.935 163.295Z" fill="#F0F0F0"/>
<path d="M188.491 163.295H156.128C155.726 163.295 155.339 163.135 155.054 162.85C154.769 162.565 154.609 162.179 154.609 161.776V161.636C154.609 161.09 154.717 160.55 154.926 160.045C155.135 159.541 155.441 159.083 155.827 158.697C156.213 158.311 156.671 158.005 157.175 157.796C157.68 157.587 158.22 157.479 158.766 157.479H188.491V163.301V163.295Z" fill="#F0F0F0"/>
<path d="M159.224 236.785C227.281 236.785 282.453 233.563 282.453 229.59C282.453 225.617 227.281 222.396 159.224 222.396C91.1661 222.396 35.9946 225.617 35.9946 229.59C35.9946 233.563 91.1661 236.785 159.224 236.785Z" fill="#F5F5F5"/>
<path d="M129.371 209.259L125.304 211.877L117.931 203.303L121.999 200.685L129.371 209.259Z" fill="#FF8B7B"/>
<path opacity="0.2" d="M122.005 200.685L117.931 203.303L121.738 207.727L125.806 205.102L122.005 200.685Z" fill="black"/>
<path d="M98.2859 223.241L93.6081 223.699L88.7461 212.576L93.4238 212.119L98.2859 223.241Z" fill="#FF8B7B"/>
<path opacity="0.2" d="M88.7524 212.583L91.2566 218.315H96.1313L93.4238 212.125L88.7524 212.583Z" fill="black"/>
<path d="M62.7644 73.0896C60.4128 73.2993 60.3493 69.308 56.2181 71.1829C50.9684 73.5726 52.7416 77.2779 48.6422 77.1254C44.5429 76.9728 41.7972 80.1697 42.7124 82.5531C43.6276 84.9364 45.0449 87.1927 42.1468 88.1524C39.2486 89.1121 37.2784 89.9574 37.6979 92.3598C38.1173 94.7622 40.1702 95.7282 36.7127 97.2599C33.2553 98.7916 33.6048 105.414 36.9924 105.421C40.3799 105.427 37.1322 108.725 40.1702 112.081C43.2082 115.437 47.8287 115.895 49.7545 114.242C51.6802 112.59 53.8284 111.223 57.4511 113.765C61.0738 116.308 67.207 116.943 66.9273 112.914C66.6477 108.884 63.1139 106.24 66.4443 104.143C69.7746 102.046 74.071 101.01 72.7236 96.9295C71.8656 94.3872 69.2725 92.1755 71.3635 90.2751C74.7638 87.1863 74.7829 80.1951 70.6136 78.4219C68.1921 77.3987 70.5246 72.3904 62.7644 73.0896Z" fill="#263238"/>
<path d="M58.2394 104.499C58.125 106.406 57.8834 108.103 57.6038 109.889C57.3242 111.674 56.9174 113.416 56.4534 115.164C56.0012 116.931 55.4256 118.663 54.7311 120.35C54.3879 121.202 53.9938 122.047 53.5743 122.892C53.3646 123.312 53.1358 123.725 52.9006 124.131C52.7926 124.341 52.6591 124.545 52.5384 124.767L52.3541 125.066C52.2289 125.265 52.0887 125.454 51.9346 125.631C51.5821 126.03 51.1487 126.348 50.6635 126.566C50.23 126.762 49.7652 126.88 49.2907 126.915C48.5927 126.955 47.8935 126.86 47.2314 126.636C46.2455 126.297 45.306 125.836 44.435 125.263C42.9009 124.259 41.4494 123.135 40.0941 121.901C37.4812 119.524 35.0448 116.96 32.8042 114.229L34.6092 112.494C35.8803 113.613 37.1514 114.751 38.4798 115.831C39.8081 116.911 41.1046 117.998 42.4584 119.009C43.7472 120.001 45.1067 120.897 46.526 121.691C47.126 122.031 47.7667 122.294 48.4327 122.473C48.5929 122.522 48.7619 122.537 48.9284 122.517H48.8013C48.7173 122.558 48.6401 122.612 48.5725 122.676L48.5407 122.708C48.5407 122.708 48.5407 122.752 48.5407 122.708L48.6805 122.447C48.7695 122.276 48.8712 122.11 48.9538 121.932C49.1318 121.581 49.3034 121.225 49.4686 120.865C49.7864 120.14 50.1042 119.403 50.3584 118.634C50.8923 117.108 51.3372 115.532 51.7312 113.931C52.1253 112.329 52.424 110.696 52.6909 109.05C52.9578 107.403 53.1612 105.719 53.3265 104.156L58.2394 104.499Z" fill="#FF8B7B"/>
<path d="M61.932 105.096C61.6777 106.634 60.4003 109.545 59.3897 111.706C58.6398 113.27 58.0296 114.445 58.0296 114.445L57.1398 114.051L49.7737 110.772C50.333 106.8 51.2418 102.51 55.6208 100.558C58.3538 99.3509 62.3832 102.325 61.932 105.096Z" fill="#623D91"/>
<path opacity="0.6" d="M61.932 105.096C61.6777 106.634 60.4003 109.545 59.3897 111.706C58.6398 113.27 58.0296 114.445 58.0296 114.445L57.1398 114.051L49.7737 110.772C50.333 106.8 51.2418 102.51 55.6208 100.558C58.3538 99.3509 62.3832 102.325 61.932 105.096Z" fill="black"/>
<path opacity="0.3" d="M59.3705 111.706C58.6205 113.27 58.0104 114.445 58.0104 114.445L57.1206 114.051C57.2414 112.482 57.5528 110.009 58.3917 108.897C58.9157 109.752 59.2495 110.71 59.3705 111.706Z" fill="black"/>
<path d="M34.8888 113.95L35.4735 109.672L30.675 111.223C30.675 111.223 31.4377 113.81 33.1474 114.871L34.8888 113.95Z" fill="#FF8B7B"/>
<path d="M33.2998 106.018L29.9504 107.855L30.675 111.249L35.4735 109.673L33.2998 106.018Z" fill="#FF8B7B"/>
<path d="M123.804 210.593L128.221 207.416C128.297 207.36 128.39 207.334 128.484 207.342C128.577 207.35 128.664 207.392 128.729 207.46L131.736 210.593C131.809 210.675 131.864 210.77 131.897 210.874C131.931 210.978 131.942 211.088 131.93 211.197C131.918 211.306 131.883 211.41 131.828 211.505C131.772 211.599 131.698 211.68 131.609 211.744C130.051 212.824 129.244 213.263 127.299 214.655C126.105 215.513 123.588 217.585 121.935 218.767C120.283 219.949 119.031 218.385 119.609 217.743C122.215 214.871 122.908 212.913 123.321 211.299C123.396 211.015 123.566 210.766 123.804 210.593Z" fill="#263238"/>
<path d="M92.9917 222.256H98.7118C98.8146 222.258 98.9142 222.293 98.9955 222.356C99.0768 222.419 99.1356 222.506 99.163 222.605L100.434 227.143C100.465 227.25 100.47 227.363 100.45 227.473C100.429 227.583 100.382 227.686 100.314 227.774C100.246 227.863 100.158 227.934 100.058 227.982C99.9572 228.031 99.8466 228.054 99.735 228.052C97.7139 228.052 96.7542 228.052 94.2311 228.052H86.5153C84.418 228.052 83.9731 225.929 84.8438 225.739C88.7334 224.881 90.977 223.692 92.1782 222.561C92.4008 222.36 92.6916 222.251 92.9917 222.256Z" fill="#263238"/>
<path d="M84.2591 122.32L65.5291 128.243C52.5637 102.58 54.4131 101.219 54.4131 101.219C54.4131 101.219 57.4066 99.5097 60.5209 98.0861C60.9912 97.87 61.4679 97.6603 61.9382 97.4505C64.705 96.3509 67.5469 95.4504 70.442 94.7557C70.8678 94.6413 71.2937 94.5397 71.7131 94.438C74.0187 93.9165 76.3532 93.5324 78.7043 93.2876C78.9839 96.8404 79.2636 99.8466 79.5687 102.459C79.9627 105.865 80.3885 108.592 80.8398 110.95C81.6739 114.825 82.8173 118.627 84.2591 122.32Z" fill="#623D91"/>
<path opacity="0.6" d="M84.2591 122.32L65.5291 128.243C52.5637 102.58 54.4131 101.219 54.4131 101.219C54.4131 101.219 57.4066 99.5097 60.5209 98.0861C60.9912 97.87 61.4679 97.6603 61.9382 97.4505C64.705 96.3509 67.5469 95.4504 70.442 94.7557C70.8678 94.6413 71.2937 94.5397 71.7131 94.438C74.0187 93.9165 76.3532 93.5324 78.7043 93.2876C78.9839 96.8404 79.2636 99.8466 79.5687 102.459C79.9627 105.865 80.3885 108.592 80.8398 110.95C81.6739 114.825 82.8173 118.627 84.2591 122.32Z" fill="black"/>
<path opacity="0.3" d="M80.8907 110.963C79.0921 108.42 77.3697 102.503 77.8146 100.285L79.5942 102.471C79.9882 105.878 80.414 108.605 80.8907 110.963Z" fill="black"/>
<path d="M66.1965 106.012C66.1965 106.012 70.9188 104.988 72.4377 107.041C74.5224 104.988 73.7851 96.9677 72.7809 94.1077C71.9846 94.2429 71.2033 94.4558 70.4484 94.7432L67.1117 99.904L66.1965 106.012Z" fill="white"/>
<path d="M66.1964 106.012C66.1964 106.012 63.0186 106.723 62.6817 109.323C58.2328 106.012 58.5442 101.162 59.5484 98.3023C60.3107 97.9333 61.1124 97.6519 61.9381 97.4634L65.2748 101.137L66.1964 106.012Z" fill="white"/>
<path d="M67.2833 89.3535C67.9188 91.6924 68.8849 94.0058 70.4611 94.7685C70.4611 94.7685 71.9292 98.9759 66.2092 106.012C60.2222 101.747 61.9509 97.4633 61.9509 97.4633C64.7728 95.7663 63.9784 93.5291 62.7771 91.5716L64.436 88.9086C64.6012 88.6521 64.8374 88.4491 65.1158 88.3241C65.3942 88.1992 65.7028 88.1578 66.0043 88.2049C66.3058 88.252 66.5871 88.3856 66.8142 88.5895C67.0412 88.7934 67.2041 89.0588 67.2833 89.3535Z" fill="#FF8B7B"/>
<path opacity="0.2" d="M67.2833 89.3536C67.2073 89.0539 67.0449 88.7832 66.8162 88.5751C66.5875 88.3671 66.3027 88.2309 65.9972 88.1834C65.6917 88.136 65.379 88.1795 65.098 88.3085C64.817 88.4374 64.5802 88.6462 64.4169 88.9087L63.8831 89.7604C63.9275 90.326 63.953 90.79 63.9466 91.0315C63.8958 92.6839 66.2156 92.6077 68.1032 91.8132C67.7667 91.0158 67.4926 90.1934 67.2833 89.3536Z" fill="black"/>
<path d="M55.7861 82.9663C57.4385 87.4724 58.0359 89.4172 61.0612 91.0824C65.6055 93.5929 70.7789 90.5803 70.512 85.6674C70.2705 81.2503 67.6138 74.615 62.5738 74.1256C61.4629 74.0131 60.3417 74.1864 59.3165 74.629C58.2914 75.0715 57.3963 75.7687 56.7163 76.6544C56.0363 77.5401 55.5939 78.5848 55.4311 79.6895C55.2683 80.7941 55.3905 81.9221 55.7861 82.9663Z" fill="#FF8B7B"/>
<path d="M67.4739 76.191C65.9231 74.6975 64.2961 72.9624 61.1818 73.2992C57.7371 73.6742 56.377 75.7589 56.377 75.7589L53.4153 82.2352C53.4153 82.2352 55.2521 90.5738 58.2837 86.6842C60.0315 84.4343 60.076 81.034 59.4404 78.4918C60.6314 78.3238 61.8053 78.0516 62.9487 77.6783C64.3469 78.1994 65.9168 78.1994 67.0799 77.1317C67.3341 76.8965 67.5184 76.7122 67.6519 76.566L67.7599 76.4453C68.1031 76.0067 67.8171 76.0512 67.4739 76.191ZM63.4699 77.5384C64.5556 77.1873 65.6587 76.8924 66.7748 76.655C66.3598 77.094 65.8311 77.409 65.2475 77.565C64.6639 77.721 64.0485 77.7118 63.4699 77.5384Z" fill="#263238"/>
<path d="M56.0148 87.5485C56.4921 88.3484 57.2668 88.9265 58.1694 89.1565C59.3642 89.4552 59.9299 88.3811 59.5676 87.2498C59.2435 86.2519 58.2329 84.8918 57.0254 85.0825C56.7643 85.1303 56.5194 85.2429 56.3133 85.4101C56.1071 85.5772 55.9464 85.7936 55.8457 86.0391C55.7451 86.2847 55.7078 86.5517 55.7374 86.8154C55.7669 87.0792 55.8623 87.3313 56.0148 87.5485Z" fill="#FF8B7B"/>
<path d="M65.5292 128.25C65.5292 128.25 64.8936 166.632 69.9082 180.5C74.7384 193.795 89.1466 216.65 89.1466 216.65L97.4979 216.44C97.4979 216.44 84.2274 187.491 82.0601 176.051C78.4501 157.066 79.2446 123.935 79.2446 123.935L65.5292 128.25Z" fill="#623D91"/>
<path opacity="0.3" d="M73.0288 131.561L75.2723 125.206L79.2446 123.935C79.2446 123.935 78.8823 139.016 79.753 154.658C76.1494 147.717 73.0288 135.006 73.0288 131.561Z" fill="black"/>
<path d="M87.9709 217.082L98.2861 216.822L97.6887 213.65L86.4265 214.184L87.9709 217.082Z" fill="#263238"/>
<path d="M69.6094 127.011C69.6094 127.011 82.6384 156.812 91.0596 173.775C97.8601 187.478 119.024 205.858 119.024 205.858L124.827 201.835C124.827 201.835 108.9 180.061 104.203 170.769C89.1719 141.037 92.8773 128.784 84.2336 122.32L69.6094 127.011Z" fill="#623D91"/>
<path d="M119.368 207.778L126.181 202.928L124.636 199.954L117.149 205.617L119.368 207.778Z" fill="#263238"/>
<path d="M84.2273 121.132L85.6001 122.543C85.7081 122.651 85.6001 122.835 85.3776 122.905L65.7324 129.114C65.5672 129.172 65.402 129.114 65.3575 129.032L64.6583 127.405C64.6075 127.297 64.7219 127.15 64.9062 127.093L83.8777 121.087C83.9348 121.064 83.9971 121.055 84.0584 121.063C84.1197 121.071 84.1779 121.095 84.2273 121.132Z" fill="#263238"/>
<path d="M82.3207 124.061L82.8292 123.903C82.9309 123.903 82.9944 123.788 82.9626 123.731L82.0411 121.627C82.0138 121.593 81.9759 121.569 81.9333 121.558C81.8907 121.548 81.8459 121.552 81.8059 121.57L81.2975 121.735C81.1958 121.767 81.1322 121.843 81.164 121.907L82.0919 124.004C82.111 124.068 82.2127 124.093 82.3207 124.061Z" fill="#623D91"/>
<path d="M67.188 128.847L67.6964 128.688C67.7981 128.657 67.8553 128.58 67.8299 128.517L66.902 126.413C66.902 126.35 66.7685 126.33 66.6668 126.362L66.1584 126.521C66.063 126.553 65.9995 126.629 66.0249 126.693L66.9528 128.796C66.9815 128.829 67.0198 128.851 67.0621 128.86C67.1044 128.87 67.1485 128.865 67.188 128.847Z" fill="#623D91"/>
<path d="M74.7511 126.477L75.2596 126.318C75.3613 126.286 75.4248 126.21 75.3931 126.146L74.4651 124.042C74.4651 123.985 74.338 123.96 74.2363 123.992L73.7279 124.151C73.6262 124.151 73.5626 124.259 73.5944 124.322L74.516 126.426C74.5478 126.477 74.6494 126.477 74.7511 126.477Z" fill="#623D91"/>
<path d="M63.6924 81.9875C63.8068 82.3624 64.0928 82.623 64.328 82.5341C64.5632 82.4451 64.6776 82.0955 64.5632 81.7269C64.4488 81.3583 64.1691 81.0913 63.9276 81.1803C63.6861 81.2693 63.5844 81.5998 63.6924 81.9875Z" fill="#263238"/>
<path d="M67.9189 80.7163C68.0333 81.0913 68.3193 81.3518 68.5544 81.2629C68.7896 81.1739 68.904 80.8307 68.796 80.4557C68.6879 80.0807 68.3956 79.8201 68.1604 79.9091C67.9252 79.9981 67.8108 80.3413 67.9189 80.7163Z" fill="#263238"/>
<path d="M68.0586 79.9599L68.8785 79.4324C68.8785 79.4324 68.6306 80.2713 68.0586 79.9599Z" fill="#263238"/>
<path d="M66.8638 81.6887C67.4534 82.4408 68.1418 83.1099 68.9103 83.678C68.7569 83.8696 68.5639 84.0256 68.3445 84.1353C68.125 84.245 67.8844 84.3058 67.6392 84.3136L66.8638 81.6887Z" fill="#FF5652"/>
<path d="M66.3809 86.3728C66.3984 86.3586 66.4114 86.3396 66.4182 86.3181C66.425 86.2967 66.4253 86.2737 66.419 86.252C66.4102 86.2233 66.3909 86.199 66.3651 86.1837C66.3392 86.1684 66.3086 86.1633 66.2792 86.1694C65.8176 86.3202 65.3267 86.359 64.8471 86.2828C64.3675 86.2065 63.913 86.0173 63.5209 85.7309C63.5092 85.7208 63.4956 85.7132 63.481 85.7084C63.4664 85.7037 63.4509 85.7018 63.4356 85.703C63.4203 85.7042 63.4053 85.7084 63.3916 85.7153C63.3778 85.7223 63.3656 85.7319 63.3556 85.7436C63.3456 85.7553 63.338 85.7688 63.3332 85.7834C63.3284 85.7981 63.3266 85.8135 63.3277 85.8288C63.3289 85.8442 63.3331 85.8591 63.3401 85.8728C63.347 85.8866 63.3566 85.8988 63.3683 85.9088C63.7899 86.2203 64.2797 86.4266 64.797 86.5106C65.3144 86.5946 65.8443 86.5539 66.3427 86.3918L66.3809 86.3728Z" fill="#263238"/>
<path d="M62.097 80.9513C62.1267 80.9235 62.1486 80.8885 62.1606 80.8497C62.2549 80.5783 62.4116 80.3329 62.618 80.1331C62.8244 79.9333 63.0748 79.7847 63.3491 79.6993C63.381 79.6959 63.4119 79.6859 63.4397 79.6699C63.4675 79.6538 63.4916 79.6321 63.5105 79.6061C63.5293 79.5801 63.5425 79.5505 63.5491 79.519C63.5558 79.4876 63.5557 79.4552 63.549 79.4238C63.5423 79.3924 63.529 79.3628 63.5101 79.3368C63.4912 79.3109 63.467 79.2892 63.4392 79.2733C63.4113 79.2573 63.3804 79.2473 63.3485 79.2441C63.3165 79.2408 63.2843 79.2443 63.2538 79.2544C62.9004 79.3555 62.5773 79.5415 62.3125 79.7964C62.0477 80.0512 61.8493 80.367 61.7348 80.7162C61.7236 80.7445 61.7181 80.7748 61.7188 80.8053C61.7195 80.8358 61.7262 80.8658 61.7387 80.8936C61.7511 80.9214 61.769 80.9465 61.7912 80.9673C61.8135 80.9882 61.8396 81.0043 61.8682 81.0149C61.9087 81.0232 61.9505 81.0217 61.9903 81.0107C62.0301 80.9996 62.0667 80.9793 62.097 80.9513Z" fill="#263238"/>
<path d="M69.2091 78.3202C69.207 78.3054 69.207 78.2904 69.2091 78.2757C69.217 78.2162 69.2025 78.156 69.1684 78.1067C69.1344 78.0573 69.0832 78.0224 69.0248 78.0087C68.6687 77.933 68.2997 77.943 67.9483 78.0381C67.5968 78.1331 67.2731 78.3104 67.0037 78.5553C66.9616 78.5992 66.9385 78.6579 66.9397 78.7187C66.9409 78.7795 66.9662 78.8373 67.0101 78.8795C67.0539 78.9216 67.1126 78.9446 67.1734 78.9434C67.2342 78.9422 67.292 78.9169 67.3342 78.8731C67.5494 78.6825 67.8069 78.5456 68.0853 78.4738C68.3637 78.402 68.6552 78.3973 68.9358 78.46C68.9905 78.4733 69.0483 78.4665 69.0984 78.4408C69.1486 78.4152 69.1878 78.3723 69.2091 78.3202Z" fill="#263238"/>
<path d="M81.5771 97.7874C82.3334 98.353 82.9689 98.8805 83.6299 99.4525C84.2909 100.025 84.901 100.597 85.5366 101.194C86.7759 102.389 87.9708 103.635 89.1021 104.944C90.246 106.26 91.3073 107.646 92.2799 109.094C92.5341 109.45 92.7566 109.838 92.9917 110.206C93.2269 110.575 93.462 110.95 93.6718 111.344C93.8815 111.738 94.104 112.087 94.3073 112.526L94.6442 113.231L94.9175 113.943C95.5033 115.748 95.7784 117.639 95.731 119.536C95.6924 121.299 95.5032 123.055 95.1654 124.786C94.8349 126.483 94.4027 128.142 93.8942 129.769C93.3816 131.399 92.7833 133 92.1019 134.567L89.8012 133.716C90.1953 132.19 90.5702 130.589 90.8499 129.006C91.1605 127.439 91.3875 125.856 91.5299 124.265C91.6827 122.723 91.7188 121.172 91.638 119.625C91.5925 118.892 91.5033 118.162 91.3711 117.439C91.2316 116.772 91.0382 116.117 90.7927 115.481L90.5957 115.043L90.3796 114.642C90.208 114.35 89.9728 114.007 89.744 113.683C89.5152 113.359 89.3245 113.047 89.1084 112.723C88.8924 112.399 88.6699 112.087 88.4284 111.782C87.5005 110.511 86.4518 109.355 85.4095 108.179C84.3672 107.003 83.2232 105.897 82.0601 104.817C81.4881 104.27 80.897 103.736 80.3059 103.215C79.7149 102.694 79.0793 102.173 78.5327 101.728L81.5771 97.7874Z" fill="#FF8B7B"/>
<path d="M90.5322 132.197L87.0493 134.739L91.4982 137.091C91.4982 137.091 92.8266 134.739 92.4007 132.775L90.5322 132.197Z" fill="#FF8B7B"/>
<path d="M85.9497 138.864L89.5915 139.989L91.5299 137.103L87.0492 134.752L85.9497 138.864Z" fill="#FF8B7B"/>
<path d="M78.7298 93.3005C81.164 93.1925 85.9498 99.1731 85.9498 99.1731L80.9797 106.202C80.9797 106.202 75.3995 101.753 74.9673 98.6583C74.605 96.0207 75.6283 93.4276 78.7298 93.3005Z" fill="#623D91"/>
<path opacity="0.6" d="M78.7298 93.3005C81.164 93.1925 85.9498 99.1731 85.9498 99.1731L80.9797 106.202C80.9797 106.202 75.3995 101.753 74.9673 98.6583C74.605 96.0207 75.6283 93.4276 78.7298 93.3005Z" fill="black"/>
<path d="M122.132 212.583H122.056C121.944 212.569 121.839 212.525 121.749 212.457C121.66 212.389 121.59 212.299 121.547 212.195C121.514 212.135 121.497 212.067 121.497 211.998C121.497 211.929 121.514 211.861 121.547 211.801C121.859 211.267 123.607 211.165 123.804 211.165C123.826 211.165 123.848 211.171 123.867 211.182C123.886 211.193 123.901 211.209 123.912 211.229C123.924 211.248 123.931 211.27 123.931 211.292C123.931 211.315 123.924 211.337 123.912 211.356C123.486 211.826 122.73 212.583 122.132 212.583ZM123.53 211.42C122.831 211.47 121.903 211.636 121.745 211.915C121.727 211.941 121.718 211.97 121.718 212.001C121.718 212.032 121.727 212.062 121.745 212.087C121.771 212.156 121.816 212.218 121.874 212.264C121.932 212.311 122.001 212.342 122.075 212.354C122.412 212.392 122.946 212.042 123.53 211.42Z" fill="#623D91"/>
<path d="M123.683 211.407C123.098 211.407 121.948 211.083 121.732 210.612C121.697 210.529 121.691 210.437 121.714 210.349C121.737 210.262 121.788 210.185 121.859 210.129C121.925 210.07 122.002 210.025 122.087 209.998C122.171 209.971 122.26 209.961 122.348 209.97C123.041 210.047 123.861 211.172 123.893 211.242C123.903 211.259 123.909 211.278 123.909 211.299C123.909 211.319 123.903 211.339 123.893 211.356C123.884 211.373 123.871 211.387 123.856 211.398C123.84 211.409 123.822 211.417 123.804 211.419L123.683 211.407ZM122.272 210.199C122.177 210.199 122.086 210.235 122.018 210.301C121.91 210.396 121.922 210.472 121.941 210.523C122.081 210.828 122.984 211.159 123.575 211.159C123.283 210.797 122.736 210.225 122.304 210.18L122.272 210.199Z" fill="#623D91"/>
<path d="M90.4432 223.203C90.0518 223.231 89.6611 223.138 89.3246 222.936C89.2374 222.872 89.1657 222.789 89.1151 222.693C89.0645 222.597 89.0362 222.491 89.0323 222.383C89.0271 222.323 89.0379 222.262 89.0635 222.208C89.0892 222.153 89.1288 222.106 89.1785 222.072C89.6996 221.722 91.6508 222.605 92.0385 222.79C92.0601 222.799 92.0781 222.815 92.0895 222.836C92.101 222.857 92.1054 222.881 92.102 222.904C92.0999 222.928 92.0902 222.951 92.0742 222.969C92.0582 222.988 92.0368 223 92.0131 223.006C91.4977 223.124 90.9718 223.19 90.4432 223.203ZM89.5344 222.211C89.4549 222.207 89.3758 222.225 89.3056 222.262C89.2891 222.275 89.2763 222.291 89.2685 222.31C89.2607 222.329 89.2581 222.35 89.2611 222.37C89.2635 222.445 89.2831 222.518 89.3184 222.585C89.3537 222.651 89.4036 222.708 89.4645 222.752C89.8013 223.006 90.5958 223.044 91.619 222.853C90.962 222.532 90.2586 222.315 89.5344 222.211Z" fill="#623D91"/>
<path d="M91.9875 223.006H91.9494C91.3138 222.739 89.9918 221.69 90.0427 221.15C90.0427 221.035 90.138 220.883 90.4304 220.851C91.5744 220.711 92.0574 222.758 92.0765 222.872C92.0807 222.893 92.0794 222.914 92.0727 222.934C92.066 222.955 92.0542 222.973 92.0383 222.987C92.0234 222.997 92.0059 223.004 91.9875 223.006ZM90.5829 221.067H90.5067C90.3859 221.067 90.3223 221.118 90.3096 221.175C90.2715 221.487 91.174 222.319 91.835 222.682C91.6634 222.179 91.2503 221.067 90.5829 221.067Z" fill="#623D91"/>
<path d="M63.8323 81.2184L64.6521 80.6909C64.6521 80.6909 64.4043 81.5299 63.8323 81.2184Z" fill="#263238"/>
<path d="M183.775 34.746H91.4091C90.4223 34.7393 89.4445 34.9348 88.5361 35.3204C87.6277 35.706 86.808 36.2736 86.1273 36.9882C85.4467 37.7028 84.9196 38.5492 84.5786 39.4752C84.2377 40.4013 84.09 41.3874 84.1447 42.3728L92.8074 221.963C92.9308 224.009 93.8237 225.933 95.3068 227.347C96.7899 228.762 98.7533 229.563 100.803 229.59H193.169C194.155 229.597 195.133 229.401 196.041 229.016C196.949 228.63 197.768 228.062 198.449 227.348C199.129 226.633 199.655 225.786 199.995 224.86C200.336 223.934 200.483 222.948 200.427 221.963L191.771 42.3728C191.647 40.3269 190.754 38.4034 189.271 36.9887C187.788 35.574 185.825 34.7728 183.775 34.746Z" fill="black"/>
<path d="M187.188 34.746H94.7967C93.8101 34.7392 92.8326 34.9347 91.9246 35.3204C91.0165 35.7061 90.1971 36.2738 89.5169 36.9885C88.8368 37.7032 88.3104 38.5497 87.9701 39.4757C87.6298 40.4018 87.483 41.3877 87.5386 42.3728L96.1949 221.963C96.3183 224.009 97.2112 225.933 98.6943 227.347C100.177 228.762 102.141 229.563 104.19 229.59H196.556C197.543 229.597 198.52 229.401 199.429 229.016C200.337 228.63 201.156 228.062 201.836 227.348C202.516 226.633 203.043 225.786 203.383 224.86C203.723 223.934 203.87 222.948 203.815 221.963L195.158 42.3728C195.035 40.3312 194.146 38.4113 192.668 36.9972C191.19 35.5832 189.233 34.7792 187.188 34.746Z" fill="#263238"/>
<path d="M103.93 224.506C103.249 224.488 102.6 224.219 102.107 223.749C101.615 223.279 101.315 222.642 101.267 221.963L92.6231 42.3728C92.6076 42.045 92.6587 41.7175 92.7734 41.41C92.8881 41.1026 93.0639 40.8215 93.2902 40.5839C93.5165 40.3463 93.7887 40.157 94.0902 40.0276C94.3917 39.8981 94.7164 39.8311 95.0445 39.8306H187.411C188.092 39.8449 188.743 40.1138 189.236 40.5844C189.729 41.0549 190.028 41.6929 190.074 42.3728L198.73 221.963C198.745 222.291 198.694 222.618 198.58 222.925C198.466 223.232 198.291 223.512 198.065 223.75C197.839 223.987 197.568 224.177 197.267 224.307C196.966 224.437 196.642 224.504 196.315 224.506H103.93Z" fill="#623D91"/>
<path opacity="0.1" d="M103.885 223.234C103.545 223.223 103.222 223.087 102.976 222.853C102.73 222.619 102.578 222.302 102.55 221.963L93.8941 42.3727C93.8882 42.2095 93.9149 42.0467 93.9727 41.894C94.0305 41.7413 94.1182 41.6016 94.2306 41.4832C94.3431 41.3648 94.4781 41.2701 94.6277 41.2045C94.7772 41.139 94.9384 41.104 95.1017 41.1016H187.468C187.808 41.1115 188.132 41.2468 188.379 41.4814C188.625 41.7161 188.776 42.0335 188.802 42.3727L197.459 221.963C197.465 222.126 197.438 222.289 197.38 222.442C197.322 222.595 197.235 222.734 197.122 222.853C197.01 222.971 196.875 223.066 196.725 223.131C196.576 223.197 196.415 223.232 196.251 223.234H103.885Z" fill="black"/>
<g opacity="0.3">
<path opacity="0.3" d="M131.761 212.913H113.463C112.961 212.907 112.479 212.711 112.116 212.364C111.753 212.018 111.534 211.546 111.506 211.044L110.171 183.264C110.154 183.018 110.188 182.772 110.272 182.54C110.355 182.309 110.485 182.097 110.654 181.918C110.822 181.739 111.027 181.596 111.253 181.5C111.479 181.404 111.723 181.355 111.969 181.357H130.299C130.8 181.361 131.281 181.556 131.643 181.902C132.006 182.248 132.223 182.719 132.25 183.219L133.566 211.006C133.582 211.252 133.546 211.499 133.463 211.73C133.379 211.962 133.248 212.174 133.079 212.353C132.909 212.532 132.705 212.674 132.478 212.77C132.251 212.867 132.007 212.915 131.761 212.913ZM111.944 182.006C111.785 182.005 111.628 182.036 111.482 182.097C111.336 182.158 111.203 182.248 111.092 182.361C110.984 182.478 110.901 182.615 110.846 182.765C110.792 182.914 110.767 183.073 110.775 183.232L112.116 211.006C112.133 211.346 112.28 211.667 112.525 211.903C112.771 212.139 113.097 212.273 113.438 212.277H131.761C131.92 212.278 132.078 212.247 132.225 212.184C132.371 212.122 132.504 212.03 132.613 211.915C132.723 211.799 132.808 211.662 132.862 211.512C132.917 211.363 132.94 211.203 132.93 211.044L131.589 183.264C131.573 182.924 131.428 182.604 131.183 182.368C130.939 182.131 130.614 181.997 130.274 181.993L111.944 182.006Z" fill="#FAFAFA"/>
<path opacity="0.3" d="M130.032 188.456H112.828C112.743 188.456 112.662 188.423 112.603 188.363C112.543 188.304 112.51 188.223 112.51 188.139C112.51 188.054 112.543 187.973 112.603 187.914C112.662 187.854 112.743 187.821 112.828 187.821H130.051C130.136 187.821 130.216 187.854 130.276 187.914C130.336 187.973 130.369 188.054 130.369 188.139C130.369 188.223 130.336 188.304 130.276 188.363C130.216 188.423 130.136 188.456 130.051 188.456H130.032Z" fill="#FAFAFA"/>
<path opacity="0.3" d="M130.21 192.047H112.98C112.896 192.046 112.816 192.012 112.757 191.953C112.698 191.893 112.664 191.813 112.662 191.73C112.662 191.645 112.696 191.565 112.755 191.505C112.815 191.445 112.896 191.412 112.98 191.412H130.21C130.294 191.412 130.375 191.445 130.435 191.505C130.494 191.565 130.528 191.645 130.528 191.73C130.526 191.813 130.492 191.893 130.433 191.953C130.374 192.012 130.294 192.046 130.21 192.047Z" fill="#FAFAFA"/>
<path opacity="0.3" d="M130.382 195.638H113.152C113.068 195.637 112.988 195.603 112.929 195.543C112.869 195.484 112.835 195.404 112.834 195.32C112.834 195.236 112.867 195.155 112.927 195.096C112.986 195.036 113.067 195.003 113.152 195.003H130.382C130.466 195.003 130.547 195.036 130.606 195.096C130.666 195.155 130.699 195.236 130.699 195.32C130.699 195.405 130.666 195.486 130.606 195.545C130.547 195.605 130.466 195.638 130.382 195.638Z" fill="#FAFAFA"/>
<path opacity="0.3" d="M130.553 199.229H113.329C113.245 199.229 113.164 199.196 113.105 199.136C113.045 199.077 113.012 198.996 113.012 198.912C113.012 198.827 113.045 198.746 113.105 198.687C113.164 198.627 113.245 198.594 113.329 198.594H130.553C130.637 198.594 130.718 198.627 130.778 198.687C130.838 198.746 130.871 198.827 130.871 198.912C130.871 198.996 130.838 199.077 130.778 199.136C130.718 199.196 130.637 199.229 130.553 199.229Z" fill="#FAFAFA"/>
<path opacity="0.3" d="M130.725 202.82H113.501C113.417 202.82 113.336 202.787 113.276 202.727C113.217 202.667 113.183 202.587 113.183 202.502C113.183 202.418 113.217 202.337 113.276 202.278C113.336 202.218 113.417 202.185 113.501 202.185H130.725C130.809 202.185 130.89 202.218 130.95 202.278C131.009 202.337 131.043 202.418 131.043 202.502C131.043 202.587 131.009 202.667 130.95 202.727C130.89 202.787 130.809 202.82 130.725 202.82Z" fill="#FAFAFA"/>
<path opacity="0.3" d="M127.369 206.411H113.673C113.588 206.411 113.508 206.377 113.448 206.318C113.388 206.258 113.355 206.177 113.355 206.093C113.355 206.009 113.388 205.928 113.448 205.868C113.508 205.809 113.588 205.775 113.673 205.775H127.369C127.453 205.775 127.534 205.809 127.594 205.868C127.653 205.928 127.687 206.009 127.687 206.093C127.685 206.177 127.651 206.257 127.592 206.316C127.533 206.375 127.453 206.409 127.369 206.411Z" fill="#FAFAFA"/>
</g>
<g opacity="0.3">
<path opacity="0.3" d="M143.296 110.988L130.731 112.996C130.246 111.8 129.605 110.674 128.825 109.647C128.073 108.857 127.183 108.211 126.2 107.74L126.67 117.591C133.657 119.43 138.358 121.371 140.773 123.413C142.313 124.696 143.562 126.292 144.439 128.094C145.316 129.897 145.799 131.865 145.858 133.868C146.026 136.213 145.595 138.562 144.606 140.694C143.665 142.683 142.31 144.449 140.633 145.874C139.071 147.212 137.265 148.235 135.314 148.886C133.024 149.575 130.65 149.947 128.259 149.992L128.342 151.727C128.361 152.048 128.314 152.37 128.203 152.672C128.093 152.974 127.921 153.251 127.7 153.484C127.478 153.717 127.211 153.902 126.914 154.027C126.618 154.153 126.299 154.216 125.977 154.212C125.309 154.205 124.668 153.945 124.184 153.484C123.701 153.022 123.41 152.395 123.372 151.727L123.289 149.992C120.499 149.813 117.745 149.27 115.097 148.378C113.067 147.645 111.191 146.544 109.561 145.13C108.073 143.86 106.813 142.344 105.836 140.649C104.857 138.827 104.144 136.872 103.72 134.847L117.391 133.252C117.908 135.493 118.543 137.114 119.298 138.114C120.245 139.275 121.463 140.187 122.844 140.77L122.266 128.745C118.88 127.903 115.565 126.798 112.351 125.441C110.272 124.404 108.484 122.863 107.152 120.96C105.595 118.76 104.733 116.143 104.68 113.447C104.532 111.588 104.791 109.718 105.438 107.969C106.086 106.219 107.107 104.632 108.429 103.317C111.124 100.601 115.255 99.0965 120.823 98.8041L120.778 97.9207C120.759 97.5996 120.806 97.2779 120.917 96.9757C121.027 96.6735 121.199 96.3973 121.42 96.1642C121.642 95.9312 121.909 95.7462 122.206 95.6209C122.502 95.4955 122.821 95.4325 123.143 95.4357C123.811 95.4426 124.452 95.703 124.936 96.1643C125.419 96.6256 125.71 97.2534 125.749 97.9207L125.793 98.8041C130.878 99.1219 134.82 100.325 137.621 102.414C140.438 104.538 142.441 107.565 143.296 110.988ZM121.242 107.588C120.109 107.878 119.086 108.495 118.3 109.361C117.765 110.079 117.505 110.965 117.569 111.859C117.602 112.817 117.951 113.737 118.56 114.477C119.409 115.367 120.483 116.011 121.668 116.339L121.242 107.588ZM127.833 141.094C129.74 140.671 131.117 139.959 131.964 138.959C132.371 138.509 132.685 137.983 132.888 137.412C133.091 136.84 133.179 136.234 133.146 135.629C133.082 134.525 132.632 133.479 131.875 132.673C131.075 131.777 129.549 130.938 127.312 130.169L127.833 141.094Z" fill="#FAFAFA"/>
</g>
<path opacity="0.2" d="M176.511 58.1919H113.59L119.724 185.374C120.023 190.584 122.289 195.487 126.065 199.09C129.84 202.693 134.843 204.728 140.061 204.784H202.982L196.855 77.6019C196.559 72.3895 194.292 67.4846 190.515 63.8806C186.738 60.2767 181.732 58.2431 176.511 58.1919Z" fill="black"/>
<path d="M191.923 58.1919H113.609C118.828 58.2462 123.832 60.281 127.608 63.8845C131.383 67.488 133.65 72.3911 133.947 77.6019L138.949 181.135C139.249 186.345 141.515 191.247 145.29 194.851C149.066 198.454 154.069 200.489 159.287 200.545H198.775C201.289 200.571 203.781 200.08 206.097 199.101C208.413 198.123 210.504 196.679 212.238 194.858C213.972 193.038 215.313 190.88 216.177 188.519C217.042 186.158 217.411 183.645 217.263 181.135L212.268 77.6019C211.971 72.3895 209.705 67.4846 205.927 63.8806C202.15 60.2767 197.144 58.2431 191.923 58.1919Z" fill="#FAFAFA"/>
<path d="M177.769 181.135C177.918 183.643 177.55 186.156 176.687 188.516C175.824 190.876 174.485 193.033 172.752 194.853C171.02 196.674 168.932 198.118 166.618 199.098C164.304 200.077 161.813 200.569 159.3 200.545H237.607C240.12 200.569 242.612 200.077 244.926 199.098C247.241 198.119 249.329 196.674 251.062 194.854C252.795 193.033 254.135 190.876 254.998 188.516C255.862 186.156 256.231 183.644 256.083 181.135H177.769Z" fill="#E6E6E6"/>
<path d="M202.95 122.454H147.605C147.217 122.449 146.845 122.298 146.565 122.03C146.284 121.763 146.115 121.398 146.093 121.011C146.082 120.825 146.11 120.638 146.175 120.463C146.239 120.288 146.338 120.128 146.467 119.993C146.596 119.857 146.751 119.75 146.922 119.677C147.094 119.604 147.279 119.567 147.466 119.568H202.81C203.203 119.566 203.581 119.714 203.867 119.983C204.153 120.251 204.325 120.619 204.348 121.011C204.359 121.199 204.33 121.388 204.264 121.565C204.198 121.742 204.097 121.903 203.965 122.039C203.834 122.174 203.676 122.281 203.501 122.352C203.326 122.424 203.139 122.458 202.95 122.454Z" fill="#623D91"/>
<path d="M203.382 131.459H148.038C147.65 131.455 147.278 131.304 146.997 131.036C146.716 130.768 146.548 130.404 146.525 130.017C146.515 129.83 146.543 129.644 146.607 129.469C146.671 129.294 146.771 129.134 146.899 128.998C147.028 128.863 147.183 128.756 147.355 128.683C147.526 128.61 147.711 128.573 147.898 128.574H203.249C203.636 128.58 204.006 128.732 204.286 128.999C204.565 129.267 204.733 129.63 204.755 130.017C204.766 130.203 204.738 130.389 204.673 130.565C204.609 130.74 204.509 130.9 204.381 131.035C204.252 131.17 204.097 131.278 203.926 131.351C203.754 131.424 203.569 131.461 203.382 131.459Z" fill="#623D91"/>
<path d="M203.821 140.459H148.47C148.082 140.455 147.71 140.304 147.429 140.036C147.148 139.768 146.98 139.404 146.957 139.016C146.947 138.83 146.975 138.643 147.039 138.468C147.103 138.293 147.203 138.133 147.332 137.998C147.46 137.863 147.615 137.755 147.787 137.682C147.959 137.609 148.143 137.572 148.33 137.574H203.713C204.101 137.578 204.473 137.729 204.754 137.997C205.034 138.265 205.203 138.629 205.225 139.016C205.236 139.205 205.207 139.394 205.141 139.572C205.075 139.749 204.972 139.911 204.84 140.046C204.708 140.182 204.549 140.289 204.374 140.36C204.198 140.431 204.01 140.465 203.821 140.459Z" fill="#623D91"/>
<path d="M204.253 149.478H148.908C148.521 149.472 148.15 149.32 147.869 149.053C147.589 148.785 147.42 148.422 147.396 148.035C147.385 147.849 147.413 147.662 147.478 147.487C147.542 147.312 147.641 147.152 147.77 147.017C147.899 146.881 148.054 146.774 148.225 146.701C148.397 146.628 148.582 146.591 148.769 146.592H204.113C204.501 146.596 204.873 146.748 205.154 147.015C205.435 147.283 205.603 147.647 205.626 148.035C205.636 148.221 205.608 148.408 205.544 148.583C205.48 148.758 205.38 148.918 205.251 149.053C205.123 149.188 204.968 149.296 204.796 149.369C204.624 149.442 204.44 149.479 204.253 149.478Z" fill="#623D91"/>
<path d="M182.682 158.483H149.34C148.952 158.479 148.581 158.328 148.3 158.06C148.019 157.792 147.85 157.428 147.828 157.041C147.817 156.854 147.845 156.668 147.91 156.493C147.974 156.318 148.074 156.158 148.202 156.022C148.331 155.887 148.486 155.78 148.657 155.707C148.829 155.634 149.014 155.597 149.201 155.598H182.542C182.93 155.602 183.302 155.753 183.583 156.021C183.864 156.289 184.032 156.653 184.055 157.041C184.065 157.227 184.037 157.413 183.973 157.589C183.909 157.764 183.809 157.924 183.68 158.059C183.552 158.194 183.397 158.301 183.225 158.374C183.053 158.447 182.869 158.485 182.682 158.483Z" fill="#623D91"/>
<path d="M186.527 103.786C193.077 97.0769 192.678 86.0668 185.638 79.194C178.598 72.3211 167.581 72.1882 161.032 78.897C154.483 85.6059 154.881 96.616 161.921 103.489C168.962 110.362 179.978 110.495 186.527 103.786Z" fill="#623D91"/>
<path d="M188.129 91.3301C188.249 93.692 187.765 96.0455 186.724 98.1688C185.595 100.446 183.847 102.358 181.681 103.687C179.515 105.015 177.018 105.707 174.477 105.681C171.848 105.661 169.269 104.958 166.994 103.641C164.719 102.324 162.825 100.438 161.499 98.1688C160.261 96.0926 159.552 93.7444 159.433 91.3301C159.323 89.4754 159.596 87.6178 160.234 85.8729C160.873 84.128 161.863 82.533 163.144 81.1871C164.425 79.8412 165.969 78.7731 167.68 78.0492C169.392 77.3253 171.233 76.9611 173.091 76.9792C176.948 77.0271 180.643 78.534 183.433 81.1967C186.223 83.8594 187.901 87.4801 188.129 91.3301Z" fill="white"/>
<path opacity="0.4" d="M186.724 98.1688C185.595 100.446 183.847 102.358 181.681 103.687C179.515 105.015 177.018 105.707 174.477 105.681C171.848 105.661 169.27 104.958 166.994 103.641C164.719 102.324 162.825 100.438 161.499 98.1688C165.156 95.6589 169.494 94.3282 173.93 94.3554C178.474 94.3639 182.918 95.6884 186.724 98.1688Z" fill="#623D91"/>
<path opacity="0.4" d="M178.223 90.9853C180.63 88.5188 180.485 84.472 177.898 81.9464C175.311 79.4209 171.262 79.3731 168.854 81.8396C166.446 84.3062 166.591 88.353 169.178 90.8785C171.766 93.404 175.815 93.4518 178.223 90.9853Z" fill="#623D91"/>
<path d="M227.076 224.824H222.411L221.941 214.006H226.612L227.076 224.824Z" fill="#B55B52"/>
<path opacity="0.2" d="M221.947 214.013L222.182 219.587H226.854L226.612 214.013H221.947Z" fill="black"/>
<path d="M266.818 212.15L262.382 213.599L256.795 204.047L261.238 202.598L266.818 212.15Z" fill="#B55B52"/>
<path opacity="0.2" d="M261.238 202.598L256.795 204.047L259.68 208.973L264.117 207.523L261.238 202.598Z" fill="black"/>
<path d="M242.863 68.5898C243.442 69.2953 243.931 69.9245 244.433 70.6173C244.935 71.31 245.412 71.971 245.889 72.6574C246.829 74.0366 247.732 75.4476 248.577 76.903C250.336 79.8558 251.77 82.9905 252.854 86.2521L252.962 86.5699L253.013 86.7351L253.083 86.9957L253.21 87.5169L253.28 87.9935C253.355 88.5644 253.379 89.1408 253.35 89.7159C253.291 90.6856 253.151 91.6487 252.931 92.595C252.528 94.2905 251.995 95.9521 251.335 97.5651C250.079 100.657 248.556 103.634 246.785 106.463L243.607 104.944C244.56 101.963 245.514 98.9125 246.213 95.9444C246.577 94.5136 246.853 93.0618 247.039 91.5972C247.117 90.9648 247.141 90.3269 247.109 89.6905C247.099 89.4637 247.07 89.2383 247.02 89.0168L246.988 88.9024C246.976 88.8819 246.966 88.8606 246.956 88.8388L246.906 88.7181L246.804 88.4702L246.378 87.4724L245.901 86.4809C245.584 85.8453 245.234 85.1589 244.884 84.4979C244.16 83.1887 243.378 81.8858 242.565 80.5892C241.751 79.2927 240.887 78.047 240.022 76.7759C239.158 75.5048 238.211 74.2336 237.353 73.0833L242.863 68.5898Z" fill="#B55B52"/>
<path d="M243.899 104.156L242.075 108.192H247.293C247.293 108.192 248.126 105.128 246.232 103.889L243.899 104.156Z" fill="#B55B52"/>
<path d="M242.685 112.73L247.528 111.795L247.293 108.192H242.075L242.685 112.73Z" fill="#B55B52"/>
<path d="M219.742 48.1056C219.742 48.4869 219.545 48.792 219.297 48.792C219.049 48.792 218.852 48.4869 218.852 48.1056C218.852 47.7243 219.055 47.4255 219.297 47.4255C219.538 47.4255 219.742 47.7306 219.742 48.1056Z" fill="#263238"/>
<path d="M219.602 48.792C219.154 49.942 218.549 51.0243 217.803 52.0079C218.06 52.1922 218.354 52.3183 218.665 52.3775C218.975 52.4368 219.295 52.4278 219.602 52.3511V48.792Z" fill="#A02724"/>
<path d="M221.077 46.021C221.03 46.0216 220.985 46.0058 220.949 45.9765C220.728 45.81 220.471 45.6974 220.198 45.6477C219.926 45.5981 219.645 45.6127 219.38 45.6905C219.326 45.705 219.27 45.6993 219.221 45.6744C219.171 45.6495 219.133 45.6072 219.113 45.5558C219.094 45.5043 219.094 45.4474 219.113 45.396C219.133 45.3445 219.171 45.3023 219.221 45.2774C219.555 45.1711 219.911 45.1468 220.257 45.2065C220.603 45.2662 220.93 45.4082 221.21 45.6206C221.257 45.6561 221.288 45.7082 221.298 45.7662C221.307 45.8241 221.294 45.8835 221.261 45.9321C221.239 45.9598 221.211 45.9822 221.179 45.9976C221.147 46.0131 221.112 46.021 221.077 46.021Z" fill="#263238"/>
<path d="M231.9 52.4465C231.226 55.8659 230.559 62.1261 232.949 64.4014C232.949 64.4014 232.014 67.8652 225.671 67.8652C218.68 67.8652 222.335 64.4014 222.335 64.4014C226.148 63.4926 226.046 60.6707 225.379 58.014L231.9 52.4465Z" fill="#B55B52"/>
<path d="M233.864 65.5901C234.366 64.4969 234.919 63.2385 233.775 62.8445C232.504 62.4123 225.665 61.9737 223.294 62.7872C222.983 62.8736 222.691 63.0211 222.437 63.2211C222.183 63.4212 221.971 63.6698 221.813 63.9525C221.656 64.2352 221.556 64.5463 221.521 64.8678C221.485 65.1893 221.513 65.5148 221.604 65.8252L233.864 65.5901Z" fill="#263238"/>
<path d="M261.422 214.712C261.078 215.042 260.691 215.309 260.398 215.265C260.306 215.246 260.222 215.2 260.157 215.131C260.092 215.063 260.05 214.977 260.036 214.883C260.017 214.811 260.014 214.736 260.027 214.662C260.04 214.588 260.069 214.519 260.112 214.458C260.494 213.867 262.019 213.612 262.102 213.606C262.122 213.603 262.143 213.606 262.162 213.613C262.181 213.621 262.197 213.634 262.21 213.65C262.222 213.668 262.228 213.689 262.228 213.711C262.228 213.732 262.222 213.753 262.21 213.771C261.981 214.111 261.717 214.427 261.422 214.712ZM260.386 214.47C260.353 214.501 260.323 214.535 260.297 214.572C260.271 214.609 260.254 214.65 260.246 214.694C260.239 214.738 260.241 214.783 260.252 214.826C260.303 215.023 260.398 215.042 260.43 215.042C260.754 215.093 261.447 214.407 261.873 213.873C261.339 213.96 260.831 214.164 260.386 214.47Z" fill="#623D91"/>
<path d="M262.184 213.79L262.134 213.822C261.606 213.962 260.227 213.873 259.935 213.428C259.891 213.357 259.872 213.273 259.881 213.19C259.891 213.108 259.927 213.03 259.985 212.97C260.04 212.906 260.107 212.853 260.182 212.815C260.258 212.777 260.34 212.754 260.424 212.748C261.123 212.697 262.134 213.593 262.178 213.631C262.193 213.644 262.205 213.661 262.21 213.681C262.216 213.7 262.216 213.72 262.21 213.739C262.208 213.759 262.199 213.777 262.184 213.79ZM260.195 213.078L260.157 213.117C260.068 213.225 260.106 213.282 260.119 213.307C260.29 213.568 261.256 213.714 261.854 213.644C261.459 213.287 260.969 213.053 260.443 212.97C260.354 212.977 260.271 213.016 260.208 213.078H260.195Z" fill="#623D91"/>
<path d="M220.53 225.059C219.932 225.059 219.354 224.976 219.163 224.709C219.112 224.639 219.084 224.555 219.084 224.468C219.084 224.381 219.112 224.296 219.163 224.226C219.201 224.161 219.251 224.105 219.311 224.06C219.372 224.015 219.44 223.983 219.513 223.966C220.288 223.756 221.922 224.684 221.992 224.728C222.012 224.739 222.028 224.756 222.037 224.777C222.046 224.797 222.048 224.821 222.043 224.843C222.039 224.864 222.03 224.884 222.015 224.9C222 224.916 221.981 224.927 221.96 224.932C221.488 225.014 221.009 225.057 220.53 225.059ZM219.793 224.156C219.721 224.146 219.648 224.146 219.577 224.156C219.532 224.165 219.489 224.183 219.452 224.21C219.415 224.236 219.384 224.27 219.36 224.309C219.284 224.449 219.31 224.519 219.36 224.557C219.577 224.855 220.759 224.862 221.623 224.741C221.057 224.429 220.435 224.23 219.793 224.156Z" fill="#623D91"/>
<path d="M221.941 224.932H221.896C221.337 224.677 220.218 223.66 220.301 223.139C220.301 223.012 220.409 222.86 220.714 222.828C220.827 222.815 220.942 222.825 221.051 222.858C221.161 222.891 221.262 222.945 221.35 223.018C221.941 223.508 222.068 224.766 222.074 224.817C222.074 224.837 222.069 224.856 222.06 224.874C222.051 224.891 222.039 224.907 222.023 224.919C222.011 224.926 221.997 224.931 221.983 224.933C221.969 224.936 221.955 224.935 221.941 224.932ZM220.803 223.025H220.74C220.536 223.025 220.523 223.12 220.523 223.146C220.473 223.463 221.229 224.258 221.795 224.601C221.74 224.067 221.517 223.564 221.159 223.165C221.058 223.084 220.933 223.039 220.803 223.038V223.025Z" fill="#623D91"/>
<path d="M261.994 213.085L265.807 209.456C265.873 209.39 265.961 209.35 266.053 209.342C266.146 209.334 266.239 209.358 266.316 209.411L269.849 211.775C269.935 211.833 270.006 211.909 270.058 211.999C270.109 212.088 270.14 212.188 270.147 212.291C270.155 212.394 270.138 212.497 270.1 212.592C270.062 212.688 270.002 212.774 269.926 212.843C268.585 214.114 267.866 214.629 266.201 216.218C265.172 217.203 262.108 220.54 260.691 221.9C259.274 223.26 257.748 222.027 258.206 221.347C260.265 218.29 261.549 215.36 261.663 213.816C261.684 213.541 261.801 213.282 261.994 213.085Z" fill="#263238"/>
<path d="M222.436 224.283H227.521C227.613 224.283 227.703 224.314 227.774 224.372C227.846 224.43 227.896 224.511 227.915 224.601L228.836 228.751C228.86 228.851 228.86 228.955 228.837 229.054C228.814 229.154 228.769 229.247 228.704 229.327C228.64 229.407 228.558 229.471 228.466 229.514C228.373 229.557 228.271 229.579 228.169 229.577C226.326 229.577 223.669 229.444 221.356 229.444C218.655 229.444 216.322 229.59 213.151 229.59C211.244 229.59 210.704 227.652 211.505 227.474C215.153 226.679 218.14 226.59 221.292 224.645C221.632 224.42 222.029 224.295 222.436 224.283Z" fill="#263238"/>
<path d="M215.789 74.9962C213.933 77.7292 212.02 80.2841 209.96 82.8073C207.893 85.3613 205.685 87.7972 203.344 90.1035L202.442 90.9806L202.213 91.1967L202.048 91.3492L201.806 91.5208C201.507 91.7622 201.186 91.9749 200.847 92.1564C199.774 92.7224 198.593 93.0539 197.383 93.1288C195.536 93.2381 193.682 93.084 191.879 92.6712C188.61 91.9504 185.441 90.8364 182.441 89.3536L183.61 86.0487C186.586 86.6436 189.596 87.0554 192.622 87.2816C193.952 87.3867 195.29 87.3312 196.607 87.1164C196.986 87.0598 197.346 86.9186 197.662 86.7033C197.694 86.7033 197.662 86.6652 197.662 86.6652L197.713 86.6143L197.898 86.4046L198.654 85.5783C200.637 83.3157 202.563 80.9006 204.431 78.4346C206.3 75.9687 208.175 73.4391 209.96 70.9731L215.789 74.9962Z" fill="#B55B52"/>
<path d="M241.313 65.4629C245.685 66.4671 250.706 78.3966 250.706 78.3966L241.916 84.4217C239.733 81.2846 237.797 77.9824 236.126 74.545C233.521 69.0856 236.838 64.4333 241.313 65.4629Z" fill="#623D91"/>
<path opacity="0.3" d="M238.173 73.0896L242.329 84.1547L241.916 84.4407C241.916 84.4407 240.118 81.8985 238.173 78.5109V73.0896Z" fill="black"/>
<path d="M215.153 65.698C215.153 65.698 210.183 71.31 214.88 106.056H239.851C240.023 102.243 237.614 83.5191 241.313 65.4565C238.55 64.9252 235.757 64.5728 232.949 64.4014C229.414 64.1979 225.87 64.1979 222.335 64.4014C219.911 64.6457 217.509 65.0792 215.153 65.698Z" fill="#623D91"/>
<path opacity="0.3" d="M217.924 75.7463C217.274 79.6893 215.57 83.3831 212.992 86.4365C212.89 84.1993 212.852 82.1909 212.859 80.3923L217.924 75.7463Z" fill="black"/>
<path d="M220.078 69.4859C220.714 73.9031 211.981 85.197 211.981 85.197L203.23 79.1719C203.23 79.1719 205.658 72.9498 209.744 68.8694C214.416 64.1917 219.411 64.6747 220.078 69.4859Z" fill="#623D91"/>
<path d="M184.214 86.4363L180.788 82.8962L177.134 87.6058C177.134 87.6058 179.917 90.2942 183.229 89.5124L184.214 86.4363Z" fill="#B55B52"/>
<path d="M176.085 80.926L174.515 85.8707L177.134 87.5867L180.788 82.8772L176.085 80.926Z" fill="#B55B52"/>
<path d="M232.313 47.3111C232.027 51.9317 232.097 54.6582 229.771 57.0289C226.256 60.6007 220.549 58.4843 219.449 53.851C218.452 49.6945 219.087 42.8304 223.612 40.9936C224.609 40.5841 225.694 40.4363 226.764 40.5643C227.834 40.6923 228.853 41.0918 229.725 41.7249C230.597 42.3581 231.293 43.2037 231.746 44.1815C232.199 45.1592 232.394 46.2366 232.313 47.3111Z" fill="#B55B52"/>
<path d="M236.336 37.6571C237.76 38.9663 237.156 40.4281 236.412 40.7014C238.719 41.1781 239.056 43.0149 237.842 46.8918C236.686 50.6035 233.883 55.5799 230.381 55.885C225.118 56.3426 223.58 50.8577 223.542 45.4173C220.568 45.6016 221.852 42.964 218.197 43.5741C215.019 44.1017 216.214 41.623 213.513 40.5425C210.38 39.2714 211.009 34.4729 213.933 35.8521C213.933 35.8521 212.579 36.7419 214.155 37.5808C215.731 38.4197 215.579 36.4813 218.699 36.2461C221.82 36.011 222.182 38.6803 225.83 37.0724C230.406 35.0513 233.412 34.9559 236.336 37.6571Z" fill="#263238"/>
<path d="M234.582 40.6761C234.79 40.3433 235.099 40.0862 235.464 39.9431C235.829 39.8 236.231 39.7784 236.609 39.8816C238.039 40.1867 238.154 40.8159 239.05 40.7333C239.946 40.6506 239.622 41.604 239.622 41.604C239.622 41.604 239.381 40.8858 238.3 41.2862C237.22 41.6866 236.514 40.7078 236.05 41.1464C235.586 41.5849 234.582 40.6761 234.582 40.6761Z" fill="#263238"/>
<path d="M226.034 48.5696C225.831 49.7027 225.256 50.7358 224.4 51.5059C223.269 52.5101 222.29 51.7029 222.252 50.3301C222.252 49.0908 222.78 47.0697 224.083 46.5866C225.385 46.1036 226.269 47.1968 226.034 48.5696Z" fill="#B55B52"/>
<path d="M223.733 106.056C223.733 106.056 229.033 141.73 231.944 155.077C235.122 169.695 257.271 208.591 257.271 208.591L265.407 205.947C265.407 205.947 247.77 170.902 245.952 156.405C243.976 140.675 239.851 106.031 239.851 106.031L223.733 106.056Z" fill="#263238"/>
<path d="M254.996 206.049C254.964 206.049 256.858 208.896 256.858 208.896L265.998 205.922L264.924 203.189L254.996 206.049Z" fill="#623D91"/>
<path opacity="0.3" d="M227.082 118.767C233.209 119.969 232.561 142.817 231.824 154.569C230.057 146.262 227.47 130.277 225.703 118.933C226.131 118.722 226.617 118.664 227.082 118.767Z" fill="black"/>
<path d="M214.88 106.056C214.88 106.056 214.244 140.968 214.74 155.204C215.267 170.013 220.46 218.506 220.46 218.506H228.373C228.373 218.506 228.659 170.877 229.008 156.335C229.39 140.446 231.303 106.056 231.303 106.056H214.88Z" fill="#263238"/>
<path d="M218.922 215.354C218.884 215.354 219.367 218.64 219.367 218.64H228.989L229.25 215.71L218.922 215.354Z" fill="#623D91"/>
</svg>
