<svg width="32" height="33" viewBox="0 0 32 33" fill="none" xmlns="http://www.w3.org/2000/svg">
<g clip-path="url(#clip0)">
<path d="M31.467 2.26667C31.2003 2 30.667 2 30.267 2L22.667 4.26667V31.0667L31.067 28.6667C31.6003 28.5333 32.0003 28 32.0003 27.3333V3.33333C32.0003 2.93333 31.867 2.53333 31.467 2.26667Z" fill="#D6B1FF"/>
<path d="M20 4.2666L12 2.2666V29.0666L20 31.0666V4.2666Z" fill="#2EC5CE"/>
<path d="M9.33333 2.2666L0.933334 4.6666C0.400001 4.93327 0 5.4666 0 5.99993V29.9999C0 30.3999 0.133333 30.7999 0.533333 31.0666C0.799999 31.1999 1.06667 31.3333 1.33333 31.3333H1.73333L9.33333 29.0666V2.2666Z" fill="#8C30F5"/>
</g>
<defs>
<clipPath id="clip0">
<rect width="32" height="32" fill="white" transform="translate(0 0.666626)"/>
</clipPath>
</defs>
</svg>
