<svg width="193" height="71" viewBox="0 0 193 71" fill="none" xmlns="http://www.w3.org/2000/svg">
<path d="M0.884111 63.9072C0.929886 63.1845 1.20453 62.6426 1.43341 62.2812C0.884111 62.4619 0.655238 62.8684 0.517915 63.9523C0.380591 65.2621 0.105944 68.7849 0.0143944 69.5527C-0.0771548 70.3205 0.289042 70.727 0.517915 70.9528C0.609464 71.0431 0.746788 70.9979 0.884111 70.8625C0.563689 70.456 0.426366 70.0495 0.380591 69.7333C0.289042 69.2817 0.746788 65.6234 0.884111 63.9072Z" fill="#F39325"/>
<path d="M4.54673 62.8681L3.58546 61.6035C3.58546 61.6035 2.66997 62.0552 1.80025 62.1907C1.66293 62.1907 1.57138 62.2358 1.43406 62.281C1.15941 62.6423 0.930535 63.1391 0.884761 63.9069C0.747437 65.6231 0.289691 69.2814 0.427015 69.8234C0.472789 70.1396 0.610113 70.546 0.930535 70.9525C1.25096 70.7267 1.66293 70.1396 1.98335 69.5524C2.4411 68.6491 4.04321 66.0296 4.4094 65.036C4.72983 63.9972 4.54673 62.8681 4.54673 62.8681Z" fill="white"/>
<path d="M17.7756 51.5788C17.9587 50.8562 18.2791 50.4045 18.5995 50.0884C18.0044 50.1787 17.7298 50.54 17.4094 51.624C17.0432 52.8886 16.1735 56.321 15.9904 57.0888C15.8073 57.8566 16.0361 58.2631 16.265 58.5793C16.3108 58.6696 16.4481 58.6696 16.6312 58.5793C16.4023 58.1276 16.3108 57.7211 16.3108 57.3598C16.3108 56.7727 17.3636 53.2499 17.7756 51.5788Z" fill="#F39325"/>
<path d="M21.5291 51.1716L20.7967 49.7715C20.7967 49.7715 19.7897 50.0425 18.9657 50.0425C18.8284 50.0425 18.6911 50.0425 18.5995 50.0425C18.2791 50.3586 17.9587 50.8103 17.7756 51.5329C17.3636 53.204 16.3108 56.7268 16.3108 57.2687C16.3108 57.6301 16.3566 58.0365 16.6312 58.4882C16.9974 58.3075 17.5009 57.8107 17.9129 57.2687C18.508 56.4558 20.5221 54.1073 21.0713 53.204C21.5291 52.3007 21.5291 51.1716 21.5291 51.1716Z" fill="white"/>
<path d="M4.54594 59.8428C4.36284 60.0686 3.12693 62.2816 2.85228 62.7784C2.80651 62.8688 2.76073 62.9591 2.76073 63.0494C2.71496 63.3204 2.76073 63.7721 3.31003 64.1334C3.63045 64.3592 4.08819 64.2689 4.31707 63.9527L6.56002 61.017L4.54594 59.8428Z" fill="#A96955"/>
<path d="M22.0325 48.1904C21.8494 48.3711 20.2473 50.3583 19.8811 50.81C19.8354 50.9003 19.7896 50.9455 19.7438 51.0358C19.6523 51.2616 19.6065 51.7584 20.0642 52.2101C20.3389 52.481 20.7966 52.481 21.0713 52.2101L23.4973 49.455L22.0325 48.1904Z" fill="#A96955"/>
<path d="M25.0987 37.6673C25.0987 37.035 28.7149 37.2608 31.8733 36.8995C33.5212 36.7188 34.5282 38.6609 33.3381 39.8803L23.7712 49.5906C23.5881 49.8164 23.2677 49.8616 22.993 49.7713C22.6268 49.6358 22.0775 49.41 21.574 49.0486C21.2994 48.8228 21.2536 48.4163 21.4367 48.1454L25.8311 41.9579L21.8029 43.087L6.60574 61.6495C6.37686 61.9656 5.91912 62.0108 5.55292 61.8301C5.09518 61.5591 4.50011 61.1527 4.13391 60.6559C3.90504 60.43 3.90504 60.0687 4.08813 59.7977C5.78179 57.2685 14.8909 43.4934 15.3029 42.0482C15.7607 40.4674 17.5459 37.5769 19.148 37.4866C20.8416 37.3963 25.0987 37.6673 25.0987 37.6673Z" fill="white"/>
<path d="M28.1206 41.913L27.1135 40.7388H29.8142V41.913H28.1206Z" fill="white"/>
<path d="M27.1136 40.7388L28.1206 41.913H25.9692V40.7388H27.1136Z" fill="white"/>
<path d="M23.2233 41.7764L23.0859 41.686H23.2233V41.7764Z" fill="white"/>
<path d="M23.0854 41.686L23.2227 41.7764V42.8603H22.0784V41.686H23.0854Z" fill="white"/>
<path d="M45.0561 9.2135L52.7462 3.29699C52.792 3.25182 52.8378 3.20666 52.8378 3.1615L53.6617 0.541971C53.6617 0.451642 53.7533 0.406478 53.7991 0.361314L54.3483 0.0451642C54.3941 0 54.4399 0 54.4857 0L56.1336 0.135493C56.2709 0.135493 56.3624 0.225821 56.4082 0.361314L56.5455 1.12911C56.5455 1.21943 56.5455 1.2646 56.4998 1.35493L56.2709 1.67108C56.2251 1.7614 56.1793 1.8969 56.2709 1.98723C56.3167 2.07755 56.3167 2.21305 56.2251 2.30338C55.9505 2.61953 55.2638 3.25182 54.1653 3.74863C54.1195 3.74863 54.0737 3.7938 54.0737 3.83896L47.1617 11.2459C47.0702 11.3814 46.8413 11.3814 46.7498 11.2459L45.0561 9.61998C44.9188 9.52965 44.9188 9.30383 45.0561 9.2135Z" fill="#A96955"/>
<path d="M2.62542 40.6934L14.8015 42.5451L12.2839 58.5784L4.59372 57.4041L0.794434 52.0748L2.62542 40.6934Z" fill="white"/>
<path d="M0.700928 52.0752L5.32416 52.7978L4.59177 57.4046" fill="#D4EDFC"/>
<path d="M5.95321 55.0313L5.88281 55.4775L10.8581 56.2416L10.9285 55.7954L5.95321 55.0313Z" fill="#D4EDFC"/>
<path d="M6.18681 53.3618L6.11646 53.8081L11.0917 54.5717L11.1621 54.1254L6.18681 53.3618Z" fill="#D4EDFC"/>
<path d="M2.45541 50.8662L2.38501 51.3125L11.3858 52.6948L11.4562 52.2485L2.45541 50.8662Z" fill="#D4EDFC"/>
<path d="M2.74101 48.9966L2.67065 49.4429L11.6714 50.8243L11.7418 50.378L2.74101 48.9966Z" fill="#D4EDFC"/>
<path d="M3.03647 47.0864L2.96606 47.5327L11.9668 48.915L12.0372 48.4687L3.03647 47.0864Z" fill="#D4EDFC"/>
<path d="M3.32284 45.2188L3.25244 45.665L12.2532 47.0473L12.3236 46.6011L3.32284 45.2188Z" fill="#D4EDFC"/>
<path d="M3.66215 43.3111L3.5918 43.7573L12.5925 45.1387L12.6629 44.6925L3.66215 43.3111Z" fill="#D4EDFC"/>
<path d="M3.81299 38.841L16.401 36.0859L20.1545 52.6161L12.1897 54.3775L6.46791 50.6288L3.81299 38.841Z" fill="#F39325"/>
<path d="M6.42285 50.674L11.1376 49.6353L12.1904 54.3775" fill="#D4EDFC"/>
<path d="M17.7537 50.4259L12.616 51.5566L12.7156 51.9974L17.8534 50.8667L17.7537 50.4259Z" fill="#D4EDFC"/>
<path d="M17.3924 48.7501L12.2546 49.8809L12.3543 50.3217L17.492 49.191L17.3924 48.7501Z" fill="#D4EDFC"/>
<path d="M16.9296 46.805L7.63696 48.8501L7.73661 49.2909L17.0292 47.2458L16.9296 46.805Z" fill="#D4EDFC"/>
<path d="M16.4628 44.823L7.17017 46.8682L7.26982 47.309L16.5624 45.2639L16.4628 44.823Z" fill="#D4EDFC"/>
<path d="M16.007 42.8836L6.71436 44.9287L6.81401 45.3695L16.1066 43.3244L16.007 42.8836Z" fill="#D4EDFC"/>
<path d="M15.5956 40.9363L6.30298 42.9814L6.40263 43.4222L15.6952 41.3771L15.5956 40.9363Z" fill="#D4EDFC"/>
<path d="M15.1393 38.9969L5.84668 41.042L5.94633 41.4828L15.2389 39.4377L15.1393 38.9969Z" fill="#D4EDFC"/>
<path d="M33.7505 18.2921L44.7364 9.21411C44.9653 9.03345 45.2857 9.03345 45.4688 9.21411C45.9265 9.62058 46.7047 10.3432 47.0709 11.0207C47.2082 11.2465 47.1624 11.5626 46.9336 11.7433L35.5815 22.4472L33.7505 18.2921Z" fill="white"/>
<path d="M35.5818 18.1112C35.5818 18.1112 37.5043 20.0081 37.1381 23.3502C37.0465 24.3438 36.6346 25.2471 36.0395 26.0149L26.4268 38.2544C26.198 38.5254 25.8776 38.7061 25.5114 38.7512C24.0923 38.9319 20.3388 39.248 17.6839 38.3899C17.455 38.2996 17.3635 38.0738 17.5008 37.8931L26.2437 22.7179L31.5536 16.6208C31.5536 16.6208 34.0712 15.7626 35.5818 18.1112Z" fill="white"/>
<path d="M23.5417 34.0989C23.4959 34.0989 23.4501 34.0989 23.4501 34.0537C23.3586 34.0086 23.3586 33.8731 23.4043 33.8279C23.4959 33.7376 31.7811 22.7175 32.3304 21.3626C32.8339 20.1431 31.6438 19.1947 31.598 19.1495C31.5064 19.1044 31.5064 18.9689 31.5522 18.8785C31.598 18.7882 31.7353 18.7882 31.8269 18.8334C31.8269 18.8334 33.2916 20.0076 32.6966 21.4981C32.1015 22.8982 24.0452 33.6021 23.7248 34.0537C23.679 34.0989 23.6332 34.0989 23.5417 34.0989Z" fill="#9D7EB8"/>
<path d="M23.2674 34.235L19.2392 39.2031C19.2392 39.2031 18.6442 42.4097 18.1406 42.8614C17.6371 43.313 16.1723 43.584 15.7604 42.8614C15.4399 42.2291 15.3026 41.5516 15.2568 41.4161L16.5843 41.9581C16.5843 41.9581 16.5385 41.7774 16.5385 41.5064C16.5385 41.4613 16.5385 41.4613 16.5385 41.4161C16.4927 41.1903 16.447 40.9193 16.447 40.558C16.4012 39.9709 16.4927 39.2482 16.9505 38.9321C17.8202 38.2546 18.0491 38.1643 18.0491 38.1643L20.3836 33.1511C20.292 33.0607 21.9399 34.0995 23.2674 34.235Z" fill="#A96955"/>
<path d="M5.32429 32.5629C5.09542 32.6081 4.95809 32.8339 5.09542 33.0597C5.55316 34.0082 6.9264 36.0406 9.76442 35.4083C13.3806 34.5953 24.4581 26.3303 26.9299 24.0721C29.4475 21.8138 32.7433 19.0137 34.3911 19.4201C35.9933 19.8266 35.032 18.8782 33.9334 18.1555C33.0637 17.5684 32.6059 16.8006 32.8348 16.5748C32.8348 16.5748 32.8806 16.5296 32.8348 16.4845C32.8348 16.4393 32.789 16.4393 32.789 16.4393C32.0566 16.349 30.363 16.349 28.12 17.5684C25.0989 19.1943 10.4053 24.7947 5.50739 23.1688C5.32429 23.1236 5.14119 23.2139 5.09542 23.3946C4.91232 24.4785 4.5919 27.9562 7.47569 31.8403C7.42992 31.8403 6.33133 32.3823 5.32429 32.5629Z" fill="#F39325"/>
<path d="M36.0391 12.3738L33.1553 16.3934C32.9722 16.6644 32.9722 17.0257 33.201 17.2516C33.5672 17.658 34.2539 18.2452 34.9405 18.3807C35.1694 18.4258 35.3982 18.3355 35.4898 18.1548L37.0003 15.8515C37.0461 15.8063 37.3665 12.148 36.0391 12.3738Z" fill="#A96955"/>
<path d="M36.8633 9.03309C36.909 9.07825 39.3351 13.7302 39.3351 13.7302L36.6344 15.0399L33.7048 10.9752C33.659 10.9752 35.8562 8.1298 36.8633 9.03309Z" fill="#A96955"/>
<path d="M34.8487 11.0647C34.8029 11.2002 34.8029 11.3357 34.8945 11.426L36.2677 13.6391C36.2677 13.6842 36.3135 13.6842 36.3593 13.7294C36.5424 13.8649 37.0917 14.3165 37.5036 13.7294C37.8698 13.2326 38.1903 12.7809 38.5565 12.6003C38.7853 12.51 39.0142 12.6003 39.1515 12.7809C39.3804 13.2326 39.7924 14.0907 40.067 14.9488C40.1128 15.1746 40.0212 15.4005 39.8381 15.4908C39.2889 15.7166 38.1903 16.1231 37.229 16.2586C37.0917 16.2586 36.9086 16.2134 36.817 16.0779C36.4051 15.536 35.2149 13.9552 34.8487 13.5487C34.4825 13.1874 33.7959 13.3229 33.4755 13.4132C33.3382 13.4584 33.2466 13.4132 33.1093 13.3681C32.7889 13.1874 32.2396 12.7358 32.7431 11.9228C32.8804 11.7422 32.7889 11.4712 32.6058 11.3357C32.2396 11.1099 31.8734 10.7034 32.2396 9.98076C32.6058 9.3033 33.2466 9.21297 33.7044 9.25813C33.8875 9.3033 34.1163 9.1678 34.1621 8.98715C34.2079 8.89682 34.2537 8.85165 34.391 8.80649C34.6198 8.76133 34.7572 8.5355 34.7114 8.30968C34.6199 7.90321 34.7114 7.4064 35.3522 7.04509C36.5424 6.41279 37.5494 7.45156 37.8241 8.30968C38.0987 9.1678 36.7713 9.8001 35.9473 9.89043C35.3065 10.0711 34.986 10.7486 34.8487 11.0647Z" fill="black"/>
<path d="M35.3067 14.3618C35.3067 14.3618 34.8032 12.8714 34.1166 12.9165C33.4299 12.9617 32.9264 13.6392 33.7504 14.3618C34.7574 15.2651 35.3067 14.3618 35.3067 14.3618Z" fill="#A96955"/>
<path d="M56.1334 1.49023H54.6228V2.30319H56.1334V1.49023Z" fill="#F39325"/>
<path d="M40.067 53.8806L40.1128 53.7902C40.1128 53.5644 39.9297 53.4289 39.5177 53.4289C39.0142 53.1128 38.5107 52.616 37.9156 51.8933C37.3205 51.1707 37.0001 50.5836 36.8628 50.2223C36.7712 50.0416 36.7712 49.9061 36.7712 49.8609C36.7712 49.7255 36.817 49.6351 36.9086 49.59C37.0001 49.5448 37.1374 49.4545 37.2748 49.4093C37.4121 49.3641 37.5036 49.319 37.5952 49.2738C38.0072 49.0028 38.3276 48.8673 38.5564 48.8673C38.7853 48.8673 39.0142 49.0028 39.1515 49.319C39.4719 49.9061 40.0212 50.4029 40.7536 50.7642C41.486 51.1255 42.31 51.3514 43.1797 51.3514C44.0036 51.3514 44.6902 51.2159 45.3311 50.9449C45.9261 50.6739 46.2466 50.2674 46.2466 49.7254C46.2466 49.319 46.0635 48.8673 45.6973 48.2802C45.6515 48.1447 45.56 48.0092 45.4684 47.9189C45.3311 47.7834 45.1938 47.6931 45.0564 47.5576C44.6902 47.2866 44.2783 46.9253 43.8205 46.4736C43.4543 46.3381 43.0424 46.1575 42.6762 45.9317L41.9438 45.5703C41.3487 45.2994 40.7079 44.8477 39.9755 44.2154C39.2431 43.5831 38.7395 43.0411 38.4649 42.4992C37.9614 42.0024 37.6867 41.2797 37.6867 40.2861C37.6867 39.2022 37.9614 38.1634 38.4649 37.215C38.7395 36.5827 39.4262 35.6342 40.5248 34.3244C41.6233 33.0147 42.4015 32.2017 42.9508 31.8856L43.8663 31.0275C43.9121 30.9371 43.9121 30.892 43.9578 30.892C44.0036 30.892 44.0494 30.892 44.0494 30.892C44.1409 30.8468 44.3698 30.7565 44.7818 30.5758C45.1938 30.3952 45.6515 30.079 46.1092 29.6725C47.5283 28.9951 48.8099 28.4983 49.9543 28.1821C51.0529 27.9111 52.0142 27.7305 52.7466 27.7305C53.662 27.7756 54.5318 28.0918 55.3099 28.7241C56.0881 29.3112 56.5458 30.0338 56.6832 30.8016C56.7289 31.0275 56.7747 31.2081 56.7747 31.3436C56.7747 32.2017 56.4085 33.1502 55.7219 34.2341C55.0353 35.3181 54.2571 36.0407 53.479 36.4923C53.1128 36.673 52.7923 36.7182 52.4719 36.7182C52.0599 36.7182 51.7395 36.6278 51.5106 36.402C51.2818 36.1762 51.1444 35.9052 51.1902 35.589C51.1902 35.3632 51.2818 35.1374 51.4191 34.8664C51.5564 34.5954 51.9226 34.1438 52.4719 33.5567C53.2958 32.3824 53.662 31.5694 53.662 31.0275C53.662 30.6661 53.4332 30.4855 53.0212 30.3952C52.7466 30.3048 52.0599 30.4403 50.9156 30.7113C49.7712 30.9823 49.2219 31.163 49.2219 31.2984C49.2219 31.3436 49.2219 31.3436 49.2219 31.4339C49.2219 31.4791 49.1761 31.5243 49.0846 31.4791C48.993 31.4339 48.3064 31.8404 47.0705 32.6082C45.8346 33.4212 45.1938 33.8728 45.148 33.9631C45.1022 34.0986 45.0564 34.189 44.8733 34.3244C44.736 34.4599 44.5529 34.5503 44.324 34.6406C43.9121 34.9116 43.5001 35.2277 43.1797 35.6794C42.8593 36.131 42.4015 36.8085 41.8522 37.7569C41.5776 38.1634 41.3487 38.5699 41.1656 39.0667C40.9825 39.5183 40.8909 39.97 40.8909 40.3313C40.8909 40.6023 40.9367 40.8281 40.9825 41.0088C41.074 41.3701 41.3487 41.6862 41.7607 41.9572C42.1726 42.2282 42.9508 42.725 44.1409 43.4476C45.3311 44.1251 46.4297 44.8477 47.3909 45.6155C48.3522 46.3833 48.9473 46.9704 49.1761 47.4221C49.5423 47.964 49.7254 48.6415 49.7254 49.4996C49.7254 50.1771 49.6339 50.8094 49.4508 51.3965C49.2219 51.8482 48.9473 52.2546 48.6268 52.616C48.3064 52.9773 47.986 53.1579 47.7571 53.1579C47.5283 53.2483 47.2994 53.2934 47.1621 53.4289C46.979 53.5192 46.8416 53.6096 46.7501 53.6547C46.4754 53.8354 45.7431 53.9709 44.5529 54.1515C43.4085 54.3322 42.4015 54.4225 41.6233 54.3774L40.067 53.8806Z" fill="white"/>
<path d="M55.0349 51.1716C54.5771 50.6297 54.2567 50.2232 54.1652 49.8167C54.1652 49.7715 54.1194 49.7264 54.0736 49.6812C54.0278 49.636 53.9821 49.5909 53.9821 49.5457C53.8905 49.4554 53.8447 49.0941 53.8447 48.4166C53.8447 47.8746 53.8905 47.2875 53.9363 46.6552C53.9821 46.0681 54.0736 45.5713 54.1652 45.2099L54.806 43.3582L55.3095 41.9581L56.2708 39.9257L54.8518 39.5644C54.6687 39.5193 54.5313 39.4741 54.4398 39.3386C54.3482 39.2031 54.3025 39.0676 54.3025 38.9773C54.3025 38.7966 54.394 38.5256 54.6229 38.1643C54.806 37.803 54.9891 37.6224 55.0806 37.6224C55.1722 37.6675 55.3553 37.6675 55.6299 37.6675C56.3166 37.6675 56.8658 37.6224 57.232 37.5772C57.4609 37.4869 57.644 37.3062 57.7356 37.0352C57.8729 36.7642 57.9644 36.5836 58.1018 36.4029C58.2391 36.2223 58.3306 36.0416 58.468 35.8158C58.5595 35.6803 58.6511 35.4545 58.7884 35.1835C58.9257 34.9125 59.1546 34.5512 59.3834 34.1899C59.4292 34.0995 59.5208 33.9641 59.7039 33.6931C59.887 33.4221 60.0701 33.1963 60.2989 33.0156C60.4363 32.8801 60.6194 32.7898 60.8482 32.6995C61.0771 32.6091 61.306 32.564 61.5348 32.564C61.9468 32.564 62.313 32.6995 62.5419 32.9253C62.7708 33.2414 62.8623 33.5124 62.8623 33.6479C62.8623 33.8286 62.7708 34.0995 62.5877 34.3705C62.4503 34.6415 62.2215 35.0028 61.901 35.4996C61.6264 35.9061 61.3975 36.2674 61.2602 36.4933C61.0313 36.8094 60.894 37.0352 60.894 37.1707C60.894 37.3514 61.0313 37.3965 61.3518 37.3965C61.6722 37.3965 62.2215 37.3062 62.9996 37.1707C63.137 37.1256 63.2743 37.1256 63.5032 37.1256C64.0524 37.1256 64.4644 37.3062 64.6933 37.6224C64.9222 37.9385 65.0595 38.345 65.0595 38.8418C65.0595 39.1579 64.9679 39.3838 64.7391 39.4289C64.5102 39.5193 64.0067 39.5193 63.2285 39.5193C62.4961 39.6547 61.7179 39.6999 60.894 39.6999C60.7567 39.6999 60.5736 39.6999 60.4363 39.6999C60.2532 39.6999 60.0701 39.7451 59.887 39.7902C59.7039 39.8354 59.5665 39.9257 59.475 40.0161C59.3834 40.1064 59.2919 40.2419 59.2003 40.4677C59.1088 40.558 58.9715 40.7839 58.6968 41.2807C58.3764 41.9581 58.1475 42.3646 58.056 42.5001C57.4609 44.2615 56.9574 46.1132 56.637 47.965C56.5912 48.1005 56.5912 48.2811 56.5912 48.5069C56.5912 48.8231 56.6827 49.0037 56.9116 49.1392C57.0947 49.2747 57.5067 49.3199 58.1018 49.3199C58.7426 49.3199 59.3834 49.2296 59.9785 49.0941C60.6651 48.7779 61.2144 48.5521 61.5806 48.3263C61.8095 48.1908 61.9926 48.1005 62.1757 48.0101C62.3588 47.9198 62.4961 47.8295 62.5419 47.7843C62.6334 47.6037 62.8165 47.6037 62.9996 47.8746C63.2285 48.1005 63.4116 48.3714 63.5032 48.6876C63.5032 49.0941 63.4116 49.5006 63.2743 49.8167C63.0912 50.1329 62.6792 50.4942 62.0384 50.9006C61.306 51.3523 60.5278 51.7136 59.7039 51.8943C58.8799 52.1201 58.1475 52.2104 57.4609 52.2104C57.0489 52.2104 56.6827 52.1652 56.3623 52.1201C55.9504 52.0297 55.5384 51.7136 55.0349 51.1716Z" fill="white"/>
<path d="M65.7918 50.7634C65.4714 50.5376 65.2883 50.4021 65.2883 50.3569C65.2883 50.2666 65.2425 50.1311 65.151 49.9505C65.0594 49.7698 64.9221 49.6343 64.8306 49.4988C64.6475 49.3182 64.7848 48.6859 65.1967 47.6923C65.6545 46.6535 66.2496 45.4792 66.982 44.0791C67.1193 43.9436 67.3024 43.7178 67.5312 43.3565C67.7601 42.9952 67.8974 42.8145 67.989 42.7694C67.989 42.679 68.0348 42.5887 68.0805 42.4984C68.1721 42.408 68.2179 42.3629 68.3094 42.3629L68.5841 41.8209C68.6756 41.5951 69.1334 41.0983 69.9573 40.3305C70.7812 39.5175 71.4221 39.0207 71.8798 38.7046C72.3376 38.3884 72.7953 38.2529 73.3446 38.2529C73.8939 38.2529 74.3974 38.4336 74.8094 38.7497L75.7707 39.5627C76.4573 40.1498 76.8693 40.466 76.9608 40.5563L78.2883 41.6854L77.6932 43.4468C77.4643 44.0791 77.3728 44.6663 77.3728 45.2082C77.3728 46.1115 77.6017 46.9245 78.1052 47.6923C78.2425 47.9632 78.3798 48.1439 78.5629 48.2794C78.746 48.4149 79.0207 48.5052 79.3411 48.5504C79.8446 48.6407 80.1193 48.9117 80.1193 49.3182C80.1193 49.815 80.0277 50.2215 79.8446 50.4473C79.6615 50.7183 79.4326 50.8538 79.158 50.9441C78.7918 50.9892 78.5171 51.0344 78.3798 51.0344C77.6932 51.0344 77.0524 50.8538 76.5031 50.4924C75.9538 50.1311 75.4503 49.544 75.0383 48.731C74.9467 48.5955 74.8094 48.3246 74.6721 47.9632C74.5348 47.6019 74.4432 47.3309 74.3974 47.1954C74.2143 47.4213 73.9397 47.7374 73.5735 48.0987C71.1474 50.5376 69.1791 51.7119 67.6686 51.7119C67.1651 51.7119 66.7073 51.5764 66.2953 51.3506C66.2953 51.1699 66.1122 50.9892 65.7918 50.7634ZM70.5066 47.1503C70.6439 47.06 70.7355 46.9245 70.8728 46.8341C71.0101 46.6986 71.1474 46.5632 71.3305 46.4277C71.9714 45.8857 72.5207 45.434 72.8869 45.0727C73.2531 44.7114 73.6193 44.2598 73.9855 43.763L74.7636 42.4984C74.5348 42.0016 74.3059 41.6402 74.1228 41.4596C73.9397 41.2789 73.7566 41.1886 73.5735 41.1886C73.1157 41.1886 72.5207 41.5951 71.7883 42.408C71.1017 43.221 70.2319 44.4856 69.2249 46.1567C68.9503 46.5631 68.7672 47.0148 68.5841 47.4664C68.401 47.9181 68.3094 48.2342 68.2636 48.3697C68.6756 48.46 69.408 48.0536 70.5066 47.1503Z" fill="white"/>
<path d="M91.1512 48.7321C91.1512 48.2804 91.197 47.8739 91.2428 47.4223C91.2885 46.9255 91.3343 46.5642 91.3343 46.3383V46.1577V45.7964C91.2428 45.3447 91.1054 45.1189 90.8766 45.1189C90.4646 45.1189 89.6864 45.5254 88.5421 46.3383C87.3977 47.1513 86.2076 48.0998 84.9716 49.2289C84.6054 49.6353 84.285 49.9966 84.0104 50.358C83.7815 50.6741 83.5984 50.8548 83.4611 50.8999C83.3238 50.9903 83.1407 50.9903 82.9118 50.9903C82.5914 50.9451 82.2252 50.7193 81.7674 50.2676C81.3555 49.816 81.0808 49.4095 80.8977 49.0934C80.8977 48.4611 81.035 47.8288 81.2639 47.2416C81.4928 46.6545 81.859 45.8867 82.3167 44.9834C82.5456 44.306 82.8202 43.5833 83.1407 42.9059C83.5069 42.0929 83.7357 41.4606 83.9188 41.0541C84.0562 40.6025 84.1935 40.196 84.2392 39.6992C84.2392 39.654 84.2392 39.654 84.1935 39.654C84.1935 39.5637 84.2393 39.4734 84.285 39.4282C84.3766 39.3379 84.4223 39.3379 84.5139 39.3379C84.5597 39.2476 84.697 39.2476 84.9259 39.2476C85.5209 39.2476 86.0702 39.4282 86.528 39.7444C86.9857 40.0605 87.2146 40.5573 87.2146 41.2348C87.2146 41.5961 87.1688 41.9122 87.0315 42.2284C86.8942 42.5445 86.6653 43.0414 86.2991 43.764L85.9329 44.5318C85.8414 44.6673 85.7498 44.8931 85.6125 45.1641C85.4752 45.4351 85.3836 45.6157 85.3836 45.6609C85.9787 45.2544 86.6653 44.7576 87.4892 44.0801C88.6794 43.1317 89.6406 42.4091 90.373 41.9123C91.1054 41.4154 91.7005 41.1445 92.0209 41.1445C92.3413 41.1445 92.7533 41.3251 93.3026 41.6413C93.8519 41.9574 94.1723 42.2736 94.2639 42.5445C94.2639 42.7252 94.2639 42.951 94.2181 43.2672C94.1723 43.5833 94.1723 43.8995 94.1266 44.1253L94.1723 45.2092C94.2181 45.3899 94.2181 45.6609 94.2181 46.0674C94.2181 46.79 94.1723 47.332 94.0808 47.6481C94.1265 47.6933 94.1265 47.6933 94.1723 47.7384C94.2181 47.7836 94.2181 47.8288 94.2181 47.8288L94.1723 47.9191C94.2181 48.1449 94.3096 48.5062 94.5385 49.0482C94.7674 49.545 94.9047 49.8612 94.9047 49.9063C94.9047 50.1773 94.7216 50.4483 94.4012 50.7644C94.0808 51.0806 93.7146 51.2612 93.4399 51.3064C91.8836 51.1709 91.1512 50.358 91.1512 48.7321Z" fill="white"/>
<path d="M106.348 52.4796C106.073 52.2537 105.845 52.0279 105.707 51.7569C105.57 51.4408 105.524 51.1246 105.478 50.8085C105.433 50.4923 105.387 50.0859 105.387 49.5439L105.341 48.3696L103.876 49.6794C102.411 51.0343 100.992 51.7569 99.7565 51.7569C99.3903 51.6666 98.8868 51.3956 98.3375 50.8085C97.7424 50.2665 97.3762 49.7697 97.2389 49.3632C97.1473 49.1826 97.1016 48.8664 97.1016 48.5051C97.1016 47.6018 97.3304 46.563 97.7882 45.2984C98.2459 44.0338 98.841 43.0402 99.5734 42.2724C100.077 41.5047 100.718 40.9175 101.45 40.511C102.183 40.1046 102.915 39.9239 103.693 39.9239C104.38 39.9239 105.021 40.0594 105.57 40.3755C105.89 40.5562 106.165 40.6014 106.394 40.6014C106.623 40.6014 106.76 40.4659 106.852 40.1497C106.897 40.0142 107.035 39.5626 107.264 38.7496L107.63 37.6205C108.133 36.0849 108.591 34.8655 108.957 33.9171C109.323 32.9686 109.781 31.975 110.33 30.8459C110.559 30.3491 110.834 29.9878 111.063 29.762C111.337 29.5361 111.566 29.4458 111.749 29.4458C112.07 29.4458 112.39 29.5361 112.757 29.762C113.123 29.9426 113.352 30.2136 113.489 30.5297C113.58 30.7104 113.58 30.8911 113.58 31.1169C113.58 31.3879 113.489 31.6588 113.352 31.9298C112.757 32.9686 111.978 34.6849 111.109 37.0786C110.193 39.4723 109.507 41.5047 109.003 43.2661C108.82 43.8984 108.683 44.7565 108.591 45.8856C108.499 47.0147 108.454 48.0986 108.454 49.1826C108.454 50.2213 108.499 50.8536 108.545 51.0795C108.591 51.215 108.637 51.3956 108.637 51.6214C108.637 52.0279 108.499 52.2989 108.225 52.4344C107.95 52.5699 107.584 52.7054 107.172 52.7505C106.897 52.7957 106.623 52.7054 106.348 52.4796ZM103.19 47.4212C103.876 46.9244 104.426 46.4727 104.746 46.0662C105.066 45.6598 105.295 45.163 105.524 44.5758C105.57 44.4403 105.616 44.3048 105.616 44.079C105.616 43.6725 105.433 43.2661 105.021 42.9499C104.792 42.7692 104.517 42.6789 104.197 42.6789C103.693 42.6789 103.19 42.9499 102.64 43.4467C102.045 43.9887 101.542 44.621 101.176 45.2984C100.809 45.9759 100.489 46.9244 100.214 48.0986C100.168 48.2793 100.168 48.4148 100.306 48.5051C100.397 48.5954 100.535 48.6406 100.764 48.6406C100.947 48.6406 101.176 48.5954 101.45 48.4599C101.908 48.2793 102.503 47.918 103.19 47.4212Z" fill="white"/>
<path d="M119.212 51.1702C119.074 50.854 118.937 50.3121 118.754 49.6346C118.708 49.4991 118.662 49.2733 118.662 49.0023C118.662 48.7313 118.662 48.5506 118.662 48.4152C118.571 48.641 118.434 48.8668 118.296 49.0926C118.159 49.3184 118.022 49.4991 117.884 49.5894C117.335 50.1314 116.786 50.5379 116.236 50.7637C115.504 51.2153 114.817 51.4412 114.314 51.4412C113.673 51.4412 113.078 51.125 112.62 50.5379C111.888 49.9507 111.476 49.2281 111.476 48.37C111.476 48.2345 111.522 48.0538 111.567 47.6925C111.613 46.8344 111.75 46.0214 111.934 45.2085C112.117 44.3955 112.529 43.4019 113.078 42.1825L114.131 40.1049L114.68 39.021C114.817 38.9758 115 38.9307 115.229 38.9307C115.596 38.9307 115.962 39.021 116.282 39.1565C116.603 39.292 116.786 39.4726 116.831 39.6985C116.923 39.7888 116.923 39.9694 116.923 40.2404C116.923 40.9631 116.603 41.9567 115.962 43.2213L115.687 43.8987C115.275 44.8923 114.955 45.6601 114.772 46.2473C114.588 46.7892 114.497 47.286 114.497 47.6474C114.497 48.0087 114.634 48.2797 114.909 48.37C115.046 48.4603 115.184 48.4603 115.321 48.4603C115.779 48.4603 116.374 48.099 117.015 47.3764C117.701 46.6537 118.388 45.4343 119.074 43.7632C119.395 42.9503 119.624 42.1373 119.669 41.3244C119.624 41.0534 119.715 40.7824 119.898 40.4662C120.081 40.1501 120.356 39.9243 120.631 39.7436C120.722 39.6081 120.86 39.4726 120.997 39.4275C121.18 39.3371 121.272 39.3371 121.317 39.4275L121.867 39.3823C121.958 39.3371 122.05 39.4726 122.187 39.6985C122.324 39.9243 122.462 40.0598 122.507 40.1049C122.736 40.2856 122.874 40.6469 122.874 41.234C122.874 42.0018 122.599 43.0406 122.004 44.3955C121.546 45.344 121.272 46.0214 121.088 46.5634C120.951 47.0602 120.86 47.557 120.814 48.0087C120.814 48.5055 120.86 48.8668 120.951 49.1378C121.043 49.4088 121.226 49.6798 121.592 49.9507C121.958 50.2217 122.141 50.8089 122.05 51.7573C122.004 51.938 121.867 52.0283 121.684 52.1186C121.455 52.209 121.226 52.2541 120.905 52.2541C120.402 52.2541 119.944 52.1186 119.578 51.8928C119.532 51.7573 119.349 51.4863 119.212 51.1702Z" fill="white"/>
<path d="M122.782 60.2029C122.553 60.2029 122.37 60.1126 122.233 59.8868C122.187 59.8416 122.095 59.7061 121.912 59.4803C121.729 59.2093 121.637 58.848 121.637 58.3512C121.637 58.2609 121.683 58.0802 121.729 57.8092C122.004 56.8156 122.095 56.1382 122.095 55.7768C122.095 55.6413 122.141 55.5059 122.187 55.28C122.233 55.0542 122.278 54.8736 122.278 54.6477C122.37 54.4671 122.461 54.2413 122.553 53.8799C122.644 53.5638 122.69 53.2476 122.69 52.9767C122.69 52.8412 122.736 52.7057 122.828 52.5702C122.919 52.4347 123.011 52.2992 123.148 52.2089C123.148 52.0734 123.194 51.8476 123.24 51.5766C123.331 51.3056 123.377 51.0798 123.377 50.9443C123.514 50.312 123.972 48.8215 124.75 46.473C125.574 44.1245 126.215 42.2276 126.81 40.7823C127.085 40.15 127.313 39.5177 127.497 38.9757C127.68 38.4338 127.771 38.0273 127.771 37.8015C127.771 37.7111 127.817 37.6208 127.863 37.5305C127.909 37.4402 128 37.3498 128.183 37.2143C128.366 37.0337 128.641 36.9434 128.916 36.9434C129.328 36.9434 129.694 37.0788 130.06 37.3047C130.243 37.5757 130.335 37.8015 130.426 37.9821C130.518 38.1628 130.518 38.3886 130.518 38.6144C130.518 38.7048 130.472 38.8854 130.426 39.2919C130.426 39.7887 130.289 40.2403 130.014 40.6017C129.74 41.0081 129.602 41.1888 129.648 41.1436C130.792 40.4662 131.891 40.1049 132.852 40.1049C133.905 40.1049 134.775 40.4662 135.416 41.1888C136.056 41.9114 136.377 42.7695 136.377 43.8083C136.377 44.2148 136.194 44.8019 135.828 45.5697C135.461 46.3375 135.141 46.8343 134.912 47.0601C134.775 47.0601 134.592 47.286 134.363 47.7828C134.088 48.1441 133.539 48.5506 132.761 48.957C131.982 49.3635 131.433 49.499 131.159 49.4087C131.113 49.4087 131.113 49.4538 131.067 49.499C131.021 49.5442 130.975 49.6345 130.975 49.7248C130.975 49.8152 130.609 49.9958 129.923 50.2216C129.236 50.4475 128.595 50.583 128.092 50.583C127.817 50.583 127.588 50.583 127.451 50.5378C127.313 50.4926 127.176 50.4475 127.039 50.312C126.856 50.4926 126.81 50.6281 126.81 50.7636C126.81 50.9894 126.673 51.3507 126.444 51.8476C126.215 52.3444 126.032 52.6153 125.894 52.6153C125.849 52.6605 125.849 52.7057 125.803 52.7508C125.757 52.796 125.803 52.8863 125.894 52.9767C125.894 53.067 125.894 53.2025 125.849 53.4735C125.803 53.7444 125.757 53.9251 125.666 54.0606C125.666 54.2864 125.62 54.5574 125.574 54.9187C125.483 55.28 125.437 55.551 125.345 55.7317C125.345 56.0027 125.299 56.2736 125.208 56.5446C125.116 56.8156 125.025 56.9511 124.933 56.9511C124.796 56.9963 124.704 57.3124 124.704 57.9447C124.659 58.4867 124.475 58.9835 124.155 59.4351C123.835 59.8868 123.468 60.1126 123.194 60.1126L122.782 60.2029ZM129.465 47.4215C130.38 47.0601 131.021 46.6988 131.479 46.3375C132.028 45.8859 132.44 45.4794 132.715 45.1181C132.99 44.7568 133.127 44.3955 133.127 43.989C133.127 43.6728 133.035 43.3567 132.806 43.0405C132.623 42.7695 132.394 42.6792 132.074 42.6792C131.296 42.6792 130.289 43.2664 129.053 44.4406C128.641 44.8923 128.229 45.4342 127.909 46.1117C127.588 46.7892 127.405 47.286 127.405 47.6473C127.405 47.8731 127.497 47.9634 127.634 47.9634C127.954 47.9634 128.549 47.7828 129.465 47.4215Z" fill="white"/>
<path d="M136.147 53.3843C135.781 52.9326 135.598 52.3455 135.598 51.7132C135.598 51.1712 135.735 50.6744 135.964 50.1324C136.422 49.1388 136.926 48.371 137.383 47.7387C137.566 47.5129 137.658 47.2871 137.75 47.1516C137.841 46.9709 137.887 46.7903 137.887 46.4741C138.207 46.0677 138.665 45.2999 139.214 44.2159C140.13 42.7707 141.457 40.5125 143.151 37.4413C143.38 37.0348 143.838 36.1767 144.57 34.9573C145.257 33.7378 145.714 32.97 145.989 32.7442L146.172 32.5184C146.081 32.6539 146.218 32.3829 146.538 31.7054C146.859 31.0731 147.179 30.486 147.545 29.944C147.911 29.4021 148.232 29.1762 148.507 29.1762C148.827 29.1762 149.147 29.3117 149.559 29.5376C149.971 29.7634 150.292 30.1247 150.612 30.6215C150.887 31.1183 151.07 31.6603 151.07 32.2926C151.07 32.5636 151.07 32.7894 151.024 32.97L150.658 35.3637L150.475 36.1315C150.154 37.6671 149.697 39.7898 149.102 42.4545C148.552 44.8482 148.278 46.2483 148.278 46.7451C148.278 46.8806 148.323 47.0161 148.369 47.0613C148.415 47.1516 148.461 47.1968 148.552 47.1968C148.598 47.1968 148.735 47.1064 148.919 46.9709C149.102 46.8355 149.285 46.6096 149.422 46.2935L149.88 45.616L150.475 44.7579C151.116 43.8546 151.94 42.6352 152.901 41.0996C153.862 39.564 155.419 36.8993 157.616 33.1507C158.073 32.5184 158.44 31.9313 158.714 31.4345C159.08 30.8473 159.447 30.2602 159.813 29.7182C160.179 29.1762 160.454 28.8601 160.637 28.7246C160.866 28.5439 161.186 28.4536 161.507 28.4536C161.873 28.4988 162.239 28.5891 162.605 28.8149C162.971 29.0407 163.338 29.3569 163.612 29.8085C163.887 30.215 164.024 30.6667 164.024 31.1635C164.024 31.7054 163.841 32.7442 163.521 34.2346C163.2 35.7251 162.788 37.1703 162.33 38.5704C162.239 39.0672 161.964 40.1963 161.461 42.0029C161.095 43.3578 160.82 44.4417 160.637 45.2095C160.454 46.0225 160.362 46.6548 160.362 47.1064V47.3774C159.996 48.0097 159.813 49.2743 159.813 51.126C159.721 51.8938 159.538 52.481 159.264 52.9326C158.989 53.3843 158.806 53.5649 158.623 53.5649L158.531 53.5198C158.394 53.5198 158.302 53.5649 158.211 53.6552C158.119 53.7456 157.936 53.7907 157.753 53.7907C157.158 53.7907 156.792 53.5649 156.609 53.1584C156.426 52.752 156.334 52.1648 156.334 51.4422C156.334 51.0357 156.334 50.6744 156.38 50.4034C156.471 49.8163 157.204 46.6548 158.623 40.9641C159.767 36.4928 160.316 34.1443 160.316 33.9636L159.813 34.8218C159.355 35.7251 158.76 36.7187 158.028 37.9381L155.556 42.4997C155.235 42.9062 155.007 43.3126 154.778 43.7191C154.595 44.1256 154.457 44.3514 154.457 44.3966C154.183 44.9386 153.588 45.7515 152.764 46.7903C152.489 47.1516 152.306 47.3774 152.26 47.4677C152.123 47.7387 151.757 48.1904 151.116 48.8227C150.475 49.455 149.788 50.0421 149.102 50.5841C148.415 51.1261 147.82 51.3519 147.316 51.3519C146.676 51.3519 146.126 51.0357 145.623 50.4486C145.119 49.8615 144.845 49.0937 144.845 48.2355C144.845 47.6032 144.982 46.5645 145.211 45.074C145.577 43.4481 145.989 41.8222 146.401 40.1963C146.813 38.5704 147.133 37.4413 147.271 36.9445C147.362 36.7187 147.362 36.4928 147.362 36.267C147.362 36.0864 147.316 35.996 147.271 35.9509C147.225 35.9509 147.225 35.996 147.179 36.0412C147.133 36.0864 147.088 36.1315 147.042 36.2219C146.676 36.7638 146.126 37.7574 145.394 39.1575C144.662 40.5576 143.838 42.1835 142.968 44.0804C139.581 50.1776 137.658 53.5198 137.154 54.1069C136.926 54.0617 136.559 53.8359 136.147 53.3843Z" fill="#F39325"/>
<path d="M163.841 50.7634C163.521 50.5376 163.338 50.4021 163.338 50.3569C163.338 50.2666 163.292 50.1311 163.201 49.9505C163.109 49.7698 162.972 49.6343 162.88 49.4988C162.697 49.3182 162.834 48.6859 163.246 47.6923C163.704 46.6535 164.299 45.4792 165.032 44.0791C165.169 43.9436 165.352 43.7178 165.581 43.3565C165.81 42.9952 165.947 42.8145 166.039 42.7694C166.039 42.679 166.084 42.5887 166.13 42.4984C166.222 42.408 166.267 42.3629 166.359 42.3629L166.634 41.8209C166.725 41.5951 167.183 41.0983 168.007 40.3305C168.831 39.5175 169.472 39.0207 169.929 38.7046C170.387 38.3884 170.845 38.2529 171.394 38.2529C171.943 38.2529 172.447 38.4336 172.859 38.7497L173.82 39.5627C174.507 40.1498 174.919 40.466 175.01 40.5563L176.338 41.6854L175.743 43.4468C175.514 44.0791 175.422 44.6663 175.422 45.2082C175.422 46.1115 175.651 46.9245 176.155 47.6923C176.292 47.9632 176.429 48.1439 176.612 48.2794C176.796 48.4149 177.07 48.5052 177.391 48.5504C177.894 48.6407 178.169 48.9117 178.169 49.3182C178.169 49.815 178.077 50.2215 177.894 50.4473C177.711 50.7183 177.482 50.8538 177.208 50.9441C176.841 50.9892 176.567 51.0344 176.429 51.0344C175.743 51.0344 175.102 50.8538 174.553 50.4924C174.003 50.1311 173.5 49.544 173.088 48.731C172.996 48.5955 172.859 48.3246 172.722 47.9632C172.584 47.6019 172.493 47.3309 172.447 47.1954C172.264 47.4213 171.989 47.7374 171.623 48.0987C169.197 50.5376 167.229 51.7119 165.718 51.7119C165.215 51.7119 164.757 51.5764 164.345 51.3506C164.391 51.1699 164.162 50.9892 163.841 50.7634ZM168.602 47.1503C168.739 47.06 168.831 46.9245 168.968 46.8341C169.105 46.6986 169.243 46.5632 169.426 46.4277C170.067 45.8857 170.616 45.434 170.982 45.0727C171.348 44.7114 171.715 44.2598 172.081 43.763L172.859 42.4984C172.63 42.0016 172.401 41.6402 172.218 41.4596C172.035 41.2789 171.852 41.1886 171.669 41.1886C171.211 41.1886 170.616 41.5951 169.884 42.408C169.197 43.221 168.327 44.4856 167.32 46.1567C167.046 46.5631 166.862 47.0148 166.679 47.4664C166.496 47.9181 166.405 48.2342 166.359 48.3697C166.771 48.46 167.503 48.0536 168.602 47.1503Z" fill="#F39325"/>
<path d="M189.247 48.7321C189.247 48.2804 189.292 47.8739 189.338 47.4223C189.384 46.9255 189.43 46.5642 189.43 46.3383V46.1577V45.7964C189.338 45.3447 189.201 45.1189 188.972 45.1189C188.56 45.1189 187.782 45.5254 186.638 46.3383C185.493 47.1513 184.303 48.0998 183.067 49.2289C182.701 49.6353 182.38 49.9966 182.106 50.358C181.877 50.6741 181.694 50.8548 181.557 50.8999C181.419 50.9903 181.236 50.9903 181.007 50.9903C180.687 50.9451 180.321 50.7193 179.863 50.2676C179.451 49.816 179.176 49.4095 178.993 49.0934C178.993 48.4611 179.13 47.8288 179.359 47.2416C179.588 46.6545 179.954 45.8867 180.412 44.9834C180.641 44.306 180.916 43.5833 181.236 42.9059C181.602 42.0929 181.831 41.4606 182.014 41.0541C182.152 40.6025 182.289 40.196 182.335 39.6992C182.335 39.654 182.335 39.654 182.289 39.654C182.289 39.5637 182.335 39.4734 182.38 39.4282C182.472 39.3379 182.518 39.3379 182.609 39.3379C182.655 39.2476 182.792 39.2476 183.021 39.2476C183.616 39.2476 184.166 39.4282 184.623 39.7444C185.081 40.0605 185.31 40.5573 185.31 41.2348C185.31 41.5961 185.264 41.9122 185.127 42.2284C184.99 42.5445 184.761 43.0414 184.395 43.764L184.028 44.5318C183.937 44.6673 183.845 44.8931 183.708 45.1641C183.571 45.4351 183.479 45.6157 183.479 45.6609C184.074 45.2544 184.761 44.7576 185.585 44.0801C186.775 43.1317 187.736 42.4091 188.469 41.9123C189.201 41.4154 189.796 41.1445 190.116 41.1445C190.437 41.1445 190.849 41.3251 191.398 41.6413C191.947 41.9574 192.268 42.2736 192.359 42.5445C192.359 42.7252 192.359 42.951 192.314 43.2672C192.268 43.5833 192.268 43.8995 192.222 44.1253L192.268 45.2092C192.314 45.3899 192.314 45.6609 192.314 46.0674C192.314 46.79 192.268 47.332 192.176 47.6481C192.222 47.6933 192.222 47.6933 192.268 47.7384C192.314 47.7836 192.314 47.8288 192.314 47.8288L192.268 47.9191C192.314 48.1449 192.405 48.5062 192.634 49.0482C192.863 49.545 193 49.8612 193 49.9063C193 50.1773 192.817 50.4483 192.497 50.7644C192.176 51.0806 191.81 51.2612 191.535 51.3064C189.979 51.1709 189.247 50.358 189.247 48.7321Z" fill="#F39325"/>
</svg>
