<svg width="713" height="586" viewBox="0 0 713 586" fill="none" xmlns="http://www.w3.org/2000/svg">
<path d="M262.281 244.255L262.281 506.536L108.847 506.536L5.15195e-05 397.689L3.81058e-05 244.255L262.281 244.255Z" fill="#A16CE5"/>
<path d="M110.158 399L108.847 506.536L0 397.689L110.158 399Z" fill="black" fill-opacity="0.2"/>
<path d="M326.478 237.238L395.104 490.382L247.014 530.528L113.48 453.952L73.3339 305.863L326.478 237.238Z" fill="#FFCC80"/>
<g filter="url(#filter0_d)">
<path d="M220.143 426.395L247.014 530.527L113.48 453.952L220.143 426.395Z" fill="#CCA366"/>
</g>
<path d="M394.437 211.798L547.19 425.007L422.463 514.368L270.589 489.278L181.228 364.551L394.437 211.798Z" fill="#2D2F7B"/>
<g filter="url(#filter1_d)">
<path d="M360.9 426.188L422.463 514.367L270.589 489.278L360.9 426.188Z" fill="#0E116A"/>
</g>
<path d="M243.101 382.251C239.768 381.499 231.353 381.247 229.357 385.08C228.333 387.046 228.966 392.909 231.321 393.93C236.774 396.295 244.045 391.143 249.462 390.152C254.852 389.167 262.846 386.053 268.326 387.819C274.158 389.699 277.025 396.201 275.691 402.042C275.112 404.578 272.447 409.6 269.721 410.428C263.921 412.192 256.37 411.543 250.34 412.005" stroke="white" stroke-width="3" stroke-linecap="round"/>
<path d="M255.666 359.246C263.589 370.213 271.314 381.392 281.724 390.068C283.562 391.601 288.952 393.89 291.42 392.754C296.372 390.476 294.782 383.83 293.081 380.075" stroke="white" stroke-width="3" stroke-linecap="round"/>
<path d="M294.771 366.169C297.362 370.489 301.998 377.648 308.068 376.692C313.49 375.837 318.334 371.431 314.732 366.17C312.149 362.397 307.948 357.424 302.94 357.307C299.958 357.238 293.802 360.708 294.055 364.019" stroke="white" stroke-width="3" stroke-linecap="round"/>
<path d="M311.123 363.814C313.156 366.638 315.386 370.556 319.139 370.945C322.212 371.264 327.215 372.464 326.882 368.117C326.513 363.293 322.569 360.418 319.455 357.083C317.536 355.029 314.6 348.387 319.252 347.24C325.212 345.772 333.622 351.826 336.99 356.199C338.283 357.876 339.125 359.063 337.018 356.564C334.651 353.756 331.695 350.031 331.272 346.289C331.093 344.71 330.278 341.945 332.001 341.028C334.839 339.519 338.644 341.473 340.834 343.229C343.057 345.012 345.375 346.579 347.399 348.605C348.955 350.161 352.355 346.484 353.27 345.706" stroke="white" stroke-width="3" stroke-linecap="round"/>
<path d="M344.17 334.83C346.387 337.865 353.822 346.036 358.192 341.226C358.847 340.505 359.775 340.242 360.389 339.527C361.157 338.63 360.801 337.348 361.09 336.289C361.513 334.74 361.43 331.608 360.771 330.129C358.771 325.646 352.562 325.37 348.429 325.687C343.202 326.087 345.276 334.874 345.518 338.033" stroke="white" stroke-width="3" stroke-linecap="round"/>
<path d="M335.963 299.639C342.823 307.612 347.802 316.835 354.84 324.644C356.238 326.195 372.025 337.285 372.649 332.923C373.244 328.768 370.827 325.344 368.811 321.982C367.413 319.65 364.328 316.698 367.647 320.785C371.113 325.053 375.461 330.228 381.5 329.765C384.18 329.56 385.318 329.756 386.871 327.946C387.833 326.824 386.738 322.209 386.634 320.861C386.416 318.006 383.004 314.915 381.325 312.696C380.64 311.791 376.547 305.798 378.687 309.04C381.212 312.864 385.411 317.598 389.561 319.504C390.841 320.092 393.119 321.003 394.564 320.468C395.78 320.017 395.669 316.502 395.589 315.46" stroke="white" stroke-width="3" stroke-linecap="round"/>
<path fill-rule="evenodd" clip-rule="evenodd" d="M692.796 70.7495C689.532 70.1395 685.249 70.4811 682.56 71.5658C680.501 72.3963 675.645 75.5523 675.29 76.2906C675.172 76.5365 696.776 104.27 697.01 104.171C697.79 103.843 701.555 100.577 702.666 99.2651C711.128 89.2661 705.543 73.132 692.796 70.7495ZM661.091 87.1994C657.059 90.3193 653.701 92.996 653.627 93.1478C653.554 93.2997 658.34 99.6901 664.261 107.348L675.029 121.272L682.603 115.398C686.768 112.167 690.15 109.461 690.117 109.384C690.084 109.307 688.125 106.807 685.763 103.829C683.402 100.85 678.534 94.6136 674.946 89.9701L668.422 81.5275L661.091 87.1994ZM643.795 100.597C642.262 101.728 626.028 114.264 607.72 128.454C589.413 142.644 543.816 177.955 506.393 206.923C468.971 235.891 438.385 259.661 438.424 259.746C438.63 260.184 447.166 270.779 447.281 270.739C447.356 270.713 452.755 266.494 459.28 261.364C465.805 256.234 482.607 243.091 496.617 232.159C510.628 221.226 527.215 208.258 533.478 203.342C539.742 198.425 555.002 186.487 567.391 176.813C588.602 160.251 600.091 151.265 638.412 121.266C647.156 114.421 654.344 108.75 654.385 108.665C654.457 108.515 647.02 98.7499 646.727 98.6088C646.648 98.5707 645.328 99.4657 643.795 100.597ZM653.752 120.004C650.602 122.51 634.802 134.884 618.64 147.5C602.479 160.117 582.951 175.377 575.245 181.413C559.024 194.118 532.698 214.701 502.506 238.284C468.597 264.77 452.389 277.517 452.445 277.653C452.474 277.722 454.228 280.016 456.343 282.75L460.188 287.72L496.335 259.706C516.217 244.298 562.923 208.129 600.127 179.331C637.332 150.533 667.855 126.798 667.956 126.587C668.123 126.24 660.425 115.901 659.761 115.582C659.605 115.508 656.901 117.497 653.752 120.004ZM431.085 267.27C429.939 268.79 421.848 279.655 416.946 286.257C415.662 287.987 414.64 289.483 414.675 289.583C414.709 289.683 417.137 292.79 420.07 296.488L425.402 303.211L426.753 302.697C427.497 302.414 432.786 300.262 438.507 297.916C444.227 295.569 449.808 293.307 450.909 292.888L452.91 292.126L442.726 278.967C437.124 271.729 432.483 265.78 432.411 265.745C432.34 265.711 431.743 266.397 431.085 267.27ZM402.277 305.93C398.452 311.057 395.336 315.293 395.352 315.343C395.409 315.518 416.621 306.805 416.757 306.551C416.879 306.325 409.942 297.016 409.437 296.727C409.324 296.663 406.103 300.804 402.277 305.93Z" fill="white"/>
<defs>
<filter id="filter0_d" x="109.48" y="425.129" width="142.8" height="141.878" filterUnits="userSpaceOnUse" color-interpolation-filters="sRGB">
<feFlood flood-opacity="0" result="BackgroundImageFix"/>
<feColorMatrix in="SourceAlpha" type="matrix" values="0 0 0 0 0 0 0 0 0 0 0 0 0 0 0 0 0 0 127 0"/>
<feOffset dy="4"/>
<feGaussianBlur stdDeviation="2"/>
<feColorMatrix type="matrix" values="0 0 0 0 0 0 0 0 0 0 0 0 0 0 0 0 0 0 0.25 0"/>
<feBlend mode="normal" in2="BackgroundImageFix" result="effect1_dropShadow"/>
<feBlend mode="normal" in="SourceGraphic" in2="effect1_dropShadow" result="shape"/>
</filter>
<filter id="filter1_d" x="266.589" y="425.122" width="160.94" height="160.638" filterUnits="userSpaceOnUse" color-interpolation-filters="sRGB">
<feFlood flood-opacity="0" result="BackgroundImageFix"/>
<feColorMatrix in="SourceAlpha" type="matrix" values="0 0 0 0 0 0 0 0 0 0 0 0 0 0 0 0 0 0 127 0"/>
<feOffset dy="4"/>
<feGaussianBlur stdDeviation="2"/>
<feColorMatrix type="matrix" values="0 0 0 0 0 0 0 0 0 0 0 0 0 0 0 0 0 0 0.25 0"/>
<feBlend mode="normal" in2="BackgroundImageFix" result="effect1_dropShadow"/>
<feBlend mode="normal" in="SourceGraphic" in2="effect1_dropShadow" result="shape"/>
</filter>
</defs>
</svg>
