<svg width="149" height="93" viewBox="0 0 149 93" fill="none" xmlns="http://www.w3.org/2000/svg">
<path d="M0 32.5659L131.106 51.4407L148.698 69.1941L0 32.5659Z" fill="#623D91"/>
<path opacity="0.6" d="M0 32.5659L131.106 51.4407L148.698 69.1941L0 32.5659Z" fill="white"/>
<path d="M0 32.5659L131.106 51.4407L125.021 77.1132L0 32.5659Z" fill="#623D91"/>
<path opacity="0.2" d="M0 32.5659L131.106 51.4407L125.021 77.1132L0 32.5659Z" fill="black"/>
<path d="M122.329 2.84482L129.938 38.501C130.136 39.4321 129.956 40.4037 129.439 41.2026C128.921 42.0015 128.108 42.5625 127.178 42.7625L59.2697 57.2551C58.3388 57.4514 57.368 57.2713 56.5695 56.754C55.771 56.2367 55.2097 55.4244 55.0082 54.4946L47.3939 18.8384C47.1977 17.9066 47.3786 16.9351 47.8971 16.1364C48.4155 15.3378 49.2292 14.777 50.1601 14.5769L118.068 0.0843413C119 -0.111847 119.971 0.0690719 120.77 0.587506C121.569 1.10594 122.129 1.91966 122.329 2.85057V2.84482Z" fill="#623D91"/>
<path opacity="0.4" d="M122.329 2.84482L129.938 38.501C130.136 39.4321 129.956 40.4037 129.439 41.2026C128.921 42.0015 128.108 42.5625 127.178 42.7625L59.2697 57.2551C58.3388 57.4514 57.368 57.2713 56.5695 56.754C55.771 56.2367 55.2097 55.4244 55.0082 54.4946L47.3939 18.8384C47.1977 17.9066 47.3786 16.9351 47.8971 16.1364C48.4155 15.3378 49.2292 14.777 50.1601 14.5769L118.068 0.0843413C119 -0.111847 119.971 0.0690719 120.77 0.587506C121.569 1.10594 122.129 1.91966 122.329 2.85057V2.84482Z" fill="black"/>
<path d="M120.656 0.509828L97.9685 28.3619C95.8644 30.9442 92.9418 32.7308 89.6842 33.4263C86.4266 34.1217 83.0292 33.6843 80.0541 32.1863L47.9692 16.026C48.4883 15.2804 49.2717 14.7602 50.1604 14.571L118.068 0.078503C118.954 -0.110102 119.879 0.0440153 120.656 0.509828Z" fill="#623D91"/>
<path d="M0 32.5659L108.136 58.2672L125.021 77.1132L0 32.5659Z" fill="#623D91"/>
<path opacity="0.6" d="M0 32.5659L108.136 58.2672L125.021 77.1132L0 32.5659Z" fill="white"/>
<path d="M39.4457 57.3385L39.155 57.8347L51.1887 64.8836L51.4794 64.3873L39.4457 57.3385Z" fill="#623D91"/>
<path d="M56.7924 67.495L56.5017 67.9912L60.8289 70.5259L61.1196 70.0297L56.7924 67.495Z" fill="#623D91"/>
<path d="M0 32.5659L108.136 58.2672L87.1162 83.6003L0 32.5659Z" fill="#623D91"/>
<path d="M144.638 92.7789C144.492 92.7793 144.348 92.752 144.212 92.6984L126.603 85.7282C126.321 85.6147 126.096 85.3944 125.976 85.1153C125.856 84.8362 125.851 84.5211 125.963 84.2386C126.074 83.9561 126.293 83.7293 126.572 83.6075C126.85 83.4858 127.165 83.4791 127.448 83.5888L145.063 90.559C145.313 90.6575 145.52 90.8399 145.649 91.0748C145.778 91.3096 145.821 91.5821 145.77 91.8453C145.72 92.1085 145.579 92.3458 145.372 92.5162C145.166 92.6867 144.906 92.7796 144.638 92.7789Z" fill="#623D91"/>
<path opacity="0.3" d="M144.638 92.7789C144.492 92.7793 144.348 92.752 144.212 92.6984L126.603 85.7282C126.321 85.6147 126.096 85.3944 125.976 85.1153C125.856 84.8362 125.851 84.5211 125.963 84.2386C126.074 83.9561 126.293 83.7293 126.572 83.6075C126.85 83.4858 127.165 83.4791 127.448 83.5888L145.063 90.559C145.313 90.6575 145.52 90.8399 145.649 91.0748C145.778 91.3096 145.821 91.5821 145.77 91.8453C145.72 92.1085 145.579 92.3458 145.372 92.5162C145.166 92.6867 144.906 92.7796 144.638 92.7789Z" fill="black"/>
<path d="M143.597 82.6802C143.453 82.6793 143.31 82.65 143.177 82.594L133.717 78.8271C133.575 78.7722 133.446 78.69 133.337 78.585C133.227 78.4801 133.139 78.3545 133.079 78.2156C133.018 78.0766 132.985 77.927 132.982 77.7753C132.98 77.6236 133.007 77.4729 133.063 77.3319C133.118 77.1908 133.202 77.0621 133.307 76.9533C133.413 76.8445 133.539 76.7576 133.678 76.6978C133.818 76.6379 133.968 76.6062 134.119 76.6044C134.271 76.6027 134.421 76.631 134.562 76.6877L144.023 80.4373C144.306 80.5489 144.534 80.7684 144.656 81.0477C144.777 81.3269 144.783 81.6431 144.672 81.9268C144.591 82.1471 144.445 82.3374 144.253 82.4721C144.061 82.6067 143.832 82.6794 143.597 82.6802Z" fill="#623D91"/>
<path opacity="0.5" d="M143.597 82.6802C143.453 82.6793 143.31 82.65 143.177 82.594L133.717 78.8271C133.575 78.7722 133.446 78.69 133.337 78.585C133.227 78.4801 133.139 78.3545 133.079 78.2156C133.018 78.0766 132.985 77.927 132.982 77.7753C132.98 77.6236 133.007 77.4729 133.063 77.3319C133.118 77.1908 133.202 77.0621 133.307 76.9533C133.413 76.8445 133.539 76.7576 133.678 76.6978C133.818 76.6379 133.968 76.6062 134.119 76.6044C134.271 76.6027 134.421 76.631 134.562 76.6877L144.023 80.4373C144.306 80.5489 144.534 80.7684 144.656 81.0477C144.777 81.3269 144.783 81.6431 144.672 81.9268C144.591 82.1471 144.445 82.3374 144.253 82.4721C144.061 82.6067 143.832 82.6794 143.597 82.6802Z" fill="white"/>
<path d="M123.819 92.6294C123.676 92.6277 123.533 92.6005 123.399 92.5489L106.221 85.7282C106.08 85.6734 105.951 85.5911 105.841 85.4862C105.731 85.3812 105.644 85.2557 105.583 85.1167C105.522 84.9777 105.489 84.8281 105.487 84.6764C105.484 84.5248 105.511 84.3741 105.567 84.233C105.623 84.0919 105.706 83.9633 105.812 83.8544C105.917 83.7456 106.043 83.6588 106.183 83.5989C106.322 83.539 106.472 83.5073 106.624 83.5056C106.775 83.5038 106.926 83.5321 107.067 83.5888L124.245 90.3865C124.494 90.485 124.701 90.6674 124.83 90.9022C124.959 91.1371 125.002 91.4096 124.952 91.6727C124.901 91.9359 124.76 92.1732 124.554 92.3437C124.347 92.5141 124.087 92.607 123.819 92.6064V92.6294Z" fill="#623D91"/>
<path opacity="0.3" d="M123.819 92.6294C123.676 92.6277 123.533 92.6005 123.399 92.5489L106.221 85.7282C106.08 85.6734 105.951 85.5911 105.841 85.4862C105.731 85.3812 105.644 85.2557 105.583 85.1167C105.522 84.9777 105.489 84.8281 105.487 84.6764C105.484 84.5248 105.511 84.3741 105.567 84.233C105.623 84.0919 105.706 83.9633 105.812 83.8544C105.917 83.7456 106.043 83.6588 106.183 83.5989C106.322 83.539 106.472 83.5073 106.624 83.5056C106.775 83.5038 106.926 83.5321 107.067 83.5888L124.245 90.3865C124.494 90.485 124.701 90.6674 124.83 90.9022C124.959 91.1371 125.002 91.4096 124.952 91.6727C124.901 91.9359 124.76 92.1732 124.554 92.3437C124.347 92.5141 124.087 92.607 123.819 92.6064V92.6294Z" fill="black"/>
</svg>
