<svg width="191" height="161" viewBox="0 0 191 161" fill="none" xmlns="http://www.w3.org/2000/svg">
<g opacity="0.3" clip-path="url(#clip0)">
<path fill-rule="evenodd" clip-rule="evenodd" d="M189.831 25.3222C161.398 39.2051 147.182 55.5173 147.182 74.2593C159.301 75.6476 169.322 80.5643 177.246 89.0098C185.17 97.4553 189.131 107.231 189.131 118.337C189.131 130.138 185.286 140.087 177.595 148.186C169.905 156.284 160.233 160.333 148.581 160.333C135.53 160.333 124.227 155.069 114.672 144.541C105.116 134.013 100.339 121.23 100.339 106.19C100.339 61.0703 125.741 25.7851 176.547 0.333008L189.831 25.3222ZM89.4915 25.3222C60.8261 39.2051 46.4936 55.5173 46.4936 74.2593C58.8454 75.6476 68.983 80.5643 76.9068 89.0098C84.8306 97.4553 88.7924 107.231 88.7924 118.337C88.7924 130.138 84.8888 140.087 77.0816 148.186C69.2743 156.284 59.5445 160.333 47.8919 160.333C34.841 160.333 23.5964 155.069 14.1578 144.541C4.71923 134.013 0 121.23 0 106.19C0 61.0703 25.2858 25.7851 75.8581 0.333008L89.4915 25.3222Z" fill="#2EC5CE"/>
</g>
<defs>
<clipPath id="clip0">
<rect width="190.667" height="160" fill="white" transform="translate(0 0.333008)"/>
</clipPath>
</defs>
</svg>
