<svg width="22" height="20" viewBox="0 0 22 20" fill="none" xmlns="http://www.w3.org/2000/svg">
<path fill-rule="evenodd" clip-rule="evenodd" d="M21.9065 3.5819C18.7253 5.20158 17.1347 7.10467 17.1347 9.29123C18.4906 9.4532 19.6119 10.0268 20.4984 11.0121C21.385 11.9974 21.8283 13.1379 21.8283 14.4337C21.8283 15.8104 21.3981 16.9712 20.5376 17.916C19.6771 18.8608 18.5949 19.3332 17.2911 19.3332C15.8309 19.3332 14.5662 18.7191 13.4971 17.4908C12.428 16.2625 11.8935 14.7711 11.8935 13.0165C11.8935 7.75252 14.7357 3.63591 20.4202 0.666504L21.9065 3.5819ZM10.6798 3.5819C7.47247 5.20158 5.86883 7.10467 5.86883 9.29123C7.25085 9.4532 8.38513 10.0268 9.2717 11.0121C10.1583 11.9974 10.6016 13.1379 10.6016 14.4337C10.6016 15.8104 10.1648 16.9712 9.29126 17.916C8.41772 18.8608 7.32907 19.3332 6.02529 19.3332C4.56505 19.3332 3.30691 18.7191 2.25084 17.4908C1.19477 16.2625 0.666748 14.7711 0.666748 13.0165C0.666748 7.75252 3.49592 3.63591 9.15436 0.666504L10.6798 3.5819Z" fill="#2EC5CE"/>
</svg>
