<svg width="342" height="429" viewBox="0 0 342 429" fill="none" xmlns="http://www.w3.org/2000/svg">
<path d="M5.3385 385.886C5.6149 381.523 7.27329 378.25 8.65529 376.068C5.3385 377.159 3.9565 379.614 3.12731 386.159C2.29811 394.068 0.639715 415.339 0.0869171 419.975C-0.465881 424.612 1.74531 427.066 3.12731 428.43C3.6801 428.975 4.5093 428.702 5.3385 427.884C3.4037 425.43 2.57451 422.975 2.29811 421.066C1.74531 418.339 4.5093 396.249 5.3385 385.886Z" fill="#F39325"/>
<path d="M27.4531 379.613L21.6488 371.977C21.6488 371.977 16.1208 374.704 10.8692 375.523C10.04 375.523 9.4872 375.795 8.658 376.068C6.99961 378.25 5.61761 381.25 5.34121 385.886C4.51201 396.249 1.74802 418.339 2.57722 421.611C2.85362 423.52 3.68282 425.975 5.61761 428.429C7.5524 427.065 10.04 423.52 11.9748 419.975C14.7388 414.521 24.4127 398.703 26.6239 392.703C28.5587 386.431 27.4531 379.613 27.4531 379.613Z" fill="#2D2F7B"/>
<path d="M107.334 311.447C108.439 307.084 110.374 304.357 112.309 302.448C108.716 302.993 107.057 305.175 105.122 311.72C102.911 319.356 97.6597 340.082 96.5541 344.718C95.4485 349.354 96.8305 351.809 98.2125 353.718C98.4889 354.263 99.3181 354.263 100.424 353.718C99.0417 350.991 98.4889 348.536 98.4889 346.355C98.4889 342.809 104.846 321.538 107.334 311.447Z" fill="#F39325"/>
<path d="M129.997 308.988L125.575 300.534C125.575 300.534 119.494 302.17 114.519 302.17C113.689 302.17 112.86 302.17 112.307 302.17C110.373 304.079 108.438 306.807 107.332 311.17C104.845 321.26 98.4875 342.532 98.4875 345.805C98.4875 347.986 98.7639 350.441 100.422 353.168C102.634 352.077 105.674 349.077 108.162 345.805C111.755 340.896 123.916 326.715 127.233 321.26C129.997 315.806 129.997 308.988 129.997 308.988Z" fill="#2D2F7B"/>
<path d="M27.4509 361.345C26.3453 362.709 18.8825 376.072 17.2242 379.072C16.9478 379.617 16.6714 380.163 16.6714 380.708C16.395 382.344 16.6714 385.071 19.9881 387.253C21.9229 388.617 24.6869 388.071 26.0689 386.162L39.6125 368.436L27.4509 361.345Z" fill="#A96955"/>
<path d="M133.038 290.986C131.933 292.077 122.259 304.076 120.047 306.803C119.771 307.349 119.495 307.621 119.218 308.167C118.665 309.53 118.389 312.53 121.153 315.257C122.811 316.894 125.575 316.894 127.234 315.257L141.883 298.622L133.038 290.986Z" fill="#A96955"/>
<path d="M151.555 227.446C151.555 223.628 173.391 224.991 192.462 222.809C202.412 221.719 208.493 233.445 201.307 240.809L143.539 299.442C142.434 300.806 140.499 301.078 138.841 300.533C136.63 299.715 133.313 298.351 130.272 296.169C128.614 294.806 128.338 292.351 129.443 290.715L155.977 253.353L131.654 260.171L39.8899 372.257C38.5079 374.166 35.7439 374.438 33.5327 373.347C30.7687 371.711 27.1755 369.257 24.9643 366.257C23.5823 364.893 23.5823 362.712 24.6879 361.075C34.9147 345.803 89.9181 262.626 92.4057 253.899C95.1697 244.354 105.949 226.9 115.623 226.355C125.85 225.809 151.555 227.446 151.555 227.446Z" fill="#2D2F7B"/>
<path d="M169.804 253.082L163.723 245.992H180.031V253.082H169.804Z" fill="#2D2F7B"/>
<path d="M163.722 245.991L169.803 253.082H156.812V245.991H163.722Z" fill="#2D2F7B"/>
<path d="M140.231 252.258L139.402 251.712H140.231V252.258Z" fill="#2D2F7B"/>
<path d="M139.397 251.712L140.226 252.258V258.803H133.316V251.712H139.397Z" fill="#2D2F7B"/>
<path d="M272.061 55.6336L318.496 19.9081C318.772 19.6354 319.048 19.3627 319.048 19.0899L324.024 3.27256C324.024 2.72714 324.576 2.45442 324.853 2.18171L328.17 0.272714C328.446 0 328.722 0 328.999 0L338.949 0.818141C339.778 0.818141 340.331 1.36357 340.608 2.18171L341.437 6.81784C341.437 7.36327 341.437 7.63598 341.16 8.18141L339.778 10.0904C339.502 10.6358 339.226 11.454 339.778 11.9994C340.055 12.5448 340.055 13.363 339.502 13.9084C337.844 15.8174 333.698 19.6354 327.064 22.6352C326.788 22.6352 326.511 22.9079 326.511 23.1807L284.775 67.9057C284.222 68.7238 282.84 68.7238 282.287 67.9057L272.061 58.088C271.231 57.5426 271.231 56.179 272.061 55.6336Z" fill="#A96955"/>
<path d="M15.857 245.717L89.3791 256.898L74.1772 353.712L27.7421 346.621L4.80103 314.441L15.857 245.717Z" fill="#623D91"/>
<path d="M4.23389 314.445L32.1502 318.808L27.7278 346.625" fill="#D4EDFC"/>
<path d="M35.9471 332.294L35.522 334.988L65.5641 339.602L65.9892 336.908L35.9471 332.294Z" fill="#D4EDFC"/>
<path d="M37.3589 322.214L36.9341 324.908L66.9762 329.519L67.401 326.824L37.3589 322.214Z" fill="#D4EDFC"/>
<path d="M14.8279 307.145L14.4028 309.839L68.7517 318.186L69.1768 315.492L14.8279 307.145Z" fill="#D4EDFC"/>
<path d="M16.5523 295.855L16.1274 298.55L70.4763 306.891L70.9011 304.196L16.5523 295.855Z" fill="#D4EDFC"/>
<path d="M18.3362 284.319L17.9111 287.014L72.26 295.361L72.6851 292.666L18.3362 284.319Z" fill="#D4EDFC"/>
<path d="M20.0672 273.042L19.6421 275.737L73.991 284.083L74.4161 281.389L20.0672 273.042Z" fill="#D4EDFC"/>
<path d="M22.1128 261.524L21.688 264.219L76.0368 272.56L76.4617 269.866L22.1128 261.524Z" fill="#D4EDFC"/>
<path d="M23.0269 234.531L99.0366 217.896L121.701 317.709L73.6079 328.345L39.058 305.709L23.0269 234.531Z" fill="#F39325"/>
<path d="M38.7859 305.982L67.255 299.709L73.6122 328.344" fill="#D4EDFC"/>
<path d="M107.203 304.483L76.1804 311.31L76.7821 313.972L107.805 307.145L107.203 304.483Z" fill="#D4EDFC"/>
<path d="M105.021 294.366L73.9983 301.193L74.6 303.855L105.623 297.027L105.021 294.366Z" fill="#D4EDFC"/>
<path d="M102.227 282.62L46.1157 294.969L46.7174 297.63L102.829 285.281L102.227 282.62Z" fill="#D4EDFC"/>
<path d="M99.411 270.653L43.2998 283.002L43.9015 285.663L100.013 273.314L99.411 270.653Z" fill="#D4EDFC"/>
<path d="M96.6573 258.942L40.5461 271.291L41.1479 273.953L97.259 261.604L96.6573 258.942Z" fill="#D4EDFC"/>
<path d="M94.1718 247.184L38.0605 259.533L38.6623 262.195L94.7735 249.846L94.1718 247.184Z" fill="#D4EDFC"/>
<path d="M91.4181 235.473L35.3069 247.822L35.9086 250.484L92.0198 238.135L91.4181 235.473Z" fill="#D4EDFC"/>
<path d="M203.794 110.453L270.13 55.6372C271.512 54.5464 273.447 54.5464 274.553 55.6372C277.317 58.0917 282.015 62.4551 284.227 66.5458C285.056 67.9093 284.779 69.8183 283.397 70.9092L214.85 135.542L203.794 110.453Z" fill="#623D91"/>
<path d="M214.854 109.36C214.854 109.36 226.462 120.814 224.251 140.995C223.698 146.995 221.211 152.449 217.618 157.085L159.574 230.99C158.192 232.627 156.257 233.717 154.046 233.99C145.477 235.081 122.813 236.99 106.782 231.808C105.4 231.263 104.847 229.899 105.676 228.809L158.468 137.177L190.53 100.36C190.53 100.36 205.732 95.1789 214.854 109.36Z" fill="#623D91"/>
<path d="M142.152 205.899C141.876 205.899 141.6 205.899 141.6 205.626C141.047 205.354 141.047 204.536 141.323 204.263C141.876 203.717 191.904 137.175 195.221 128.994C198.261 121.631 191.075 115.904 190.799 115.631C190.246 115.358 190.246 114.54 190.522 113.995C190.799 113.449 191.628 113.449 192.181 113.722C192.181 113.722 201.025 120.813 197.432 129.812C193.839 138.266 145.193 202.899 143.258 205.626C142.982 205.899 142.705 205.899 142.152 205.899Z" fill="#9D7EB8"/>
<path d="M140.497 206.722L116.174 236.72C116.174 236.72 112.581 256.083 109.541 258.81C106.5 261.537 97.6557 263.173 95.1681 258.81C93.2333 254.992 92.4041 250.901 92.1277 250.083L100.143 253.355C100.143 253.355 99.8669 252.265 99.8669 250.628C99.8669 250.356 99.8669 250.356 99.8669 250.083C99.5905 248.719 99.3141 247.083 99.3141 244.901C99.0377 241.356 99.5905 236.993 102.354 235.084C107.606 230.993 108.988 230.448 108.988 230.448L123.084 200.176C122.532 199.631 132.482 205.903 140.497 206.722Z" fill="#A96955"/>
<path d="M32.151 196.624C30.769 196.896 29.9398 198.26 30.769 199.623C33.5329 205.35 41.8249 217.623 58.9617 213.805C80.7972 208.896 147.686 158.989 162.611 145.353C177.813 131.718 197.714 114.81 207.664 117.264C217.338 119.718 211.534 113.991 204.9 109.628C199.649 106.083 196.885 101.447 198.267 100.083C198.267 100.083 198.543 99.8103 198.267 99.5376C198.267 99.2649 197.99 99.2649 197.99 99.2649C193.568 98.7194 183.341 98.7194 169.798 106.083C151.555 115.9 62.8312 149.717 33.2565 139.899C32.151 139.626 31.0454 140.172 30.769 141.263C29.6634 147.808 27.7286 168.807 45.1417 192.26C44.8653 192.26 38.2317 195.533 32.151 196.624Z" fill="#F39325"/>
<path d="M217.615 74.716L200.202 98.9875C199.096 100.624 199.096 102.805 200.478 104.169C202.69 106.623 206.836 110.169 210.982 110.987C212.364 111.26 213.746 110.714 214.298 109.623L223.42 95.7149C223.696 95.4422 225.631 73.3524 217.615 74.716Z" fill="#A96955"/>
<path d="M222.593 54.542C222.87 54.8147 237.519 82.9042 237.519 82.9042L221.211 90.8129L203.522 66.2687C203.245 66.2687 216.513 49.0877 222.593 54.542Z" fill="#A96955"/>
<path d="M210.429 66.8101C210.152 67.6283 210.152 68.4464 210.705 68.9918L218.997 82.3548C218.997 82.6275 219.273 82.6275 219.55 82.9002C220.655 83.7183 223.972 86.4455 226.46 82.9002C228.671 79.9004 230.606 77.1732 232.817 76.0824C234.199 75.5369 235.581 76.0824 236.41 77.1732C237.792 79.9004 240.28 85.0819 241.938 90.2635C242.215 91.627 241.662 92.9906 240.556 93.536C237.239 94.8996 230.606 97.354 224.801 98.1722C223.972 98.1722 222.867 97.8994 222.314 97.0813C219.826 93.8087 212.64 84.2638 210.429 81.8094C208.217 79.6276 204.072 80.4458 202.137 80.9912C201.308 81.2639 200.755 80.9912 199.926 80.7185C197.991 79.6276 194.674 76.9005 197.714 71.9917C198.544 70.9008 197.991 69.2645 196.885 68.4464C194.674 67.0828 192.463 64.6284 194.674 60.265C196.885 56.1743 200.755 55.6289 203.519 55.9016C204.624 56.1743 206.006 55.3561 206.283 54.2653C206.559 53.7199 206.836 53.4471 207.665 53.1744C209.047 52.9017 209.876 51.5382 209.6 50.1746C209.047 47.7202 209.599 44.7203 213.469 42.5386C220.655 38.7206 226.736 44.993 228.395 50.1746C230.053 55.3561 222.037 59.1741 217.062 59.7196C213.193 60.8104 211.258 64.9011 210.429 66.8101Z" fill="black"/>
<path d="M213.193 86.7203C213.193 86.7203 210.153 77.7207 206.007 77.9934C201.861 78.2662 198.82 82.3569 203.795 86.7203C209.876 92.1746 213.193 86.7203 213.193 86.7203Z" fill="#A96955"/>
<path d="M338.949 8.99731H329.828V13.9062H338.949V8.99731Z" fill="#F39325"/>
</svg>
