<svg width="43" height="43" viewBox="0 0 43 43" fill="none" xmlns="http://www.w3.org/2000/svg">
<path d="M40.8887 10.6667V3.55561C40.8887 3.08411 40.7014 2.63193 40.368 2.29853C40.0346 1.96513 39.5824 1.77783 39.1109 1.77783H3.55537C3.08387 1.77783 2.63168 1.96513 2.29829 2.29853C1.96489 2.63193 1.77759 3.08411 1.77759 3.55561V10.6667H40.8887Z" fill="#F39325"/>
<path d="M1.77759 14.2227V39.1115C1.77759 39.583 1.96489 40.0352 2.29829 40.3686C2.63168 40.702 3.08387 40.8893 3.55537 40.8893H12.4443V14.2227H1.77759Z" fill="#2D2F7B"/>
<path d="M16 40.8893H39.1111C39.5826 40.8893 40.0348 40.702 40.3682 40.3686C40.7016 40.0352 40.8889 39.583 40.8889 39.1115V14.2227H16V40.8893Z" fill="#623D91"/>
</svg>
