<svg width="20" height="21" viewBox="0 0 20 21" fill="none" xmlns="http://www.w3.org/2000/svg">
<path d="M10 0.5C4.47715 0.5 0 4.97715 0 10.5C0 16.0228 4.47715 20.5 10 20.5C15.5228 20.5 20 16.0228 20 10.5C19.9936 4.97982 15.5202 0.506429 10 0.5Z" fill="#5243C2" fill-opacity="0.103693"/>
<path d="M15.7727 7.33331L10.0685 15.0741C9.93246 15.2546 9.7296 15.3729 9.50552 15.4024C9.28143 15.4318 9.0549 15.37 8.87683 15.2308L4.8035 11.9741C4.44405 11.6865 4.38585 11.1619 4.6735 10.8025C4.96115 10.443 5.48572 10.3848 5.84516 10.6725L9.24183 13.39L14.431 6.34748C14.6012 6.09214 14.8979 5.95096 15.2033 5.98001C15.5088 6.00906 15.7736 6.20362 15.8926 6.48646C16.0116 6.76929 15.9655 7.09463 15.7727 7.33331Z" fill="#5243C2"/>
</svg>
