<svg width="43" height="43" viewBox="0 0 43 43" fill="none" xmlns="http://www.w3.org/2000/svg">
<path d="M15.9998 17.7778H3.55537C3.08387 17.7778 2.63168 17.5905 2.29829 17.2571C1.96489 16.9237 1.77759 16.4715 1.77759 16.0001V3.55561C1.77759 3.08411 1.96489 2.63193 2.29829 2.29853C2.63168 1.96513 3.08387 1.77783 3.55537 1.77783H15.9998C16.4713 1.77783 16.9235 1.96513 17.2569 2.29853C17.5903 2.63193 17.7776 3.08411 17.7776 3.55561V16.0001C17.7776 16.4715 17.5903 16.9237 17.2569 17.2571C16.9235 17.5905 16.4713 17.7778 15.9998 17.7778Z" fill="#623D91"/>
<path d="M15.9998 40.8892H3.55537C3.08387 40.8892 2.63168 40.7019 2.29829 40.3685C1.96489 40.0351 1.77759 39.5829 1.77759 39.1114V26.6669C1.77759 26.1954 1.96489 25.7433 2.29829 25.4099C2.63168 25.0765 3.08387 24.8892 3.55537 24.8892H15.9998C16.4713 24.8892 16.9235 25.0765 17.2569 25.4099C17.5903 25.7433 17.7776 26.1954 17.7776 26.6669V39.1114C17.7776 39.5829 17.5903 40.0351 17.2569 40.3685C16.9235 40.7019 16.4713 40.8892 15.9998 40.8892Z" fill="#623D91"/>
<path d="M23.1111 3.55615H40.8889V7.11171H23.1111V3.55615Z" fill="#F39325"/>
<path d="M40.8889 26.6665H23.1111V30.2221H40.8889V26.6665Z" fill="#F39325"/>
<path d="M40.8889 35.5562H23.1111V39.1117H40.8889V35.5562Z" fill="#2D2F7B"/>
<path d="M40.8889 12.4448H23.1111V16.0004H40.8889V12.4448Z" fill="#2D2F7B"/>
</svg>
