<svg width="43" height="43" viewBox="0 0 43 43" fill="none" xmlns="http://www.w3.org/2000/svg">
<g clip-path="url(#clip0)">
<path d="M32 17.7776H42.6667L37.3333 10.6665L32 17.7776ZM32 24.8887H42.6667L37.3333 31.9998L32 24.8887Z" fill="#2D2F7B"/>
<path d="M1.77778 0H12.4444V42.6667H1.77778C1.30628 42.6667 0.854096 42.4794 0.520698 42.146C0.1873 41.8126 0 41.3604 0 40.8889V1.77778C0 1.30628 0.1873 0.854096 0.520698 0.520698C0.854096 0.1873 1.30628 0 1.77778 0Z" fill="#623D91"/>
<path d="M16 0H26.6667C27.1382 0 27.5903 0.1873 27.9237 0.520698C28.2571 0.854096 28.4444 1.30628 28.4444 1.77778V40.8889C28.4444 41.3604 28.2571 41.8126 27.9237 42.146C27.5903 42.4794 27.1382 42.6667 26.6667 42.6667H16V0Z" fill="#F39325"/>
</g>
<defs>
<clipPath id="clip0">
<rect width="42.6667" height="42.6667" fill="white"/>
</clipPath>
</defs>
</svg>
