<svg width="43" height="43" viewBox="0 0 43 43" fill="none" xmlns="http://www.w3.org/2000/svg">
<g clip-path="url(#clip0)">
<path d="M41.9557 2.13388C41.6002 1.77832 40.8891 1.77832 40.3557 1.77832L30.2224 4.80054V40.5339L41.4224 37.3339C42.1335 37.1561 42.6669 36.445 42.6669 35.5561V3.5561C42.6669 3.02276 42.4891 2.48943 41.9557 2.13388Z" fill="#2D2F7B"/>
<path d="M26.6667 4.80046L16 2.13379V37.8671L26.6667 40.5338V4.80046Z" fill="#F39325"/>
<path d="M12.4444 2.13379L1.24445 5.33379C0.533335 5.68934 0 6.40045 0 7.11157V39.1116C0 39.6449 0.177777 40.1782 0.71111 40.5338C1.06667 40.7116 1.42222 40.8893 1.77778 40.8893H2.31111L12.4444 37.8671V2.13379Z" fill="#623D91"/>
</g>
<defs>
<clipPath id="clip0">
<rect width="42.6667" height="42.6667" fill="white"/>
</clipPath>
</defs>
</svg>
