<svg width="43" height="43" viewBox="0 0 43 43" fill="none" xmlns="http://www.w3.org/2000/svg">
<g clip-path="url(#clip0)">
<path d="M20.2772 0.234575L1.04163 9.22124C0.911546 9.28089 0.801348 9.37667 0.724152 9.49717C0.646956 9.61767 0.606014 9.75782 0.606202 9.90092C0.606389 10.044 0.647696 10.1841 0.725207 10.3044C0.802718 10.4247 0.913167 10.5202 1.0434 10.5795L20.4301 19.5004C21.0025 19.7635 21.6638 19.7635 22.2363 19.5004L41.623 10.5795C41.7533 10.5203 41.8638 10.425 41.9415 10.3048C42.0192 10.1846 42.0607 10.0446 42.0611 9.90149C42.0614 9.75839 42.0207 9.61819 41.9436 9.49758C41.8666 9.37698 41.7565 9.28106 41.6265 9.22124L22.3892 0.234575C22.0586 0.0800751 21.6981 0 21.3332 0C20.9683 0 20.6078 0.0800751 20.2772 0.234575Z" fill="#623D91"/>
<path opacity="0.64" d="M41.6267 20.757L37.6533 18.901C37.3688 18.768 37.0587 18.6987 36.7446 18.6978C36.4305 18.6968 36.12 18.7644 35.8347 18.8957L22.2365 25.1534C21.9532 25.2837 21.6451 25.3511 21.3333 25.3511C21.0216 25.3511 20.7135 25.2837 20.4302 25.1534L6.83023 18.8957C6.54514 18.7646 6.23495 18.6972 5.9212 18.6982C5.60745 18.6991 5.29766 18.7683 5.01334 18.901L1.04001 20.757C0.910004 20.8168 0.799932 20.9127 0.722893 21.0333C0.645854 21.1539 0.605097 21.2941 0.605471 21.4372C0.605846 21.5803 0.647336 21.7203 0.725005 21.8405C0.802675 21.9607 0.91325 22.0561 1.04356 22.1152L20.4302 31.0343C20.7133 31.1653 21.0215 31.2331 21.3333 31.2331C21.6452 31.2331 21.9534 31.1653 22.2365 31.0343L41.6231 22.1152C41.7534 22.0561 41.864 21.9607 41.9417 21.8405C42.0194 21.7203 42.0608 21.5803 42.0612 21.4372C42.0616 21.2941 42.0208 21.1539 41.9438 21.0333C41.8668 20.9127 41.7567 20.8168 41.6267 20.757Z" fill="#2D2F7B"/>
<path d="M41.6267 32.192L37.6534 30.3359C37.3688 30.203 37.0587 30.1336 36.7446 30.1327C36.4305 30.1318 36.12 30.1993 35.8347 30.3306L22.2365 36.5866C21.9532 36.7169 21.6451 36.7843 21.3334 36.7843C21.0216 36.7843 20.7135 36.7169 20.4303 36.5866L6.83025 30.3288C6.54516 30.1978 6.23497 30.1304 5.92122 30.1314C5.60747 30.1323 5.29767 30.2015 5.01336 30.3342L1.04002 32.192C0.910522 32.252 0.800944 32.3479 0.724273 32.4683C0.647601 32.5887 0.60705 32.7286 0.607424 32.8713C0.607799 33.0141 0.649084 33.1537 0.726385 33.2737C0.803687 33.3937 0.913766 33.489 1.04358 33.5484L20.4303 42.4693C21.0027 42.7324 21.664 42.7324 22.2365 42.4693L41.6231 33.5484C41.753 33.489 41.863 33.3937 41.9403 33.2737C42.0176 33.1537 42.0589 33.0141 42.0593 32.8713C42.0597 32.7286 42.0191 32.5887 41.9424 32.4683C41.8658 32.3479 41.7562 32.252 41.6267 32.192Z" fill="#F39325"/>
</g>
<defs>
<clipPath id="clip0">
<rect width="42.6667" height="42.6667" fill="white"/>
</clipPath>
</defs>
</svg>
