<svg width="43" height="43" viewBox="0 0 43 43" fill="none" xmlns="http://www.w3.org/2000/svg">
<g clip-path="url(#clip0)">
<path d="M37.3334 42.6663H21.3334C20.8619 42.6663 20.4098 42.479 20.0764 42.1456C19.743 41.8122 19.5557 41.36 19.5557 40.8885V37.333C19.5557 36.8615 19.743 36.4093 20.0764 36.0759C20.4098 35.7425 20.8619 35.5552 21.3334 35.5552H37.3334C37.8049 35.5552 38.2571 35.7425 38.5905 36.0759C38.9239 36.4093 39.1112 36.8615 39.1112 37.333V40.8885C39.1112 41.36 38.9239 41.8122 38.5905 42.1456C38.2571 42.479 37.8049 42.6663 37.3334 42.6663Z" fill="#2D2F7B"/>
<path d="M37.3337 0H5.33369C4.86219 0 4.41 0.1873 4.07661 0.520698C3.74321 0.854096 3.55591 1.30628 3.55591 1.77778V5.33333C3.55591 5.80483 3.74321 6.25702 4.07661 6.59041C4.41 6.92381 4.86219 7.11111 5.33369 7.11111H37.3337C37.8052 7.11111 38.2574 6.92381 38.5908 6.59041C38.9242 6.25702 39.1115 5.80483 39.1115 5.33333V1.77778C39.1115 1.30628 38.9242 0.854096 38.5908 0.520698C38.2574 0.1873 37.8052 0 37.3337 0Z" fill="#F39325"/>
<path d="M37.3334 10.6665H5.33344C4.86195 10.6665 4.40976 10.8538 4.07636 11.1872C3.74296 11.5206 3.55566 11.9728 3.55566 12.4443V30.2221C3.55566 30.6936 3.74296 31.1457 4.07636 31.4791C4.40976 31.8125 4.86195 31.9998 5.33344 31.9998H37.3334C37.8049 31.9998 38.2571 31.8125 38.5905 31.4791C38.9239 31.1457 39.1112 30.6936 39.1112 30.2221V12.4443C39.1112 11.9728 38.9239 11.5206 38.5905 11.1872C38.2571 10.8538 37.8049 10.6665 37.3334 10.6665Z" fill="#623D91"/>
</g>
<defs>
<clipPath id="clip0">
<rect width="42.6667" height="42.6667" fill="white"/>
</clipPath>
</defs>
</svg>
