<svg width="43" height="43" viewBox="0 0 43 43" fill="none" xmlns="http://www.w3.org/2000/svg">
<path d="M8.8887 1.77832H3.55537C3.08387 1.77832 2.63168 1.96562 2.29829 2.29902C1.96489 2.63242 1.77759 3.0846 1.77759 3.5561V39.1117C1.77759 39.5831 1.96489 40.0353 2.29829 40.3687C2.63168 40.7021 3.08387 40.8894 3.55537 40.8894H8.8887V1.77832Z" fill="#2D2F7B"/>
<path d="M12.4443 40.8894H30.2221V1.77832H12.4443V40.8894ZM21.3332 33.7783C20.8617 33.7783 20.4095 33.591 20.0761 33.2576C19.7427 32.9242 19.5554 32.472 19.5554 32.0005C19.5554 31.529 19.7427 31.0769 20.0761 30.7435C20.4095 30.4101 20.8617 30.2228 21.3332 30.2228C21.8047 30.2228 22.2569 30.4101 22.5903 30.7435C22.9237 31.0769 23.111 31.529 23.111 32.0005C23.111 32.472 22.9237 32.9242 22.5903 33.2576C22.2569 33.591 21.8047 33.7783 21.3332 33.7783ZM21.3332 8.88943C21.8047 8.88943 22.2569 9.07673 22.5903 9.41013C22.9237 9.74353 23.111 10.1957 23.111 10.6672C23.111 11.1387 22.9237 11.5909 22.5903 11.9243C22.2569 12.2577 21.8047 12.445 21.3332 12.445C20.8617 12.445 20.4095 12.2577 20.0761 11.9243C19.7427 11.5909 19.5554 11.1387 19.5554 10.6672C19.5554 10.1957 19.7427 9.74353 20.0761 9.41013C20.4095 9.07673 20.8617 8.88943 21.3332 8.88943ZM21.3332 19.5561C21.8047 19.5561 22.2569 19.7434 22.5903 20.0768C22.9237 20.4102 23.111 20.8624 23.111 21.3339C23.111 21.8054 22.9237 22.2576 22.5903 22.591C22.2569 22.9244 21.8047 23.1117 21.3332 23.1117C20.8617 23.1117 20.4095 22.9244 20.0761 22.591C19.7427 22.2576 19.5554 21.8054 19.5554 21.3339C19.5554 20.8624 19.7427 20.4102 20.0761 20.0768C20.4095 19.7434 20.8617 19.5561 21.3332 19.5561Z" fill="#623D91"/>
<path d="M39.1109 1.77832H33.7776V40.8894H39.1109C39.5824 40.8894 40.0346 40.7021 40.368 40.3687C40.7014 40.0353 40.8887 39.5831 40.8887 39.1117V3.5561C40.8887 3.0846 40.7014 2.63242 40.368 2.29902C40.0346 1.96562 39.5824 1.77832 39.1109 1.77832Z" fill="#F39325"/>
</svg>
